<?xml version="1.0" encoding="UTF-8"?>
<svg id="Layer_1" xmlns="http://www.w3.org/2000/svg" version="1.1" viewBox="0 0 24 24">
  <!-- Generator: Adobe Illustrator 30.1.0, SVG Export Plug-In . SVG Version: 2.1.1 Build 136)  -->
  <defs>
    <style>
      .st0 {
        fill: none;
        stroke: #fff;
        stroke-linecap: round;
        stroke-linejoin: round;
        stroke-width: 2px;
      }
    </style>
  </defs>
  <path class="st0" d="M8,3c.5,0,2.5,4.5,2.5,5,0,1-1.5,2-2,3s.5,2,1.5,3,2,2,3,1.5,2-2,3-2,5,2,5,2.5c0,2-1.5,3.5-3,4s-2.5.5-4.5,0-3.5-1-6-3.5-3-4-3.5-6-.5-3,0-4.5,2-3,4-3Z"/>
  <path class="st0" d="M14,7c.7.3,1.3.7,1.8,1.2.5.5.9,1.1,1.2,1.7"/>
  <path class="st0" d="M15,3.2c1.4.4,2.7,1.1,3.7,2.1,1,1,1.7,2.2,2.1,3.7"/>
</svg>