<svg id="Layer_2" xmlns="http://www.w3.org/2000/svg" viewBox="0 0 210 106.33"><defs><style>.cls-1{fill:none;stroke:#000;stroke-linecap:round;stroke-linejoin:round;stroke-width:10px}</style></defs><g id="Icons"><path class="cls-1" d="M153.49 85.7H63.47M32.19 85.7H5V51.78c0-9.07 7.36-16.43 16.43-16.43h6.38c4.68 0 9.15-2 12.26-5.5l7.29-8.17C56.72 11.18 70.07 4.89 84.14 5c8.88.07 17.96 1.65 27.24 4.53 15.14 5.35 28.65 13.26 40.56 23.75 5.71 5.03 13.14 7.67 20.75 7.67h14.87c9.64 0 17.44 7.81 17.44 17.44V85.7h-20.22"/><circle class="cls-1" cx="47.83" cy="85.69" r="15.64"/><circle class="cls-1" cx="169.13" cy="85.69" r="15.64"/><path class="cls-1" d="M128.44 47.4h-16.55V35.35M84.19 47.4H67.64V36.67"/></g></svg>