<?xml version="1.0" encoding="UTF-8"?><svg id="Layer_2" xmlns="http://www.w3.org/2000/svg" viewBox="0 0 210 106.33"><defs><style>.cls-1{fill:none;stroke:#000;stroke-linecap:round;stroke-linejoin:round;stroke-width:10px;}</style></defs><g id="Icons"><line class="cls-1" x1="153.49" y1="85.7" x2="63.47" y2="85.7"/><path class="cls-1" d="M32.19,85.7H5v-33.92c0-9.07,7.36-16.43,16.43-16.43h6.38c4.68,0,9.15-2,12.26-5.5l7.29-8.17c9.36-10.5,22.71-16.79,36.78-16.68,8.88.07,17.96,1.65,27.24,4.53,15.14,5.35,28.65,13.26,40.56,23.75,5.71,5.03,13.14,7.67,20.75,7.67h14.87c9.64,0,17.44,7.81,17.44,17.44v27.31h-20.22"/><circle class="cls-1" cx="47.83" cy="85.69" r="15.64"/><circle class="cls-1" cx="169.13" cy="85.69" r="15.64"/><polyline class="cls-1" points="128.44 47.4 111.89 47.4 111.89 35.35"/><polyline class="cls-1" points="84.19 47.4 67.64 47.4 67.64 36.67"/></g></svg>