<?xml version="1.0" encoding="UTF-8"?>
<svg id="Layer_1" xmlns="http://www.w3.org/2000/svg" version="1.1" viewBox="0 0 4200 3500">
  <!-- Generator: Adobe Illustrator 30.2.1, SVG Export Plug-In . SVG Version: 2.1.1 Build 1)  -->
  <defs>
    <style>
      .st0 {
        fill: #fff;
      }
    </style>
  </defs>
  <g id="Layer_11" data-name="Layer_1">
    <rect class="st0" width="4200" height="3500"/>
    <g>
      <path d="M3454.3,1021.1c-11.1,4.8-94.5,0-94.5,0l-28.1,94-55.7-128.2s72.5-55.7,86.4-58.5c13.9-2.7,164.4,0,164.4,0,0,0-61.4,88-72.5,92.8h0Z"/>
      <path d="M2969.3,1021.1s-83.3,4.8-94.5,0c-11.1-4.8-72.5-92.8-72.5-92.8,0,0,150.5-2.7,164.4,0,13.9,2.7,86.4,58.5,86.4,58.5l-55.7,128.2-28.1-94h0Z"/>
      <path d="M3833.4,725s75.3-30.7,156,25c-36.2-153.3-262-418-613.1-267.5,8.4-44.6,86.4-153.3,317.7-142.1-142.1-111.4-390-114.2-529.4,44.6-139.4-158.8-387.3-156-529.4-44.6,231.3-11.1,309.3,97.6,317.7,142.1-351.1-150.5-576.7,114.2-613.1,267.5,80.8-55.7,156-25,156-25-264.7,206.2-292.7,401.2-259.1,568.5,78-231.3,275.9-298.1,275.9-298.1-303.6,384.5-167.2,677-131,752.3,22.1-290.3,186.9-358.3,189.4-359.3-197.8,398.4-16.6,565.6,83.7,679.8-58.5-312,72.5-451.4,72.5-451.4-30.7,415.2,161.7,549,161.7,549-16.6-209,39.1-284.3,39.1-284.3,75.3,264.7,236.8,430.5,236.8,430.5,0,0,161.7-165.8,236.8-430.5,0,0,55.7,75.3,39.1,284.3,0,0,192.2-133.7,161.7-549,0,0,131,139.4,72.5,451.4,100.3-114.2,281.3-281.3,83.7-679.8,2.6,1,167.3,69.1,189.4,359.3,36.2-75.3,172.8-367.7-131-752.3,0,0,197.8,66.9,275.9,298.1,33.4-167.2,5.7-362.3-259.1-568.5h-.3ZM2950.1,1574.8s117.1-66.9,214.5-66c97.6-1,214.5,66,214.5,66,0,0-83.7,128.2-103,133.7-19.5,5.5-111.4,0-111.4,0,0,0-91.9,5.5-111.4,0-19.5-5.7-103-133.7-103-133.7ZM3677.4,1209.8c-11.1,13.9-86.4,100.3-111.4,111.4-25,11.1-55.7,0-66.9,19.5-11.1,19.5,0,91.9-25,122.6-25,30.7-83.5,50.2-117.1,44.6-33.4-5.5-133.7-47.3-150.5-64.1-16.8-16.6-16.8-80.7-8.4-86.4,8.4-5.5,78-30.7,97.6-53,19.5-22.3,36.2-66.9,5.7-75.3-30.7-8.4-136.5-5.5-136.5-5.5,0,0-106-2.7-136.5,5.5-30.7,8.4-13.9,53,5.7,75.3,19.5,22.3,89.2,47.3,97.6,53,8.4,5.7,8.4,69.6-8.4,86.4-16.6,16.8-117.1,58.5-150.5,64.1-33.4,5.7-91.9-13.9-117.1-44.6-25-30.7-13.9-103-25-122.6-11.1-19.5-41.8-8.4-66.9-19.5-25-11.1-100.3-97.6-111.4-111.4-11.1-13.9-36.2-53-13.9-103,22.3-50.2,122.6-242.4,117.1-259.1-19.5-16.8-106-114.2-117.1-181.7,39.1-50.7,131-80.2,239.7,20.1,0,0,36.2-41.8,111.4-53s144.9,66.9,175.6,66.9,100.3-78,175.6-66.9,111.4,53,111.4,53c108.7-100.3,200.6-70.8,239.7-20.1-11.1,67.4-97.6,164.9-117.1,181.7-5.5,16.6,94.8,209,117.1,259.1,22.3,50.2-2.7,89.2-13.9,103h-.3Z"/>
      <path d="M84.8,1028.3h0c0-253.7,202.6-461,456.4-466.7l309.6-6.9c160-182.6,334.7-149.2,401.5-101,66.9,48.3,219.3-38.1,219.3-38.1-85.4,435.6-423.3,467-639,305.5h-293.3c-156,0-282.5,126.5-282.5,282.5h0c0,156,126.5,282.5,282.5,282.5h958.4c193.2,0,442.2-15.3,650.1-171.3,0,0-26.1,182.1,51.9,356.6,0,0,22.3-40.8,44.6-55.7,0,0-40.8,248.9,159.8,523.8,0,0,3.8-59.5,26.1-89.2,0,0,58.8,202.1,289.7,324.9v-61.2l.2.3h0c7.4,8.6,122.6,141.4,244.8,164.9,0,0-14.9-61.4-14.9-113.3,0,0,74.2,122.6,214.5,226.6,0,0,111.4-29.7,201.6-197,0,0,13,74.2-10.8,135.6,0,0,171.6-50.6,241.2-224.8l-5.8,167.2c7.4,147.8,35.3,473.7,142.3,693.8,58.5-36.2,217.4-25,275.9,25,54,46.3,89.3,118.8,94.3,226.3.7,14.9-11.1,27.3-26.1,27.3h-587.9c-20.1,0-38.9-9.8-50.6-26.2l-368.9-705.1c-58.6,43.2-169.4,109.9-252,158.4-71,111.8-136.8,225.4-145.2,274.1,67.2-2.2,146.1,13.9,183.8,46.1,52.6,45.1,87.3,114.9,93.8,217.6,1.2,19.5-14.4,36-33.9,36h-470.3c-28.1,0-53.5-16.6-64.5-42.3-67.4-157.7-27.4-400.8-44.2-659.9-148.5,14.9-375.3-18.5-568.5-208.1-176.1-172.8-300.9-159.8-300.9-159.8,122.6-260.1,0-466.5,0-466.5,8.2,448.3-289.7,715.4-505.2,838-215.5,122.6-404.9,114.2-442.2,172.3-37.2,58.1-59.5,210.4-59.5,228.9l29.5,8.4c62.4-3.9,130,5.5,163.6,34.3,54,46.3,89.2,118.8,94.3,226.1.7,14.9-11.3,27.4-26.2,27.4H252.8c-75.6,0-138.2-58.6-143.2-134.1-12.9-196-32.6-543.5-16.1-599,23.1-78,140.6-94.5,211-154,70.6-59.5,215.5-245.2,241.6-427.2,26.1-182.1,130-393.8,185.8-442.2l-167.8,4.6c-262.7,7.2-479.5-203.8-479.5-466.7l.2.9Z"/>
      <path d="M1263.3,2474.7c70.6-55.7,178.3-211.7,178.3-211.7,237.8,48.9,297.3,234,404.9,248.9-100.3,133.7-263.9,167.2-297.3,241.6-33.4,74.2,66.9,241.6,118.8,241.6s104.1-44.6,219.3,0c115.2,44.6,156,185.8,156,252.7h-572.1s-371.5-450.7-397.6-513.3c-26.1-62.6,118.8-203.7,189.4-259.4l.2-.3Z"/>
    </g>
  </g>
</svg>