<svg width="24" height="24" viewBox="0 0 24 24" fill="none" xmlns="http://www.w3.org/2000/svg">
<path d="M8 3C8.5 3 10.5 7.5 10.5 8C10.5 9 9 10 8.5 11C8 12 9 13 10 14C10.39 14.39 12 16 13 15.5C14 15 15 13.5 16 13.5C16.5 13.5 21 15.5 21 16C21 18 19.5 19.5 18 20C16.5 20.5 15.5 20.5 13.5 20C11.5 19.5 10 19 7.5 16.5C5 14 4.5 12.5 4 10.5C3.5 8.5 3.5 7.5 4 6C4.5 4.5 6 3 8 3Z" stroke="#00AFEF" stroke-width="2" stroke-linecap="round" stroke-linejoin="round"/>
<path d="M14 7.03999C14.66 7.34999 15.26 7.76999 15.76 8.27999C16.25 8.76999 16.66 9.35999 16.96 9.99999" stroke="#00AFEF" stroke-width="2" stroke-linecap="round" stroke-linejoin="round"/>
<path d="M15 3.25C16.41 3.62 17.67 4.35 18.67 5.35C19.66 6.35 20.39 7.6 20.75 9" stroke="#00AFEF" stroke-width="2" stroke-linecap="round" stroke-linejoin="round"/>
</svg>
