<svg width="267" height="60" viewBox="0 0 267 60" fill="none" xmlns="http://www.w3.org/2000/svg">
<path d="M77.331 14.0983C79.5545 14.0983 81.3953 14.6827 82.853 15.8514C84.3107 17.0201 85.2538 18.6004 85.682 20.5922H81.2101C80.8808 19.7857 80.3742 19.1517 79.6905 18.691C79.007 18.23 78.196 17.9996 77.2569 17.9996C76.0217 17.9996 75.0249 18.4523 74.2674 19.3576C73.5099 20.2629 73.1308 21.4728 73.1308 22.9873C73.1308 24.5015 73.5096 25.7074 74.2674 26.6045C75.0249 27.5015 76.0217 27.9503 77.2569 27.9503C78.1959 27.9503 79.0071 27.72 79.6905 27.2589C80.3743 26.7981 80.8806 26.1725 81.2101 25.3824H85.682C85.2538 27.3576 84.3109 28.9338 82.853 30.1108C81.3953 31.2876 79.5546 31.8763 77.331 31.8763C75.6345 31.8763 74.144 31.5018 72.859 30.7529C71.5743 30.0037 70.5818 28.9544 69.882 27.6047C69.1819 26.255 68.832 24.7158 68.832 22.9876C68.832 21.259 69.1818 19.7201 69.882 18.3701C70.5821 17.0201 71.5743 15.9709 72.859 15.222C74.1438 14.4729 75.6345 14.0986 77.331 14.0986V14.0983ZM93.755 17.7773C95.1222 17.7773 96.3452 18.0613 97.4238 18.6291C98.5027 19.1969 99.3508 20.0159 99.9685 21.0858C100.586 22.1557 100.895 23.4069 100.895 24.839C100.895 26.2711 100.586 27.5219 99.9685 28.5922C99.3508 29.6622 98.5025 30.4812 97.4238 31.0489C96.345 31.6168 95.1219 31.9007 93.755 31.9007C92.3879 31.9007 91.161 31.6167 90.0737 31.0489C88.9868 30.4811 88.1342 29.6621 87.5166 28.5922C86.8989 27.5222 86.5901 26.2711 86.5901 24.839C86.5901 23.4069 86.8989 22.1557 87.5166 21.0858C88.1342 20.0158 88.9865 19.1968 90.0737 18.6291C91.161 18.0612 92.3879 17.7773 93.755 17.7773ZM93.755 21.4317C92.948 21.4317 92.2684 21.724 91.7166 22.3082C91.1649 22.8927 90.889 23.7362 90.889 24.8391C90.889 25.942 91.1651 26.7814 91.7166 27.3575C92.2684 27.9337 92.948 28.2217 93.755 28.2217C94.562 28.2217 95.2375 27.9337 95.7809 27.3575C96.3244 26.7813 96.5962 25.9419 96.5962 24.8391C96.5962 23.7361 96.3244 22.8924 95.7809 22.3082C95.2375 21.724 94.5621 21.4317 93.755 21.4317ZM120.21 17.8021C121.906 17.8021 123.241 18.3247 124.212 19.3699C125.184 20.4151 125.67 21.8678 125.67 23.7279V31.7281H121.47V24.2217C121.47 23.3492 121.235 22.6702 120.766 22.1845C120.296 21.6988 119.658 21.4561 118.851 21.4561C118.011 21.4561 117.348 21.7152 116.862 22.2341C116.376 22.7525 116.133 23.4811 116.133 24.4192V31.7279H111.908V24.2215C111.908 23.349 111.678 22.67 111.217 22.1844C110.755 21.6986 110.121 21.4559 109.314 21.4559C108.474 21.4559 107.807 21.711 107.313 22.2214C106.819 22.7318 106.572 23.4642 106.572 24.419V31.7277H102.347V17.9497H106.572V20.2955C106.934 19.5217 107.49 18.9127 108.239 18.4684C108.989 18.024 109.866 17.8017 110.871 17.8017C111.925 17.8017 112.855 18.0445 113.662 18.5301C114.469 19.0159 115.079 19.7114 115.491 20.6164C115.968 19.7604 116.623 19.0774 117.455 18.5671C118.287 18.0567 119.205 17.8016 120.21 17.8016L120.21 17.8023L120.21 17.8021ZM145.602 17.8021C147.299 17.8021 148.633 18.3247 149.605 19.3699C150.576 20.4151 151.062 21.8678 151.062 23.7279V31.7281H146.862V24.2217C146.862 23.3492 146.627 22.6702 146.158 22.1845C145.689 21.6988 145.05 21.4561 144.243 21.4561C143.403 21.4561 142.74 21.7152 142.254 22.2341C141.768 22.7525 141.525 23.4811 141.525 24.4192V31.7279H137.301V24.2215C137.301 23.349 137.07 22.67 136.609 22.1844C136.148 21.6986 135.514 21.4559 134.707 21.4559C133.867 21.4559 133.2 21.711 132.705 22.2214C132.211 22.7318 131.964 23.4642 131.964 24.419V31.7277H127.739V17.9497H131.964V20.2955C132.326 19.5217 132.882 18.9127 133.632 18.4684C134.381 18.024 135.258 17.8017 136.263 17.8017C137.317 17.8017 138.248 18.0445 139.055 18.5301C139.862 19.0159 140.471 19.7114 140.883 20.6164C141.361 19.7604 142.015 19.0774 142.847 18.5671C143.679 18.0567 144.598 17.8016 145.602 17.8016L145.602 17.8023L145.602 17.8021ZM166.226 24.4689C166.226 24.8146 166.185 25.1932 166.103 25.6048H156.541C156.591 26.642 156.854 27.3869 157.332 27.8393C157.809 28.2919 158.419 28.5182 159.16 28.5182C159.786 28.5182 160.305 28.3618 160.717 28.0491C161.129 27.7363 161.4 27.3331 161.532 26.8392H166.004C165.823 27.8104 165.427 28.6789 164.818 29.4443C164.208 30.2098 163.434 30.8106 162.495 31.2466C161.556 31.6828 160.51 31.901 159.357 31.901C158.007 31.901 156.809 31.617 155.763 31.0492C154.717 30.4814 153.897 29.6624 153.305 28.5925C152.712 27.5225 152.415 26.2714 152.415 24.8393C152.415 23.3906 152.708 22.1355 153.292 21.0739C153.877 20.012 154.696 19.1971 155.75 18.6293C156.804 18.0614 158.007 17.7775 159.357 17.7775C160.725 17.7775 161.927 18.0572 162.965 18.6171C164.002 19.1766 164.805 19.9629 165.373 20.9751C165.941 21.9872 166.226 23.152 166.226 24.4688H166.226L166.226 24.4689ZM161.952 23.8268C161.969 22.9215 161.726 22.2424 161.223 21.7897C160.721 21.337 160.099 21.1106 159.358 21.1106C158.584 21.1106 157.941 21.3412 157.431 21.802C156.92 22.2629 156.632 22.9379 156.566 23.8266H161.952V23.8268ZM171.903 20.543C172.43 19.7034 173.109 19.0368 173.942 18.5427C174.773 18.049 175.675 17.802 176.647 17.802V22.3207H175.436C174.316 22.3207 173.448 22.5594 172.83 23.0367C172.212 23.5139 171.903 24.3206 171.903 25.4566V31.7282H167.678V17.9502H171.903V20.543ZM183.905 17.7776C185.684 17.7776 187.174 18.2672 188.377 19.2466C189.579 20.226 190.337 21.5718 190.65 23.2837H186.178C186.046 22.6911 185.774 22.2302 185.362 21.901C184.951 21.5717 184.432 21.4073 183.806 21.4073C183.065 21.4073 182.455 21.6996 181.978 22.2838C181.5 22.8683 181.261 23.7201 181.261 24.8394C181.261 25.9588 181.5 26.8105 181.978 27.395C182.455 27.9795 183.065 28.2715 183.806 28.2715C184.432 28.2715 184.951 28.1069 185.362 27.7778C185.774 27.4486 186.046 26.9877 186.178 26.395H190.65C190.337 28.1069 189.579 29.4527 188.377 30.4321C187.174 31.4116 185.684 31.9012 183.905 31.9012C182.554 31.9012 181.356 31.6172 180.31 31.0494C179.264 30.4817 178.445 29.6626 177.852 28.5927C177.259 27.5227 176.962 26.2716 176.962 24.8395C176.962 23.3908 177.255 22.1357 177.839 21.0741C178.424 20.0122 179.243 19.1973 180.298 18.6295C181.352 18.0616 182.554 17.7777 183.905 17.7777V17.7775V17.7776ZM191.706 14.0738C191.706 13.4319 191.937 12.9008 192.398 12.481C192.859 12.0613 193.469 11.8516 194.226 11.8516C194.984 11.8516 195.594 12.0614 196.055 12.481C196.516 12.9009 196.747 13.4316 196.747 14.0738C196.747 14.6993 196.516 15.222 196.055 15.6416C195.594 16.0614 194.984 16.2714 194.226 16.2714C193.469 16.2714 192.859 16.0616 192.398 15.6416C191.937 15.2217 191.706 14.699 191.706 14.0738ZM196.326 17.9502V31.7282H192.102V17.9502H196.326ZM203.733 17.7773C204.787 17.7773 205.693 18.016 206.45 18.4933C207.208 18.9707 207.768 19.621 208.13 20.4438V17.9498H212.331V31.7278H208.13V29.2337C207.768 30.057 207.208 30.7072 206.45 31.1843C205.693 31.6616 204.787 31.9003 203.733 31.9003C202.596 31.9003 201.579 31.6163 200.681 31.0485C199.784 30.4808 199.076 29.6617 198.557 28.5918C198.038 27.5218 197.778 26.2707 197.778 24.8386C197.778 23.3899 198.038 22.1348 198.557 21.0732C199.076 20.0113 199.784 19.1964 200.681 18.6286C201.579 18.0607 202.596 17.7768 203.733 17.7768V17.7771V17.7773ZM205.091 21.4811C204.186 21.4811 203.457 21.7773 202.905 22.3701C202.353 22.9627 202.077 23.7858 202.077 24.8394C202.077 25.8929 202.354 26.7159 202.905 27.3084C203.457 27.901 204.186 28.1973 205.091 28.1973C205.981 28.1973 206.71 27.893 207.278 27.2836C207.846 26.6745 208.13 25.8598 208.13 24.839C208.13 23.8019 207.846 22.9828 207.278 22.3823C206.71 21.7814 205.981 21.481 205.091 21.481V21.4811ZM218.724 13.4562V31.7281H214.499V13.4562H218.724Z" fill="#0241A6"/>
<path d="M72.866 36.9008V40.1031H68.3426V53.548H64.2902V40.1031H59.8136V36.9008H72.866ZM77.8789 42.8815C78.3815 42.0808 79.0293 41.4452 79.8225 40.9743C80.6157 40.5034 81.4756 40.2679 82.4026 40.2679V44.5768H81.2482C80.1801 44.5768 79.3516 44.8045 78.7627 45.2595C78.1736 45.7148 77.8791 46.4839 77.8791 47.5672V53.5478H73.8503V40.4089H77.8791V42.8813L77.8789 42.8815H77.8789ZM96.4626 40.4091V53.548H92.4103V51.1699C92.0334 51.9389 91.4718 52.5513 90.7257 53.0063C89.9795 53.4615 89.1116 53.6891 88.1221 53.6891C86.6142 53.6891 85.4168 53.1868 84.529 52.182C83.6416 51.1773 83.1979 49.7959 83.1979 48.0378V40.4087H87.203V47.5432C87.203 48.4379 87.4347 49.1326 87.8982 49.6271C88.3616 50.1216 88.986 50.3689 89.7714 50.3689C90.5881 50.3689 91.2321 50.1099 91.7034 49.5918C92.1746 49.0738 92.4102 48.3359 92.4102 47.3783V40.4087H96.4625L96.4626 40.4089V40.4091ZM104.467 40.2442C106.164 40.2442 107.585 40.7112 108.732 41.6452C109.878 42.5794 110.601 43.8625 110.899 45.495H106.635C106.509 44.9301 106.25 44.4903 105.857 44.1766C105.465 43.8628 104.97 43.7057 104.373 43.7057C103.666 43.7057 103.085 43.9844 102.629 44.5416C102.174 45.0988 101.946 45.9113 101.946 46.9786C101.946 48.046 102.174 48.8584 102.629 49.4156C103.085 49.9728 103.666 50.2515 104.373 50.2515C104.97 50.2515 105.465 50.0945 105.857 49.7806C106.25 49.4667 106.509 49.0271 106.635 48.4622H110.899C110.601 50.0948 109.878 51.3781 108.732 52.312C107.585 53.2461 106.164 53.713 104.467 53.713C103.18 53.713 102.037 53.4424 101.04 52.9008C100.042 52.3592 99.2609 51.5784 98.6953 50.5579C98.1296 49.5376 97.8472 48.3444 97.8472 46.9789C97.8472 45.5975 98.1261 44.4004 98.6836 43.388C99.2411 42.3754 100.022 41.5983 101.028 41.057C102.033 40.5154 103.18 40.2448 104.468 40.2448L104.468 40.2442H104.467ZM120.247 53.5479L116.313 47.9674V53.5479H112.284V36.1236H116.313V45.6833L120.247 40.4091H124.983L119.682 46.9786L125.101 53.548H120.247H120.247V53.5479ZM125.472 36.7125C125.472 36.1001 125.692 35.594 126.132 35.1938C126.572 34.7937 127.153 34.5935 127.875 34.5935C128.598 34.5935 129.179 34.7937 129.619 35.1938C130.059 35.594 130.279 36.1004 130.279 36.7125C130.279 37.3089 130.059 37.8074 129.619 38.2075C129.179 38.6076 128.598 38.8078 127.875 38.8078C127.153 38.8078 126.572 38.6076 126.132 38.2075C125.692 37.8074 125.472 37.3089 125.472 36.7125ZM129.878 40.4092V53.5482H125.849V40.4092H129.878ZM140.286 40.2681C141.794 40.2681 142.992 40.7704 143.879 41.7751C144.767 42.7798 145.21 44.1609 145.21 45.9193V53.5482H141.182V46.3902C141.182 45.5111 140.95 44.8244 140.487 44.3299C140.023 43.8354 139.407 43.5881 138.637 43.5881C137.821 43.5881 137.173 43.847 136.694 44.3652C136.215 44.8833 135.975 45.621 135.975 46.5786V53.5483H131.946V40.4093H135.975V42.811C136.352 42.0261 136.914 41.406 137.66 40.951C138.406 40.4957 139.281 40.2682 140.287 40.2682L140.286 40.2681H140.286ZM152.155 40.2444C153.16 40.2444 154.024 40.4721 154.747 40.9271C155.469 41.3824 156.003 42.0022 156.349 42.7871V40.4091H160.354V53.4773C160.354 54.7017 160.118 55.8044 159.647 56.7856C159.176 57.7666 158.453 58.5477 157.479 59.1285C156.506 59.7094 155.296 59.9999 153.851 59.9999C151.872 59.9999 150.289 59.5329 149.104 58.5989C147.918 57.665 147.207 56.3975 146.971 54.7961H150.953C151.079 55.3299 151.365 55.7459 151.813 56.0441C152.261 56.3423 152.846 56.4915 153.568 56.4915C154.401 56.4915 155.072 56.2521 155.583 55.7735C156.093 55.2948 156.348 54.5293 156.348 53.4776V51.1701C156.003 51.955 155.469 52.5749 154.746 53.0301C154.024 53.4854 153.16 53.7128 152.155 53.7128C151.071 53.7128 150.101 53.4422 149.245 52.9006C148.389 52.359 147.714 51.5782 147.219 50.5577C146.724 49.5374 146.477 48.3442 146.477 46.9787C146.477 45.5973 146.724 44.4002 147.219 43.3878C147.714 42.3752 148.389 41.5981 149.245 41.0568C150.101 40.5152 151.071 40.2446 152.155 40.2446L152.155 40.2443L152.155 40.2444ZM153.451 43.7763C152.587 43.7763 151.892 44.0589 151.366 44.6239C150.84 45.1892 150.577 45.9739 150.577 46.9785C150.577 47.9832 150.84 48.7678 151.366 49.3331C151.892 49.8981 152.587 50.1807 153.451 50.1807C154.299 50.1807 154.994 49.8903 155.536 49.3094C156.078 48.7285 156.349 47.9515 156.349 46.9784C156.349 45.9893 156.078 45.2085 155.536 44.6355C154.994 44.0625 154.299 43.7759 153.451 43.7759V43.7763Z" fill="#00AFEF"/>
<path fill-rule="evenodd" clip-rule="evenodd" d="M55.2205 26.6335C53.7626 26.8334 52.7291 26.9119 52.1193 26.869C51.4138 26.8194 51.4439 26.2884 51.4101 25.7237C51.3354 24.4872 51.4117 22.7365 51.722 20.8452C51.9572 19.4137 52.3104 17.7515 52.9245 17.0333C53.3122 16.5683 53.7887 16.3417 54.3856 16.4015C56.1979 16.5843 57.4532 16.7563 58.1535 16.9171C58.8386 17.0749 59.1831 17.3989 59.0925 18.0752C58.7334 20.7348 58.4739 22.5741 58.3143 23.5923C58.2222 24.1796 58.1096 24.5587 57.6925 25.001C56.8125 25.935 55.9885 26.4791 55.2202 26.6333L55.2205 26.6336V26.6335ZM47.6633 26.906C35.3266 29.1685 27.2787 28.8931 26.7414 43.173C37.9057 30.7019 53.5598 32.7525 53.4973 50.6381C52.2085 42.4334 49.3584 40.7029 46.7404 40.8208C43.2201 40.9786 40.2287 46.5076 39.7483 55.0205C39.3991 56.5529 38.7799 57.345 37.8899 57.397C30.1901 57.1923 22.314 57.1327 14.6265 56.6247C5.80611 56.0412 1.12297 55.0078 0.580037 53.8316C-0.882626 49.5261 0.4983 42.7548 3.85163 39.6446C3.88393 36.0554 4.10557 33.7279 4.5203 32.662C6.27197 28.9447 17.4093 25.625 21.5027 24.7515C23.7246 18.481 24.7773 14.9527 25.9254 13.6469C25.6648 13.6157 25.3483 13.5939 24.9767 13.5824C23.8065 13.5457 24.0794 13.1679 24.5054 12.2013C25.0275 11.0144 25.4724 10.8334 27.2355 10.6207C28.8649 10.4238 30.0596 10.2946 31.8674 10.1451C35.9239 -3.07026 65.0701 -0.944468 108.802 3.03026C91.8059 3.41405 40.1029 -3.74862 35.7158 9.95034C46.1268 9.19524 52.0231 9.04859 57.6002 9.17712C59.2205 9.21454 60.6789 9.53486 63.0126 8.46855C65.3463 7.40224 78.081 5.55806 105.485 8.43548C73.231 8.01327 64.7575 5.08803 64.3662 19.9679L64.457 10.7306C63.6465 10.72 61.8788 10.5585 61.4737 11.4024C60.901 12.5943 60.5915 15.586 60.2395 19.4857C60.1753 15.6212 60.2856 12.8853 60.1375 11.581C59.7092 11.5265 55.4849 11.4269 54.1184 11.8882C52.872 12.3086 52.7632 12.9019 52.3711 13.1604C52.1023 13.3377 51.6707 13.2329 50.6496 13.158C42.8395 12.586 37.3983 12.7077 32.47 13.153C41.6166 13.2277 47.3229 13.2069 49.8865 13.7583C50.6429 13.9211 51.3952 14.4226 51.0981 15.2953C50.3307 17.5516 49.7159 21.3812 48.77 23.6001C48.214 24.9048 47.4799 25.2542 46.0422 25.2542C30.8404 25.2542 22.5438 25.2542 22.5438 25.2542C17.0766 26.4642 11.8491 28.3214 6.86217 30.8248C13.0622 29.9754 18.6621 30.0253 23.6591 30.9736C24.6847 31.0945 25.0683 31.428 24.8108 31.9761C24.3287 33.2226 24.0442 34.226 23.9557 34.9846C23.3366 41.4954 22.9702 45.4816 22.8607 46.9431C22.7864 47.7962 22.3016 48.2423 21.4111 48.28C16.6564 48.8491 13.8201 49.0351 12.9018 48.8372C8.63325 48.021 6.18072 47.5257 5.54287 47.3512C5.11644 47.0581 4.84349 46.65 4.72519 46.1253C4.45233 42.3625 4.3165 40.4802 4.3165 40.4802C4.19077 40.592 4.06683 40.7106 3.94705 40.836C3.95438 42.9567 3.99391 44.5637 4.06386 45.6594C4.12944 46.683 3.877 46.8531 2.6113 46.7472C2.10769 46.7058 1.67265 46.5049 1.30478 46.1448C1.17776 46.6172 1.1091 47.1045 1.04649 47.5889C2.90328 47.8017 6.94727 48.7175 13.1808 50.3377C15.388 50.429 18.9558 50.2921 23.8826 49.9292C26.2607 49.7298 31.466 49.5729 39.0566 49.3986C38.8721 50.7763 38.8948 51.9051 39.0043 52.6411C39.5881 45.7159 41.6988 41.4642 45.2976 40.081L45.2885 40.0779C46.8416 39.6 48.6771 39.8725 50.7683 41.3712C45.3778 33.5695 39.3194 39.4831 36.0137 45.5045C35.3843 46.6503 35.195 47.265 33.7839 47.4113C32.839 47.5096 29.3067 47.8297 27.0163 47.7503C25.6075 47.7012 24.7492 47.8583 25.0135 46.657C25.1335 46.1133 25.296 45.5168 25.4742 45.1827C24.462 29.3008 33.0255 28.0725 47.6642 26.9054L47.6635 26.906H47.6633Z" fill="#373435"/>
<path d="M168.071 40.215V52.6963H166.459V40.215H168.071ZM181.305 52.6963H179.693L173.21 42.8354V52.6963H171.598V40.215H173.21L179.693 50.0937V40.215H181.305V52.6963ZM192.732 49.4564C192.732 50.0466 192.591 50.5955 192.307 51.1031C192.024 51.6106 191.593 52.0237 191.014 52.3423C190.436 52.661 189.721 52.8204 188.871 52.8204C188.044 52.8204 187.309 52.6698 186.665 52.3688C186.022 52.068 185.508 51.6548 185.124 51.1296C184.74 50.6044 184.519 50.0054 184.46 49.3327H186.178C186.213 49.6868 186.334 50.0319 186.541 50.3684C186.748 50.7048 187.043 50.9823 187.427 51.2004C187.811 51.4188 188.274 51.5277 188.818 51.5277C189.526 51.5277 190.069 51.339 190.447 50.9612C190.825 50.5833 191.014 50.0994 191.014 49.5095C191.014 49.0019 190.881 48.5888 190.616 48.2703C190.35 47.9516 190.022 47.7006 189.633 47.5178C189.243 47.3348 188.711 47.137 188.038 46.9247C187.247 46.6652 186.612 46.4201 186.134 46.1899C185.656 45.9598 185.248 45.6146 184.912 45.1543C184.575 44.6941 184.407 44.0862 184.407 43.3309C184.407 42.682 184.563 42.1094 184.876 41.6136C185.189 41.1181 185.638 40.7343 186.222 40.4628C186.807 40.1913 187.495 40.0557 188.286 40.0557C189.514 40.0557 190.489 40.3536 191.209 40.9498C191.93 41.5458 192.349 42.3041 192.467 43.2248H190.731C190.637 42.7289 190.383 42.2925 189.969 41.9146C189.556 41.5371 188.995 41.348 188.286 41.348C187.637 41.348 187.117 41.5162 186.727 41.8527C186.338 42.1892 186.143 42.6642 186.143 43.2779C186.143 43.7618 186.27 44.1542 186.524 44.4552C186.778 44.7561 187.093 44.992 187.471 45.1634C187.849 45.3345 188.369 45.5264 189.03 45.7388C189.833 45.9983 190.48 46.2464 190.97 46.4823C191.46 46.7184 191.876 47.0755 192.219 47.5533C192.561 48.0315 192.733 48.6656 192.733 49.4566H192.732L192.732 49.4564ZM197.357 40.2151V47.7038C197.357 48.9312 197.629 49.8372 198.172 50.4214C198.715 51.0056 199.465 51.2976 200.422 51.2976C201.366 51.2976 202.105 51.0026 202.636 50.4123C203.167 49.8221 203.433 48.9193 203.433 47.7035V40.2148H205.045V47.7035C205.045 49.4031 204.623 50.6809 203.778 51.5366C202.934 52.3923 201.803 52.8202 200.386 52.8202C198.981 52.8202 197.856 52.3923 197.012 51.5366C196.167 50.6809 195.745 49.4031 195.745 47.7035V40.2148H197.357L197.357 40.2151ZM215.109 52.6964L211.849 47.5978H210.095V52.6964H208.483V40.2151H212.593C214.01 40.2151 215.073 40.5544 215.782 41.233C216.49 41.9115 216.844 42.8114 216.844 43.9329C216.844 44.9479 216.561 45.7651 215.994 46.3847C215.427 47.0043 214.606 47.3909 213.531 47.5443L216.933 52.6961H215.108L215.109 52.6964H215.109ZM210.095 46.4293H212.451C214.282 46.4293 215.197 45.6266 215.197 44.0217C215.197 42.4164 214.282 41.6138 212.451 41.6138H210.095V46.4293ZM227.067 49.8107H221.576L220.531 52.6964H218.795L223.418 40.4452H225.243L229.849 52.6964H228.113L227.068 49.8107H227.067H227.067ZM226.607 48.5538L224.322 42.2512L222.037 48.5538H226.607H226.607ZM242.126 52.6964H240.514L234.031 42.8355V52.6964H232.419V40.2151H234.031L240.514 50.0938V40.2151H242.126V52.6964ZM251.179 40.0914C252.703 40.0914 253.961 40.466 254.953 41.2156C255.945 41.9649 256.63 42.9889 257.007 44.2873H255.307C254.988 43.461 254.474 42.8033 253.765 42.3133C253.057 41.8235 252.189 41.5785 251.161 41.5785C250.347 41.5785 249.617 41.7764 248.974 42.1717C248.33 42.5671 247.822 43.1337 247.45 43.8714C247.078 44.609 246.892 45.4735 246.892 46.4652C246.892 47.4449 247.078 48.3006 247.45 49.0322C247.822 49.7642 248.33 50.3276 248.974 50.723C249.617 51.1185 250.347 51.3161 251.161 51.3161C252.189 51.3161 253.057 51.0712 253.765 50.5813C254.474 50.0918 254.988 49.4336 255.307 48.6073H257.007C256.63 49.9055 255.945 50.9295 254.953 51.6787C253.961 52.4284 252.703 52.803 251.179 52.803C250.01 52.803 248.977 52.5343 248.079 51.9975C247.182 51.4606 246.482 50.7109 245.98 49.7492C245.478 48.7872 245.227 47.6926 245.227 46.465C245.227 45.2256 245.478 44.1221 245.98 43.1543C246.482 42.1865 247.182 41.4341 248.079 40.8972C248.977 40.3603 250.01 40.0917 251.179 40.0917V40.0912V40.0914ZM261.721 41.5253V45.7919H266.468V47.0311H261.721V51.3861H267V52.6963H260.109V40.215H267V41.5252H261.721V41.5253Z" fill="#373435"/>
</svg>
