<svg width="56" height="56" viewBox="0 0 56 56" fill="none" xmlns="http://www.w3.org/2000/svg">
<path d="M29.4348 49C29.0318 49 28.6297 48.9205 28.2284 48.7614C27.8271 48.6041 27.4843 48.3672 27.2001 48.0508L12.8288 33.7524H16.3476L28.9683 46.279C29.0552 46.3618 29.1305 46.414 29.194 46.4355C29.2575 46.4571 29.3328 46.467 29.4197 46.4654C29.5033 46.4654 29.5769 46.4554 29.6405 46.4355C29.7057 46.414 29.7809 46.3618 29.8662 46.279L45.642 30.6338C46.8927 29.3947 47.8575 28.0031 48.5363 26.4592C49.2152 24.9152 49.5387 23.3488 49.507 21.7601C49.4551 18.9025 48.5414 16.4805 46.7656 14.4942C44.9916 12.5062 42.8213 11.5123 40.2547 11.5123C38.8953 11.5123 37.5727 11.7856 36.2869 12.3323C35.0027 12.879 33.8866 13.675 32.9386 14.7203L30.6663 17.1431C30.4907 17.3585 30.3001 17.5076 30.0944 17.5904C29.8888 17.6733 29.6689 17.7138 29.4348 17.7122C29.2007 17.7105 28.9683 17.6592 28.7375 17.5581C28.5068 17.4571 28.3028 17.3187 28.1256 17.1431L25.8532 14.7203C24.9119 13.6717 23.8 12.8707 22.5175 12.3174C21.2334 11.7624 19.9066 11.4849 18.5372 11.4849C16.3434 11.4849 14.4289 12.2387 12.7937 13.7462C11.1601 15.2554 10.0983 17.1464 9.6084 19.4193H7.07273C7.59107 16.4391 8.90698 13.9574 11.0205 11.9745C13.1339 9.99149 15.6395 9 18.5372 9C20.2544 9 21.9047 9.34623 23.4881 10.0387C25.0716 10.7295 26.4886 11.7309 27.7393 13.043L29.4273 14.8123L31.0199 13.1399C32.2923 11.7947 33.7286 10.7684 35.3288 10.0611C36.9289 9.35369 38.5709 9 40.2547 9C43.5352 9 46.3133 10.2458 48.589 12.7373C50.8647 15.2289 52.0017 18.2357 52 21.7577C52 23.6926 51.6129 25.5679 50.8388 27.3835C50.0629 29.1992 48.9485 30.8318 47.4955 32.2814L31.5942 48.0532C31.2749 48.368 30.9355 48.6041 30.576 48.7614C30.2165 48.9188 29.8361 48.9975 29.4348 48.9975M29.1614 27.8284H7V25.3434H39.1461C40.1777 25.3434 41.0631 24.9781 41.8021 24.2476C42.5395 23.5153 42.9082 22.6382 42.9082 21.616C42.9082 20.5939 42.5395 19.7167 41.8021 18.9845C41.0631 18.2539 40.1777 17.8886 39.1461 17.8886C38.5274 17.8886 37.9489 18.0278 37.4105 18.3061C36.8704 18.5861 36.4248 18.9836 36.0737 19.4988L33.5606 18.8155C34.1174 17.7735 34.8874 16.9443 35.8705 16.3281C36.8537 15.7118 37.9455 15.4037 39.1461 15.4037C40.8884 15.4037 42.3681 16.0075 43.5854 17.2152C44.806 18.4212 45.4163 19.8865 45.4163 21.611C45.4163 23.3356 44.806 24.8025 43.5854 26.0119C42.3648 27.2212 40.885 27.8267 39.1461 27.8284H33.9794C34.4275 28.3386 34.7737 28.9018 35.0178 29.5181C35.2619 30.1344 35.384 30.8136 35.384 31.5558C35.384 33.282 34.7737 34.7481 33.5531 35.9541C32.3358 37.1634 30.856 37.7681 29.1138 37.7681C27.9149 37.7681 26.823 37.46 25.8382 36.8437C24.855 36.2274 24.0851 35.3983 23.5283 34.3563L26.0414 33.6729C26.3925 34.1898 26.8381 34.5874 27.3782 34.8657C27.9182 35.144 28.4968 35.2832 29.1138 35.2832C30.1454 35.2832 31.0308 34.9179 31.7698 34.1873C32.5072 33.4551 32.8759 32.5779 32.8759 31.5558C32.8759 30.5336 32.5147 29.6564 31.7924 28.9242C31.0701 28.192 30.1931 27.8267 29.1614 27.8284Z" fill="#2B8AFF"/>
</svg>
