<svg width="56" height="56" viewBox="0 0 56 56" fill="none" xmlns="http://www.w3.org/2000/svg">
<path d="M34.9999 23.3335L33.2733 23.0465C33.2316 23.2972 33.245 23.5539 33.3126 23.7989C33.3802 24.0439 33.5003 24.2712 33.6646 24.4651C33.8289 24.6589 34.0335 24.8147 34.2641 24.9215C34.4947 25.0283 34.7458 25.0835 34.9999 25.0835V23.3335ZM9.33325 23.3335V21.5835C8.86912 21.5835 8.424 21.7679 8.09581 22.0961C7.76763 22.4242 7.58325 22.8694 7.58325 23.3335H9.33325ZM13.9999 48.4168H40.5066V44.9168H13.9999V48.4168ZM43.3066 21.5835H34.9999V25.0835H43.3066V21.5835ZM36.7266 23.6205L38.6073 12.3388L35.1539 11.7625L33.2733 23.0465L36.7266 23.6205ZM34.5799 7.5835H34.0806V11.0835H34.5776L34.5799 7.5835ZM26.7983 11.4802L20.9299 20.2838L23.8419 22.2252L29.7103 13.4215L26.7983 11.4802ZM18.5033 21.5835H9.33325V25.0835H18.5033V21.5835ZM7.58325 23.3335V42.0002H11.0833V23.3335H7.58325ZM46.7996 43.2602L49.5996 29.2602L46.1696 28.5718L43.3696 42.5718L46.7996 43.2602ZM20.9299 20.2838C20.6637 20.6835 20.3029 21.0089 19.8796 21.2356C19.4562 21.4624 18.9835 21.581 18.5033 21.5812V25.0812C20.6499 25.0812 22.6519 24.0102 23.8419 22.2252L20.9299 20.2838ZM38.6073 12.3388C38.7045 11.754 38.6732 11.1527 38.5156 10.5812C38.358 10.0097 38.0778 9.47941 37.6946 9.02711C37.3113 8.57481 36.8342 8.21138 36.2963 7.96209C35.7585 7.71279 35.1728 7.5836 34.5799 7.5835L34.5776 11.0835C34.6622 11.0837 34.748 11.1023 34.8247 11.138C34.9014 11.1737 34.9694 11.2256 35.024 11.2902C35.0786 11.3548 35.1185 11.4305 35.1409 11.5121C35.1634 11.5936 35.1678 11.6791 35.1539 11.7625L38.6073 12.3388ZM43.3066 25.0812C45.1499 25.0812 46.5266 26.7658 46.1672 28.5695L49.5996 29.2578C49.7853 28.327 49.7622 27.3643 49.5319 26.4436C49.3017 25.5228 48.87 24.6646 48.2681 23.9307C47.6662 23.1969 46.9089 22.6057 46.051 22.1998C45.193 21.794 44.2557 21.5834 43.3066 21.5835V25.0812ZM40.5066 48.4168C41.9899 48.4171 43.4275 47.9012 44.5748 46.961C45.7221 46.0209 46.5083 44.7123 46.7996 43.2578L43.3696 42.5695C43.2373 43.2312 42.8797 43.8266 42.3576 44.2542C41.8356 44.6818 41.1814 44.9175 40.5066 44.9168V48.4168ZM34.0806 7.5835C32.6401 7.5836 31.222 7.93698 29.952 8.61674C28.6821 9.2965 27.5996 10.2793 26.8006 11.4778L29.7103 13.4215C30.1898 12.702 30.8397 12.1098 31.6021 11.702C32.3646 11.2941 33.2159 11.0832 34.0806 11.0835V7.5835ZM13.9999 44.9168C12.3899 44.9168 11.0833 43.6102 11.0833 42.0002H7.58325C7.58325 43.702 8.25929 45.3341 9.46265 46.5374C10.666 47.7408 12.2981 48.4168 13.9999 48.4168V44.9168Z" fill="#2B8AFF"/>
<path d="M18.6665 23.3335V46.6668" stroke="#2B8AFF" stroke-width="1.5"/>
</svg>
