<svg width="24" height="24" viewBox="0 0 24 24" fill="none" xmlns="http://www.w3.org/2000/svg">
<path d="M19 9.00001H14V3.00001C13.9999 2.78914 13.933 2.58371 13.8091 2.41309C13.6852 2.24246 13.5105 2.11539 13.31 2.05001C12.9 1.92001 12.45 2.06001 12.19 2.41001L4.19002 13.41C4.08227 13.5592 4.01779 13.7353 4.00368 13.9188C3.98956 14.1023 4.02636 14.2861 4.11002 14.45C4.19312 14.6149 4.32026 14.7536 4.47735 14.8507C4.63444 14.9478 4.81535 14.9995 5.00002 15H10V21C10 21.2652 10.1054 21.5196 10.2929 21.7071C10.4804 21.8947 10.7348 22 11 22C11.31 22 11.62 21.85 11.81 21.59L19.81 10.59C19.9178 10.4408 19.9822 10.2648 19.9964 10.0813C20.0105 9.89777 19.9737 9.71394 19.89 9.55001C19.8069 9.3851 19.6798 9.24642 19.5227 9.14934C19.3656 9.05226 19.1847 9.00057 19 9.00001ZM12 17.92V14C12 13.45 11.55 13 11 13H6.96002L12 6.08001V10C12 10.55 12.45 11 13 11H17.04L12 17.92Z" fill="black"/>
</svg>
