<svg width="24" height="24" viewBox="0 0 24 24" fill="none" xmlns="http://www.w3.org/2000/svg">
<path d="M6.5 12C6.10218 12 5.72064 12.158 5.43934 12.4393C5.15804 12.7206 5 13.1022 5 13.5C5 13.8978 5.15804 14.2794 5.43934 14.5607C5.72064 14.842 6.10218 15 6.5 15C6.89782 15 7.27936 14.842 7.56066 14.5607C7.84196 14.2794 8 13.8978 8 13.5C8 13.1022 7.84196 12.7206 7.56066 12.4393C7.27936 12.158 6.89782 12 6.5 12ZM17.5 12C17.1022 12 16.7206 12.158 16.4393 12.4393C16.158 12.7206 16 13.1022 16 13.5C16 13.8978 16.158 14.2794 16.4393 14.5607C16.7206 14.842 17.1022 15 17.5 15C17.8978 15 18.2794 14.842 18.5607 14.5607C18.842 14.2794 19 13.8978 19 13.5C19 13.1022 18.842 12.7206 18.5607 12.4393C18.2794 12.158 17.8978 12 17.5 12Z" fill="black"/>
<path d="M20.77 9.15997L19.4 5.05997C19.2018 4.46141 18.8194 3.94084 18.3075 3.57265C17.7957 3.20447 17.1805 3.00753 16.55 3.00997H7.43999C6.80983 3.00905 6.19538 3.20659 5.68381 3.57455C5.17225 3.94252 4.78954 4.46224 4.58999 5.05997L3.21999 9.15997C2.49999 9.45997 1.98999 10.18 1.98999 11V16C1.98999 16.74 2.39999 17.38 2.98999 17.72V20C2.98999 20.55 3.43999 21 3.98999 21H4.98999C5.53999 21 5.98999 20.55 5.98999 20V18H17.99V20C17.99 20.55 18.44 21 18.99 21H19.99C20.54 21 20.99 20.55 20.99 20V17.72C21.2923 17.5455 21.5436 17.2949 21.719 16.9931C21.8945 16.6914 21.9879 16.349 21.99 16V11C21.99 10.17 21.48 9.45997 20.76 9.15997H20.77ZM7.43999 4.99997H16.56C16.7696 4.99943 16.9741 5.06479 17.1446 5.18681C17.3151 5.30884 17.4429 5.48135 17.51 5.67997L18.62 8.99997H5.38999L6.49999 5.67997C6.56708 5.48135 6.69489 5.30884 6.86536 5.18681C7.03583 5.06479 7.24035 4.99943 7.44999 4.99997H7.43999ZM3.99999 16V11H20V16H3.99999Z" fill="black"/>
</svg>
