<svg width="24" height="24" viewBox="0 0 24 24" fill="none" xmlns="http://www.w3.org/2000/svg">
<path d="M20.42 6.11L12.45 2.11C12.17 1.97 11.83 1.97 11.55 2.11L3.57998 6.11C3.26998 6.26 3.06998 6.56 3.02998 6.9C3.01998 7.01 2.06998 17.66 11.58 21.91C11.7086 21.9692 11.8484 21.9999 11.99 21.9999C12.1315 21.9999 12.2714 21.9692 12.4 21.91C21.91 17.66 20.97 7 20.95 6.9C20.934 6.73213 20.875 6.57122 20.7787 6.43282C20.6823 6.29443 20.5519 6.18324 20.4 6.11H20.42ZM12 19.9C5.25998 16.63 4.93998 9.64 4.99998 7.64L12 4.13001L19 7.64C19.04 9.63 18.67 16.66 12 19.9Z" fill="black"/>
<path d="M11 12.59L9.71004 11.29L8.29004 12.71L11 15.41L15.71 10.71L14.29 9.29001L11 12.59Z" fill="black"/>
</svg>
