<svg width="24" height="24" viewBox="0 0 24 24" fill="none" xmlns="http://www.w3.org/2000/svg">
<path d="M21 15H3C2.45 15 2 15.45 2 16V20C2 20.55 2.45 21 3 21H21C21.55 21 22 20.55 22 20V16C22 15.45 21.55 15 21 15ZM4 19V17H16V19H4ZM20 19H18V17H20V19ZM19.01 6.89001C18.19 6.40001 17.38 6.18001 16.81 6.08001C16.4 4.90001 15.11 3.00001 11 3.00001V5.00001C14.79 5.00001 14.99 6.82001 15 7.00001C15 7.55001 15.45 7.99001 15.99 8.00001C16.4 8.00001 20 8.19001 20 13H22C22 9.43001 20.38 7.71001 19.01 6.89001ZM8.75 11.41C9.59577 11.9846 10.5698 12.3426 11.5864 12.4525C12.603 12.5623 13.631 12.4207 14.58 12.04C14.9 11.91 15.25 11.95 15.54 12.14C15.83 12.33 15.99 12.65 15.99 12.99H17.99C17.99 11.98 17.49 11.04 16.66 10.48C15.83 9.91001 14.77 9.80001 13.83 10.18C12.5 10.71 11.05 10.56 9.86 9.75001C9.27973 9.36313 8.80493 8.83785 8.47845 8.22156C8.15198 7.60528 7.98411 6.9174 7.99 6.22001V2.99001H5.99V6.22001C5.99 8.3 7.02 10.24 8.74 11.4L8.75 11.41Z" fill="black"/>
</svg>
