<svg width="24" height="24" viewBox="0 0 24 24" fill="none" xmlns="http://www.w3.org/2000/svg">
<path d="M21 14H20C20 12.92 19.79 11.87 19.37 10.89C18.6732 9.23397 17.4359 7.8628 15.86 7.00001C15.41 5.28001 13.86 4.01001 12 4.01001C10.14 4.01001 8.6 5.29001 8.14 7.00001C7.48 7.36001 6.88 7.81001 6.34 8.35001C5.61 9.08001 5.03 9.94001 4.63 10.89C4.21 11.88 4 12.92 4 14H3C2.45 14 2 14.45 2 15V19C2 19.55 2.45 20 3 20H7C7.55 20 8 19.55 8 19V15C8 14.45 7.55 14 7 14H6C6 13.19 6.16 12.4 6.47 11.66C6.77 10.95 7.2 10.3 7.76 9.75001C7.91 9.60001 8.09 9.48001 8.25 9.34001C8.81 10.88 10.27 11.99 12 11.99C13.73 11.99 15.19 10.88 15.75 9.34001C15.92 9.47001 16.09 9.59001 16.24 9.75001C16.79 10.3 17.22 10.94 17.53 11.66C17.84 12.4 18 13.18 18 13.99H17C16.45 13.99 16 14.44 16 14.99V18.99C16 19.54 16.45 19.99 17 19.99H21C21.55 19.99 22 19.54 22 18.99V14.99C22 14.44 21.55 13.99 21 13.99V14ZM6 18H4V16H6V18ZM12 10C10.9 10 10 9.10001 10 8.00001C10 6.90001 10.9 6.00001 12 6.00001C13.1 6.00001 14 6.90001 14 8.00001C14 9.10001 13.1 10 12 10ZM20 18H18V16H20V18Z" fill="black"/>
</svg>
