<svg width="24" height="24" viewBox="0 0 24 24" fill="none" xmlns="http://www.w3.org/2000/svg">
<path d="M12 2C6.49 2 2 6.49 2 12C2 17.51 6.49 22 12 22C17.51 22 22 17.51 22 12C22 6.49 17.51 2 12 2ZM12 20C7.59 20 4 16.41 4 12C4 7.59 7.59 4 12 4C16.41 4 20 7.59 20 12C20 16.41 16.41 20 12 20Z" fill="black"/>
<path d="M12 11C10 11 10 10.37 10 10C10 9.52 10.7 9 12 9C13.18 9 13.39 9.64 13.4 10.02L14.4 10H15.4C15.4 8.97 14.73 7.53 13 7.12V6H11V7.09C9.03 7.42 8 8.72 8 10C8 11.12 8.52 13 12 13C14 13 14 13.68 14 14C14 14.42 13.38 15 12 15C10.16 15 10.01 14.14 10 14H8C8 14.92 8.66 16.55 11 16.92V18H13V16.91C14.97 16.58 16 15.28 16 14C16 12.88 15.48 11 12 11Z" fill="black"/>
</svg>
