<svg width="24" height="24" viewBox="0 0 24 24" fill="none" xmlns="http://www.w3.org/2000/svg">
<path d="M21.32 12.05L19.09 11.31C18.28 11.04 17.4 11.2 16.74 11.73L13.34 14.45L12.17 12.11C12.0044 11.7768 11.7492 11.4964 11.433 11.3003C11.1167 11.1042 10.7521 11.0002 10.38 11H4C2.9 11 2 11.9 2 13V19C2 20.1 2.9 21 4 21H13.62C14.79 21 15.9 20.49 16.66 19.6L21.76 13.65C21.98 13.4 22.05 13.05 21.96 12.73C21.87 12.41 21.63 12.15 21.31 12.05H21.32ZM15.14 18.3C14.76 18.74 14.21 19 13.62 19H4V13H10.38L11.38 15H7V17H13C13.23 17 13.45 16.92 13.63 16.78L17.99 13.29C18.12 13.18 18.3 13.15 18.46 13.21L19.27 13.48L15.14 18.3Z" fill="black"/>
<path d="M13.28 10.69C13.3725 10.7881 13.4841 10.8662 13.6079 10.9196C13.7318 10.973 13.8652 11.0005 14 11.0005C14.1348 11.0005 14.2682 10.973 14.3921 10.9196C14.5159 10.8662 14.6275 10.7881 14.72 10.69L18.12 7.12C18.69 6.55 19 5.8 19 5C19 4.2 18.69 3.45 18.12 2.88C17.55 2.31 16.8 2 16 2C15.94 2 15 2.02 14 2.7C13 2.02 12.15 1.96 12 2C11.2 2 10.44 2.31 9.88 2.88C9.31 3.45 9 4.2 9 5C9 5.8 9.31 6.56 9.86 7.1L13.27 10.69H13.28ZM11.3 4.29C11.49 4.1 11.74 4 11.98 4C12.01 4 12.63 4.04 13.29 4.71C13.68 5.1 14.31 5.1 14.7 4.71C15.37 4.04 15.99 4 15.99 4C16.1217 3.99866 16.2523 4.02362 16.3743 4.0734C16.4962 4.12318 16.607 4.19679 16.7001 4.28991C16.7932 4.38304 16.8668 4.49381 16.9166 4.61574C16.9664 4.73767 16.9913 4.86831 16.99 5C16.99 5.27 16.89 5.52 16.68 5.72L13.99 8.55L11.28 5.71C11.09 5.52 10.99 5.27 10.99 5C10.99 4.73 11.09 4.48 11.28 4.29H11.3Z" fill="black"/>
</svg>
