<svg width="24" height="24" viewBox="0 0 24 24" fill="none" xmlns="http://www.w3.org/2000/svg">
<path d="M6 2C5.46957 2 4.96086 2.21071 4.58579 2.58579C4.21071 2.96086 4 3.46957 4 4C4 4.53043 4.21071 5.03914 4.58579 5.41421C4.96086 5.78929 5.46957 6 6 6C6.53043 6 7.03914 5.78929 7.41421 5.41421C7.78929 5.03914 8 4.53043 8 4C8 3.46957 7.78929 2.96086 7.41421 2.58579C7.03914 2.21071 6.53043 2 6 2ZM17 8C16.4696 8 15.9609 8.21071 15.5858 8.58579C15.2107 8.96086 15 9.46957 15 10C15 10.5304 15.2107 11.0391 15.5858 11.4142C15.9609 11.7893 16.4696 12 17 12C17.5304 12 18.0391 11.7893 18.4142 11.4142C18.7893 11.0391 19 10.5304 19 10C19 9.46957 18.7893 8.96086 18.4142 8.58579C18.0391 8.21071 17.5304 8 17 8Z" fill="black"/>
<path d="M19 13H12.54L8.84 7.45C8.65 7.17 8.34 7 8.01 7H3C2.45 7 2 7.45 2 8V15H4V22H8V9.8L11.17 14.55C11.36 14.83 11.67 15 12 15H14V22H16V19H18V22H20V18.24L20.11 18.45L21.9 17.56L19.9 13.56C19.8169 13.3951 19.6898 13.2564 19.5327 13.1593C19.3756 13.0622 19.1947 13.0106 19.01 13.01L19 13Z" fill="black"/>
</svg>
