<svg width="24" height="24" viewBox="0 0 24 24" fill="none" xmlns="http://www.w3.org/2000/svg">
<path d="M19.94 7.68001L19.91 7.59001C19.8657 7.47968 19.7974 7.38062 19.71 7.30001L14.71 2.30001C14.6229 2.21572 14.5213 2.14795 14.41 2.10001L14.32 2.07001C14.2331 2.03963 14.142 2.02277 14.05 2.02001C14.03 2.02001 14.01 2.01001 14 2.01001H6C4.9 2.01001 4 2.91001 4 4.01001V20.01C4 21.11 4.9 22.01 6 22.01H18C19.1 22.01 20 21.11 20 20.01V8.01001C20 8.01001 19.99 7.97001 19.99 7.95001C19.99 7.86001 19.97 7.78001 19.94 7.69001V7.68001ZM6 20V4.00001H13V8.00001C13 8.55001 13.45 9.00001 14 9.00001H18V20H6Z" fill="black"/>
<path d="M8 12H10V18H8V12ZM11 10H13V18H11V10ZM14 14H16V18H14V14Z" fill="black"/>
</svg>
