<svg width="24" height="24" viewBox="0 0 24 24" fill="none" xmlns="http://www.w3.org/2000/svg">
<path d="M15.9 7.01C14.8 6.94 13.71 7.2 12.77 7.76C12.31 8.03 11.69 8.03 11.24 7.76C10.3 7.2 9.21999 6.94 8.10999 7.01C5.22999 7.18 2.93999 9.72 3.00999 12.67C3.17999 19.77 8.68999 22 10.23 22C10.86 22 11.48 21.84 11.99 21.53C12.54 21.84 13.16 22 13.79 22C15.33 22 20.84 19.76 21.01 12.67C21.08 9.73 18.79 7.19 15.91 7.01H15.9ZM13.78 20C13.49 20 13.21 19.93 12.96 19.79C12.36 19.45 11.64 19.45 11.04 19.79C10.79 19.93 10.51 20 10.23 20C10.18 20 5.14999 18.99 4.99999 12.62C4.95999 10.74 6.39999 9.12 8.21999 9.01H8.43999C9.06999 9.01 9.67999 9.18 10.21 9.49C11.3 10.13 12.7 10.13 13.78 9.49C14.38 9.14 15.07 8.97 15.77 9.01C17.59 9.12 19.04 10.74 18.99 12.62C18.84 18.99 13.81 20 13.77 20H13.78ZM16 2C13.79 2 12 3 12 6C14.21 6 16 5 16 2Z" fill="black"/>
</svg>
