<svg width="24" height="24" viewBox="0 0 24 24" fill="none" xmlns="http://www.w3.org/2000/svg">
<path d="M21.2102 8.11007C20.9602 7.52007 20.6502 6.95007 20.2902 6.41007C19.9302 5.88007 19.5202 5.38007 19.0702 4.93007C18.6202 4.48007 18.1202 4.07007 17.5902 3.71007C17.0502 3.35007 16.4802 3.04007 15.8902 2.79007C15.2902 2.53007 14.6502 2.34007 14.0102 2.21007C12.7002 1.94007 11.2902 1.94007 9.98023 2.21007C9.34023 2.34007 8.71024 2.54007 8.10023 2.79007C7.51023 3.04007 6.94023 3.35007 6.40023 3.71007C5.87023 4.07007 5.37023 4.48007 4.92023 4.93007C4.75023 5.10007 4.60023 5.28007 4.44023 5.45007L1.99023 3.00007V9.00007H7.99023L5.86023 6.87007C6.01023 6.69007 6.17023 6.51007 6.34023 6.35007C6.70023 5.99007 7.10023 5.66007 7.52023 5.37007C7.95023 5.08007 8.41023 4.83007 8.88023 4.63007C9.36023 4.43007 9.87023 4.27007 10.3802 4.16007C11.4302 3.95007 12.5602 3.95007 13.6102 4.16007C14.1202 4.27007 14.6302 4.42007 15.1102 4.63007C15.5802 4.83007 16.0402 5.08007 16.4702 5.37007C16.8902 5.66007 17.2902 5.99007 17.6502 6.35007C18.0102 6.71007 18.3402 7.11007 18.6302 7.53007C18.9202 7.96007 19.1702 8.42007 19.3702 8.89007C19.5702 9.37007 19.7302 9.88007 19.8402 10.3901C19.9502 10.9201 20.0002 11.4601 20.0002 12.0001C20.0041 13.0688 19.7898 14.1271 19.3702 15.1101C19.1702 15.5801 18.9202 16.0401 18.6302 16.4701C18.3402 16.8901 18.0102 17.2901 17.6502 17.6501C17.2902 18.0101 16.8902 18.3401 16.4702 18.6301C16.0402 18.9201 15.5802 19.1701 15.1102 19.3701C14.6302 19.5701 14.1202 19.7301 13.6102 19.8401C12.5602 20.0501 11.4302 20.0501 10.3802 19.8401C9.86602 19.733 9.36359 19.5756 8.88023 19.3701C8.41023 19.1701 7.95023 18.9201 7.52023 18.6301C7.10023 18.3401 6.70023 18.0101 6.34023 17.6501C5.98023 17.2901 5.65023 16.8901 5.36023 16.4701C5.07023 16.0401 4.82023 15.5801 4.62023 15.1101C4.42023 14.6301 4.26023 14.1201 4.15023 13.6101C4.04263 13.0802 3.98902 12.5408 3.99023 12.0001H1.99023C1.99023 12.6801 2.06023 13.3501 2.19023 14.0101C2.32023 14.6501 2.52023 15.2801 2.77023 15.8901C3.02023 16.4801 3.33023 17.0501 3.69023 17.5901C4.05023 18.1201 4.46023 18.6201 4.91023 19.0701C5.36023 19.5201 5.86023 19.9301 6.39023 20.2901C6.93023 20.6501 7.50023 20.9601 8.09023 21.2101C8.69023 21.4701 9.33024 21.6601 9.97023 21.7901C10.6302 21.9201 11.3002 21.9901 11.9802 21.9901C12.6602 21.9901 13.3402 21.9201 13.9902 21.7901C14.6302 21.6601 15.2602 21.4601 15.8702 21.2101C16.4602 20.9601 17.0302 20.6501 17.5702 20.2901C18.1002 19.9301 18.6002 19.5201 19.0502 19.0701C19.5002 18.6201 19.9102 18.1201 20.2702 17.5901C20.6302 17.0501 20.9402 16.4801 21.1902 15.8901C21.4502 15.2901 21.6402 14.6501 21.7702 14.0101C21.9002 13.3501 21.9702 12.6701 21.9702 12.0001C21.9702 11.3301 21.9002 10.6501 21.7702 9.99007C21.6402 9.35007 21.4402 8.72007 21.1902 8.11007H21.2102Z" fill="black"/>
<path d="M11 7V13H17V11H13V7H11Z" fill="black"/>
</svg>
