<svg width="24" height="24" viewBox="0 0 24 24" fill="none" xmlns="http://www.w3.org/2000/svg">
<path d="M3.00005 13H4.00005V20C4.00005 21.1 4.90005 22 6.00005 22H18C19.1 22 20 21.1 20 20V13H21C21.4 13 21.7701 12.76 21.92 12.38C22.07 12.01 21.9901 11.58 21.7001 11.29L12.71 2.29C12.6175 2.1973 12.5076 2.12375 12.3867 2.07357C12.2657 2.02339 12.136 1.99756 12.005 1.99756C11.8741 1.99756 11.7444 2.02339 11.6234 2.07357C11.5025 2.12375 11.3926 2.1973 11.3 2.29L2.29005 11.29C2.00005 11.58 1.92005 12.01 2.07005 12.38C2.22005 12.75 2.59005 13 2.99005 13H3.00005ZM12 4.41L18 10.41V20H6.00005V10.41L12 4.41Z" fill="black"/>
<path d="M8.58995 14.65L8.64995 14.71L12 18L15.35 14.71C16.2 13.89 16.22 12.55 15.41 11.7L15.35 11.64C14.48 10.78 13.09 10.78 12.23 11.64L12.01 11.86L11.79 11.64C10.92 10.78 9.52995 10.78 8.66995 11.64C7.81995 12.46 7.79995 13.8 8.60995 14.65H8.58995Z" fill="black"/>
</svg>
