<svg width="24" height="24" viewBox="0 0 24 24" fill="none" xmlns="http://www.w3.org/2000/svg">
<path d="M6 2C5.46957 2 4.96086 2.21071 4.58579 2.58579C4.21071 2.96086 4 3.46957 4 4C4 4.53043 4.21071 5.03914 4.58579 5.41421C4.96086 5.78929 5.46957 6 6 6C6.53043 6 7.03914 5.78929 7.41421 5.41421C7.78929 5.03914 8 4.53043 8 4C8 3.46957 7.78929 2.96086 7.41421 2.58579C7.03914 2.21071 6.53043 2 6 2ZM4 22H8V15H10V8C10 7.45 9.55 7 9 7H3C2.45 7 2 7.45 2 8V15H4V22ZM17 2C16.4696 2 15.9609 2.21071 15.5858 2.58579C15.2107 2.96086 15 3.46957 15 4C15 4.53043 15.2107 5.03914 15.5858 5.41421C15.9609 5.78929 16.4696 6 17 6C17.5304 6 18.0391 5.78929 18.4142 5.41421C18.7893 5.03914 19 4.53043 19 4C19 3.46957 18.7893 2.96086 18.4142 2.58579C18.0391 2.21071 17.5304 2 17 2ZM19 7H15C14.55 7 14.16 7.3 14.04 7.73L12.04 14.73L13.63 15.18L13 18H15V22H19V18H21L20.37 15.18L21.96 14.73L19.96 7.73C19.84 7.3 19.44 7 19 7Z" fill="black"/>
</svg>
