<svg width="24" height="24" viewBox="0 0 24 24" fill="none" xmlns="http://www.w3.org/2000/svg">
<path d="M21.51 6.14001L16.51 3.14001C16.3808 3.06101 16.2351 3.01272 16.0843 2.99885C15.9335 2.98498 15.7815 3.0059 15.64 3.06001L8.08999 5.89001L3.50999 3.14001C3.35804 3.04784 3.18407 2.99828 3.00636 2.99652C2.82865 2.99476 2.65374 3.04087 2.49999 3.13001C2.18999 3.31001 1.98999 3.64001 1.98999 4.00001V17C1.98999 17.35 2.16999 17.68 2.47999 17.86L7.47999 20.86C7.73999 21.02 8.05999 21.05 8.34999 20.94L15.9 18.11L20.49 20.86C20.65 20.96 20.83 21 21 21C21.17 21 21.34 20.96 21.49 20.87C21.8 20.69 22 20.36 22 20V7.00001C22.001 6.82627 21.9562 6.65534 21.8702 6.50438C21.7842 6.35342 21.6599 6.22776 21.51 6.14001ZM6.99999 18.23L3.99999 16.43V5.77001L6.99999 7.57001V18.24V18.23ZM15 16.3L8.99999 18.55V7.69001L15 5.44001V16.3ZM20 18.23L17 16.43V5.77001L20 7.57001V18.24V18.23Z" fill="black"/>
</svg>
