<svg width="24" height="24" viewBox="0 0 24 24" fill="none" xmlns="http://www.w3.org/2000/svg">
<path d="M13.08 8.63L12 6.44L10.92 8.63L8.5 8.98L10.25 10.69L9.84 13.1L12 11.96L14.16 13.1L13.75 10.69L15.5 8.98L13.08 8.63Z" fill="black"/>
<path d="M12 2C7.59 2 4 5.59 4 10C4 12.52 5.17 14.77 7 16.24V21.01C7 21.36 7.18 21.68 7.47 21.86C7.76 22.04 8.13 22.06 8.44 21.9L11.99 20.12L15.54 21.9C15.6921 21.9776 15.8616 22.0148 16.0323 22.0081C16.2029 22.0014 16.369 21.9509 16.5145 21.8616C16.6601 21.7722 16.7803 21.647 16.8635 21.4979C16.9468 21.3488 16.9903 21.1808 16.99 21.01V16.25C18.82 14.78 19.99 12.53 19.99 10.01C19.99 5.6 16.4 2.01 11.99 2.01L12 2ZM12 16C8.69 16 6 13.31 6 10C6 6.69 8.69 4 12 4C15.31 4 18 6.69 18 10C18 13.31 15.31 16 12 16Z" fill="black"/>
</svg>
