<svg width="24" height="24" viewBox="0 0 24 24" fill="none" xmlns="http://www.w3.org/2000/svg">
<path d="M2.11999 21.48C2.29999 21.8 2.62999 22 2.99999 22H21C21.37 22 21.7 21.8 21.88 21.48C22.06 21.16 22.04 20.77 21.84 20.46L13 6.71V5H17V2H11V6.71L2.15999 20.46C1.95999 20.77 1.94999 21.16 2.11999 21.48ZM15.34 14.05L14.5 14.72L12.62 13.22C12.25 12.93 11.74 12.93 11.37 13.22L9.48999 14.72L8.64999 14.05L11.99 8.85L15.33 14.05H15.34ZM7.56999 15.74L8.86999 16.78C9.23999 17.07 9.74999 17.07 10.12 16.78L12 15.28L13.88 16.78C14.06 16.93 14.28 17 14.5 17C14.72 17 14.94 16.93 15.12 16.78L16.42 15.74L19.16 20H4.82999L7.56999 15.74Z" fill="black"/>
</svg>
