<?xml version="1.0" encoding="UTF-8"?>
<svg id="Layer_1" xmlns="http://www.w3.org/2000/svg" version="1.1" viewBox="0 0 24 24">
  <!-- Generator: Adobe Illustrator 30.2.1, SVG Export Plug-In . SVG Version: 2.1.1 Build 1)  -->
  <defs>
    <style>
      .st0 {
        fill: #fff;
      }
    </style>
  </defs>
  <path class="st0" d="M18.4,22h.4c.3,0,.6-.2.8-.4l2.3-3.3c.1-.2.2-.5.2-.8,0-.1,0-.3-.1-.4,0-.1-.2-.2-.3-.3l-4.9-3.3c-.4-.3-1-.2-1.3.2l-1.9,2c-.8-.4-2-1.3-3-2.3-1-1-1.8-2.3-2.3-3l2-1.9c.4-.3.4-.9.1-1.3l-3.3-4.9c-.2-.2-.4-.4-.6-.4-.3,0-.5,0-.8.2l-3.3,2.3c-.3.2-.4.5-.4.8,0,.7-.2,7,4.8,12,4.5,4.5,10,4.8,11.6,4.8h0Z"/>
</svg>