<svg width="24" height="24" viewBox="0 0 24 24" fill="none" xmlns="http://www.w3.org/2000/svg">
<path d="M18.41 22H18.78C19.09 21.99 19.38 21.83 19.56 21.57L21.83 18.3C21.98 18.08 22.04 17.81 21.99 17.54C21.9655 17.4084 21.9148 17.283 21.8409 17.1714C21.7671 17.0597 21.6715 16.964 21.56 16.89L16.65 13.62C16.24 13.35 15.69 13.41 15.36 13.77L13.48 15.8C12.72 15.35 11.45 14.54 10.45 13.54C9.44999 12.54 8.63999 11.27 8.18999 10.52L10.22 8.63999C10.58 8.30999 10.65 7.75999 10.37 7.34999L7.09999 2.43999C6.94999 2.21999 6.71999 2.05999 6.45999 2.00999C6.18999 1.95999 5.91999 2.00999 5.69999 2.16999L2.42999 4.42999C2.16999 4.60999 2.00999 4.89999 1.99999 5.20999C1.96999 5.91999 1.83999 12.25 6.78999 17.19C11.25 21.65 16.83 21.99 18.41 21.99V22Z" fill="black"/>
</svg>
