<svg width="24" height="24" viewBox="0 0 24 24" fill="none" xmlns="http://www.w3.org/2000/svg">
<path d="M21 7H19.6L18 5.4V3C18 2.45 17.55 2 17 2H16C14.56 2 13.25 2.78 12.55 4H9C5.14 4 2 7.14 2 11C2 11.25 2.02 17.28 4.11 21.45C4.1931 21.6149 4.32024 21.7536 4.47733 21.8507C4.63443 21.9478 4.81533 21.9994 5 22H9C9.55 22 10 21.55 10 21V18H12V21C12 21.55 12.45 22 13 22H17C17.33 22 17.65 21.83 17.83 21.55C19.37 19.24 19.91 16.44 20.1 15H21C21.55 15 22 14.55 22 14V8C22 7.45 21.55 7 21 7ZM20 13H19.19C18.66 13 18.22 13.42 18.19 13.95C18.19 13.99 18 17.33 16.44 20H13.99V17C13.99 16.45 13.54 16 12.99 16H8.99C8.44 16 7.99 16.45 7.99 17V20H5.63C4.02 16.27 3.99 11.05 3.99 11C3.99 8.24 6.23 6 8.99 6H13.17C13.59 6 13.97 5.73 14.11 5.33C14.2463 4.94239 14.4992 4.60645 14.834 4.36832C15.1688 4.13018 15.5691 4.00152 15.98 4V5.81C15.98 6.08 16.09 6.33 16.27 6.52L18.46 8.71C18.65 8.9 18.9 9 19.17 9H19.98V13H20Z" fill="black"/>
<path d="M16 9C15.7348 9 15.4804 9.10536 15.2929 9.29289C15.1054 9.48043 15 9.73478 15 10C15 10.2652 15.1054 10.5196 15.2929 10.7071C15.4804 10.8946 15.7348 11 16 11C16.2652 11 16.5196 10.8946 16.7071 10.7071C16.8946 10.5196 17 10.2652 17 10C17 9.73478 16.8946 9.48043 16.7071 9.29289C16.5196 9.10536 16.2652 9 16 9ZM7 8H13V10H7V8Z" fill="black"/>
</svg>
