<svg width="24" height="24" viewBox="0 0 24 24" fill="none" xmlns="http://www.w3.org/2000/svg">
<path d="M11.71 2.29C11.6166 2.19732 11.5058 2.12399 11.3839 2.07423C11.2621 2.02447 11.1316 1.99924 11 2H6.00002C5.73002 2 5.48002 2.11 5.29002 2.29L2.29002 5.29C2.19734 5.38344 2.12401 5.49426 2.07425 5.6161C2.02448 5.73793 1.99926 5.86839 2.00002 6V11C2.00002 11.27 2.11002 11.52 2.29002 11.71L12.29 21.71C12.49 21.91 12.74 22 13 22C13.26 22 13.51 21.9 13.71 21.71L21.71 13.71C21.8027 13.6175 21.8763 13.5076 21.9264 13.3866C21.9766 13.2657 22.0025 13.136 22.0025 13.005C22.0025 12.874 21.9766 12.7444 21.9264 12.6234C21.8763 12.5024 21.8027 12.3925 21.71 12.3L11.71 2.29ZM13 19.58L4.00002 10.59V6.42L6.41002 4.01H10.58L19.58 13.01L12.99 19.6L13 19.58Z" fill="black"/>
<path d="M8 6C6.9 6 6 6.9 6 8C6 9.1 6.9 10 8 10C9.1 10 10 9.1 10 8C10 6.9 9.1 6 8 6Z" fill="black"/>
</svg>
