<svg width="24" height="24" viewBox="0 0 24 24" fill="none" xmlns="http://www.w3.org/2000/svg">
<path d="M20 7H19.31C19.7916 6.41306 20.0369 5.6676 19.9981 4.90938C19.9593 4.15115 19.639 3.43467 19.1 2.9C17.94 1.74 15.91 1.74 14.75 2.9L12.71 4.94C12.07 3.23 10.44 2 8.50001 2C6.02001 2 4.00001 4.02 4.00001 6.5C4.00001 6.67 4.00001 6.84 4.03001 7H4.00001C3.48001 7 3.05001 7.4 3.00001 7.92L2.09001 18.84C2.06755 19.1155 2.10226 19.3927 2.19194 19.6542C2.28162 19.9157 2.42436 20.1558 2.61119 20.3595C2.79802 20.5632 3.02493 20.7262 3.27768 20.8381C3.53043 20.9501 3.80358 21.0086 4.08001 21.01H19.91C20.1864 21.0086 20.4596 20.9501 20.7123 20.8381C20.9651 20.7262 21.192 20.5632 21.3788 20.3595C21.5657 20.1558 21.7084 19.9157 21.7981 19.6542C21.8878 19.3927 21.9225 19.1155 21.9 18.84L20.99 7.92C20.95 7.4 20.51 7 19.99 7H20ZM16.16 4.32C16.57 3.91 17.28 3.91 17.69 4.32C17.89 4.52 18.01 4.79 18.01 5.08C18.01 5.37 17.9 5.64 17.69 5.84L16.53 7H13.48L16.16 4.32ZM6.00001 6.5C6.00001 5.83696 6.2634 5.20107 6.73224 4.73223C7.20108 4.26339 7.83697 4 8.50001 4C9.16305 4 9.79893 4.26339 10.2678 4.73223C10.7366 5.20107 11 5.83696 11 6.5C11 6.64 10.99 6.79 10.95 6.96C10.95 6.97 10.94 6.99 10.94 7H6.05001C6.02001 6.84 6.00001 6.67 6.00001 6.5ZM4.09001 19L4.92001 9H19.08L19.91 19H4.09001Z" fill="black"/>
<path d="M12 14C10.35 14 9 12.65 9 11H7C7 13.76 9.24 16 12 16C14.76 16 17 13.76 17 11H15C15 12.65 13.65 14 12 14Z" fill="black"/>
</svg>
