<svg width="24" height="24" viewBox="0 0 24 24" fill="none" xmlns="http://www.w3.org/2000/svg">
<path d="M16.41 10.41C16.5853 10.3311 16.734 10.2032 16.8384 10.0418C16.9427 9.88036 16.9982 9.69223 16.9982 9.50001C16.9982 9.30778 16.9427 9.11965 16.8384 8.95822C16.734 8.79679 16.5853 8.66893 16.41 8.59001L12.26 6.75001L10.42 2.60001C10.3422 2.42379 10.2146 2.27411 10.053 2.16931C9.89133 2.06451 9.70263 2.00915 9.50999 2.01001C9.10999 1.98001 8.75999 2.23001 8.58999 2.59001L6.73999 6.60001L2.55999 8.61001C2.20999 8.78001 1.98999 9.14001 1.98999 9.53001C1.98999 9.92001 2.22999 10.27 2.57999 10.43L6.72999 12.27L8.56999 16.42C8.64891 16.5953 8.77677 16.744 8.9382 16.8484C9.09964 16.9527 9.28777 17.0082 9.47999 17.0082C9.67221 17.0082 9.86034 16.9527 10.0218 16.8484C10.1832 16.744 10.3111 16.5953 10.39 16.42L12.23 12.27L16.38 10.43L16.41 10.41ZM10.59 11.09L9.49999 13.53L8.40999 11.09C8.311 10.8614 8.12864 10.679 7.89999 10.58L5.36999 9.46001L7.91999 8.23001C8.12999 8.13001 8.29999 7.96001 8.38999 7.75001L9.46999 5.42001L10.57 7.90001C10.67 8.13001 10.85 8.31001 11.08 8.41001L13.52 9.50001L11.08 10.59C10.85 10.69 10.67 10.87 10.57 11.1L10.59 11.09ZM21.6 16.39L18.83 15.16L17.6 12.39C17.5475 12.2738 17.4635 12.1747 17.3574 12.1039C17.2513 12.0332 17.1274 11.9937 17 11.99C16.73 11.97 16.5 12.14 16.39 12.38L15.16 15.05L12.38 16.39C12.15 16.5 12 16.74 12 17C12 17.26 12.16 17.49 12.4 17.6L15.17 18.83L16.4 21.6C16.4509 21.7196 16.5359 21.8216 16.6444 21.8933C16.7528 21.965 16.88 22.0033 17.01 22.0033C17.14 22.0033 17.2672 21.965 17.3756 21.8933C17.4841 21.8216 17.5691 21.7196 17.62 21.6L18.85 18.83L21.62 17.6C21.86 17.49 22.02 17.25 22.02 16.99C22.02 16.73 21.86 16.49 21.62 16.38L21.6 16.39ZM7.75999 18.63L6.09999 17.89L5.35999 16.23C5.32833 16.1604 5.27784 16.1011 5.21423 16.0587C5.15061 16.0162 5.07641 15.9925 4.99999 15.99C4.83999 15.98 4.69999 16.08 4.62999 16.22L3.88999 17.82L2.21999 18.62C2.07999 18.69 1.98999 18.83 1.98999 18.99C1.98999 19.15 2.08999 19.29 2.22999 19.35L3.88999 20.09L4.62999 21.75C4.66151 21.8219 4.71329 21.883 4.77899 21.926C4.8447 21.9689 4.9215 21.9918 4.99999 21.9918C5.07848 21.9918 5.15528 21.9689 5.22099 21.926C5.28669 21.883 5.33847 21.8219 5.36999 21.75L6.10999 20.09L7.76999 19.35C7.84188 19.3185 7.90303 19.2667 7.94596 19.201C7.9889 19.1353 8.01177 19.0585 8.01177 18.98C8.01177 18.9015 7.9889 18.8247 7.94596 18.759C7.90303 18.6933 7.84188 18.6415 7.76999 18.61L7.75999 18.63Z" fill="black"/>
</svg>
