<svg width="36" height="36" viewBox="0 0 36 36" fill="none" xmlns="http://www.w3.org/2000/svg">
<circle cx="18" cy="18" r="16" fill="#E67917"/>
<path d="M13.0924 24V21.994L16.4244 19.223C16.6624 19.019 16.9344 18.7923 17.2404 18.543C17.5577 18.2823 17.858 18.0047 18.1414 17.71C18.436 17.4153 18.674 17.1037 18.8554 16.775C19.048 16.4463 19.1444 16.1063 19.1444 15.755C19.1444 15.2677 18.9914 14.871 18.6854 14.565C18.3907 14.259 17.9544 14.106 17.3764 14.106C16.8324 14.106 16.4017 14.2307 16.0844 14.48C15.7784 14.718 15.5857 15.024 15.5064 15.398H13.1604C13.2284 14.5933 13.4664 13.9303 13.8744 13.409C14.2937 12.8763 14.8207 12.4797 15.4554 12.219C16.09 11.9583 16.7587 11.828 17.4614 11.828C18.2207 11.828 18.912 11.9697 19.5354 12.253C20.1587 12.5363 20.6517 12.95 21.0144 13.494C21.377 14.0267 21.5584 14.6897 21.5584 15.483C21.5584 16.163 21.428 16.7807 21.1674 17.336C20.918 17.88 20.5724 18.39 20.1304 18.866C19.6884 19.3307 19.1897 19.7783 18.6344 20.209L16.7304 21.756H21.5414V24H13.0924Z" fill="white"/>
</svg>
