<svg width="36" height="36" viewBox="0 0 36 36" fill="none" xmlns="http://www.w3.org/2000/svg">
<circle cx="18" cy="18" r="16" fill="#E67917"/>
<path d="M17.4211 24.119C16.8431 24.119 16.2878 24.051 15.7551 23.915C15.2224 23.779 14.7351 23.5637 14.2931 23.269C13.8511 22.9743 13.4828 22.6003 13.1881 22.147C12.8934 21.6823 12.7121 21.127 12.6441 20.481H15.0581C15.1374 20.7983 15.2904 21.0647 15.5171 21.28C15.7551 21.484 16.0384 21.6313 16.3671 21.722C16.7071 21.8127 17.0641 21.858 17.4381 21.858C17.6874 21.858 17.9311 21.8353 18.1691 21.79C18.4184 21.7447 18.6394 21.6653 18.8321 21.552C19.0361 21.4387 19.1948 21.2857 19.3081 21.093C19.4214 20.9003 19.4781 20.6567 19.4781 20.362C19.4781 20.09 19.4271 19.8633 19.3251 19.682C19.2231 19.5007 19.0871 19.3533 18.9171 19.24C18.7471 19.1267 18.5431 19.0473 18.3051 19.002C18.0784 18.9567 17.8348 18.934 17.5741 18.934H16.1801V16.86H17.1151C17.4098 16.86 17.6761 16.8317 17.9141 16.775C18.1521 16.707 18.3504 16.6163 18.5091 16.503C18.6791 16.3783 18.8094 16.231 18.9001 16.061C18.9908 15.8797 19.0361 15.6757 19.0361 15.449C19.0361 15.109 18.9624 14.8427 18.8151 14.65C18.6678 14.446 18.4638 14.2987 18.2031 14.208C17.9424 14.1173 17.6421 14.072 17.3021 14.072C16.9848 14.072 16.6844 14.123 16.4011 14.225C16.1291 14.3157 15.9024 14.4517 15.7211 14.633C15.5398 14.8143 15.4208 15.0353 15.3641 15.296H13.0011C13.0691 14.684 13.2334 14.1627 13.4941 13.732C13.7548 13.29 14.0891 12.9273 14.4971 12.644C14.9051 12.3607 15.3584 12.1567 15.8571 12.032C16.3671 11.896 16.8941 11.828 17.4381 11.828C17.9594 11.828 18.4581 11.8847 18.9341 11.998C19.4101 12.1113 19.8351 12.2983 20.2091 12.559C20.5944 12.8083 20.9004 13.1427 21.1271 13.562C21.3538 13.9813 21.4671 14.4857 21.4671 15.075C21.4671 15.4377 21.4048 15.7777 21.2801 16.095C21.1668 16.4123 20.9968 16.6957 20.7701 16.945C20.5548 17.183 20.2998 17.3813 20.0051 17.54C20.4471 17.6647 20.8098 17.8687 21.0931 18.152C21.3764 18.4353 21.5861 18.7697 21.7221 19.155C21.8694 19.5403 21.9431 19.954 21.9431 20.396C21.9431 21.1213 21.8071 21.7277 21.5351 22.215C21.2744 22.691 20.9231 23.0707 20.4811 23.354C20.0391 23.626 19.5518 23.8243 19.0191 23.949C18.4864 24.0623 17.9538 24.119 17.4211 24.119Z" fill="white"/>
</svg>
