<svg width="24" height="24" viewBox="0 0 24 24" fill="none" xmlns="http://www.w3.org/2000/svg">
<path d="M10.9398 15.5C11.6498 15.96 12.5898 15.77 13.0598 15.06L17.0198 9.01996C17.0198 9.01996 17.0198 8.99996 17.0198 8.98996C17.0198 8.96996 16.9898 8.96996 16.9798 8.97996L10.9398 12.94C10.2298 13.4 10.0298 14.35 10.4998 15.06C10.6198 15.24 10.7698 15.39 10.9398 15.5Z" fill="black"/>
<path d="M5.08 20.0001H18.93C19.64 20.0001 20.3 19.6301 20.65 19.0301C21.74 17.1601 22.19 15.0101 21.94 12.8301C21.42 8.25007 17.71 4.57007 13.13 4.06007C10.29 3.75007 7.44 4.66007 5.33 6.55007C3.22 8.45007 2 11.1601 2 14.0001C2 15.7701 2.47 17.5101 3.36 19.0301C3.71 19.6301 4.37 20.0001 5.08 20.0001ZM6.66 8.04007C8.15 6.71007 10.01 6.00007 11.99 6.00007C12.29 6.00007 12.6 6.02007 12.91 6.05007C16.57 6.45007 19.53 9.40007 19.95 13.0601C20.15 14.8001 19.8 16.5101 18.93 18.0101L5.09 18.0301C4.38 16.8101 4.01 15.4201 4.01 14.0101C4.01 11.7401 4.98 9.57007 6.67 8.05007L6.66 8.04007Z" fill="black"/>
</svg>
