<svg width="24" height="24" viewBox="0 0 24 24" fill="none" xmlns="http://www.w3.org/2000/svg">
<path d="M20 3H4C2.9 3 2 3.9 2 5V19C2 20.1 2.9 21 4 21H20C21.1 21 22 20.1 22 19V5C22 3.9 21.1 3 20 3ZM4 19V5H20V19H4Z" fill="black"/>
<path d="M13 7.99998H18V9.99998H13V7.99998ZM8.00004 8.58998L6.96004 7.53998L5.54004 8.95998L8.00004 11.41L11.46 7.95998L10.04 6.53998L8.00004 8.58998ZM13 14H18V16H13V14ZM8.00004 14.59L6.96004 13.54L5.54004 14.96L8.00004 17.41L11.46 13.96L10.04 12.54L8.00004 14.59Z" fill="black"/>
</svg>
