<svg width="24" height="24" viewBox="0 0 24 24" fill="none" xmlns="http://www.w3.org/2000/svg">
<path d="M11.9998 22C13.3098 22 14.4098 21.17 14.8198 20H9.1798C9.5898 21.17 10.6898 22 11.9998 22ZM19.9998 18C20.5498 18 20.9998 17.55 20.9998 17V15C20.9998 14.73 20.8898 14.48 20.7098 14.29L18.9998 12.58V9.99004C18.9998 6.77004 16.8198 4.06004 13.8598 3.25004C13.5698 2.51004 12.8498 1.99004 11.9998 1.99004C11.1498 1.99004 10.4398 2.51004 10.1398 3.25004C8.8198 3.62004 7.6598 4.35004 6.7698 5.35004L2.7098 1.29004L1.2998 2.70004L21.2998 22.7L22.7098 21.29L19.4198 18H20.0098H19.9998ZM11.9998 5.00004C14.7598 5.00004 16.9998 7.24004 16.9998 10V13C16.9998 13.27 17.1098 13.52 17.2898 13.71L18.9998 15.42V16.01H17.4098L8.2098 6.79004C8.67075 6.23101 9.24949 5.78069 9.90465 5.47126C10.5598 5.16183 11.2752 5.00092 11.9998 5.00004ZM11.7598 16H4.9998V15.41L6.7098 13.7C6.80249 13.6066 6.87581 13.4958 6.92558 13.3739C6.97534 13.2521 7.00057 13.1216 6.9998 12.99V11.23L5.0398 9.27004C5.0198 9.51004 4.9998 9.75004 4.9998 9.99004V12.58L3.2898 14.29C3.19712 14.3835 3.1238 14.4943 3.07403 14.6161C3.02427 14.738 2.99904 14.8684 2.9998 15V17C2.9998 17.55 3.4498 18 3.9998 18H13.7598L11.7598 16Z" fill="#E44F2D"/>
</svg>
