<svg width="24" height="24" viewBox="0 0 24 24" fill="none" xmlns="http://www.w3.org/2000/svg">
<path d="M19.0003 8.99977H14.0003V2.99977C14.0001 2.78889 13.9333 2.58346 13.8094 2.41284C13.6854 2.24222 13.5107 2.11514 13.3103 2.04977C12.9003 1.91977 12.4503 2.05977 12.1903 2.40977L4.19026 13.4098C4.08252 13.559 4.01804 13.735 4.00392 13.9185C3.98981 14.102 4.0266 14.2858 4.11026 14.4498C4.19336 14.6147 4.3205 14.7534 4.4776 14.8504C4.63469 14.9475 4.81559 14.9992 5.00026 14.9998H10.0003V20.9998C10.0003 21.265 10.1056 21.5193 10.2932 21.7069C10.4807 21.8944 10.735 21.9998 11.0003 21.9998C11.3103 21.9998 11.6203 21.8498 11.8103 21.5898L19.8103 10.5898C19.918 10.4406 19.9825 10.2645 19.9966 10.081C20.0107 9.89753 19.9739 9.7137 19.8903 9.54977C19.8072 9.38486 19.68 9.24617 19.5229 9.14909C19.3658 9.05201 19.1849 9.00033 19.0003 8.99977ZM12.0003 17.9198V13.9998C12.0003 13.4498 11.5503 12.9998 11.0003 12.9998H6.96026L12.0003 6.07977V9.99977C12.0003 10.5498 12.4503 10.9998 13.0003 10.9998H17.0403L12.0003 17.9198Z" fill="black"/>
</svg>
