<svg width="24" height="24" viewBox="0 0 24 24" fill="none" xmlns="http://www.w3.org/2000/svg">
<path d="M21.9495 8.68L19.9495 2.68C19.8824 2.48138 19.7546 2.30887 19.5842 2.18685C19.4137 2.06482 19.2092 1.99946 18.9995 2H5.99953C5.61953 2 5.26953 2.21 5.10953 2.55L2.10953 8.55C2.10953 8.55 2.10953 8.58 2.09953 8.59C2.09953 8.61 2.08953 8.63 2.07953 8.66C2.03953 8.76 2.01953 8.86 2.01953 8.96V20C2.01953 20.55 2.46953 21 3.01953 21H21.0195C21.5695 21 22.0195 20.55 22.0195 20V8.97C22.0195 8.87 22.0095 8.78 21.9695 8.68H21.9495ZM19.6095 8H12.9995V4H18.2795L19.6095 8ZM6.61953 4H10.9995V8H4.61953L6.61953 4ZM19.9995 19H3.99953V10H19.9995V19Z" fill="#E44F2D"/>
</svg>
