<svg width="24" height="24" viewBox="0 0 24 24" fill="none" xmlns="http://www.w3.org/2000/svg">
<path d="M6.5 12C6.10218 12 5.72064 12.158 5.43934 12.4393C5.15804 12.7206 5 13.1022 5 13.5C5 13.8978 5.15804 14.2794 5.43934 14.5607C5.72064 14.842 6.10218 15 6.5 15C6.89782 15 7.27936 14.842 7.56066 14.5607C7.84196 14.2794 8 13.8978 8 13.5C8 13.1022 7.84196 12.7206 7.56066 12.4393C7.27936 12.158 6.89782 12 6.5 12ZM17.5 12C17.1022 12 16.7206 12.158 16.4393 12.4393C16.158 12.7206 16 13.1022 16 13.5C16 13.8978 16.158 14.2794 16.4393 14.5607C16.7206 14.842 17.1022 15 17.5 15C17.8978 15 18.2794 14.842 18.5607 14.5607C18.842 14.2794 19 13.8978 19 13.5C19 13.1022 18.842 12.7206 18.5607 12.4393C18.2794 12.158 17.8978 12 17.5 12Z" fill="#E44F2D"/>
<path d="M20.7702 9.15979L19.4002 5.05979C19.202 4.46123 18.8196 3.94065 18.3078 3.57247C17.7959 3.20429 17.1808 3.00734 16.5502 3.00979H7.44023C6.81007 3.00887 6.19562 3.2064 5.68406 3.57437C5.17249 3.94234 4.78978 4.46206 4.59023 5.05979L3.22023 9.15979C2.50023 9.45979 1.99023 10.1798 1.99023 10.9998V15.9998C1.99023 16.7398 2.40023 17.3798 2.99023 17.7198V19.9998C2.99023 20.5498 3.44023 20.9998 3.99023 20.9998H4.99023C5.54023 20.9998 5.99023 20.5498 5.99023 19.9998V17.9998H17.9902V19.9998C17.9902 20.5498 18.4402 20.9998 18.9902 20.9998H19.9902C20.5402 20.9998 20.9902 20.5498 20.9902 19.9998V17.7198C21.2925 17.5453 21.5439 17.2947 21.7193 16.993C21.8947 16.6912 21.9881 16.3488 21.9902 15.9998V10.9998C21.9902 10.1698 21.4802 9.45979 20.7602 9.15979H20.7702ZM7.44023 4.99979H16.5602C16.7699 4.99925 16.9744 5.06461 17.1449 5.18663C17.3153 5.30865 17.4431 5.48117 17.5102 5.67979L18.6202 8.99979H5.39023L6.50023 5.67979C6.56732 5.48117 6.69513 5.30865 6.86561 5.18663C7.03608 5.06461 7.24059 4.99925 7.45023 4.99979H7.44023ZM4.00023 15.9998V10.9998H20.0002V15.9998H4.00023Z" fill="#E44F2D"/>
</svg>
