<svg width="24" height="24" viewBox="0 0 24 24" fill="none" xmlns="http://www.w3.org/2000/svg">
<path d="M20.4196 6.10988L12.4496 2.10988C12.1696 1.96988 11.8296 1.96988 11.5496 2.10988L3.57961 6.10988C3.26961 6.25988 3.06961 6.55988 3.02961 6.89988C3.01961 7.00988 2.06961 17.6599 11.5796 21.9099C11.7082 21.9691 11.8481 21.9998 11.9896 21.9998C12.1312 21.9998 12.271 21.9691 12.3996 21.9099C21.9096 17.6599 20.9696 6.99988 20.9496 6.89988C20.9337 6.73201 20.8746 6.57109 20.7783 6.4327C20.6819 6.29431 20.5515 6.18312 20.3996 6.10988H20.4196ZM11.9996 19.8999C5.25961 16.6299 4.93961 9.63988 4.99961 7.63988L11.9996 4.12988L18.9996 7.63988C19.0396 9.62988 18.6696 16.6599 11.9996 19.8999Z" fill="#E44F2D"/>
<path d="M11 12.59L9.71004 11.29L8.29004 12.71L11 15.41L15.71 10.71L14.29 9.29004L11 12.59Z" fill="#E44F2D"/>
</svg>
