<svg width="24" height="24" viewBox="0 0 24 24" fill="none" xmlns="http://www.w3.org/2000/svg">
<path d="M19 3H17C17 2.45 16.55 2 16 2H8C7.45 2 7 2.45 7 3H5C3.9 3 3 3.9 3 5V20C3 21.1 3.9 22 5 22H19C20.1 22 21 21.1 21 20V5C21 3.9 20.1 3 19 3ZM19 20H5V5H7V7H17V5H19V20Z" fill="#E44F2D"/>
<path d="M10.9998 14.0898L8.7098 11.7998L7.2998 13.2098L10.2998 16.2098C10.4998 16.4098 10.7498 16.4998 11.0098 16.4998C11.2698 16.4998 11.5198 16.3998 11.7198 16.2098L16.7198 11.2098L15.3098 9.7998L11.0198 14.0898H10.9998Z" fill="#E44F2D"/>
</svg>
