<svg width="24" height="24" viewBox="0 0 24 24" fill="none" xmlns="http://www.w3.org/2000/svg">
<path d="M12 11C13.71 11 15 9.71 15 8C15 6.29 13.71 5 12 5C10.29 5 9 6.29 9 8C9 9.71 10.29 11 12 11ZM12 7C12.6 7 13 7.4 13 8C13 8.6 12.6 9 12 9C11.4 9 11 8.6 11 8C11 7.4 11.4 7 12 7ZM13 12H11C8.24 12 6 14.24 6 17V17.5C6 18.33 6.67 19 7.5 19H16.5C17.33 19 18 18.33 18 17.5V17C18 14.24 15.76 12 13 12ZM8 17C8 15.35 9.35 14 11 14H13C14.65 14 16 15.35 16 17H8ZM6.5 11C6.97 11 7.4 10.88 7.77 10.67C7.3506 10.0022 7.09407 9.24523 7.02111 8.46007C6.94815 7.67491 7.06081 6.8836 7.35 6.15C7.09 6.06 6.8 6 6.5 6C5.06 6 4 7.06 4 8.5C4 9.94 5.06 11 6.5 11ZM6.11 12H5.5C3.57 12 2 13.57 2 15.5V16.5C2 16.78 2.22 17 2.5 17H4C4 15.04 4.81 13.27 6.11 12ZM17.5 11C18.94 11 20 9.94 20 8.5C20 7.06 18.94 6 17.5 6C17.19 6 16.91 6.06 16.65 6.15C16.9392 6.8836 17.0519 7.67491 16.9789 8.46007C16.9059 9.24523 16.6494 10.0022 16.23 10.67C16.6 10.88 17.02 11 17.5 11ZM18.5 12H17.89C18.5582 12.65 19.0892 13.4274 19.4516 14.2862C19.814 15.145 20.0005 16.0678 20 17H21.5C21.78 17 22 16.78 22 16.5V15.5C22 13.57 20.43 12 18.5 12Z" fill="#E44F2D"/>
</svg>
