<svg width="24" height="24" viewBox="0 0 24 24" fill="none" xmlns="http://www.w3.org/2000/svg">
<path fill-rule="evenodd" clip-rule="evenodd" d="M14.4346 8.24609L12.9336 9.24512L14.3203 11.0938L12.207 13.207L10.793 11.793L11.6797 10.9053L10.0654 8.75391L10.9453 8.16797L11.5654 7.75391L11.001 7H10.0889L8.09863 10.5811C7.81369 11.094 7.31753 11.4562 6.74219 11.5713L3 12.3193V15.5H4.14551C4.57583 14.0543 5.91455 13 7.5 13C9.08545 13 10.4242 14.0543 10.8545 15.5H13.1455C13.5758 14.0543 14.9145 13 16.5 13C18.0855 13 19.4242 14.0543 19.8545 15.5H21V11.5H20.6494C19.8593 11.4998 19.1432 11.0345 18.8223 10.3125L17.3506 7H15V5H17.3506C18.1407 5.00018 18.8568 5.46549 19.1777 6.1875L20.6494 9.5H21C22.1046 9.5 23 10.3954 23 11.5V15.5C23 16.6046 22.1046 17.5 21 17.5H19.8545C19.4242 18.9457 18.0855 20 16.5 20C14.9145 20 13.5758 18.9457 13.1455 17.5H10.8545C10.4242 18.9457 9.08545 20 7.5 20C5.91455 20 4.57583 18.9457 4.14551 17.5H3C1.89543 17.5 1 16.6046 1 15.5V12.3193C1.00022 11.3663 1.67287 10.5454 2.60742 10.3584L6.35059 9.61035L8.33984 6.02832C8.69261 5.39351 9.36261 5 10.0889 5H12L14.4346 8.24609ZM7.5 15C6.67157 15 6 15.6716 6 16.5C6 17.3284 6.67157 18 7.5 18C8.32843 18 9 17.3284 9 16.5C9 15.6716 8.32843 15 7.5 15ZM16.5 15C15.6716 15 15 15.6716 15 16.5C15 17.3284 15.6716 18 16.5 18C17.3284 18 18 17.3284 18 16.5C18 15.6716 17.3284 15 16.5 15Z" fill="black"/>
</svg>
