<svg width="24" height="24" viewBox="0 0 24 24" fill="none" xmlns="http://www.w3.org/2000/svg">
<path d="M22.0002 11.9599C21.9802 11.5699 21.7402 11.2199 21.3702 11.0699L17.4402 9.49994L20.8702 3.49994C20.9784 3.30993 21.0213 3.0897 20.9924 2.87297C20.9635 2.65625 20.8644 2.45496 20.7102 2.29994C20.5552 2.14575 20.3539 2.04661 20.1372 2.01772C19.9205 1.98882 19.7002 2.03175 19.5102 2.13994L13.1702 5.75994L9.71022 2.29994C9.42022 2.00994 8.99022 1.92994 8.62022 2.07994C8.25022 2.22994 8.00022 2.59994 8.00022 2.99994V6.81994L3.16022 6.00994C2.95153 5.97441 2.73696 6.00672 2.54798 6.10211C2.359 6.19749 2.20558 6.35094 2.11022 6.53994C1.91022 6.92994 1.98022 7.39994 2.29022 7.70994L6.69022 12.1099L2.18022 18.4199C2.05206 18.5976 1.98647 18.8128 1.9937 19.0318C2.00094 19.2507 2.08061 19.4611 2.22022 19.6299C2.50022 19.9799 2.98022 20.0999 3.39022 19.9199L9.26022 17.4099L10.0202 21.1999C10.1002 21.6099 10.4202 21.9199 10.8302 21.9899C10.8902 21.9899 10.9402 21.9999 11.0002 21.9999C11.3502 21.9999 11.6702 21.8199 11.8602 21.5099L14.3602 17.3499L20.5102 20.8599C20.7067 20.9699 20.9344 21.0107 21.1569 20.9758C21.3793 20.9409 21.5836 20.8323 21.737 20.6674C21.8903 20.5025 21.9838 20.2909 22.0026 20.0665C22.0213 19.8421 21.9641 19.618 21.8402 19.4299L18.4702 14.3699L21.4602 12.8799C21.6329 12.7932 21.7768 12.6582 21.8744 12.4914C21.972 12.3246 22.0192 12.133 22.0102 11.9399L22.0002 11.9599ZM16.5502 13.1099C16.2902 13.2399 16.1002 13.4699 16.0302 13.7499C15.9602 14.0299 16.0102 14.3199 16.1602 14.5599L17.8102 17.0399L14.4902 15.1399C14.2639 15.011 13.9963 14.9754 13.7441 15.0408C13.492 15.1061 13.2753 15.2673 13.1402 15.4899L11.4702 18.2699L10.9802 15.8099C10.9202 15.5199 10.7302 15.2599 10.4602 15.1199C10.3289 15.0496 10.1835 15.0096 10.0347 15.0027C9.88595 14.9957 9.7375 15.0221 9.60022 15.0799L5.89022 16.6699L8.81022 12.5799C9.09022 12.1799 9.05022 11.6399 8.70022 11.2899L5.91022 8.49994L8.83022 8.98994C9.12022 9.03994 9.42022 8.95994 9.64022 8.76994C9.86022 8.57994 9.99022 8.29994 9.99022 8.00994V5.41994L12.2802 7.70994C12.6002 8.02994 13.0902 8.09994 13.4802 7.86994L17.3002 5.68994L15.1202 9.50994C14.9802 9.75994 14.9502 10.0599 15.0402 10.3399C15.1302 10.6199 15.3402 10.8299 15.6102 10.9399L18.5402 12.1099L16.5302 13.1099H16.5502Z" fill="#E44F2D"/>
</svg>
