<svg width="24" height="24" viewBox="0 0 24 24" fill="none" xmlns="http://www.w3.org/2000/svg">
<path d="M2 19.9998H15V21.9998H2V19.9998ZM18.71 8.70977C18.8027 8.61725 18.8762 8.50737 18.9264 8.38639C18.9766 8.26542 19.0024 8.13574 19.0024 8.00477C19.0024 7.8738 18.9766 7.74412 18.9264 7.62314C18.8762 7.50217 18.8027 7.39228 18.71 7.29977L13.71 2.29977C13.6175 2.20706 13.5076 2.13352 13.3866 2.08334C13.2657 2.03315 13.136 2.00732 13.005 2.00732C12.874 2.00732 12.7443 2.03315 12.6234 2.08334C12.5024 2.13352 12.3925 2.20706 12.3 2.29977L3.29 11.2898C3.1973 11.3823 3.12375 11.4922 3.07357 11.6131C3.02339 11.7341 2.99756 11.8638 2.99756 11.9948C2.99756 12.1257 3.02339 12.2554 3.07357 12.3764C3.12375 12.4974 3.1973 12.6073 3.29 12.6998L8.29 17.6998C8.49 17.8998 8.74 17.9898 9 17.9898C9.26 17.9898 9.51 17.8898 9.71 17.6998L13.5 13.9098L20.29 20.6998L21.7 19.2898L14.91 12.4998L18.7 8.70977H18.71ZM11.5 13.0898L7.91 9.49977L10.5 6.90977L14.09 10.4998L11.5 13.0898ZM13 4.41977L16.59 8.00977L15.5 9.09977L11.91 5.50977L13 4.41977ZM9 15.5898L5.41 11.9998L6.5 10.9098L10.09 14.4998L9 15.5898Z" fill="#E44F2D"/>
</svg>
