<svg width="24" height="24" viewBox="0 0 24 24" fill="none" xmlns="http://www.w3.org/2000/svg">
<path d="M12 2C6.49 2 2 6.49 2 12C2 17.51 6.49 22 12 22C17.51 22 22 17.51 22 12C22 6.49 17.51 2 12 2ZM19.93 11H16.98C16.87 8.56 16.36 6.42 15.56 4.85C16.7375 5.4373 17.7522 6.30565 18.5144 7.37828C19.2766 8.45092 19.7628 9.69481 19.93 11ZM12 20C10.86 20 9.25 17.3 9.03 13H14.97C14.75 17.3 13.13 20 12 20ZM9.03 11C9.25 6.7 10.87 4 12 4C13.13 4 14.75 6.7 14.97 11H9.03ZM8.44 4.85C7.65 6.43 7.13 8.56 7.02 11H4.07C4.23722 9.69481 4.72341 8.45092 5.48559 7.37828C6.24778 6.30565 7.26248 5.4373 8.44 4.85ZM4.07 13H7.02C7.13 15.44 7.64 17.58 8.44 19.15C7.26248 18.5627 6.24778 17.6944 5.48559 16.6217C4.72341 15.5491 4.23722 14.3052 4.07 13ZM15.56 19.15C16.35 17.57 16.87 15.44 16.98 13H19.93C19.7628 14.3052 19.2766 15.5491 18.5144 16.6217C17.7522 17.6944 16.7375 18.5627 15.56 19.15Z" fill="#E44F2D"/>
</svg>
