<svg width="24" height="24" viewBox="0 0 24 24" fill="none" xmlns="http://www.w3.org/2000/svg">
<path d="M20.2402 4.76018C17.9402 2.47018 14.3702 2.41018 12.0002 4.57018C9.63023 2.41018 6.07023 2.47018 3.76023 4.77018C1.40023 7.14018 1.40023 10.8402 3.76023 13.2002L11.2902 20.7202C11.4902 20.9102 11.7402 21.0102 12.0002 21.0102C12.2602 21.0102 12.5102 20.9102 12.7102 20.7202L20.2402 13.2002C22.6002 10.8402 22.6002 7.14018 20.2402 4.77018V4.76018ZM5.18023 6.18018C5.97023 5.39018 6.98023 5.00018 7.99023 5.00018C9.00023 5.00018 10.0102 5.39018 10.7902 6.18018C11.5702 6.97018 8.60023 10.5602 8.60023 10.5602C8.45023 10.8702 8.46023 11.2402 8.64023 11.5302C8.82023 11.8202 9.14023 12.0002 9.49023 12.0002H13.1302L11.2902 17.8902L5.17023 11.7802C4.79772 11.4152 4.50179 10.9796 4.29976 10.4988C4.09773 10.018 3.99366 9.5017 3.99366 8.98018C3.99366 8.45867 4.09773 7.9424 4.29976 7.46161C4.50179 6.98081 4.79772 6.54517 5.17023 6.18018H5.18023ZM18.8302 11.7802L13.7202 16.8902L15.4602 11.3102C15.5502 11.0102 15.5002 10.6802 15.3102 10.4202C15.2171 10.2928 15.0952 10.1892 14.9544 10.118C14.8137 10.0467 14.658 10.0098 14.5002 10.0102H11.1202L12.8602 6.54018L13.2102 6.19018C14.7802 4.62018 17.2502 4.62018 18.8302 6.19018C20.4002 7.77018 20.4002 10.2302 18.8302 11.7902V11.7802Z" fill="#E44F2D"/>
</svg>
