<svg width="24" height="24" viewBox="0 0 24 24" fill="none" xmlns="http://www.w3.org/2000/svg">
<path d="M17.55 7.17012C17.26 6.98012 16.9 6.95012 16.58 7.09012C16.27 7.23012 16.05 7.53012 16 7.87012C16 7.88012 15.92 8.44012 15.62 9.15012C15.56 8.34012 15.35 7.46012 14.89 6.55012C13.82 4.41012 10.69 2.26012 10.56 2.17012C10.407 2.06863 10.2291 2.01121 10.0456 2.00416C9.86217 1.9971 9.68032 2.04068 9.52 2.13012C9.19 2.31012 8.99 2.67012 9 3.05012C9 3.07012 9.02 4.88012 6.52 7.38012C4.22 9.68012 3 12.1901 3 14.6401C3 18.1201 5.46 22.0001 9 22.0001C9.38 22.0001 9.73 21.7901 9.89 21.4501C10.05 21.1101 10.02 20.7101 9.8 20.4001C8.6 18.8001 8.76 17.3101 9.25 16.1901C9.95 19.7501 12.09 22.0001 15 22.0001C17.91 22.0001 21 20.0401 21 14.5001C21 9.52012 17.69 7.26012 17.55 7.17012ZM15 20.0001C12.61 20.0001 11 17.3901 11 13.5001C11 13.1101 10.77 12.7501 10.41 12.5901C10.2812 12.5314 10.1415 12.5008 10 12.5001C9.76 12.5001 9.53 12.5801 9.34 12.7501C8.06 13.8701 6.35 16.3901 7.04 19.2401C5.81 18.2201 4.99 16.3401 4.99 14.6501C4.99 12.7501 6.01 10.7201 7.93 8.80012C9.52 7.21012 10.29 5.81012 10.66 4.77012C11.57 5.53012 12.65 6.55012 13.1 7.46012C13.82 8.89012 13.81 10.3301 13.07 12.1201C12.91 12.5101 13.01 12.9701 13.33 13.2501C13.65 13.5301 14.11 13.5801 14.48 13.3701C16.13 12.4401 17.01 11.0101 17.48 9.88012C18.19 10.7801 18.99 12.3001 18.99 14.5001C18.99 19.6001 15.93 20.0001 14.99 20.0001H15Z" fill="#E44F2D"/>
</svg>
