<svg width="32" height="32" viewBox="0 0 32 32" fill="none" xmlns="http://www.w3.org/2000/svg">
<path d="M23.9998 13.3334C23.9998 7.45341 19.2132 2.66675 13.3332 2.66675C7.45317 2.66675 2.6665 7.45341 2.6665 13.3334C2.6665 19.2134 7.45317 24.0001 13.3332 24.0001C15.7998 24.0001 18.0532 23.1601 19.8665 21.7467L26.6665 28.5467L28.5465 26.6667L21.7465 19.8667C23.2018 17.9994 23.9946 15.7009 23.9998 13.3334ZM5.33317 13.3334C5.33317 8.92008 8.91984 5.33341 13.3332 5.33341C17.7465 5.33341 21.3332 8.92008 21.3332 13.3334C21.3332 17.7467 17.7465 21.3334 13.3332 21.3334C8.91984 21.3334 5.33317 17.7467 5.33317 13.3334Z" fill="#E44F2D"/>
</svg>
