<svg width="36" height="36" viewBox="0 0 36 36" fill="none" xmlns="http://www.w3.org/2000/svg">
<rect x="3.7002" y="23.5" width="4.39999" height="5.49999" rx="1.23077" fill="#982C13"/>
<rect x="27.9004" y="23.5" width="4.39999" height="5.49999" rx="1.23077" fill="#982C13"/>
<path d="M32.3002 25.7H3.7002V18.2659C3.7002 17.3845 4.01549 16.5321 4.58909 15.8629L7.00019 13.05L9.67132 8.8525C10.4056 7.69871 11.6784 7 13.046 7H22.9544C24.322 7 25.5948 7.69871 26.329 8.8525L29.0002 13.05L31.4113 15.8629C31.9849 16.5321 32.3002 17.3845 32.3002 18.2659V25.7Z" fill="#E44F2D"/>
<mask id="mask0_542_14917" style="mask-type:alpha" maskUnits="userSpaceOnUse" x="3" y="7" width="30" height="19">
<path d="M32.3002 25.7H3.7002V18.2659C3.7002 17.3845 4.01549 16.5321 4.58909 15.8629L7.00019 13.05L9.67132 8.8525C10.4056 7.69871 11.6784 7 13.046 7H22.9544C24.322 7 25.5948 7.69871 26.329 8.8525L29.0002 13.05L31.4113 15.8629C31.9849 16.5321 32.3002 17.3845 32.3002 18.2659V25.7Z" fill="#E44F2D"/>
</mask>
<g mask="url(#mask0_542_14917)">
<path d="M23.9503 21.2998H11.8417C10.9033 21.2998 10.3101 22.3079 10.7658 23.1283L12.1483 25.6167C12.3654 26.0075 12.7772 26.2498 13.2242 26.2498H22.2913C22.7028 26.2498 23.0871 26.0441 23.3154 25.7017L24.9743 23.2133C25.5196 22.3954 24.9333 21.2998 23.9503 21.2998Z" fill="#BA86FD"/>
<rect x="3.7002" y="24.6001" width="28.6" height="2.2" fill="#982C13"/>
</g>
<path d="M23.5 14.6999L24.38 13.0499L27.02 11.3999H31.6846C32.0245 11.3999 32.3 11.6754 32.3 12.0153V13.2595C32.3 13.5994 32.0245 13.8749 31.6846 13.8749H27.02L26.14 14.6999H23.5Z" fill="#E44F2D"/>
<path d="M12.5 14.6999L11.62 13.0499L8.98 11.3999H4.3154C3.97553 11.3999 3.70001 11.6754 3.70001 12.0153V13.2595C3.70001 13.5994 3.97553 13.8749 4.3154 13.8749H8.98L9.86 14.6999H12.5Z" fill="#E44F2D"/>
<path d="M24.5 8.65017C18.34 8.21017 13.8225 8.46684 11.2559 8.65017L8 14.0002H28L24.5 8.65017Z" fill="white"/>
<path d="M29.5502 16.8999V17.9999L6.4502 17.9999V16.8999" stroke="#982C13" stroke-width="0.615385"/>
<path d="M9.26778 19.6502C7.23701 19.6502 4.31778 18.0002 4.86778 16.9002C5.41778 15.8001 11.4678 17.1099 11.4678 18.0002C11.4677 18.7335 10.537 19.6502 9.26778 19.6502Z" fill="white"/>
<path d="M26.868 19.6502C28.8987 19.6502 31.818 18.0002 31.268 16.9002C30.718 15.8001 24.6679 17.1099 24.668 18.0002C24.668 18.7335 25.5987 19.6502 26.868 19.6502Z" fill="white"/>
</svg>
