<svg width="36" height="36" viewBox="0 0 36 36" fill="none" xmlns="http://www.w3.org/2000/svg">
<path d="M6.22412 15.5496L12.6672 8.66211L19.5547 15.5496V17.327H29.5526V28.9999H19.4214H5.96777L6.22412 15.5496Z" fill="white"/>
<rect x="23.332" y="22.437" width="3.28137" height="6.56274" rx="0.444352" fill="#BA86FD"/>
<rect x="9.55664" y="17.9937" width="6.22093" height="6.22093" rx="0.444352" fill="#E44F2D"/>
<path d="M29.5531 18.062V28.9999H19.6406" stroke="#982C13" stroke-width="0.820343" stroke-linecap="round"/>
<path d="M27.1093 6.88477H12.8008L12.8901 8.21782L19.5553 14.6609V19.1045H33.1081L27.1093 6.88477Z" fill="#E44F2D"/>
<path d="M5.96777 15.5496L12.8894 8.21777L19.6402 15.5496V28.9999H5.96777V15.5496Z" stroke="#982C13" stroke-width="0.820343" stroke-linecap="round"/>
<path d="M4.22466 18.2157L12.8041 9.10653L21.11 18.4379L22.2209 17.3098L12.8041 6.88477L2.8916 17.0876L4.22466 18.2157Z" fill="#982C13"/>
</svg>
