<svg width="24" height="24" viewBox="0 0 24 24" fill="none" xmlns="http://www.w3.org/2000/svg">
<path d="M8 10C7.73478 10 7.48043 10.1054 7.29289 10.2929C7.10536 10.4804 7 10.7348 7 11C7 11.2652 7.10536 11.5196 7.29289 11.7071C7.48043 11.8946 7.73478 12 8 12C8.26522 12 8.51957 11.8946 8.70711 11.7071C8.89464 11.5196 9 11.2652 9 11C9 10.7348 8.89464 10.4804 8.70711 10.2929C8.51957 10.1054 8.26522 10 8 10ZM12 10C11.7348 10 11.4804 10.1054 11.2929 10.2929C11.1054 10.4804 11 10.7348 11 11C11 11.2652 11.1054 11.5196 11.2929 11.7071C11.4804 11.8946 11.7348 12 12 12C12.2652 12 12.5196 11.8946 12.7071 11.7071C12.8946 11.5196 13 11.2652 13 11C13 10.7348 12.8946 10.4804 12.7071 10.2929C12.5196 10.1054 12.2652 10 12 10ZM16 10C15.7348 10 15.4804 10.1054 15.2929 10.2929C15.1054 10.4804 15 10.7348 15 11C15 11.2652 15.1054 11.5196 15.2929 11.7071C15.4804 11.8946 15.7348 12 16 12C16.2652 12 16.5196 11.8946 16.7071 11.7071C16.8946 11.5196 17 11.2652 17 11C17 10.7348 16.8946 10.4804 16.7071 10.2929C16.5196 10.1054 16.2652 10 16 10Z" fill="#E44F2D"/>
<path d="M12 3C6.49 3 2 6.59 2 11C2 13.91 3.9 16.51 7 17.93V21C7 21.38 7.21 21.73 7.55 21.89C7.69 21.96 7.84 22 8 22C8.21 22 8.42 21.93 8.6 21.8L12.34 19C17.7 18.86 22 15.32 22 11C22 6.68 17.51 3 12 3ZM12 17C11.78 17 11.57 17.07 11.4 17.2L9 19V17.27C9 16.86 8.75 16.49 8.36 16.34C5.67 15.3 4 13.26 4 11C4 7.69 7.59 5 12 5C16.41 5 20 7.69 20 11C20 14.31 16.41 17 12 17Z" fill="#E44F2D"/>
</svg>
