<svg width="24" height="24" viewBox="0 0 24 24" fill="none" xmlns="http://www.w3.org/2000/svg">
<path d="M20.2598 14.4702C20.2598 14.4702 20.1998 14.4302 20.1598 14.4202C19.6598 14.1502 19.0898 14.0002 18.4998 14.0002H18.4398L16.2498 8.99023H17.5098C17.7898 8.99023 18.0098 8.77023 18.0098 8.49023V7.49023C18.0098 7.21023 17.7898 6.99023 17.5098 6.99023H15.3798L15.2898 6.79023C15.0553 6.25593 14.6704 5.80133 14.1822 5.48176C13.694 5.16218 13.1234 4.99141 12.5398 4.99023H11.0098V6.99023H12.5398C12.9398 6.99023 13.2998 7.23023 13.4598 7.59023L14.5098 9.99023H10.5798C10.2898 9.99023 10.0198 10.1102 9.82984 10.3202L7.43984 13.0002L4.71984 10.2802C4.6264 10.1876 4.51559 10.1142 4.39375 10.0645C4.27191 10.0147 4.14145 9.98947 4.00984 9.99023H1.83984V11.9902H3.58984L5.59984 14.0002C5.59984 14.0002 5.53984 13.9902 5.49984 13.9902C4.38984 13.9902 3.36984 14.5002 2.70984 15.3702C2.40984 15.7602 2.17984 16.2402 2.05984 16.8002C2.01984 17.0202 1.98984 17.2502 1.98984 17.4802C1.98984 19.4102 3.55984 20.9802 5.48984 20.9802C7.41984 20.9802 8.98984 19.4102 8.98984 17.4802V17.3802L10.2898 18.6802C10.4798 18.8702 10.7298 18.9702 10.9998 18.9702H12.9998C13.2498 18.9702 13.4998 18.8702 13.6798 18.7002L14.9998 17.4702C14.9998 19.4002 16.5698 20.9602 18.4998 20.9602C20.4298 20.9602 21.9998 19.3902 21.9998 17.4602C21.9998 16.2202 21.3298 15.0602 20.2598 14.4302V14.4702ZM5.49984 19.0002C5.2783 19.0003 5.0595 18.9513 4.85919 18.8567C4.65888 18.762 4.48205 18.6241 4.34145 18.4529C4.20085 18.2817 4.09998 18.0815 4.04609 17.8666C3.99221 17.6517 3.98666 17.4275 4.02984 17.2102C4.07984 16.9802 4.16984 16.7602 4.29984 16.6002C4.51877 16.3086 4.83607 16.1063 5.19285 16.0309C5.54963 15.9555 5.92164 16.0121 6.23984 16.1902L6.29984 16.2202C6.64984 16.4502 6.88984 16.8002 6.96984 17.1702C6.98984 17.2702 6.99984 17.3802 6.99984 17.4902C6.99984 18.3202 6.32984 18.9902 5.49984 18.9902V19.0002ZM12.6098 17.0002H11.4198L8.84984 14.4302L11.0198 12.0002H15.3798L16.1398 13.7302L12.6198 17.0002H12.6098ZM18.4998 19.0002C18.221 19.001 17.9474 18.9239 17.71 18.7776C17.4726 18.6313 17.2807 18.4216 17.156 18.1722C17.0313 17.9227 16.9787 17.6434 17.0041 17.3657C17.0295 17.088 17.1319 16.8229 17.2998 16.6002C17.5188 16.3086 17.8361 16.1063 18.1928 16.0309C18.5496 15.9555 18.9216 16.0121 19.2398 16.1902C19.4712 16.3226 19.6639 16.5131 19.799 16.7429C19.934 16.9727 20.0067 17.2337 20.0098 17.5002C20.0098 18.3302 19.3398 19.0002 18.5098 19.0002H18.4998Z" fill="#E44F2D"/>
</svg>
