<svg width="24" height="24" viewBox="0 0 24 24" fill="none" xmlns="http://www.w3.org/2000/svg">
<path d="M17.62 3.00021L16.78 2.47021L11.15 11.4702L5.53 20.4702L6.38 21.0002L7.22 21.5302L12.85 12.5302L18.47 3.53021L17.62 3.00021ZM4 6.50021C4 8.43021 5.57 10.0002 7.5 10.0002C9.43 10.0002 11 8.43021 11 6.50021C11 4.57021 9.43 3.00021 7.5 3.00021C5.57 3.00021 4 4.57021 4 6.50021ZM7.5 5.00021C8.33 5.00021 9 5.67021 9 6.50021C9 7.33021 8.33 8.00021 7.5 8.00021C6.67 8.00021 6 7.33021 6 6.50021C6 5.67021 6.67 5.00021 7.5 5.00021ZM13 17.5002C13 19.4302 14.57 21.0002 16.5 21.0002C18.43 21.0002 20 19.4302 20 17.5002C20 15.5702 18.43 14.0002 16.5 14.0002C14.57 14.0002 13 15.5702 13 17.5002ZM18 17.5002C18 18.3302 17.33 19.0002 16.5 19.0002C15.67 19.0002 15 18.3302 15 17.5002C15 16.6702 15.67 16.0002 16.5 16.0002C17.33 16.0002 18 16.6702 18 17.5002Z" fill="black"/>
</svg>
