<svg width="24" height="24" viewBox="0 0 24 24" fill="none" xmlns="http://www.w3.org/2000/svg">
<path d="M16.1101 21C16.363 21 16.5984 20.9508 16.8162 20.8525C17.034 20.7541 17.2272 20.6206 17.3958 20.452L19.8407 18.0281C19.911 17.9438 19.9707 17.8489 20.0199 17.7436C20.0691 17.6382 20.0937 17.5222 20.0937 17.3958C20.0937 17.2693 20.0691 17.1499 20.0199 17.0375C19.9707 16.9251 19.911 16.8337 19.8407 16.7635L16.2365 13.1593C16.1522 13.0749 16.0574 13.0117 15.952 12.9696C15.8466 12.9274 15.7307 12.9063 15.6042 12.9063C15.4778 12.9063 15.3618 12.9274 15.2564 12.9696C15.1511 13.0117 15.0562 13.0749 14.9719 13.1593L13.5386 14.5925C13.0047 14.452 12.5129 14.2588 12.0632 14.0129C11.6136 13.767 11.1991 13.4824 10.8197 13.1593H10.8407C10.5035 12.7799 10.2155 12.3689 9.97658 11.9262C9.7377 11.4836 9.54801 11.0094 9.40749 10.5035V10.4614L10.8407 9.0281C10.911 8.94379 10.9707 8.84543 11.0199 8.73302C11.0691 8.62061 11.0937 8.5082 11.0937 8.39579C11.0937 8.26932 11.0691 8.14988 11.0199 8.03747C10.9707 7.92506 10.911 7.83372 10.8407 7.76347L7.23653 4.15925C7.15222 4.07494 7.05738 4.01171 6.95199 3.96955C6.8466 3.9274 6.73068 3.90632 6.60422 3.90632C6.47775 3.90632 6.35831 3.9274 6.2459 3.96955C6.13349 4.01171 6.04215 4.07494 5.9719 4.15925L3.54801 6.60422C3.37939 6.77283 3.2459 6.96604 3.14754 7.18384C3.04918 7.40164 3 7.637 3 7.88993C3.0281 8.78923 3.13349 9.66745 3.31616 10.5246C3.51288 11.3677 3.77635 12.1792 4.10656 12.959C4.43677 13.7389 4.83372 14.4801 5.29742 15.1827C5.77518 15.8852 6.30211 16.5316 6.87822 17.1218C7.46838 17.6979 8.11475 18.2248 8.81733 18.7026C9.51991 19.1663 10.2611 19.5632 11.041 19.8934C11.8208 20.2237 12.6323 20.4871 13.4754 20.6838C14.3185 20.8665 15.1897 20.9719 16.089 21H16.1101ZM6.60422 6.07728L8.94379 8.39579L7.76347 9.55504C7.67916 9.63934 7.61241 9.73771 7.56323 9.85012C7.51405 9.96253 7.48946 10.089 7.48946 10.2295C7.48946 10.2576 7.48946 10.2857 7.48946 10.3138C7.48946 10.3419 7.49649 10.363 7.51054 10.377C7.67916 11.1639 7.94262 11.8981 8.30094 12.5796C8.65925 13.2611 9.08431 13.8829 9.57611 14.445V14.4239C10.1241 14.9157 10.7354 15.3372 11.4098 15.6885C12.0843 16.0398 12.8009 16.3068 13.5597 16.4895H13.623C13.6511 16.5035 13.6792 16.5105 13.7073 16.5105C13.7354 16.5105 13.7705 16.5105 13.8126 16.5105C13.9251 16.5105 14.0375 16.4895 14.1499 16.4473C14.2623 16.4052 14.3607 16.3419 14.445 16.2576L15.6042 15.0562L17.9227 17.3958L16.1311 19.1874C15.3583 19.1733 14.5995 19.082 13.8548 18.9133C13.1241 18.7588 12.4215 18.5375 11.7471 18.2494C11.0726 17.9614 10.4333 17.6136 9.82904 17.2061C9.22482 16.7986 8.66276 16.3489 8.14286 15.8571C7.65105 15.3372 7.20141 14.7752 6.79391 14.171C6.38642 13.5667 6.03864 12.9274 5.75059 12.2529C5.46253 11.5785 5.24122 10.8759 5.08665 10.1452C4.91803 9.41452 4.8267 8.66276 4.81265 7.88993V7.86885L6.60422 6.07728ZM19.1874 11.0937H21C21 11.0796 21 11.055 21 11.0199C21 10.9848 21 10.9532 21 10.9251C21 9.82904 20.7892 8.80328 20.3677 7.84778C19.9602 6.87822 19.3981 6.03513 18.6815 5.3185C17.9649 4.60187 17.1218 4.03981 16.1522 3.63232C15.1967 3.21077 14.171 3 13.0749 3C13.0468 3 13.0152 3 12.9801 3C12.945 3 12.9133 3 12.8852 3H12.9063V4.81265C12.9344 4.81265 12.966 4.80913 13.0012 4.80211C13.0363 4.79508 13.0749 4.79157 13.1171 4.79157C13.9461 4.79157 14.733 4.95316 15.4778 5.27635C16.2225 5.59953 16.8689 6.03513 17.4169 6.58314C17.9649 7.13115 18.4005 7.77752 18.7237 8.52225C19.0468 9.26698 19.2084 10.0539 19.2084 10.8829C19.2084 10.9251 19.2049 10.9637 19.1979 10.9988C19.1909 11.034 19.1874 11.0726 19.1874 11.1148V11.0937ZM12.9063 8.39579C13.8478 8.39579 14.5328 8.61007 14.9614 9.03864C15.3899 9.46721 15.6042 10.1522 15.6042 11.0937H17.3958C17.3958 9.64637 17.0094 8.5363 16.2365 7.76347C15.4637 6.99063 14.3536 6.60422 12.9063 6.60422V8.39579Z" fill="black"/>
</svg>
