<svg width="24" height="24" viewBox="0 0 24 24" fill="none" xmlns="http://www.w3.org/2000/svg">
<path d="M5 2H2V4H4V20C4 21.1 4.9 22 6 22H18C19.1 22 20 21.1 20 20V4H22V2H5ZM18 20H6V4H18V20Z" fill="black"/>
<path d="M12 15C10.16 15 10.01 14.14 10 14H8C8 14.92 8.66 16.55 11 16.92V18H13V16.91C14.97 16.58 16 15.28 16 14C16 12.88 15.48 11 12 11C10 11 10 10.37 10 10C10 9.52 10.7 9 12 9C13.18 9 13.39 9.64 13.4 10.02L14.4 10H15.4C15.4 8.97 14.73 7.53 13 7.12V6H11V7.09C9.03 7.42 8 8.72 8 10C8 11.12 8.52 13 12 13C14 13 14 13.68 14 14C14 14.42 13.38 15 12 15Z" fill="black"/>
</svg>
