<svg width="24" height="24" viewBox="0 0 24 24" fill="none" xmlns="http://www.w3.org/2000/svg">
<path d="M19.07 4.93C18.1595 4.01632 17.0793 3.28936 15.89 2.79C14.6596 2.26807 13.3366 1.99939 12 2V4C13.08 4 14.13 4.21 15.11 4.63C16.06 5.03 16.92 5.61 17.65 6.34C18.38 7.07 18.96 7.93 19.37 8.88C19.79 9.87 20 10.91 20 11.99C20 13.07 19.79 14.12 19.37 15.1C18.97 16.05 18.39 16.91 17.65 17.64C17.48 17.81 17.31 17.96 17.13 18.12L15 15.99V21.99H21L18.55 19.54C18.73 19.39 18.91 19.23 19.07 19.06C19.99 18.14 20.71 17.07 21.21 15.88C21.73 14.65 22 13.34 22 11.99C22 10.64 21.74 9.33 21.21 8.1C20.7106 6.91071 19.9837 5.83047 19.07 4.92V4.93ZM4.93 19.07C5.85 19.99 6.92 20.71 8.11 21.21C9.34 21.73 10.65 22 12 22V20C10.9314 20.0025 9.87339 19.7882 8.89 19.37C7.94 18.97 7.08 18.39 6.35 17.66C5.62 16.93 5.04 16.07 4.63 15.12C4.21 14.13 4 13.09 4 12.01C4 10.93 4.21 9.88 4.63 8.9C5.03 7.95 5.61 7.09 6.35 6.36C6.52 6.19 6.69 6.04 6.87 5.88L9 8.01V2H3L5.45 4.45C5.27 4.6 5.09 4.76 4.93 4.93C4.01 5.85 3.29 6.92 2.79 8.11C2.27 9.34 2 10.65 2 12C2 13.35 2.26 14.66 2.79 15.89C3.29 17.08 4.01 18.15 4.93 19.07Z" fill="black"/>
</svg>
