<svg width="24" height="24" viewBox="0 0 24 24" fill="none" xmlns="http://www.w3.org/2000/svg">
<path d="M18.9997 9.09V6C18.9997 5.45 18.5497 5 17.9997 5H14.9097L12.6997 2.79C12.6072 2.6973 12.4973 2.62375 12.3764 2.57357C12.2554 2.52339 12.1257 2.49756 11.9947 2.49756C11.8638 2.49756 11.7341 2.52339 11.6131 2.57357C11.4922 2.62375 11.3823 2.6973 11.2897 2.79L9.07975 5H5.98975C5.43975 5 4.98975 5.45 4.98975 6V9.09L2.77975 11.3C2.68705 11.3925 2.6135 11.5024 2.56332 11.6234C2.51313 11.7444 2.4873 11.874 2.4873 12.005C2.4873 12.136 2.51313 12.2657 2.56332 12.3866C2.6135 12.5076 2.68705 12.6175 2.77975 12.71L4.98975 14.92V18.01C4.98975 18.56 5.43975 19.01 5.98975 19.01H9.07975L11.2897 21.22C11.4897 21.42 11.7397 21.51 11.9997 21.51C12.2597 21.51 12.5097 21.41 12.7097 21.22L14.9197 19.01H18.0097C18.5597 19.01 19.0097 18.56 19.0097 18.01V14.92L21.2197 12.71C21.3125 12.6175 21.386 12.5076 21.4362 12.3866C21.4864 12.2657 21.5122 12.136 21.5122 12.005C21.5122 11.874 21.4864 11.7444 21.4362 11.6234C21.386 11.5024 21.3125 11.3925 21.2197 11.3L19.0097 9.09H18.9997ZM17.2897 13.8C17.1971 13.8934 17.1237 14.0043 17.074 14.1261C17.0242 14.2479 16.999 14.3784 16.9997 14.51V17.01H14.4997C14.2297 17.01 13.9797 17.12 13.7897 17.3L11.9997 19.09L10.2097 17.3C10.1163 17.2073 10.0055 17.134 9.88366 17.0842C9.76182 17.0345 9.63136 17.0092 9.49975 17.01H6.99975V14.51C6.99975 14.24 6.88975 13.99 6.70975 13.8L4.91975 12.01L6.70975 10.22C6.80243 10.1266 6.87576 10.0157 6.92552 9.89391C6.97528 9.77207 7.00051 9.64161 6.99975 9.51V7.01H9.49975C9.76975 7.01 10.0197 6.9 10.2097 6.72L11.9997 4.93L13.7897 6.72C13.9797 6.91 14.2297 7.01 14.4997 7.01H16.9997V9.51C16.9997 9.78 17.1097 10.03 17.2897 10.22L19.0797 12.01L17.2897 13.8Z" fill="black"/>
<path d="M11 12.59L9.71004 11.29L8.29004 12.71L11 15.41L15.71 10.71L14.29 9.29004L11 12.59Z" fill="black"/>
</svg>
