<svg width="24" height="24" viewBox="0 0 24 24" fill="none" xmlns="http://www.w3.org/2000/svg">
<path d="M6 11C7.86 11 9.41 9.72 9.86 8H22V6H9.86C9.41 4.28 7.86 3 6 3C3.79 3 2 4.79 2 7C2 9.21 3.79 11 6 11ZM6 5C7.1 5 8 5.9 8 7C8 8.1 7.1 9 6 9C4.9 9 4 8.1 4 7C4 5.9 4.9 5 6 5ZM18 21C20.21 21 22 19.21 22 17C22 14.79 20.21 13 18 13C16.14 13 14.59 14.28 14.14 16H2V18H14.14C14.59 19.72 16.14 21 18 21ZM18 15C19.1 15 20 15.9 20 17C20 18.1 19.1 19 18 19C16.9 19 16 18.1 16 17C16 15.9 16.9 15 18 15Z" fill="black"/>
</svg>
