<svg width="24" height="24" viewBox="0 0 24 24" fill="none" xmlns="http://www.w3.org/2000/svg">
<path d="M12 17.01C14.76 17.01 17.01 14.76 17.01 12C17.01 9.24 14.76 6.99 12 6.99C9.24 6.99 6.99 9.24 6.99 12C6.99 14.76 9.24 17.01 12 17.01ZM12 9C13.66 9 15.01 10.35 15.01 12.01C15.01 13.67 13.66 15.02 12 15.02C10.34 15.02 8.99 13.67 8.99 12.01C8.99 10.35 10.34 9 12 9ZM13 19H11V22H13V19ZM13 2H11V5H13V2ZM2 11H5V13H2V11ZM19 11H22V13H19V11ZM4.22 18.36L4.93 19.07L5.64 19.78L6.7 18.72L7.76 17.66L7.05 16.95L6.34 16.24L5.28 17.3L4.22 18.36ZM19.78 5.64L19.07 4.93L18.36 4.22L17.3 5.28L16.24 6.34L16.95 7.05L17.66 7.76L18.72 6.7L19.78 5.64ZM7.76 6.34L6.7 5.28L5.64 4.22L4.93 4.93L4.22 5.64L5.28 6.7L6.34 7.76L7.05 7.05L7.76 6.34ZM16.24 17.66L17.3 18.72L18.36 19.78L19.07 19.07L19.78 18.36L18.72 17.3L17.66 16.24L16.95 16.95L16.24 17.66Z" fill="black"/>
</svg>
