<svg width="24" height="24" viewBox="0 0 24 24" fill="none" xmlns="http://www.w3.org/2000/svg">
<path d="M18.0002 5C16.5802 5 15.8402 5.75 15.2902 6.29C14.8002 6.78 14.5602 7 13.9902 7C13.4202 7 13.1902 6.78 12.7002 6.29C12.1502 5.74 11.4102 5 9.99023 5C8.57023 5 7.83023 5.75 7.28023 6.29C6.79023 6.78 6.55023 7 5.99023 7C5.43023 7 5.19023 6.78 4.70023 6.29C4.15023 5.74 3.41023 5 1.99023 5V7C2.55023 7 2.79023 7.22 3.28023 7.71C3.83023 8.26 4.57023 9 5.99023 9C7.41023 9 8.15023 8.25 8.70023 7.71C9.19023 7.22 9.43023 7 9.99023 7C10.5502 7 10.7902 7.22 11.2802 7.71C11.8302 8.26 12.5702 9 13.9902 9C15.4102 9 16.1502 8.25 16.7002 7.71C17.1902 7.22 17.4302 7 18.0002 7C18.5702 7 18.8002 7.22 19.3002 7.71C19.8502 8.26 20.5902 9 22.0102 9V7C21.4502 7 21.2102 6.78 20.7102 6.29C20.1602 5.74 19.4202 5 18.0002 5ZM18.0002 10C16.5802 10 15.8402 10.75 15.2902 11.29C14.8002 11.78 14.5602 12 13.9902 12C13.4202 12 13.1902 11.78 12.7002 11.29C12.1502 10.74 11.4102 10 9.99023 10C8.57023 10 7.83023 10.75 7.28023 11.29C6.79023 11.78 6.55023 12 5.99023 12C5.43023 12 5.19023 11.78 4.70023 11.29C4.15023 10.74 3.41023 10 1.99023 10V12C2.55023 12 2.79023 12.22 3.28023 12.71C3.83023 13.26 4.57023 14 5.99023 14C7.41023 14 8.15023 13.25 8.70023 12.71C9.19023 12.22 9.43023 12 9.99023 12C10.5502 12 10.7902 12.22 11.2802 12.71C11.8302 13.26 12.5702 14 13.9902 14C15.4102 14 16.1502 13.25 16.7002 12.71C17.1902 12.22 17.4302 12 18.0002 12C18.5702 12 18.8002 12.22 19.3002 12.71C19.8502 13.26 20.5902 14 22.0102 14V12C21.4502 12 21.2102 11.78 20.7102 11.29C20.1602 10.74 19.4202 10 18.0002 10ZM18.0002 15C16.5802 15 15.8402 15.75 15.2902 16.29C14.8002 16.78 14.5602 17 13.9902 17C13.4202 17 13.1902 16.78 12.7002 16.29C12.1502 15.74 11.4102 15 9.99023 15C8.57023 15 7.83023 15.75 7.28023 16.29C6.79023 16.78 6.55023 17 5.99023 17C5.43023 17 5.19023 16.78 4.70023 16.29C4.15023 15.74 3.41023 15 1.99023 15V17C2.55023 17 2.79023 17.22 3.28023 17.71C3.83023 18.26 4.57023 19 5.99023 19C7.41023 19 8.15023 18.25 8.70023 17.71C9.19023 17.22 9.43023 17 9.99023 17C10.5502 17 10.7902 17.22 11.2802 17.71C11.8302 18.26 12.5702 19 13.9902 19C15.4102 19 16.1502 18.25 16.7002 17.71C17.1902 17.22 17.4302 17 18.0002 17C18.5702 17 18.8002 17.22 19.3002 17.71C19.8502 18.25 20.5902 19 22.0102 19V17C21.4502 17 21.2102 16.78 20.7102 16.29C20.1602 15.74 19.4202 15 18.0002 15Z" fill="black"/>
</svg>
