<svg width="24" height="24" viewBox="0 0 24 24" fill="none" xmlns="http://www.w3.org/2000/svg">
<path d="M14.8298 7.75977L11.9998 10.5898L9.16977 7.75977L7.75977 9.16977L10.5898 11.9998L7.75977 14.8298L9.16977 16.2398L11.9998 13.4098L14.8298 16.2398L16.2398 14.8298L13.4098 11.9998L16.2398 9.16977L14.8298 7.75977Z" fill="#E44F2D"/>
<path d="M12 2.00004C9.33 2.00004 6.82 3.04004 4.93 4.93004C3.04 6.82004 2 9.33004 2 12C2 14.67 3.04 17.18 4.93 19.07C6.88 21.02 9.44 21.99 12 21.99C14.56 21.99 17.12 21.02 19.07 19.07C21.02 17.12 22 14.67 22 12C22 9.33004 20.96 6.82004 19.07 4.93004C18.1439 3.99827 17.0422 3.25952 15.8286 2.75657C14.615 2.25362 13.3137 1.99648 12 2.00004ZM17.66 17.66C14.54 20.78 9.47 20.78 6.35 17.66C4.84 16.15 4.01 14.14 4.01 12C4.01 9.86004 4.84 7.85004 6.35 6.34004C7.86 4.83004 9.87 4.00004 12.01 4.00004C14.15 4.00004 16.16 4.83004 17.67 6.34004C19.18 7.85004 20.01 9.86004 20.01 12C20.01 14.14 19.18 16.15 17.67 17.66H17.66Z" fill="#E44F2D"/>
</svg>
