<?xml version="1.0" encoding="UTF-8"?>
<svg xmlns="http://www.w3.org/2000/svg" version="1.1" viewBox="0 0 4200 3500">
  <defs>
    <style>
      .cls-1 {
        fill: #fff;
      }
    </style>
  </defs>
  <!-- Generator: Adobe Illustrator 28.6.0, SVG Export Plug-In . SVG Version: 1.2.0 Build 709)  -->
  <g>
    <g id="Layer_1">
      <rect class="cls-1" x="0" y="0" width="4200" height="3500"/>
      <g>
        <path d="M2893.3,1322.4c-6.5,2.8-55.1,0-55.1,0l-16.4,54.8-32.5-74.8s42.3-32.5,50.4-34.1c8.1-1.6,95.9,0,95.9,0,0,0-35.8,51.3-42.3,54.1Z"/>
        <path d="M2610.4,1322.4s-48.6,2.8-55.1,0c-6.5-2.8-42.3-54.1-42.3-54.1,0,0,87.8-1.6,95.9,0,8.1,1.6,50.4,34.1,50.4,34.1l-32.5,74.8-16.4-54.8Z"/>
        <path d="M3114.4,1149.7s43.9-17.9,91,14.6c-21.1-89.4-152.8-243.8-357.6-156,4.9-26,50.4-89.4,185.3-82.9-82.9-65-227.5-66.6-308.8,26-81.3-92.6-225.9-91-308.8-26,134.9-6.5,180.4,56.9,185.3,82.9-204.8-87.8-336.4,66.6-357.6,156,47.1-32.5,91-14.6,91-14.6-154.4,120.3-170.7,234-151.1,331.6,45.5-134.9,160.9-173.9,160.9-173.9-177.1,224.3-97.5,394.9-76.4,438.8,12.9-169.3,109-209,110.5-209.6-115.4,232.4-9.7,329.9,48.8,396.5-34.1-182,42.3-263.3,42.3-263.3-17.9,242.2,94.3,320.2,94.3,320.2-9.7-121.9,22.8-165.8,22.8-165.8,43.9,154.4,138.1,251.1,138.1,251.1,0,0,94.3-96.7,138.1-251.1,0,0,32.5,43.9,22.8,165.8,0,0,112.1-78,94.3-320.2,0,0,76.4,81.3,42.3,263.3,58.5-66.6,164.1-164.1,48.8-396.5,1.5.6,97.6,40.3,110.5,209.6,21.1-43.9,100.8-214.5-76.4-438.8,0,0,115.4,39,160.9,173.9,19.5-97.5,3.3-211.3-151.1-331.6ZM2599.2,1645.4s68.3-39,125.1-38.5c56.9-.6,125.1,38.5,125.1,38.5,0,0-48.8,74.8-60.1,78-11.4,3.2-65,0-65,0s-53.6,3.2-65,0c-11.4-3.3-60.1-78-60.1-78ZM3023.4,1432.5c-6.5,8.1-50.4,58.5-65,65-14.6,6.5-32.5,0-39,11.4-6.5,11.4,0,53.6-14.6,71.5-14.6,17.9-48.7,29.3-68.3,26-19.5-3.2-78-27.6-87.8-37.4-9.8-9.7-9.8-47.1-4.9-50.4,4.9-3.2,45.5-17.9,56.9-30.9,11.4-13,21.1-39,3.3-43.9-17.9-4.9-79.6-3.2-79.6-3.2,0,0-61.8-1.6-79.6,3.2-17.9,4.9-8.1,30.9,3.3,43.9,11.4,13,52,27.6,56.9,30.9,4.9,3.3,4.9,40.6-4.9,50.4-9.7,9.8-68.3,34.1-87.8,37.4-19.5,3.3-53.6-8.1-68.3-26-14.6-17.9-8.1-60.1-14.6-71.5-6.5-11.4-24.4-4.9-39-11.4-14.6-6.5-58.5-56.9-65-65-6.5-8.1-21.1-30.9-8.1-60.1,13-29.3,71.5-141.4,68.3-151.1-11.4-9.8-61.8-66.6-68.3-106,22.8-29.6,76.4-46.8,139.8,11.7,0,0,21.1-24.4,65-30.9,43.9-6.5,84.5,39,102.4,39,17.9,0,58.5-45.5,102.4-39,43.9,6.5,65,30.9,65,30.9,63.4-58.5,117-41.3,139.8-11.7-6.5,39.3-56.9,96.2-68.3,106-3.2,9.7,55.3,121.9,68.3,151.1,13,29.3-1.6,52-8.1,60.1Z"/>
        <path d="M927.9,1326.6h0c0-148,118.2-268.9,266.2-272.2l180.6-4c93.3-106.5,195.2-87,234.2-58.9,39,28.2,127.9-22.2,127.9-22.2-49.8,254.1-246.9,272.4-372.7,178.2h-171.1c-91,0-164.8,73.8-164.8,164.8h0c0,91,73.8,164.8,164.8,164.8h559c112.7,0,257.9-8.9,379.2-99.9,0,0-15.2,106.2,30.3,208,0,0,13-23.8,26-32.5,0,0-23.8,145.2,93.2,305.5,0,0,2.2-34.7,15.2-52,0,0,34.3,117.9,169,189.5v-35.7s0,0,.1.2c0,0,0,0,0,0,0,0,0,0,0,0,4.3,5,71.5,82.5,142.8,96.2,0,0-8.7-35.8-8.7-66.1,0,0,43.3,71.5,125.1,132.2,0,0,65-17.3,117.6-114.9,0,0,7.6,43.3-6.3,79.1,0,0,100.1-29.5,140.7-131.1l-3.4,97.5c4.3,86.2,20.6,276.3,83,404.7,34.1-21.1,126.8-14.6,160.9,14.6,31.5,27,52.1,69.3,55,132,.4,8.7-6.5,15.9-15.2,15.9h-342.9c-11.7,0-22.7-5.7-29.5-15.3l-215.2-411.3c-34.2,25.2-98.8,64.1-147,92.4-41.4,65.2-79.8,131.5-84.7,159.9,39.2-1.3,85.2,8.1,107.2,26.9,30.7,26.3,50.9,67,54.7,126.9.7,11.4-8.4,21-19.8,21h-274.3c-16.4,0-31.2-9.7-37.6-24.7-39.3-92-16-233.8-25.8-384.9-86.6,8.7-218.9-10.8-331.6-121.4-102.7-100.8-175.5-93.2-175.5-93.2,71.5-151.7,0-272.1,0-272.1,4.8,261.5-169,417.3-294.7,488.8-125.7,71.5-236.2,66.6-257.9,100.5-21.7,33.9-34.7,122.7-34.7,133.5l17.2,4.9c36.4-2.3,75.8,3.2,95.4,20,31.5,27,52,69.3,55,131.9.4,8.7-6.6,16-15.3,16h-273.6c-44.1,0-80.6-34.2-83.5-78.2-7.5-114.3-19-317-9.4-349.4,13.5-45.5,82-55.1,123.1-89.8,41.2-34.7,125.7-143,140.9-249.2,15.2-106.2,75.8-229.7,108.4-257.9l-97.9,2.7c-153.2,4.2-279.7-118.9-279.7-272.2Z"/>
        <path d="M1615.3,2170.3c41.2-32.5,104-123.5,104-123.5,138.7,28.5,173.4,136.5,236.2,145.2-58.5,78-153.9,97.5-173.4,140.9-19.5,43.3,39,140.9,69.3,140.9,30.3,0,60.7-26,127.9,0,67.2,26,91,108.4,91,147.4h-333.7s-216.7-262.9-231.9-299.4c-15.2-36.5,69.3-118.8,110.5-151.3Z"/>
      </g>
    </g>
  </g>
</svg>