<?xml version="1.0" encoding="UTF-8"?>
<!DOCTYPE svg PUBLIC "-//W3C//DTD SVG 1.1//EN" "http://www.w3.org/Graphics/SVG/1.1/DTD/svg11.dtd">
<!-- Creator: CorelDRAW 2021 (64-Bit) -->
<svg xmlns="http://www.w3.org/2000/svg" xml:space="preserve" width="30in" height="8in" version="1.1" style="shape-rendering:geometricPrecision; text-rendering:geometricPrecision; image-rendering:optimizeQuality; fill-rule:evenodd; clip-rule:evenodd"
viewBox="0 0 30000 8000"
 xmlns:xlink="http://www.w3.org/1999/xlink"
 xmlns:xodm="http://www.corel.com/coreldraw/odm/2003">
 <defs>
  <style type="text/css">
   <![CDATA[
    .fil0 {fill:#049634}
    .fil1 {fill:#1A84FF}
    .fil2 {fill:#444545;fill-rule:nonzero}
    .fil4 {fill:#049634;fill-rule:nonzero}
    .fil3 {fill:#1A84FF;fill-rule:nonzero}
   ]]>
  </style>
 </defs>
 <g id="Layer_x0020_1">
  <metadata id="CorelCorpID_0Corel-Layer"/>
  <g id="_2710525237792">
   <g>
    <path class="fil0" d="M5552.56 3792.89c-371.13,948.41 -1007.16,1742.63 -1907.57,2390.75 -564.85,-403.18 -1022.97,-865.48 -1374.47,-1383.12l-1015.03 -470.21c473.94,1039.25 1259.92,1928.39 2389.5,2639.63 1441.6,-904.92 2326.29,-2110.13 2709.28,-3536.63l-600.21 -280.57 -304.15 -138.34 -1449.47 -671.69c197.46,-90.79 351.42,-162.01 470.03,-209.4 -280.39,-130.46 -557,-264.75 -825.48,-403.11 -406.81,205.5 -833.34,414.96 -1263.91,592.74l2871.37 1331.69 300.11 138.27z"/>
    <path class="fil1" d="M3498.84 5002.1c-90.84,90.84 -201.41,209.36 -335.69,351.65 150.05,146.18 308.02,284.52 481.83,418.89 382.99,-300.39 710.96,-628.3 983.48,-991.9l-2626.53 -1217.02 -406.81 -185.73c-98.7,-331.93 -165.82,-679.61 -201.35,-1047.11 746.41,-221.28 1583.75,-628.33 2251.21,-968.12 663.52,339.79 1504.81,746.85 2251.17,968.12 -19.72,169.92 -43.35,335.88 -74.99,501.83l612.26 280.57c90.75,-414.91 138.15,-845.57 149.91,-1296.07 -604.26,-87.02 -1583.74,-486.05 -2938.35,-1193.4 -1358.66,707.35 -2338.19,1106.38 -2938.45,1193.4 15.72,734.88 138.23,1422.5 363.37,2062.65l892.56 410.94 521.41 241 1014.97 470.29z"/>
   </g>
   <path class="fil2" d="M8233.56 1322.93l0 2181.28 -435.64 0 0 -2181.28 435.64 0zm1345.67 444.91c197.74,0 355.31,64.89 472.71,194.65 117.41,129.76 176.11,312.05 176.11,546.87l0 994.86 -432.55 0 0 -945.43c0,-135.94 -35.02,-241.51 -105.05,-316.69 -70.03,-75.18 -165.81,-112.77 -287.33,-112.77 -123.59,0 -222.45,40.17 -296.61,120.5 -74.15,80.33 -111.23,195.68 -111.23,346.04l0 908.35 -435.64 0 0 -1711.66 435.64 0 0 342.95c45.31,-115.35 119.98,-205.46 224,-270.34 104.02,-64.89 224,-97.33 359.94,-97.33zm1552.67 3.09c208.04,0 374.87,52.52 500.52,157.57 125.65,105.05 203.92,245.11 234.81,420.19l-407.83 0c-16.48,-82.39 -53.55,-148.3 -111.22,-197.74 -57.67,-49.44 -132.85,-74.15 -225.54,-74.15 -74.15,0 -131.83,17.51 -173.02,52.52 -41.2,35.02 -61.8,82.39 -61.8,142.13 0,47.37 16.48,85.48 49.43,114.31 32.96,28.83 74.15,51.49 123.59,67.97 49.43,16.48 120.5,36.05 213.19,58.7 129.76,28.84 235.33,59.22 316.69,91.15 81.36,31.93 151.39,82.39 210.09,151.39 58.7,69 88.06,162.2 88.06,279.61 0,146.24 -57.16,264.68 -171.48,355.31 -114.31,90.63 -268.28,135.94 -461.9,135.94 -222.46,0 -400.63,-49.95 -534.51,-149.85 -133.89,-99.9 -215.24,-242.54 -244.08,-427.91l417.1 0c10.3,84.45 47.37,150.88 111.22,199.28 63.85,48.41 147.28,72.61 250.26,72.61 74.15,0 130.79,-18.02 169.93,-54.07 39.13,-36.05 58.7,-82.91 58.7,-140.58 0,-49.43 -16.99,-89.6 -50.98,-120.5 -33.99,-30.9 -76.21,-54.58 -126.68,-71.06 -50.46,-16.48 -122.04,-36.04 -214.73,-58.7 -127.7,-28.84 -231.21,-58.19 -310.51,-88.06 -79.3,-29.87 -147.28,-77.76 -203.92,-143.67 -56.64,-65.91 -84.96,-156.54 -84.96,-271.89 0,-148.3 56.64,-268.8 169.93,-361.49 113.29,-92.69 269.83,-139.04 469.63,-139.04zm2649.49 21.63l0 1711.66 -435.64 0 0 -346.04c-45.31,115.35 -119.98,205.46 -224,270.34 -104.02,64.88 -224,97.32 -359.94,97.32 -197.74,0 -355.31,-64.88 -472.72,-194.65 -117.41,-129.76 -176.11,-311.02 -176.11,-543.78l0 -994.86 432.55 0 0 945.43c0,135.94 35.02,241.5 105.05,316.69 70.03,75.18 164.78,112.77 284.25,112.77 125.65,0 225.54,-40.17 299.69,-120.5 74.15,-80.33 111.23,-195.68 111.23,-346.04l0 -908.35 435.64 0zm761.72 327.5c63.85,-109.17 148.3,-195.16 253.35,-257.98 105.05,-62.82 222.46,-94.24 352.22,-94.24l0 466.54 -126.68 0c-319.26,0 -478.89,148.3 -478.89,444.91l0 824.93 -435.64 0 0 -1711.66 435.64 0 0 327.5zm1447.63 -349.13c144.18,0 267.77,33.99 370.76,101.96 102.99,67.97 176.11,159.63 219.36,274.98l0 -355.31 432.55 0 0 1711.66 -432.55 0 0 -358.4c-43.25,115.35 -116.37,207.52 -219.36,276.52 -102.99,69 -226.57,103.5 -370.76,103.5 -144.19,0 -273.95,-35.02 -389.3,-105.05 -115.35,-70.03 -205.46,-171.47 -270.34,-304.33 -64.88,-132.85 -97.32,-288.88 -97.32,-468.08 0,-179.2 32.44,-335.22 97.32,-468.08 64.88,-132.85 155,-234.3 270.34,-304.33 115.35,-70.03 245.11,-105.05 389.3,-105.05zm135.94 380.03c-135.94,0 -245.11,44.28 -327.5,132.85 -82.39,88.57 -123.59,210.09 -123.59,364.57 0,154.48 41.2,275.49 123.59,363.04 82.39,87.54 191.56,131.31 327.5,131.31 131.82,0 240.48,-44.8 325.96,-134.4 85.48,-89.6 128.22,-209.58 128.22,-359.94 0,-152.42 -42.74,-273.43 -128.22,-363.03 -85.48,-89.6 -194.13,-134.4 -325.96,-134.4zm2232.39 -383.12c197.74,0 355.31,64.89 472.71,194.65 117.41,129.76 176.11,312.05 176.11,546.87l0 994.86 -432.55 0 0 -945.43c0,-135.94 -35.02,-241.51 -105.05,-316.69 -70.03,-75.18 -165.81,-112.77 -287.33,-112.77 -123.59,0 -222.45,40.17 -296.61,120.5 -74.15,80.33 -111.23,195.68 -111.23,346.04l0 908.35 -435.64 0 0 -1711.66 435.64 0 0 342.95c45.31,-115.35 119.98,-205.46 224,-270.34 104.02,-64.89 224,-97.33 359.94,-97.33zm1731.87 3.09c220.4,0 404.23,59.73 551.5,179.2 147.28,119.46 239.45,282.19 276.52,488.16l-460.35 0c-18.54,-90.63 -60.76,-162.2 -126.68,-214.73 -65.91,-52.52 -149.33,-78.79 -250.26,-78.79 -115.35,0 -211.64,42.74 -288.88,128.22 -77.24,85.48 -115.86,210.61 -115.86,375.39 0,164.78 38.62,289.91 115.86,375.39 77.24,85.48 173.54,128.22 288.88,128.22 100.93,0 184.35,-26.26 250.26,-78.78 65.91,-52.52 108.14,-124.1 126.68,-214.73l460.35 0c-37.07,205.98 -129.25,368.7 -276.52,488.17 -147.27,119.46 -331.1,179.2 -551.5,179.2 -166.84,0 -315.14,-35.53 -444.91,-106.59 -129.76,-71.06 -230.69,-172.5 -302.78,-304.33 -72.09,-131.82 -108.14,-287.33 -108.14,-466.54 0,-179.2 36.04,-335.22 108.14,-468.08 72.09,-132.85 173.02,-234.3 302.78,-304.33 129.76,-70.03 278.07,-105.05 444.91,-105.05zm2677.3 812.57c0,43.26 -5.15,92.69 -15.45,148.3l-1254.39 0c6.18,152.42 47.37,264.68 123.58,336.77 76.21,72.09 170.96,108.14 284.25,108.14 100.93,0 184.86,-24.72 251.81,-74.15 66.94,-49.43 109.68,-116.37 128.22,-200.83l460.36 0c-22.66,119.47 -71.06,226.57 -145.21,321.32 -74.15,94.75 -169.42,168.9 -285.79,222.45 -116.38,53.56 -245.63,80.33 -387.75,80.33 -166.84,0 -315.14,-35.53 -444.91,-106.59 -129.76,-71.06 -230.69,-172.5 -302.78,-304.33 -72.09,-131.82 -108.14,-287.33 -108.14,-466.54 0,-179.2 36.04,-335.22 108.14,-468.08 72.09,-132.85 173.02,-234.3 302.78,-304.33 129.76,-70.03 278.07,-105.05 444.91,-105.05 168.9,0 316.69,35.02 443.37,105.05 126.67,70.03 224.51,166.33 293.52,288.88 69,122.56 103.5,262.11 103.5,418.65zm-438.73 -43.26c6.18,-140.06 -30.38,-246.14 -109.68,-318.23 -79.3,-72.09 -176.63,-108.14 -291.97,-108.14 -117.41,0 -216.27,36.05 -296.6,108.14 -80.33,72.09 -124.62,178.17 -132.85,318.23l831.11 0z"/>
   <g>
    <path class="fil3" d="M9181.33 5914.78c0,115.35 -29.35,221.43 -88.05,318.23 -58.7,96.81 -145.22,174.05 -259.53,231.72 -114.31,57.67 -252.83,86.51 -415.56,86.51 -245.11,0 -446.97,-59.73 -605.57,-179.2 -158.6,-119.47 -245.11,-286.31 -259.53,-500.52l562.31 0c8.24,82.39 37.59,147.28 88.06,194.65 50.46,47.37 114.83,71.06 193.1,71.06 67.97,0 121.53,-18.54 160.66,-55.61 39.14,-37.08 58.7,-86.51 58.7,-148.3 0,-55.61 -18.02,-101.96 -54.07,-139.04 -36.04,-37.07 -80.84,-67.46 -134.4,-91.14 -53.56,-23.69 -127.7,-52.01 -222.45,-84.97 -138,-47.37 -250.78,-93.2 -338.31,-137.49 -87.54,-44.28 -162.72,-110.2 -225.54,-197.74 -62.82,-87.54 -94.24,-201.34 -94.24,-341.41 0,-129.76 32.96,-242.02 98.87,-336.77 65.91,-94.75 157.06,-167.36 273.43,-217.82 116.37,-50.46 249.74,-75.69 400.11,-75.69 243.05,0 436.15,57.67 579.31,173.02 143.15,115.35 224,273.94 242.54,475.8l-571.58 0c-10.3,-72.09 -36.56,-129.25 -78.78,-171.48 -42.22,-42.22 -99.39,-63.34 -171.48,-63.34 -61.79,0 -111.74,16.48 -149.85,49.44 -38.11,32.96 -57.16,81.36 -57.16,145.21 0,51.49 16.99,95.26 50.98,131.31 33.99,36.04 76.73,65.39 128.22,88.05 51.5,22.66 125.65,51.5 222.46,86.51 140.06,47.37 254.38,94.23 342.95,140.58 88.57,46.34 164.78,113.8 228.63,202.37 63.85,88.57 95.78,203.92 95.78,346.04zm809.63 -1130.81c131.83,0 245.11,29.87 339.86,89.6 94.75,59.74 164.78,141.09 210.09,244.08l0 -312.06 525.24 0 0 1724.02 -525.24 0 0 -312.06c-45.31,102.99 -115.35,184.35 -210.09,244.08 -94.75,59.73 -208.04,89.6 -339.86,89.6 -142.12,0 -269.31,-35.53 -381.57,-106.59 -112.26,-71.06 -200.83,-173.54 -265.71,-307.42 -64.88,-133.88 -97.32,-290.43 -97.32,-469.62 0,-181.26 32.44,-338.31 97.32,-471.17 64.88,-132.85 153.45,-234.81 265.71,-305.87 112.26,-71.06 239.45,-106.59 381.57,-106.59zm169.93 463.44c-113.28,0 -204.43,37.07 -273.43,111.23 -69,74.15 -103.5,177.14 -103.5,308.96 0,131.82 34.5,234.81 103.5,308.96 69,74.15 160.15,111.22 273.43,111.22 111.23,0 202.37,-38.11 273.43,-114.31 71.06,-76.21 106.59,-178.17 106.59,-305.87 0,-129.77 -35.53,-232.24 -106.59,-307.42 -71.06,-75.18 -162.2,-112.77 -273.43,-112.77zm1928.07 766.23l373.85 -1208.05 562.31 0 -611.75 1724.02 -655 0 -611.75 -1724.02 562.31 0 380.02 1208.05zm967.2 -1693.12c0,-80.33 28.84,-146.76 86.51,-199.28 57.67,-52.52 133.88,-78.78 228.63,-78.78 94.75,0 170.96,26.26 228.63,78.78 57.67,52.52 86.51,118.95 86.51,199.28 0,78.27 -28.84,143.67 -86.51,196.19 -57.67,52.52 -133.88,78.78 -228.63,78.78 -94.75,0 -170.96,-26.26 -228.63,-78.78 -57.67,-52.52 -86.51,-117.92 -86.51,-196.19zm577.76 485.07l0 1724.02 -528.33 0 0 -1724.02 528.33 0zm1319.41 -18.54c197.74,0 354.8,65.91 471.17,197.74 116.38,131.82 174.57,313.08 174.57,543.78l0 1001.04 -528.33 0 0 -939.25c0,-115.35 -30.38,-205.46 -91.14,-270.35 -60.76,-64.88 -141.61,-97.32 -242.54,-97.32 -107.11,0 -192.07,33.99 -254.89,101.96 -62.82,67.97 -94.23,164.78 -94.23,290.43l0 914.53 -528.33 0 0 -1724.02 528.33 0 0 315.15c49.43,-102.99 123.07,-184.35 220.91,-244.08 97.84,-59.73 212.67,-89.6 344.49,-89.6zm1510.97 -3.09c131.83,0 245.11,29.87 339.86,89.6 94.75,59.74 164.78,141.09 210.09,244.08l0 -312.06 525.24 0 0 1714.75c0,160.66 -30.89,305.36 -92.69,434.09 -61.79,128.73 -156.54,231.2 -284.24,307.42 -127.7,76.21 -286.31,114.31 -475.81,114.31 -259.53,0 -467.05,-61.28 -622.56,-183.83 -155.51,-122.56 -248.72,-288.88 -279.61,-498.98l522.15 0c16.48,70.03 54.07,124.61 112.77,163.75 58.7,39.14 135.43,58.7 230.18,58.7 109.17,0 197.22,-31.41 264.17,-94.23 66.94,-62.82 100.41,-163.24 100.41,-301.24l0 -302.79c-45.31,102.99 -115.35,184.35 -210.09,244.08 -94.75,59.73 -208.04,89.6 -339.86,89.6 -142.12,0 -269.31,-35.53 -381.57,-106.59 -112.26,-71.06 -200.83,-173.54 -265.71,-307.42 -64.88,-133.88 -97.32,-290.43 -97.32,-469.62 0,-181.26 32.44,-338.31 97.32,-471.17 64.88,-132.85 153.45,-234.81 265.71,-305.87 112.26,-71.06 239.45,-106.59 381.57,-106.59zm169.93 463.44c-113.28,0 -204.43,37.07 -273.43,111.23 -69,74.15 -103.5,177.14 -103.5,308.96 0,131.82 34.5,234.81 103.5,308.96 69,74.15 160.15,111.22 273.43,111.22 111.23,0 202.37,-38.11 273.43,-114.31 71.06,-76.21 106.59,-178.17 106.59,-305.87 0,-129.77 -35.53,-232.24 -106.59,-307.42 -71.06,-75.18 -162.2,-112.77 -273.43,-112.77zm1758.15 -463.44c218.33,0 392.9,54.58 523.69,163.75 130.8,109.17 212.67,253.35 245.63,432.55l-494.34 0c-14.42,-70.03 -46.86,-125.13 -97.33,-165.3 -50.46,-40.17 -113.8,-60.25 -190.01,-60.25 -59.73,0 -105.05,12.87 -135.94,38.62 -30.89,25.75 -46.34,62.31 -46.34,109.68 0,53.56 28.32,93.72 84.96,120.5 56.64,26.78 145.73,53.56 267.25,80.33 131.83,30.9 239.96,62.31 324.41,94.23 84.45,31.93 157.57,83.94 219.37,156.03 61.79,72.09 92.69,168.9 92.69,290.43 0,98.87 -26.78,186.41 -80.33,262.62 -53.56,76.21 -130.8,135.94 -231.72,179.2 -100.93,43.26 -220.39,64.88 -358.4,64.88 -232.75,0 -419.16,-51.49 -559.22,-154.48 -140.06,-102.99 -225.54,-250.26 -256.44,-441.82l509.79 0c8.24,74.15 39.65,130.8 94.23,169.93 54.59,39.14 125.13,58.7 211.64,58.7 59.73,0 105.05,-13.9 135.94,-41.71 30.89,-27.81 46.34,-64.37 46.34,-109.69 0,-59.73 -28.32,-102.47 -84.96,-128.22 -56.64,-25.74 -148.82,-53.04 -276.52,-81.87 -127.7,-26.78 -232.75,-55.61 -315.14,-86.51 -82.39,-30.9 -153.45,-80.85 -213.19,-149.85 -59.73,-69 -89.6,-163.24 -89.6,-282.7 0,-154.48 58.7,-279.61 176.11,-375.39 117.41,-95.78 283.22,-143.67 497.43,-143.67z"/>
    <path class="fil4" d="M20339 4323.61c278.07,0 508.25,73.12 690.54,219.36 182.29,146.24 300.21,343.98 353.76,593.21l-559.22 0c-41.2,-100.93 -104.53,-180.23 -190.01,-237.91 -85.48,-57.67 -186.93,-86.51 -304.33,-86.51 -154.48,0 -279.1,56.64 -373.85,169.93 -94.75,113.29 -142.12,264.68 -142.12,454.18 0,189.5 47.37,340.37 142.12,452.63 94.75,112.26 219.37,168.38 373.85,168.38 117.41,0 218.85,-28.83 304.33,-86.51 85.48,-57.67 148.81,-135.94 190.01,-234.81l559.22 0c-53.56,247.17 -171.48,444.39 -353.76,591.67 -182.29,147.27 -412.47,220.91 -690.54,220.91 -212.15,0 -398.56,-46.86 -559.22,-140.58 -160.66,-93.72 -284.76,-225.03 -372.3,-393.93 -87.54,-168.9 -131.31,-361.49 -131.31,-577.76 0,-216.28 43.77,-408.86 131.31,-577.76 87.54,-168.9 211.64,-300.21 372.3,-393.93 160.66,-93.72 347.07,-140.58 559.22,-140.58zm2839.52 1297.65c0,43.26 -5.15,90.63 -15.44,142.13l-1195.69 0c6.18,129.76 39.14,222.97 98.87,279.61 59.73,56.64 135.94,84.96 228.63,84.96 78.27,0 143.15,-19.57 194.65,-58.7 51.5,-39.14 85.48,-89.6 101.96,-151.39l559.22 0c-22.66,121.52 -72.09,230.18 -148.3,325.96 -76.21,95.78 -173.02,170.96 -290.43,225.54 -117.41,54.58 -248.2,81.87 -392.38,81.87 -168.9,0 -318.75,-35.53 -449.54,-106.59 -130.8,-71.06 -233.27,-173.54 -307.42,-307.42 -74.15,-133.88 -111.23,-290.43 -111.23,-469.62 0,-181.26 36.56,-338.31 109.68,-471.17 73.12,-132.85 175.59,-234.81 307.42,-305.87 131.82,-71.06 282.19,-106.59 451.09,-106.59 170.96,0 321.32,35.02 451.09,105.05 129.76,70.03 230.18,168.39 301.24,295.06 71.06,126.67 106.59,272.4 106.59,437.18zm-534.51 -80.33c2.06,-113.29 -28.32,-198.25 -91.14,-254.89 -62.82,-56.65 -140.58,-84.96 -233.27,-84.96 -96.81,0 -177.14,28.83 -240.99,86.51 -63.85,57.67 -99.9,142.13 -108.14,253.35l673.54 0zm1764.32 -753.87c197.74,0 354.8,65.91 471.17,197.74 116.38,131.82 174.57,313.08 174.57,543.78l0 1001.04 -528.33 0 0 -939.25c0,-115.35 -30.38,-205.46 -91.14,-270.35 -60.76,-64.88 -141.61,-97.32 -242.54,-97.32 -107.11,0 -192.07,33.99 -254.89,101.96 -62.82,67.97 -94.23,164.78 -94.23,290.43l0 914.53 -528.33 0 0 -1724.02 528.33 0 0 315.15c49.43,-102.99 123.07,-184.35 220.91,-244.08 97.84,-59.73 212.67,-89.6 344.49,-89.6zm1832.3 1288.38l0 454.18 -237.9 0c-201.86,0 -358.91,-49.95 -471.17,-149.85 -112.26,-99.9 -168.39,-265.2 -168.39,-495.89l0 -633.37 -231.72 0 0 -444.91 231.72 0 0 -423.28 528.33 0 0 423.28 346.04 0 0 444.91 -346.04 0 0 642.65c0,67.97 13.91,115.35 41.71,142.12 27.8,26.78 74.67,40.17 140.58,40.17l166.84 0zm1795.22 -454.18c0,43.26 -5.15,90.63 -15.44,142.13l-1195.69 0c6.18,129.76 39.14,222.97 98.87,279.61 59.73,56.64 135.94,84.96 228.63,84.96 78.27,0 143.15,-19.57 194.65,-58.7 51.5,-39.14 85.48,-89.6 101.96,-151.39l559.22 0c-22.66,121.52 -72.09,230.18 -148.3,325.96 -76.21,95.78 -173.02,170.96 -290.43,225.54 -117.41,54.58 -248.2,81.87 -392.38,81.87 -168.9,0 -318.75,-35.53 -449.54,-106.59 -130.8,-71.06 -233.27,-173.54 -307.42,-307.42 -74.15,-133.88 -111.23,-290.43 -111.23,-469.62 0,-181.26 36.56,-338.31 109.68,-471.17 73.12,-132.85 175.59,-234.81 307.42,-305.87 131.82,-71.06 282.19,-106.59 451.09,-106.59 170.96,0 321.32,35.02 451.09,105.05 129.76,70.03 230.18,168.39 301.24,295.06 71.06,126.67 106.59,272.4 106.59,437.18zm-534.51 -80.33c2.06,-113.29 -28.32,-198.25 -91.14,-254.89 -62.82,-56.65 -140.58,-84.96 -233.27,-84.96 -96.81,0 -177.14,28.83 -240.99,86.51 -63.85,57.67 -99.9,142.13 -108.14,253.35l673.54 0zm1198.92 -410.92c65.91,-105.05 150.87,-188.47 254.89,-250.26 104.02,-61.79 216.79,-92.69 338.31,-92.69l0 565.4 -151.39 0c-140.06,0 -248.71,29.87 -325.96,89.6 -77.24,59.73 -115.86,160.66 -115.86,302.78l0 784.77 -528.33 0 0 -1724.02 528.33 0 0 324.41z"/>
   </g>
  </g>
 </g>
</svg>
