<svg width="70" height="70" viewBox="0 0 70 70" fill="none" xmlns="http://www.w3.org/2000/svg">
<path d="M47.7297 9.82843C49.2918 8.26633 51.8244 8.26633 53.3865 9.82843L60.4576 16.8995C62.0197 18.4616 62.0197 20.9943 60.4576 22.5563L30.7591 52.2548L14.9173 56.3618C14.1718 56.5551 13.4968 55.8686 13.7027 55.1265L18.0312 39.5269L47.7297 9.82843Z" fill="white" stroke="#210D41" stroke-width="3"/>
<path d="M60.4571 16.8995L53.386 9.82843C51.8239 8.26633 49.2913 8.26633 47.7292 9.82843L44.2607 13.2969L57.2388 25.7747L60.4571 22.5563C62.0192 20.9943 62.0192 18.4616 60.4571 16.8995Z" fill="#E83889"/>
<path d="M47.7292 9.82843C49.2913 8.26633 51.8239 8.26633 53.386 9.82843L60.4571 16.8995C62.0192 18.4616 62.0192 20.9943 60.4571 22.5563L30.7586 52.2548L16.2103 55.0174C15.5098 55.1505 14.8991 54.5286 15.0448 53.8307L18.0307 39.5269L47.7292 9.82843Z" stroke="#210D41" stroke-width="3"/>
<path d="M44.1936 13.364L56.568 25.7384" stroke="#210D41" stroke-width="3"/>
<path d="M18.3843 39.7969L30.4051 51.8177" stroke="#210D41" stroke-width="3"/>
<path d="M20.454 53.1088L17.1421 49.7969L15.8948 54.356L20.454 53.1088Z" fill="#210D41"/>
</svg>
