<svg width="24" height="24" viewBox="0 0 24 24" fill="none" xmlns="http://www.w3.org/2000/svg">
<path d="M21 8H7C6.45 8 6 8.45 6 9V19C6 19.55 6.45 20 7 20H21C21.55 20 22 19.55 22 19V9C22 8.45 21.55 8 21 8ZM20 16C18.9 16 18 16.9 18 18H10C10 16.9 9.1 16 8 16V12C9.1 12 10 11.1 10 10H18C18 11.1 18.9 12 20 12V16Z" fill="#E73989"/>
<path d="M18 4H3C2.45 4 2 4.45 2 5V16H4V6H18V4ZM14 12C13.4696 12 12.9609 12.2107 12.5858 12.5858C12.2107 12.9609 12 13.4696 12 14C12 14.5304 12.2107 15.0391 12.5858 15.4142C12.9609 15.7893 13.4696 16 14 16C14.5304 16 15.0391 15.7893 15.4142 15.4142C15.7893 15.0391 16 14.5304 16 14C16 13.4696 15.7893 12.9609 15.4142 12.5858C15.0391 12.2107 14.5304 12 14 12Z" fill="#E73989"/>
</svg>
