<svg width="70" height="70" viewBox="0 0 70 70" fill="none" xmlns="http://www.w3.org/2000/svg">
<circle cx="35" cy="35" r="27.5" fill="white" stroke="#210D41" stroke-width="3"/>
<path d="M33.9847 21.1021V16H38.72V21.1552C41.1373 21.3324 43.5365 21.7399 45.9176 22.3776V26.6294C42.5804 25.5664 39.2161 25.035 35.8247 25.035C31.0984 25.035 28.7353 26.3636 28.7353 29.021C28.7353 31.5012 30.2235 32.7413 33.2 32.7413H37.2588C43.7529 32.7413 47 35.4872 47 40.979C47 45.4256 44.24 48.0121 38.72 48.7385V54H33.9847V48.9245C30.9902 48.8359 28.0227 48.4019 25.0824 47.6224V43.3706C28.4196 44.4336 31.7929 44.965 35.2024 44.965C39.7302 44.965 41.9941 43.6364 41.9941 40.979C41.9941 38.4988 40.4157 37.2587 37.2588 37.2587H33.2C27.0667 37.2587 24 34.5128 24 29.021C24 24.1315 27.3282 21.4918 33.9847 21.1021Z" fill="#E83889"/>
<path d="M33.98 24H38.72V49H33.98V24Z" fill="#E83889"/>
</svg>
