<svg width="70" height="70" viewBox="0 0 70 70" fill="none" xmlns="http://www.w3.org/2000/svg">
<mask id="path-1-inside-1_187_156" fill="white">
<path d="M38 8C40.2091 8 42 9.79086 42 12V14.7988C42.8003 15.0761 43.5791 15.3991 44.333 15.7656L46.3135 13.7861C47.8756 12.224 50.4086 12.224 51.9707 13.7861L56.2129 18.0283C57.775 19.5904 57.775 22.1234 56.2129 23.6855L54.2334 25.6641C54.6003 26.4186 54.9236 27.1981 55.2012 27.999H58C60.2091 27.999 62 29.7909 62 32V38C61.9997 40.2089 60.209 41.999 58 41.999H55.2012C54.9236 42.8003 54.6004 43.5801 54.2334 44.335L56.2129 46.3145C57.7749 47.8765 57.7748 50.4086 56.2129 51.9707L51.9707 56.2139C50.4086 57.7759 47.8756 57.7759 46.3135 56.2139L44.333 54.2334C43.5791 54.5999 42.8003 54.9229 42 55.2002V58C42 60.2091 40.2091 62 38 62H32C29.7909 62 28 60.2091 28 58V55.2002C27.1988 54.9226 26.4188 54.6004 25.6641 54.2334L23.6865 56.2119C22.1244 57.774 19.5914 57.774 18.0293 56.2119L13.7871 51.9697C12.225 50.4076 12.225 47.8746 13.7871 46.3125L15.7656 44.333C15.399 43.5788 15.0762 42.7996 14.7988 41.999H12C9.79086 41.999 8 40.2082 8 37.999V31.999C8.00026 29.7901 9.79102 27.999 12 27.999H14.7988C15.0761 27.1988 15.3991 26.4199 15.7656 25.666L13.7861 23.6865C12.2245 22.1245 12.2245 19.5923 13.7861 18.0303L18.0293 13.7871C19.5914 12.2252 22.1245 12.2251 23.6865 13.7871L25.665 15.7656C26.4195 15.3988 27.1991 15.0763 28 14.7988V12C28 9.79088 29.7909 8.00003 32 8H38ZM35 27C30.5817 27 27 30.5817 27 35C27 39.4183 30.5817 43 35 43C39.4183 43 43 39.4183 43 35C43 30.5817 39.4183 27 35 27Z"/>
</mask>
<path d="M38 8C40.2091 8 42 9.79086 42 12V14.7988C42.8003 15.0761 43.5791 15.3991 44.333 15.7656L46.3135 13.7861C47.8756 12.224 50.4086 12.224 51.9707 13.7861L56.2129 18.0283C57.775 19.5904 57.775 22.1234 56.2129 23.6855L54.2334 25.6641C54.6003 26.4186 54.9236 27.1981 55.2012 27.999H58C60.2091 27.999 62 29.7909 62 32V38C61.9997 40.2089 60.209 41.999 58 41.999H55.2012C54.9236 42.8003 54.6004 43.5801 54.2334 44.335L56.2129 46.3145C57.7749 47.8765 57.7748 50.4086 56.2129 51.9707L51.9707 56.2139C50.4086 57.7759 47.8756 57.7759 46.3135 56.2139L44.333 54.2334C43.5791 54.5999 42.8003 54.9229 42 55.2002V58C42 60.2091 40.2091 62 38 62H32C29.7909 62 28 60.2091 28 58V55.2002C27.1988 54.9226 26.4188 54.6004 25.6641 54.2334L23.6865 56.2119C22.1244 57.774 19.5914 57.774 18.0293 56.2119L13.7871 51.9697C12.225 50.4076 12.225 47.8746 13.7871 46.3125L15.7656 44.333C15.399 43.5788 15.0762 42.7996 14.7988 41.999H12C9.79086 41.999 8 40.2082 8 37.999V31.999C8.00026 29.7901 9.79102 27.999 12 27.999H14.7988C15.0761 27.1988 15.3991 26.4199 15.7656 25.666L13.7861 23.6865C12.2245 22.1245 12.2245 19.5923 13.7861 18.0303L18.0293 13.7871C19.5914 12.2252 22.1245 12.2251 23.6865 13.7871L25.665 15.7656C26.4195 15.3988 27.1991 15.0763 28 14.7988V12C28 9.79088 29.7909 8.00003 32 8H38ZM35 27C30.5817 27 27 30.5817 27 35C27 39.4183 30.5817 43 35 43C39.4183 43 43 39.4183 43 35C43 30.5817 39.4183 27 35 27Z" fill="white"/>
<path d="M42 12H45H42ZM42 14.7988H39V16.9344L41.0179 17.6335L42 14.7988ZM44.333 15.7656L43.0214 18.4637L44.9428 19.3977L46.4538 17.8875L44.333 15.7656ZM46.3135 13.7861L48.4343 15.908L48.4348 15.9075L46.3135 13.7861ZM51.9707 13.7861L54.092 11.6648L51.9707 13.7861ZM56.2129 18.0283L54.0916 20.1496L56.2129 18.0283ZM56.2129 23.6855L58.3337 25.8074L58.3342 25.8069L56.2129 23.6855ZM54.2334 25.6641L52.1126 23.5422L50.6006 25.0535L51.5355 26.9761L54.2334 25.6641ZM55.2012 27.999L52.3665 28.9813L53.0657 30.999H55.2012V27.999ZM58 27.999V24.999V24.999V27.999ZM62 32H59V32H62ZM62 38L65 38.0004V38H62ZM58 41.999V44.999V44.999V41.999ZM55.2012 41.999V38.999H53.0655L52.3664 41.017L55.2012 41.999ZM54.2334 44.335L51.5354 43.0231L50.6009 44.9451L52.1121 46.4563L54.2334 44.335ZM56.2129 46.3145L58.3343 44.1932L58.3342 44.1931L56.2129 46.3145ZM56.2129 51.9707L54.0914 49.8495L54.0913 49.8496L56.2129 51.9707ZM51.9707 56.2139L54.092 58.3352L54.0923 58.3349L51.9707 56.2139ZM46.3135 56.2139L44.1922 58.3352L44.1922 58.3352L46.3135 56.2139ZM44.333 54.2334L46.4543 52.1121L44.9432 50.601L43.0213 51.5353L44.333 54.2334ZM42 55.2002L41.0178 52.3655L39 53.0647V55.2002H42ZM42 58H45V58H42ZM32 62L32 65H32V62ZM28 58H25H28ZM28 55.2002H31V53.0647L28.9822 52.3655L28 55.2002ZM25.6641 54.2334L26.9761 51.5355L25.0535 50.6006L23.5422 52.1126L25.6641 54.2334ZM23.6865 56.2119L25.8078 58.3332L25.8084 58.3327L23.6865 56.2119ZM18.0293 56.2119L20.1506 54.0906L18.0293 56.2119ZM13.7871 51.9697L11.6658 54.091L13.7871 51.9697ZM13.7871 46.3125L15.9084 48.4338L15.909 48.4333L13.7871 46.3125ZM15.7656 44.333L17.8875 46.4538L19.3977 44.9428L18.4637 43.0214L15.7656 44.333ZM14.7988 41.999L17.6336 41.017L16.9345 38.999H14.7988V41.999ZM12 41.999L12 44.999H12V41.999ZM8 37.999H11V37.999H8ZM8 31.999L5 31.9987V31.999H8ZM12 27.999V30.999V30.999V27.999ZM14.7988 27.999V30.999H16.9343L17.6335 28.9813L14.7988 27.999ZM15.7656 25.666L18.4637 26.9777L19.3981 25.0558L17.8869 23.5447L15.7656 25.666ZM13.7861 23.6865L11.6645 25.8076L11.6648 25.8078L13.7861 23.6865ZM13.7861 18.0303L11.6648 15.909L11.6646 15.9092L13.7861 18.0303ZM18.0293 13.7871L15.9081 11.6657L15.908 11.6658L18.0293 13.7871ZM23.6865 13.7871L21.5652 15.9084V15.9084L23.6865 13.7871ZM25.665 15.7656L23.5437 17.8869L25.0549 19.3981L26.9769 18.4636L25.665 15.7656ZM28 14.7988L28.9821 17.6335L31 16.9344V14.7988H28ZM28 12L25 12V12H28ZM32 8V5H32L32 8ZM38 8V11C38.5523 11 39 11.4477 39 12H42H45C45 8.13401 41.866 5 38 5V8ZM42 12H39V14.7988H42H45V12H42ZM42 14.7988L41.0179 17.6335C41.706 17.8719 42.3747 18.1494 43.0214 18.4637L44.333 15.7656L45.6446 13.0675C44.7834 12.6489 43.8946 12.2803 42.9821 11.9641L42 14.7988ZM44.333 15.7656L46.4538 17.8875L48.4343 15.908L46.3135 13.7861L44.1927 11.6643L42.2122 13.6438L44.333 15.7656ZM46.3135 13.7861L48.4348 15.9075C48.8253 15.5169 49.4589 15.5169 49.8494 15.9075L51.9707 13.7861L54.092 11.6648C51.3584 8.93114 46.9258 8.93114 44.1922 11.6648L46.3135 13.7861ZM51.9707 13.7861L49.8494 15.9075L54.0916 20.1496L56.2129 18.0283L58.3342 15.907L54.092 11.6648L51.9707 13.7861ZM56.2129 18.0283L54.0916 20.1496C54.4821 20.5402 54.4821 21.1737 54.0916 21.5642L56.2129 23.6855L58.3342 25.8069C61.0679 23.0732 61.0679 18.6407 58.3342 15.907L56.2129 18.0283ZM56.2129 23.6855L54.0921 21.5637L52.1126 23.5422L54.2334 25.6641L56.3542 27.7859L58.3337 25.8074L56.2129 23.6855ZM54.2334 25.6641L51.5355 26.9761C51.8501 27.6231 52.1278 28.2924 52.3665 28.9813L55.2012 27.999L58.0358 27.0168C57.7194 26.1037 57.3505 25.2141 56.9313 24.3521L54.2334 25.6641ZM55.2012 27.999V30.999H58V27.999V24.999H55.2012V27.999ZM58 27.999V30.999C58.5513 30.999 59 31.4468 59 32H62H65C65 28.135 61.8669 24.999 58 24.999V27.999ZM62 32H59V38H62H65V32H62ZM62 38L59 37.9996C58.9999 38.5514 58.5527 38.999 58 38.999V41.999V44.999C61.8652 44.999 64.9995 41.8664 65 38.0004L62 38ZM58 41.999V38.999H55.2012V41.999V44.999H58V41.999ZM55.2012 41.999L52.3664 41.017C52.1275 41.7067 51.85 42.3763 51.5354 43.0231L54.2334 44.335L56.9314 45.6469C57.3509 44.784 57.7196 43.894 58.0359 42.981L55.2012 41.999ZM54.2334 44.335L52.1121 46.4563L54.0916 48.4358L56.2129 46.3145L58.3342 44.1931L56.3547 42.2136L54.2334 44.335ZM56.2129 46.3145L54.0915 48.4357C54.4819 48.8261 54.482 49.4589 54.0914 49.8495L56.2129 51.9707L58.3343 54.0919C61.0676 51.3583 61.0678 46.9269 58.3343 44.1932L56.2129 46.3145ZM56.2129 51.9707L54.0913 49.8496L49.8491 54.0928L51.9707 56.2139L54.0923 58.3349L58.3345 54.0918L56.2129 51.9707ZM51.9707 56.2139L49.8494 54.0925C49.4589 54.483 48.8253 54.4831 48.4348 54.0925L46.3135 56.2139L44.1922 58.3352C46.9258 61.0687 51.3583 61.0689 54.092 58.3352L51.9707 56.2139ZM46.3135 56.2139L48.4348 54.0925L46.4543 52.1121L44.333 54.2334L42.2117 56.3547L44.1922 58.3352L46.3135 56.2139ZM44.333 54.2334L43.0213 51.5353C42.3747 51.8497 41.7061 52.1271 41.0178 52.3655L42 55.2002L42.9822 58.0349C43.8946 57.7187 44.7834 57.3502 45.6447 56.9315L44.333 54.2334ZM42 55.2002H39V58H42H45V55.2002H42ZM42 58H39C39 58.5523 38.5523 59 38 59V62V65C41.866 65 45 61.866 45 58H42ZM38 62V59H32V62V65H38V62ZM32 62L32 59C31.4477 59 31 58.5522 31 58H28H25C25 61.866 28.1341 64.9999 32 65L32 62ZM28 58H31V55.2002H28H25V58H28ZM28 55.2002L28.9822 52.3655C28.2903 52.1258 27.6206 51.8489 26.9761 51.5355L25.6641 54.2334L24.3521 56.9313C25.2169 57.3519 26.1074 57.7194 27.0178 58.0349L28 55.2002ZM25.6641 54.2334L23.5422 52.1126L21.5647 54.0911L23.6865 56.2119L25.8084 58.3327L27.7859 56.3542L25.6641 54.2334ZM23.6865 56.2119L21.5652 54.0906C21.1747 54.4811 20.5411 54.4811 20.1506 54.0906L18.0293 56.2119L15.908 58.3332C18.6416 61.0669 23.0742 61.0669 25.8078 58.3332L23.6865 56.2119ZM18.0293 56.2119L20.1506 54.0906L15.9084 49.8484L13.7871 51.9697L11.6658 54.091L15.908 58.3332L18.0293 56.2119ZM13.7871 51.9697L15.9084 49.8484C15.5179 49.4579 15.5179 48.8243 15.9084 48.4338L13.7871 46.3125L11.6658 44.1912C8.93212 46.9249 8.93212 51.3574 11.6658 54.091L13.7871 51.9697ZM13.7871 46.3125L15.909 48.4333L17.8875 46.4538L15.7656 44.333L13.6438 42.2122L11.6653 44.1917L13.7871 46.3125ZM15.7656 44.333L18.4637 43.0214C18.1496 42.3752 17.8723 41.7061 17.6336 41.017L14.7988 41.999L11.9641 42.981C12.2801 43.8931 12.6484 44.7824 13.0675 45.6446L15.7656 44.333ZM14.7988 41.999V38.999H12V41.999V44.999H14.7988V41.999ZM12 41.999L12 38.999C11.4477 38.999 11 38.5513 11 37.999H8H5C5 41.865 8.13401 44.999 12 44.999L12 41.999ZM8 37.999H11V31.999H8H5V37.999H8ZM8 31.999L11 31.9994C11.0001 31.4467 11.4482 30.999 12 30.999V27.999V24.999C8.13381 24.999 5.00046 28.1335 5 31.9987L8 31.999ZM12 27.999V30.999H14.7988V27.999V24.999H12V27.999ZM14.7988 27.999L17.6335 28.9813C17.872 28.2929 18.1494 27.6242 18.4637 26.9777L15.7656 25.666L13.0676 24.3543C12.6488 25.2157 12.2803 26.1046 11.9642 27.0168L14.7988 27.999ZM15.7656 25.666L17.8869 23.5447L15.9075 21.5652L13.7861 23.6865L11.6648 25.8078L13.6443 27.7873L15.7656 25.666ZM13.7861 23.6865L15.9077 21.5655C15.5173 21.175 15.5173 20.5418 15.9077 20.1513L13.7861 18.0303L11.6646 15.9092C8.93168 18.6427 8.93174 23.0741 11.6645 25.8076L13.7861 23.6865ZM13.7861 18.0303L15.9075 20.1516L20.1506 15.9084L18.0293 13.7871L15.908 11.6658L11.6648 15.909L13.7861 18.0303ZM18.0293 13.7871L20.1505 15.9086C20.5412 15.5179 21.1749 15.5181 21.5652 15.9084L23.6865 13.7871L25.8078 11.6658C23.0741 8.93205 18.6416 8.93247 15.9081 11.6657L18.0293 13.7871ZM23.6865 13.7871L21.5652 15.9084L23.5437 17.8869L25.665 15.7656L27.7864 13.6443L25.8078 11.6658L23.6865 13.7871ZM25.665 15.7656L26.9769 18.4636C27.6222 18.1499 28.2916 17.8728 28.9821 17.6335L28 14.7988L27.0179 11.9641C26.1067 12.2798 25.2168 12.6478 24.3532 13.0676L25.665 15.7656ZM28 14.7988H31V12H28H25V14.7988H28ZM28 12L31 12C31 11.4478 31.4477 11 32 11L32 8L32 5C28.1341 5.00006 25 8.13398 25 12L28 12ZM32 8V11H38V8V5H32V8ZM35 27V24C28.9249 24 24 28.9249 24 35H27H30C30 32.2386 32.2386 30 35 30V27ZM27 35H24C24 41.0751 28.9249 46 35 46V43V40C32.2386 40 30 37.7614 30 35H27ZM35 43V46C41.0751 46 46 41.0751 46 35H43H40C40 37.7614 37.7614 40 35 40V43ZM43 35H46C46 28.9249 41.0751 24 35 24V27V30C37.7614 30 40 32.2386 40 35H43Z" fill="#210D41" mask="url(#path-1-inside-1_187_156)"/>
<circle cx="35" cy="35" r="10" stroke="#E83889" stroke-width="4"/>
</svg>
