<svg width="24" height="24" viewBox="0 0 24 24" fill="none" xmlns="http://www.w3.org/2000/svg">
<path d="M18 18.5C18.83 18.5 19.5 17.83 19.5 17C19.5 16.17 18.83 15.5 18 15.5C17.56 15.5 17.16 15.7 16.89 16H10C9.45 16 9 16.45 9 17C9 17.8 8.69 18.55 8.12 19.12C6.99 20.25 5.01 20.25 3.88 19.12C3.31 18.55 3 17.8 3 17C3 16.2 3.31 15.45 3.88 14.88C4.2 14.56 4.61 14.32 5.08 14.16L4.47 12.26C3.69 12.51 3.01 12.92 2.46 13.47C1.52 14.41 1 15.67 1 17.01C1 18.35 1.52 19.6 2.46 20.55C3.4 21.5 4.66 22.01 6 22.01C7.34 22.01 8.59 21.49 9.54 20.55C10.24 19.85 10.71 18.97 10.9 18.01H16.89C17.16 18.31 17.56 18.51 18 18.51V18.5Z" fill="#E73989"/>
<path d="M17.9999 12C17.4399 12 16.8799 12.1 16.3399 12.29L13.4299 7.42999C13.4699 7.28999 13.4999 7.14999 13.4999 6.98999C13.4999 6.15999 12.8299 5.48999 11.9999 5.48999C11.6266 5.48946 11.2665 5.62835 10.9902 5.87943C10.714 6.13052 10.5414 6.47572 10.5064 6.84739C10.4713 7.21906 10.5763 7.59042 10.8008 7.88872C11.0253 8.18701 11.353 8.39074 11.7199 8.45999L15.0999 14.09C15.2371 14.3187 15.4592 14.4839 15.7177 14.5495C15.9763 14.6151 16.2503 14.5757 16.4799 14.44C16.9599 14.15 17.4799 14 18.0199 14C19.6699 14 21.0199 15.35 21.0199 17C21.0199 18.65 19.6699 20 18.0199 20C17.1099 20 16.4499 19.59 16.0599 19.25L14.7399 20.76C15.6599 21.56 16.8199 22.01 18.0199 22.01C20.7799 22.01 23.0199 19.77 23.0199 17.01C23.0199 14.25 20.7799 12.01 18.0199 12.01L17.9999 12Z" fill="#E73989"/>
<path d="M5.71988 15.53C5.35304 15.5993 5.02528 15.803 4.80081 16.1013C4.57633 16.3996 4.47133 16.7709 4.50637 17.1426C4.54141 17.5143 4.71397 17.8595 4.99023 18.1106C5.2665 18.3617 5.62656 18.5005 5.99988 18.5C6.82988 18.5 7.49988 17.83 7.49988 17C7.49988 16.85 7.46988 16.7 7.42988 16.56L10.8099 10.93C11.0899 10.46 10.9399 9.84001 10.4699 9.56001C10.0241 9.29799 9.65479 8.92377 9.39864 8.47463C9.14248 8.02548 9.00845 7.51707 9.00988 7.00001C9.00988 5.35001 10.3599 4.00001 12.0099 4.00001C13.6599 4.00001 15.0099 5.35001 15.0099 7.00001C15.0099 7.18001 14.9899 7.36001 14.9499 7.54001L16.9199 7.90001C16.9799 7.57001 17.0099 7.28001 17.0099 7.01001C17.0099 4.25001 14.7699 2.01001 12.0099 2.01001C9.24988 2.01001 7.00988 4.25001 7.00988 7.01001C7.00988 8.43001 7.59988 9.75001 8.63988 10.69L5.72988 15.54L5.71988 15.53Z" fill="#E73989"/>
</svg>
