<svg width="36" height="36" viewBox="0 0 36 36" fill="none" xmlns="http://www.w3.org/2000/svg">
<path d="M31.5 6H27V4.5C27 3.675 26.325 3 25.5 3H10.5C9.675 3 9 3.675 9 4.5V6H4.5C3.675 6 3 6.675 3 7.5V12C3 18.435 5.685 22.32 10.215 22.485C10.8759 23.6325 11.7818 24.62 12.8682 25.3771C13.9546 26.1342 15.1947 26.6422 16.5 26.865V30H12V33H24V30H19.5V26.865C20.806 26.6442 22.0469 26.137 23.1336 25.3797C24.2203 24.6224 25.1258 23.6338 25.785 22.485C30.3 22.32 33 18.435 33 12V7.5C33 6.675 32.325 6 31.5 6ZM6 12V9H9V18C9 18.42 9.045 18.84 9.09 19.245C6.33 18.18 6 13.965 6 12ZM24 18C24 21.315 21.315 24 18 24C14.685 24 12 21.315 12 18V6H24V18ZM30 12C30 13.965 29.67 18.18 26.91 19.245C26.97 18.84 27 18.42 27 18V9H30V12Z" fill="#E73989"/>
</svg>
