<svg width="24" height="24" viewBox="0 0 24 24" fill="none" xmlns="http://www.w3.org/2000/svg">
<path d="M18.9998 9.00001H13.9998V3.00001C13.9996 2.78914 13.9328 2.58371 13.8089 2.41309C13.685 2.24246 13.5103 2.11539 13.3098 2.05001C12.8998 1.92001 12.4498 2.06001 12.1898 2.41001L4.18977 13.41C4.08203 13.5592 4.01755 13.7353 4.00343 13.9188C3.98932 14.1023 4.02612 14.2861 4.10977 14.45C4.19287 14.6149 4.32001 14.7536 4.47711 14.8507C4.6342 14.9478 4.81511 14.9995 4.99977 15H9.99977V21C9.99977 21.2652 10.1051 21.5196 10.2927 21.7071C10.4802 21.8947 10.7346 22 10.9998 22C11.3098 22 11.6198 21.85 11.8098 21.59L19.8098 10.59C19.9175 10.4408 19.982 10.2648 19.9961 10.0813C20.0102 9.89777 19.9734 9.71394 19.8898 9.55001C19.8067 9.3851 19.6795 9.24642 19.5224 9.14934C19.3653 9.05226 19.1844 9.00057 18.9998 9.00001ZM11.9998 17.92V14C11.9998 13.45 11.5498 13 10.9998 13H6.95977L11.9998 6.08001V10C11.9998 10.55 12.4498 11 12.9998 11H17.0398L11.9998 17.92Z" fill="#E73989"/>
</svg>
