<svg width="24" height="24" viewBox="0 0 24 24" fill="none" xmlns="http://www.w3.org/2000/svg">
<path d="M20.5 5C19.67 5 19 5.67 19 6.5V11H18V4.5C18 3.67 17.33 3 16.5 3C15.67 3 15 3.67 15 4.5V11H14V3.5C14 2.67 13.33 2 12.5 2C11.67 2 11 2.67 11 3.5V11H10V4.5C10 3.67 9.33 3 8.5 3C7.67 3 7 3.67 7 4.5V16.31L4.78 12.71C4.34 12 3.42 11.78 2.71 12.22C2 12.66 1.78 13.58 2.22 14.29L5.53 19.63C5.97794 20.3543 6.60345 20.9521 7.34723 21.3669C8.091 21.7817 8.92839 21.9996 9.78 22H17C19.76 22 22 19.76 22 17V6.5C22 5.67 21.33 5 20.5 5Z" fill="black"/>
</svg>
