<svg width="24" height="24" viewBox="0 0 24 24" fill="none" xmlns="http://www.w3.org/2000/svg">
<path d="M9 20H15V22H9V20ZM8.17 15.05C8.58 15.67 8.79 16.41 8.89 17H8V19H16V17H15.11C15.22 16.41 15.42 15.67 15.83 15.05C16.19 14.51 16.59 14.04 16.97 13.59C17.97 12.41 19 11.2 19 8.98999C19 5.12999 15.86 1.98999 12 1.98999C8.14 1.98999 5 5.12999 5 8.98999C5 11.2 6.03 12.41 7.02 13.57C7.41 14.02 7.8 14.49 8.17 15.04V15.05ZM12 3.99999C14.76 3.99999 17 6.23999 17 8.99999C17 10.47 16.38 11.2 15.45 12.3C15.05 12.77 14.6 13.3 14.17 13.94C13.49 14.97 13.2 16.17 13.08 17H10.91C10.79 16.17 10.51 14.97 9.83 13.95C9.4 13.3 8.94 12.76 8.54 12.29C7.61 11.2 7 10.48 7 8.99999C7 6.23999 9.24 3.99999 12 3.99999Z" fill="#E73989"/>
</svg>
