<svg width="24" height="24" viewBox="0 0 24 24" fill="none" xmlns="http://www.w3.org/2000/svg">
<path d="M20 2H4C2.9 2 2 2.9 2 4V16C2 17.1 2.9 18 4 18H7V20C7 20.36 7.19 20.69 7.51 20.87C7.6629 20.9563 7.8358 21.0007 8.01134 20.999C8.18688 20.9972 8.35886 20.9493 8.51 20.86L13.27 18H19.99C21.09 18 21.99 17.1 21.99 16V4C21.99 2.9 21.09 2 19.99 2H20ZM20 16H13C12.82 16 12.64 16.05 12.49 16.14L9 18.23V17C9 16.45 8.55 16 8 16H4V4H20V16Z" fill="#E73989"/>
<path d="M9.33 14L12 12.22L14.67 14L13.78 10.89L16 8.89L13.2 8.67L12 6L10.8 8.67L8 8.89L10.22 10.89L9.33 14Z" fill="#E73989"/>
</svg>
