<svg width="24" height="24" viewBox="0 0 24 24" fill="none" xmlns="http://www.w3.org/2000/svg">
<path d="M14.59 6.58988C13.81 7.36988 13.81 8.63988 14.59 9.41988C15.37 10.1999 16.64 10.1999 17.42 9.41988C18.2 8.63988 18.2 7.36988 17.42 6.58988C16.64 5.80988 15.37 5.80988 14.59 6.58988ZM5 15.9999C3 16.9999 3 20.9999 3 20.9999C3 20.9999 6 20.9999 8 18.9999L5 15.9999Z" fill="#E73989"/>
<path d="M21 2H17.31C14.91 2 12.65 2.94 10.95 4.64L8.69 6.9C6.52393 6.48796 4.2827 6.94411 2.45 8.17C2.2 8.34 2.04 8.61 2.01 8.9C1.98 9.19 2.09 9.49 2.3 9.71L14.3 21.71C14.5 21.91 14.75 22 15.01 22C15.27 22 15.52 21.9 15.72 21.71C17.62 19.81 17.32 16.63 17.1 15.33L19.38 13.05C21.08 11.35 22.02 9.09 22.02 6.69V3C22.02 2.45 21.57 2 21.02 2H21ZM20 6.69C20 8.56 19.27 10.32 17.95 11.64L15.29 14.3C15.04 14.55 14.94 14.91 15.03 15.25C15.22 16.04 15.48 18.03 14.86 19.45L4.65 9.24C6.76 8.35 8.59 8.92 8.68 8.95C9.04 9.07 9.44 8.98 9.7 8.71L12.36 6.05C13.0087 5.39823 13.7802 4.88148 14.6298 4.52961C15.4795 4.17775 16.3904 3.99774 17.31 4H20V6.69Z" fill="#E73989"/>
</svg>
