<?xml version="1.0" encoding="UTF-8"?>
<svg xmlns="http://www.w3.org/2000/svg" version="1.1" viewBox="0 0 700 700">
  <defs>
    <style>
      .cls-1 {
        fill: #e44f2d;
      }
    </style>
  </defs>
  <!-- Generator: Adobe Illustrator 28.6.0, SVG Export Plug-In . SVG Version: 1.2.0 Build 709)  -->
  <g>
    <g id="Layer_1">
      <path class="cls-1" d="M356.4,658.7c-63.5,0-118.2-13.6-164.1-40.9-46-27.3-81.3-64-105.9-110.3-24.6-46.3-36.9-97.9-36.9-154.8s12.3-109.3,36.9-155.2c24.6-46,59.9-82.6,105.9-109.9,46-27.3,100.7-40.9,164.1-40.9s81.2,6.4,115.6,19.1c34.4,12.8,64.5,30.7,90.3,53.8,25.8,23.1,47,50.1,63.6,81l-133.4,114.8c-5.3-19.6-14.1-37.9-26.2-55.2-12.2-17.2-27.4-31.3-45.8-42.3-18.4-11-40.3-16.5-65.8-16.5s-50.9,6.4-70.7,19.1c-19.9,12.8-35,30.4-45.4,52.9-10.4,22.5-15.6,48.9-15.6,79.2s5.2,55.9,15.6,78.7c10.4,22.8,25.5,40.6,45.4,53.4,19.9,12.8,43.4,19.1,70.7,19.1s47.4-5.5,65.8-16.5c18.4-11,33.7-25.2,45.8-42.7,12.1-17.5,20.9-35.7,26.2-54.7l133.4,114.8c-16.6,30.8-37.8,57.8-63.6,81-25.8,23.1-55.9,41.1-90.3,53.8-34.4,12.7-72.9,19.1-115.6,19.1Z"/>
    </g>
  </g>
</svg>