<svg width="80" height="24" viewBox="0 0 80 24" fill="none" xmlns="http://www.w3.org/2000/svg">
<path d="M9.59961 0C12.9116 0 15.5996 2.688 15.5996 6V8.40039H16.7998C18.1197 8.40039 19.2001 9.47989 19.2002 10.7998V21.5996C19.2002 22.9196 18.1198 24 16.7998 24H2.40039C1.08039 24 0 22.9196 0 21.5996V10.7998C0.000106762 9.47989 1.08046 8.40039 2.40039 8.40039H3.59961V6C3.59961 2.68813 6.28779 0.000208969 9.59961 0ZM8.02832 20.9082H8.05176C8.04817 20.9082 8.0446 20.9073 8.04102 20.9072C8.03678 20.9073 8.03256 20.9082 8.02832 20.9082ZM8.04004 18.0166L5.29199 15.2686L3.59961 16.96L7.2002 20.5605C7.43734 20.7857 7.73306 20.9044 8.04102 20.9072C8.34826 20.9043 8.64325 20.7971 8.87988 20.5605L16.0801 13.3604L14.3877 11.668L8.04004 18.0166ZM9.59961 2.40039C7.61979 2.4006 6 4.02013 6 6V8.40039H13.2002V6C13.2002 4.02 11.5796 2.40039 9.59961 2.40039Z" fill="#77BC1F"/>
<path d="M79.5062 14.4065V16.4314H72.0682V7.16705H79.3341V9.19198H74.6622V10.7537H78.7783V12.7124H74.6622V14.4065H79.5062Z" fill="#313C3F"/>
<path d="M66.3212 13.9697H64.8918V16.4314H62.2713V7.16705H66.5065C67.3447 7.16705 68.0726 7.30822 68.6902 7.59057C69.3078 7.86409 69.7843 8.26113 70.1196 8.7817C70.4549 9.29345 70.6225 9.89784 70.6225 10.5949C70.6225 11.2654 70.4637 11.8522 70.146 12.3551C69.8372 12.8492 69.3917 13.2374 68.8093 13.5198L70.8078 16.4314H68.002L66.3212 13.9697ZM67.9755 10.5949C67.9755 10.1625 67.8388 9.82725 67.5653 9.58902C67.2917 9.3508 66.8859 9.23168 66.3477 9.23168H64.8918V11.9448H66.3477C66.8859 11.9448 67.2917 11.8301 67.5653 11.6007C67.8388 11.3625 67.9755 11.0272 67.9755 10.5949Z" fill="#313C3F"/>
<path d="M56.1419 16.6167C54.7655 16.6167 53.6935 16.2417 52.9259 15.4917C52.1671 14.7418 51.7877 13.6786 51.7877 12.3022V7.16705H54.4082V12.2228C54.4082 13.705 54.9949 14.4462 56.1684 14.4462C57.333 14.4462 57.9154 13.705 57.9154 12.2228V7.16705H60.4962V12.3022C60.4962 13.6786 60.1124 14.7418 59.3447 15.4917C58.5859 16.2417 57.5183 16.6167 56.1419 16.6167Z" fill="#313C3F"/>
<path d="M46.8184 16.6168C45.8479 16.6168 44.9744 16.4138 44.1979 16.008C43.4303 15.5933 42.8259 15.0198 42.3848 14.2874C41.9436 13.5551 41.723 12.7257 41.723 11.7993C41.723 10.8728 41.9436 10.0435 42.3848 9.31114C42.8259 8.57881 43.4303 8.00971 44.1979 7.60385C44.9744 7.18916 45.8479 6.98181 46.8184 6.98181C47.6654 6.98181 48.4287 7.13181 49.108 7.4318C49.7874 7.73178 50.3521 8.16412 50.8021 8.72881L49.1345 10.2376C48.5345 9.51407 47.8066 9.15232 46.9508 9.15232C46.4478 9.15232 45.9979 9.26261 45.6008 9.48319C45.2126 9.70377 44.9082 10.017 44.6876 10.4229C44.4759 10.8199 44.37 11.2787 44.37 11.7993C44.37 12.3199 44.4759 12.7831 44.6876 13.1889C44.9082 13.586 45.2126 13.8948 45.6008 14.1154C45.9979 14.336 46.4478 14.4462 46.9508 14.4462C47.8066 14.4462 48.5345 14.0845 49.1345 13.361L50.8021 14.8698C50.3521 15.4344 49.7874 15.8668 49.108 16.1668C48.4287 16.4668 47.6654 16.6168 46.8184 16.6168Z" fill="#313C3F"/>
<path d="M40.7582 14.4065V16.4314H33.3202V7.16705H40.5861V9.19198H35.9142V10.7537H40.0303V12.7124H35.9142V14.4065H40.7582Z" fill="#313C3F"/>
<path d="M28.007 16.6168C27.257 16.6168 26.5291 16.5241 25.8232 16.3388C25.1174 16.1535 24.5439 15.9065 24.1027 15.5977L24.963 13.6654C25.3776 13.9389 25.8585 14.1595 26.4055 14.3271C26.9526 14.4948 27.4908 14.5786 28.0202 14.5786C29.026 14.5786 29.529 14.3271 29.529 13.8242C29.529 13.5595 29.3834 13.3654 29.0922 13.2419C28.8099 13.1095 28.3511 12.9728 27.7158 12.8316C27.0188 12.6816 26.4364 12.5228 25.9688 12.3551C25.5012 12.1787 25.0997 11.9007 24.7644 11.5214C24.4292 11.142 24.2615 10.6302 24.2615 9.98611C24.2615 9.42143 24.4159 8.91409 24.7247 8.46411C25.0335 8.0053 25.4923 7.64355 26.1011 7.37886C26.7188 7.11416 27.4732 6.98181 28.3643 6.98181C28.9731 6.98181 29.5731 7.0524 30.1642 7.19357C30.7554 7.32592 31.276 7.52444 31.7259 7.78913L30.9186 9.73465C30.0363 9.2582 29.1804 9.01997 28.3511 9.01997C27.8305 9.01997 27.4511 9.09938 27.2129 9.2582C26.9746 9.40819 26.8555 9.60672 26.8555 9.85377C26.8555 10.1008 26.9967 10.2861 27.279 10.4096C27.5614 10.5332 28.0158 10.6611 28.6422 10.7934C29.3481 10.9434 29.9304 11.1067 30.3892 11.2831C30.8569 11.4508 31.2583 11.7243 31.5936 12.1037C31.9377 12.4743 32.1097 12.9816 32.1097 13.6257C32.1097 14.1815 31.9553 14.6845 31.6465 15.1345C31.3377 15.5844 30.8745 15.9462 30.2569 16.2197C29.6392 16.4844 28.8893 16.6168 28.007 16.6168Z" fill="#313C3F"/>
<path d="M79.3005 19.557V23.8136H78.3093L76.4303 21.5454V23.8136H75.2506V19.557H76.2418L78.1208 21.8252V19.557H79.3005Z" fill="#A0A2A2"/>
<path d="M72.2546 23.8988C71.8046 23.8988 71.3992 23.8035 71.0384 23.613C70.6817 23.4225 70.3999 23.159 70.1932 22.8225C69.9905 22.486 69.8891 22.107 69.8891 21.6854C69.8891 21.2638 69.9905 20.8847 70.1932 20.5482C70.3999 20.2118 70.6817 19.9483 71.0384 19.7577C71.3992 19.5672 71.8046 19.4719 72.2546 19.4719C72.7046 19.4719 73.1079 19.5672 73.4647 19.7577C73.8255 19.9483 74.1072 20.2118 74.3099 20.5482C74.5167 20.8847 74.62 21.2638 74.62 21.6854C74.62 22.107 74.5167 22.486 74.3099 22.8225C74.1072 23.159 73.8255 23.4225 73.4647 23.613C73.1079 23.8035 72.7046 23.8988 72.2546 23.8988ZM72.2546 22.9015C72.4694 22.9015 72.664 22.8509 72.8383 22.7495C73.0127 22.6482 73.1505 22.5063 73.2518 22.3238C73.3532 22.1374 73.4039 21.9245 73.4039 21.6854C73.4039 21.4462 73.3532 21.2354 73.2518 21.0529C73.1505 20.8665 73.0127 20.7226 72.8383 20.6212C72.664 20.5199 72.4694 20.4692 72.2546 20.4692C72.0397 20.4692 71.8451 20.5199 71.6708 20.6212C71.4965 20.7226 71.3587 20.8665 71.2573 21.0529C71.156 21.2354 71.1053 21.4462 71.1053 21.6854C71.1053 21.9245 71.156 22.1374 71.2573 22.3238C71.3587 22.5063 71.4965 22.6482 71.6708 22.7495C71.8451 22.8509 72.0397 22.9015 72.2546 22.9015Z" fill="#A0A2A2"/>
<path d="M68.0475 19.557H69.2515V23.8136H68.0475V19.557Z" fill="#A0A2A2"/>
<path d="M65.0935 20.5117H63.7862V19.557H67.5989V20.5117H66.2976V23.8136H65.0935V20.5117Z" fill="#A0A2A2"/>
<path d="M61.8162 19.557C62.2013 19.557 62.5358 19.6219 62.8195 19.7516C63.1033 19.8773 63.3222 20.0597 63.4763 20.2989C63.6303 20.534 63.7074 20.8117 63.7074 21.1319C63.7074 21.4522 63.6303 21.7299 63.4763 21.965C63.3222 22.2002 63.1033 22.3826 62.8195 22.5123C62.5358 22.638 62.2013 22.7008 61.8162 22.7008H61.0743V23.8136H59.8703V19.557H61.8162ZM61.7432 21.7522C61.9905 21.7522 62.177 21.6995 62.3027 21.5941C62.4283 21.4846 62.4912 21.3306 62.4912 21.1319C62.4912 20.9333 62.4283 20.7793 62.3027 20.6698C62.177 20.5603 61.9905 20.5056 61.7432 20.5056H61.0743V21.7522H61.7432Z" fill="#A0A2A2"/>
<path d="M57.9523 22.2873V23.8136H56.7483V22.2691L55.1247 19.557H56.3956L57.405 21.2475L58.4144 19.557H59.582L57.9523 22.2873Z" fill="#A0A2A2"/>
<path d="M53.0908 22.6826H52.4341V23.8136H51.2301V19.557H53.1759C53.5611 19.557 53.8955 19.6219 54.1793 19.7516C54.4631 19.8773 54.682 20.0597 54.836 20.2989C54.9901 20.534 55.0671 20.8117 55.0671 21.1319C55.0671 21.44 54.9941 21.7096 54.8482 21.9407C54.7063 22.1677 54.5016 22.3461 54.234 22.4758L55.1522 23.8136H53.8631L53.0908 22.6826ZM53.8509 21.1319C53.8509 20.9333 53.7881 20.7793 53.6624 20.6698C53.5367 20.5603 53.3503 20.5056 53.103 20.5056H52.4341V21.7522H53.103C53.3503 21.7522 53.5367 21.6995 53.6624 21.5941C53.7881 21.4846 53.8509 21.3306 53.8509 21.1319Z" fill="#A0A2A2"/>
<path d="M48.8629 23.8988C48.417 23.8988 48.0156 23.8055 47.6589 23.6191C47.3062 23.4285 47.0285 23.165 46.8258 22.8286C46.6231 22.4921 46.5218 22.111 46.5218 21.6854C46.5218 21.2597 46.6231 20.8786 46.8258 20.5422C47.0285 20.2057 47.3062 19.9442 47.6589 19.7577C48.0156 19.5672 48.417 19.4719 48.8629 19.4719C49.2521 19.4719 49.6027 19.5408 49.9149 19.6787C50.227 19.8165 50.4865 20.0151 50.6932 20.2746L49.927 20.9678C49.6514 20.6354 49.3169 20.4692 48.9237 20.4692C48.6926 20.4692 48.4859 20.5199 48.3034 20.6212C48.1251 20.7226 47.9852 20.8665 47.8839 21.0529C47.7866 21.2354 47.7379 21.4462 47.7379 21.6854C47.7379 21.9245 47.7866 22.1374 47.8839 22.3238C47.9852 22.5063 48.1251 22.6482 48.3034 22.7495C48.4859 22.8509 48.6926 22.9015 48.9237 22.9015C49.3169 22.9015 49.6514 22.7353 49.927 22.4029L50.6932 23.0961C50.4865 23.3556 50.227 23.5542 49.9149 23.692C49.6027 23.8299 49.2521 23.8988 48.8629 23.8988Z" fill="#A0A2A2"/>
<path d="M45.8915 19.557V23.8136H44.9003L43.0213 21.5454V23.8136H41.8416V19.557H42.8328L44.7118 21.8252V19.557H45.8915Z" fill="#A0A2A2"/>
<path d="M41.1734 22.8832V23.8136H37.756V19.557H41.0944V20.4874H38.9478V21.2049H40.839V22.1049H38.9478V22.8832H41.1734Z" fill="#A0A2A2"/>
<path d="M32.275 19.557H33.479V22.8589H35.51V23.8136H32.275V19.557Z" fill="#A0A2A2"/>
<path d="M29.8337 23.8988C29.4891 23.8988 29.1547 23.8562 28.8304 23.7711C28.5061 23.686 28.2426 23.5724 28.0399 23.4306L28.4351 22.5428C28.6256 22.6684 28.8466 22.7698 29.0979 22.8468C29.3493 22.9238 29.5966 22.9623 29.8398 22.9623C30.3019 22.9623 30.533 22.8468 30.533 22.6157C30.533 22.4941 30.4661 22.4049 30.3323 22.3482C30.2026 22.2874 29.9918 22.2245 29.6999 22.1597C29.3797 22.0907 29.1121 22.0178 28.8973 21.9408C28.6824 21.8597 28.4979 21.732 28.3439 21.5577C28.1899 21.3833 28.1128 21.1482 28.1128 20.8523C28.1128 20.5928 28.1838 20.3597 28.3257 20.153C28.4675 19.9422 28.6783 19.776 28.9581 19.6543C29.2418 19.5327 29.5884 19.4719 29.9979 19.4719C30.2776 19.4719 30.5533 19.5044 30.8249 19.5692C31.0965 19.63 31.3357 19.7212 31.5424 19.8429L31.1715 20.7367C30.7661 20.5178 30.3729 20.4084 29.9918 20.4084C29.7526 20.4084 29.5783 20.4449 29.4689 20.5178C29.3594 20.5867 29.3047 20.678 29.3047 20.7915C29.3047 20.905 29.3695 20.9901 29.4993 21.0469C29.629 21.1036 29.8378 21.1624 30.1256 21.2232C30.4499 21.2921 30.7175 21.3671 30.9283 21.4482C31.1431 21.5252 31.3276 21.6509 31.4816 21.8252C31.6397 21.9955 31.7188 22.2286 31.7188 22.5245C31.7188 22.7799 31.6478 23.011 31.5059 23.2177C31.3641 23.4245 31.1512 23.5907 30.8675 23.7164C30.5837 23.838 30.2391 23.8988 29.8337 23.8988Z" fill="#A0A2A2"/>
<path d="M25.8966 23.8988C25.552 23.8988 25.2175 23.8562 24.8932 23.7711C24.5689 23.686 24.3054 23.5724 24.1027 23.4306L24.498 22.5428C24.6885 22.6684 24.9094 22.7698 25.1608 22.8468C25.4121 22.9238 25.6594 22.9623 25.9027 22.9623C26.3648 22.9623 26.5959 22.8468 26.5959 22.6157C26.5959 22.4941 26.529 22.4049 26.3952 22.3482C26.2655 22.2874 26.0547 22.2245 25.7628 22.1597C25.4425 22.0907 25.175 22.0178 24.9601 21.9408C24.7453 21.8597 24.5608 21.732 24.4068 21.5577C24.2527 21.3833 24.1757 21.1482 24.1757 20.8523C24.1757 20.5928 24.2466 20.3597 24.3885 20.153C24.5304 19.9422 24.7412 19.776 25.0209 19.6543C25.3047 19.5327 25.6513 19.4719 26.0608 19.4719C26.3405 19.4719 26.6161 19.5044 26.8878 19.5692C27.1594 19.63 27.3985 19.7212 27.6053 19.8429L27.2344 20.7367C26.829 20.5178 26.4357 20.4084 26.0547 20.4084C25.8155 20.4084 25.6412 20.4449 25.5317 20.5178C25.4223 20.5867 25.3675 20.678 25.3675 20.7915C25.3675 20.905 25.4324 20.9901 25.5621 21.0469C25.6919 21.1036 25.9006 21.1624 26.1885 21.2232C26.5128 21.2921 26.7803 21.3671 26.9911 21.4482C27.206 21.5252 27.3904 21.6509 27.5445 21.8252C27.7026 21.9955 27.7816 22.2286 27.7816 22.5245C27.7816 22.7799 27.7107 23.011 27.5688 23.2177C27.4269 23.4245 27.2141 23.5907 26.9303 23.7164C26.6465 23.838 26.302 23.8988 25.8966 23.8988Z" fill="#A0A2A2"/>
</svg>
