<svg width="458" height="80" viewBox="0 0 458 80" fill="none" xmlns="http://www.w3.org/2000/svg">
<path d="M73.2495 1.22461C73.2495 1.22461 65.1313 -3.05393 58.4273 4.38802C57.365 5.56715 56.7359 6.63678 56.4288 7.60535C51.056 4.15557 44.6889 2.15611 37.8621 2.15611C30.5024 2.15611 23.6789 4.47899 18.0588 8.43747C17.8944 7.26172 17.2438 5.91583 15.8678 4.38802C9.16213 -3.05561 1.04395 1.22461 1.04395 1.22461C2.44483 11.5706 8.85008 14.1865 11.1921 14.803C6.13461 20.9311 3.08884 28.8262 3.08884 37.4456C3.08884 47.8673 7.54048 57.2313 14.6196 63.6912C14.6047 63.8579 14.5964 64.0264 14.5964 64.1965V74.8844C14.5964 77.6082 16.6064 79.8165 19.0829 79.8165H29.1148C31.5929 79.8165 33.6013 77.6082 33.6013 74.8844V72.4689C34.9972 72.6424 36.418 72.7334 37.8604 72.7334C39.2663 72.7334 40.6522 72.6458 42.0133 72.4824V74.8844C42.0133 77.6082 44.0233 79.8165 46.5014 79.8165H56.5334C59.0132 79.8165 61.0199 77.6082 61.0199 74.8844V64.1965C61.0199 64.0567 61.0133 63.9186 61.0033 63.7805C68.1389 57.3172 72.6337 47.9145 72.6337 37.4439C72.6337 28.6527 69.4667 20.6144 64.2267 14.4375C67.055 13.3561 72.0345 10.1977 73.2495 1.22461Z" fill="#E83A89"/>
<path d="M8.21279 24.1803C8.21279 24.5155 7.9439 24.7867 7.6136 24.7867C7.28164 24.7867 7.0144 24.5139 7.0144 24.1803V22.1169C7.0144 21.7817 7.28164 21.5071 7.6136 21.5071C7.9439 21.5071 8.21279 21.78 8.21279 22.1169V24.1803Z" fill="#E83A89"/>
<path d="M6.52807 41.2995C6.52807 41.2995 3.01921 37.4488 2.6109 32.8115C2.20258 28.1742 2.6109 26.8485 1.6316 26.0215C0.652309 25.1944 0.243994 25.1944 0.162662 23.7845C0.0813312 22.3763 0 20.803 0 20.4695C0 20.1393 0.733641 19.1472 1.95859 18.9804C3.18188 18.8153 11.2619 18.4009 12.8935 18.0691C14.5267 17.7373 19.3402 17.242 24.318 18.0691C29.2975 18.8979 31.9067 20.2219 36.5592 20.4695C41.21 20.7188 46.1878 19.3106 46.5978 19.0629C47.0061 18.8153 53.4529 17.4897 58.756 17.6547C64.0608 17.8215 71.1598 18.7328 71.8951 18.8153C72.6288 18.8979 75.404 18.4835 75.6496 20.7188C75.8936 22.9557 75.487 24.8592 75.2413 25.2736C74.9973 25.6879 74.0977 25.6054 73.691 27.0119C73.691 27.0119 72.6288 35.0468 71.9781 36.9502C71.3258 38.8554 69.9365 42.6656 63.0831 44.2406C56.2281 45.8122 52.3922 44.0738 50.1067 42.9991C47.8211 41.9228 43.2516 38.0283 42.191 34.9643C41.1303 31.9002 40.3121 29.1882 39.5801 28.1944C38.8464 27.1989 38.0497 26.766 37.4987 26.889C36.9476 27.0136 36.3965 27.4499 35.6629 28.8766C34.9293 30.305 34.8064 33.1619 32.9093 35.8334C31.0121 38.5033 29.5431 41.5488 25.6874 42.9772C21.8316 44.4074 17.302 45.3995 13.262 44.4074C9.22196 43.4118 7.69161 42.4803 6.52807 41.2995Z" fill="black"/>
<path d="M12.7094 41.2373C12.7094 41.2373 9.28192 40.3681 7.69015 36.5174C6.09838 32.6651 6.71085 28.0059 7.0146 25.9559C7.32167 23.9076 7.32167 22.2922 12.6464 21.6723C17.9711 21.0507 21.3986 20.6785 25.744 21.6723C30.0894 22.6644 31.3741 24.5915 31.253 27.8206C31.1301 31.0497 29.4172 36.9503 26.1722 39.0627C22.9323 41.1767 19.4433 42.8527 12.7094 41.2373Z" fill="white"/>
<path d="M62.3973 41.2373C62.3973 41.2373 65.8249 40.3681 67.4166 36.5174C69.0084 32.6651 68.3959 28.0059 68.0905 25.9559C67.7851 23.9076 67.7851 22.2922 62.4604 21.6723C57.1357 21.0507 53.7082 20.6785 49.3628 21.6723C45.019 22.6644 43.731 24.5915 43.8555 27.8206C43.9783 31.0497 45.6929 36.9503 48.9346 39.0627C52.1762 41.1767 55.6651 42.8527 62.3973 41.2373Z" fill="white"/>
<path d="M73.9136 23.6904C73.9136 24.0862 73.5983 24.4063 73.2099 24.4063C72.8215 24.4063 72.5061 24.0862 72.5061 23.6904V21.2681C72.5061 20.8739 72.8215 20.5539 73.2099 20.5539C73.5983 20.5539 73.9136 20.8739 73.9136 21.2681V23.6904Z" fill="white"/>
<path d="M3.1502 23.6904C3.1502 24.0862 2.83484 24.4063 2.44644 24.4063C2.05804 24.4063 1.74268 24.0862 1.74268 23.6904V21.2681C1.74268 20.8739 2.05804 20.5539 2.44644 20.5539C2.83484 20.5539 3.1502 20.8739 3.1502 21.2681V23.6904Z" fill="white"/>
<path d="M26.6353 29.2759C26.6353 31.0715 25.2012 32.5252 23.4335 32.5252C21.6641 32.5252 20.2317 31.0715 20.2317 29.2759C20.2317 27.482 21.6658 26.0266 23.4335 26.0266C25.1995 26.0266 26.6353 27.482 26.6353 29.2759Z" fill="black"/>
<path d="M53.9888 29.2759C53.9888 31.0715 52.5547 32.5252 50.787 32.5252C49.0193 32.5252 47.5852 31.0715 47.5852 29.2759C47.5852 27.482 49.0193 26.0266 50.787 26.0266C52.5547 26.0266 53.9888 27.482 53.9888 29.2759Z" fill="black"/>
<path d="M61.2289 11.4661C61.2289 11.4661 65.5909 9.09779 66.8375 5.45935C61.541 6.88272 59.9824 10.3611 59.9824 10.3611L61.2289 11.4661Z" fill="black"/>
<path d="M13.4032 11.4661C13.4032 11.4661 9.0412 9.09779 7.79468 5.45935C13.0912 6.88272 14.6497 10.3611 14.6497 10.3611L13.4032 11.4661Z" fill="black"/>
<path d="M37.8621 2.15606C37.2347 2.15606 36.6123 2.1729 35.9932 2.20659V6.16844C35.9932 7.17238 36.6206 7.98766 37.3941 7.98766C38.1675 7.98766 38.7966 7.17407 38.7966 6.16844V2.17964C38.4846 2.17122 38.1758 2.15606 37.8621 2.15606Z" fill="black"/>
<path d="M53.0247 51.3592C53.0247 60.206 45.9572 67.3801 37.2382 67.3801C28.5192 67.3801 21.4517 60.206 21.4517 51.3592C21.4517 42.5107 28.5192 35.3366 37.2382 35.3366C45.9572 35.3366 53.0247 42.5107 53.0247 51.3592Z" fill="#E83A89"/>
<path d="M37.238 66.3257C45.3828 66.3257 51.9855 59.625 51.9855 51.3593C51.9855 43.0936 45.3828 36.3929 37.238 36.3929C29.0932 36.3929 22.4905 43.0936 22.4905 51.3593C22.4905 59.625 29.0932 66.3257 37.238 66.3257Z" fill="black"/>
<path d="M49.3362 51.3592C49.3362 58.1409 43.9186 63.6389 37.2378 63.6389C30.5554 63.6389 25.1377 58.1409 25.1377 51.3592C25.1377 44.5776 30.5554 39.0795 37.2378 39.0795C43.9202 39.0795 49.3362 44.5776 49.3362 51.3592Z" fill="#E83A89"/>
<path d="M35.8889 48.1451C35.8889 50.2389 34.5644 51.9402 32.9294 51.9402C31.2945 51.9402 29.97 50.2406 29.97 48.1451C29.97 46.0497 31.2945 44.3501 32.9294 44.3501C34.5644 44.3517 35.8889 46.0497 35.8889 48.1451Z" fill="black"/>
<path d="M44.4565 48.1451C44.4565 50.2389 43.1319 51.9402 41.4953 51.9402C39.8621 51.9402 38.5359 50.2406 38.5359 48.1451C38.5359 46.0497 39.8621 44.3501 41.4953 44.3501C43.1319 44.3517 44.4565 46.0497 44.4565 48.1451Z" fill="black"/>
<path d="M44.2591 69.2297C43.5155 69.1792 42.9528 68.5256 43.0026 67.771C43.0524 67.0163 43.6964 66.4453 44.44 66.4958C44.44 66.4942 44.4516 66.4958 44.4798 66.4975C44.508 66.4975 44.5578 66.4992 44.6309 66.4992C45.1736 66.5043 46.7355 66.4032 48.143 65.6351C49.5439 64.8468 50.8602 63.5632 51.3216 60.6474C51.4312 59.8995 52.12 59.3857 52.8553 59.4969C53.5922 59.6098 54.1001 60.3071 53.9889 61.0567C53.4628 64.7608 51.4378 66.9894 49.4095 68.054C47.3845 69.1388 45.4292 69.2365 44.6309 69.2398C44.4167 69.2381 44.2856 69.2314 44.2591 69.2297Z" fill="black"/>
<path d="M117.782 47.4718C117.782 49.9978 117.141 52.2489 115.841 54.2078C114.541 56.1668 112.687 57.6961 110.244 58.7787C107.801 59.8613 104.942 60.4112 101.667 60.4112C98.9289 60.4112 96.6416 60.2221 94.7876 59.8441C92.9335 59.4489 91.01 58.7959 89 57.8336V48.0217C91.114 49.1043 93.3147 49.9463 95.602 50.5477C97.8893 51.1491 99.986 51.4584 101.892 51.4584C103.538 51.4584 104.751 51.1835 105.514 50.6164C106.276 50.0494 106.675 49.3105 106.675 48.4341C106.675 47.8842 106.519 47.3859 106.207 46.9735C105.895 46.5611 105.41 46.1315 104.716 45.7019C104.041 45.2723 102.204 44.3959 99.2408 43.0728C96.555 41.8699 94.545 40.7014 93.2107 39.5673C91.8764 38.4332 90.8714 37.1272 90.2303 35.6666C89.5892 34.206 89.2599 32.4532 89.2599 30.4599C89.2599 26.6967 90.6288 23.7755 93.384 21.679C96.1738 19.5483 99.9513 18.5 104.768 18.5C109.031 18.5 113.363 19.4795 117.782 21.4213L114.386 29.9272C110.539 28.1745 107.229 27.3153 104.439 27.3153C103.001 27.3153 101.944 27.5731 101.286 28.0714C100.627 28.5697 100.298 29.1883 100.298 29.9444C100.298 30.752 100.714 31.4566 101.545 32.0924C102.377 32.7282 104.647 33.8795 108.338 35.5463C111.873 37.1272 114.334 38.8284 115.72 40.6327C117.106 42.437 117.782 44.7224 117.782 47.4718Z" fill="white"/>
<path d="M160.097 59.8433V42.6768C160.097 40.546 159.802 38.9307 159.213 37.8653C158.624 36.7999 157.688 36.2672 156.423 36.2672C154.742 36.2672 153.495 36.989 152.715 38.4152C151.935 39.8415 151.537 42.0925 151.537 45.1341V59.8605H140.516V42.694C140.516 40.5632 140.239 38.9479 139.667 37.8825C139.113 36.8171 138.194 36.2844 136.947 36.2844C135.214 36.2844 133.966 37.0405 133.186 38.5699C132.407 40.0992 132.008 42.5909 132.008 46.0448V59.8777H121.022V28.2596H129.322L130.691 32.1603H131.332C132.181 30.7169 133.394 29.6 135.006 28.8439C136.6 28.0878 138.437 27.6926 140.481 27.6926C145.073 27.6926 148.296 29.0844 150.15 31.851H151.017C151.918 30.5451 153.166 29.5312 154.777 28.7923C156.371 28.0534 158.139 27.6926 160.079 27.6926C163.84 27.6926 166.629 28.6549 168.431 30.5622C170.234 32.4696 171.135 35.3909 171.135 39.2916V59.8433H160.097Z" fill="white"/>
<path d="M196.85 59.8438L194.736 55.6682H194.51C193.037 57.4897 191.513 58.7441 189.988 59.3971C188.445 60.0672 186.47 60.3937 184.027 60.3937C181.029 60.3937 178.672 59.5002 176.94 57.7131C175.224 55.9259 174.358 53.4171 174.358 50.1866C174.358 46.8186 175.536 44.3097 177.893 42.6773C180.249 41.0276 183.68 40.0997 188.151 39.9107L193.471 39.7389V39.2921C193.471 36.6973 192.171 35.3914 189.589 35.3914C187.267 35.3914 184.321 36.1647 180.734 37.7284L177.563 30.5284C181.272 28.6382 185.968 27.6759 191.616 27.6759C195.706 27.6759 198.86 28.6725 201.112 30.683C203.348 32.6935 204.474 35.4945 204.474 39.1031V59.8095H196.85V59.8438ZM188.688 52.7126C190.022 52.7126 191.166 52.3002 192.102 51.4582C193.055 50.6162 193.523 49.5336 193.523 48.1933V45.736L190.993 45.8563C187.371 45.9937 185.569 47.2997 185.569 49.8085C185.569 51.7503 186.609 52.7126 188.688 52.7126Z" fill="white"/>
<path d="M228.664 27.6926C229.617 27.6926 230.535 27.7613 231.384 27.916L232.008 28.0362L231.02 38.3293C230.119 38.1059 228.871 38.0028 227.277 38.0028C224.886 38.0028 223.136 38.5527 222.044 39.6353C220.953 40.7178 220.415 42.2816 220.415 44.3264V59.8605H209.429V28.2596H217.608L219.324 33.3116H219.861C220.779 31.6448 222.062 30.2873 223.69 29.2563C225.337 28.2253 227 27.6926 228.664 27.6926Z" fill="white"/>
<path d="M251.485 51.7843C252.957 51.7843 254.742 51.4234 256.804 50.7017V58.6406C255.331 59.2764 253.91 59.7232 252.576 59.9981C251.242 60.273 249.665 60.4105 247.863 60.4105C244.172 60.4105 241.504 59.517 239.875 57.7127C238.246 55.9084 237.432 53.159 237.432 49.4473V36.422H233.585V31.9886L238.471 28.5519L241.313 21.9189H248.504V28.2426H256.319V36.4048H248.504V48.6912C248.504 50.7704 249.492 51.7843 251.485 51.7843Z" fill="white"/>
<path d="M259.906 60.9086C259.906 60.8227 259.923 60.2556 259.975 59.2074C260.027 58.1592 260.114 56.7845 260.235 55.0489C260.357 53.3134 260.547 51.3201 260.772 49.069C260.998 46.8007 261.292 44.4294 261.656 41.9034C262.02 39.3774 262.453 36.7998 262.956 34.1535C263.458 31.5072 264.047 28.9297 264.723 26.4208C265.399 23.912 266.196 21.5407 267.062 19.324C267.946 17.1073 268.934 15.1655 270.026 13.4987C271.117 11.8318 272.348 10.5259 273.699 9.54641C275.051 8.58412 276.524 8.10297 278.135 8.10297C278.776 8.10297 279.452 8.22326 280.145 8.42946C280.856 8.65285 281.497 9.01371 282.069 9.51204C282.658 10.0104 283.143 10.6805 283.524 11.5054C283.905 12.3302 284.096 13.344 284.096 14.5641C284.096 15.6638 283.923 16.9182 283.576 18.3445C283.229 19.7707 282.744 21.2829 282.12 22.8982C281.497 24.5134 280.752 26.1974 279.903 27.9502C279.053 29.7029 278.118 31.4385 277.113 33.174C276.108 34.9096 275.033 36.628 273.924 38.312C272.815 39.996 271.672 41.5769 270.511 43.0375L270.459 43.4843C270.84 43.2953 271.117 43.175 271.308 43.1234C271.498 43.0719 271.689 43.0375 271.897 43.0375C272.14 43.0375 272.33 43.0547 272.486 43.1062C272.642 43.1578 272.763 43.2093 272.902 43.2609C273.023 43.3124 273.145 43.364 273.283 43.4155C273.422 43.4671 273.578 43.4843 273.768 43.4843C275.622 43.4843 277.269 43.2609 278.69 42.8313C280.11 42.4017 281.306 41.9034 282.294 41.3707C283.437 40.7521 284.425 40.0475 285.274 39.2227L284.65 45.9931C283.42 46.6633 282.12 47.1788 280.769 47.5568C279.417 47.9349 278.17 48.2098 277.026 48.3988C275.692 48.605 274.375 48.7253 273.058 48.7941C273.734 50.0141 274.34 51.2857 274.877 52.6088C275.345 53.743 275.778 55.0146 276.16 56.4064C276.541 57.8155 276.731 59.2246 276.731 60.6508C276.731 60.8227 276.714 61.1663 276.662 61.7162C276.61 62.2489 276.541 62.9191 276.42 63.6923C276.316 64.4656 276.142 65.342 275.934 66.2871C275.726 67.2322 275.467 68.1945 275.137 69.1568C274.808 70.1191 274.41 71.047 273.942 71.9577C273.474 72.8513 272.919 73.6589 272.296 74.3634C271.672 75.068 270.944 75.6179 270.13 76.0475C269.315 76.4771 268.397 76.6833 267.357 76.6833C266.335 76.6833 265.434 76.4427 264.654 75.9787C263.891 75.5148 263.233 74.879 262.696 74.1057C262.159 73.3152 261.691 72.3873 261.327 71.3391C260.963 70.2909 260.686 69.174 260.478 68.0055C260.27 66.837 260.131 65.6341 260.045 64.4141C259.941 63.2112 259.906 62.0427 259.906 60.9086ZM267.409 47.5225C267.34 47.5225 267.253 47.7287 267.149 48.1583C267.062 48.5707 266.959 49.1205 266.889 49.7735C266.803 50.4265 266.716 51.1654 266.647 51.9902C266.577 52.815 266.508 53.6055 266.456 54.3959C266.404 55.1864 266.352 55.9253 266.317 56.5955C266.283 57.2828 266.265 57.8155 266.265 58.1936C266.265 60.9258 266.317 63.1081 266.421 64.7234C266.525 66.3386 266.664 67.5759 266.82 68.4007C266.976 69.2427 267.149 69.7754 267.357 70.0331C267.548 70.2909 267.756 70.4112 267.964 70.4112C268.605 70.4112 269.107 70.1191 269.488 69.552C269.87 68.9678 270.164 68.246 270.355 67.3697C270.545 66.4933 270.684 65.5138 270.753 64.4656C270.823 63.4174 270.857 62.4036 270.857 61.4413C270.857 60.7883 270.805 59.9978 270.701 59.0356C270.597 58.0905 270.459 57.0938 270.285 56.0628C270.112 55.0317 269.904 54.0007 269.662 52.9869C269.436 51.973 269.176 51.0451 268.934 50.2375C268.674 49.4299 268.414 48.7769 268.154 48.2785C267.877 47.7802 267.634 47.5225 267.409 47.5225ZM274.236 17.1073C273.145 19.7879 272.296 22.1421 271.672 24.1698C271.048 26.2146 270.58 28.0189 270.268 29.5998C269.956 31.1807 269.731 32.5726 269.592 33.7755C269.454 34.9783 269.332 36.0781 269.194 37.1091C270.337 34.9783 271.498 32.8647 272.659 30.7855C273.82 28.7235 274.877 26.7989 275.813 25.0118C276.749 23.2418 277.511 21.6781 278.1 20.3206C278.69 18.9631 278.984 17.9321 278.984 17.2275C278.984 16.2481 278.846 15.5263 278.568 15.0624C278.291 14.5984 277.91 14.375 277.407 14.375C276.541 14.375 275.882 14.5984 275.449 15.0624C274.999 15.5092 274.6 16.1965 274.236 17.1073Z" fill="white"/>
<path d="M299.015 53.9151C298.339 54.5338 297.508 55.1867 296.503 55.8741C295.498 56.5786 294.423 57.2144 293.262 57.7987C292.101 58.3829 290.906 58.8641 289.71 59.2593C288.497 59.6545 287.354 59.8435 286.262 59.8435C285.291 59.8435 284.46 59.7061 283.801 59.4483C283.143 59.1734 282.588 58.7953 282.19 58.3142C281.774 57.833 281.479 57.2488 281.306 56.5442C281.133 55.8397 281.046 55.0836 281.046 54.2416C281.046 53.0731 281.185 51.7156 281.462 50.1519C281.739 48.6054 282.068 46.9901 282.467 45.3233C282.866 43.6565 283.281 42.0068 283.715 40.34C284.148 38.6904 284.546 37.161 284.876 35.7691C285.014 35.288 285.274 34.8756 285.673 34.5319C286.071 34.1882 286.504 33.9133 287.007 33.6899C287.509 33.4837 288.012 33.3118 288.549 33.2087C289.086 33.1056 289.572 33.0541 290.005 33.0541C290.784 33.0541 291.322 33.1916 291.599 33.4837C291.876 33.7758 292.015 34.1538 292.015 34.635C292.015 35.0474 291.928 35.6316 291.738 36.4049C291.547 37.1782 291.322 38.0546 291.044 39.034C290.767 40.0135 290.455 41.0617 290.143 42.1787C289.831 43.2956 289.52 44.4297 289.242 45.5467C288.965 46.6808 288.722 47.7634 288.532 48.8288C288.341 49.8941 288.255 50.8564 288.255 51.7156C288.255 52.5576 288.341 53.2106 288.532 53.7089C288.722 54.2073 289.104 54.4478 289.693 54.4478C290.369 54.4478 291.114 54.2244 291.945 53.7433C292.777 53.2622 293.609 52.7123 294.441 52.0593C295.29 51.4063 296.104 50.719 296.919 50.0144C297.716 49.3099 298.443 48.7085 299.05 48.193V53.9151H299.015ZM286.435 25.2527C286.435 24.8231 286.522 24.3419 286.712 23.8092C286.903 23.2765 287.198 22.761 287.631 22.2971C288.047 21.8159 288.618 21.4207 289.312 21.0942C290.022 20.7677 290.888 20.6131 291.945 20.6131C292.604 20.6131 293.228 20.6818 293.8 20.8365C294.389 20.9911 294.891 21.2145 295.324 21.5238C295.758 21.8331 296.104 22.2283 296.347 22.7267C296.607 23.225 296.728 23.8264 296.728 24.5138C296.728 25.1496 296.624 25.7682 296.416 26.3524C296.208 26.9539 295.879 27.4694 295.428 27.9333C294.978 28.3973 294.406 28.7753 293.73 29.0675C293.037 29.3596 292.223 29.4971 291.27 29.4971C289.623 29.4971 288.393 29.119 287.613 28.3457C286.834 27.5553 286.435 26.5243 286.435 25.2527Z" fill="white"/>
<path d="M297.005 54.0182C297.005 52.7981 297.075 51.3719 297.231 49.7738C297.387 48.1585 297.56 46.5261 297.785 44.8592C298.01 43.1924 298.27 41.5943 298.548 40.0478C298.825 38.5013 299.102 37.1781 299.362 36.0955C299.57 35.2363 299.968 34.5318 300.558 33.9476C301.147 33.3805 301.944 33.0884 302.966 33.0884C303.989 33.0884 304.682 33.3977 305.08 34.0163C305.479 34.6349 305.669 35.4425 305.669 36.4736C305.669 36.7485 305.635 37.1266 305.583 37.6077C305.531 38.0888 305.461 38.6044 305.375 39.1714C305.288 39.7385 305.202 40.3227 305.115 40.9242C305.028 41.5256 304.924 42.0927 304.855 42.591C304.768 43.1065 304.699 43.5533 304.647 43.9313C304.595 44.3094 304.56 44.5671 304.56 44.7046H305.132C305.236 44.4984 305.427 44.1719 305.669 43.7079C305.912 43.244 306.189 42.7285 306.518 42.127C306.83 41.5256 307.177 40.907 307.541 40.254C307.905 39.601 308.251 38.9652 308.563 38.3638C308.875 37.7624 309.17 37.2297 309.43 36.7657C309.689 36.3017 309.897 35.9581 310.019 35.7347C310.625 34.738 311.301 34.0507 312.063 33.6726C312.843 33.2946 313.692 33.1056 314.628 33.1056C315.564 33.1056 316.309 33.5008 316.863 34.2741C317.418 35.0473 317.695 36.1299 317.695 37.5046C317.695 37.7108 317.66 38.0545 317.574 38.5356C317.487 39.0168 317.383 39.601 317.244 40.254C317.106 40.9242 316.967 41.6631 316.811 42.4535C316.655 43.2612 316.499 44.0688 316.378 44.9108C316.239 45.7528 316.135 46.5776 316.049 47.3852C315.962 48.2101 315.928 48.949 315.928 49.6363C315.928 50.7876 316.066 51.7327 316.361 52.4716C316.655 53.2105 317.106 53.5886 317.73 53.5886C318.007 53.5886 318.336 53.5027 318.7 53.3308C319.064 53.159 319.462 52.9528 319.878 52.6778C320.294 52.4029 320.727 52.0936 321.178 51.7499C321.611 51.3891 322.062 51.0282 322.478 50.6673C323.465 49.791 324.505 48.8115 325.597 47.7117L326.082 53.9494L324.678 55.0148C323.916 55.5991 323.136 56.1661 322.339 56.7504C321.542 57.3346 320.71 57.8501 319.844 58.2969C318.977 58.7609 318.076 59.1217 317.141 59.4139C316.205 59.706 315.217 59.8435 314.195 59.8435C313.155 59.8435 312.289 59.1046 311.596 57.6268C310.902 56.149 310.539 53.9838 310.539 51.1485C310.539 50.0315 310.608 48.8287 310.764 47.5399C310.92 46.2511 311.11 44.8592 311.318 43.3643H310.868L303.486 57.8673C303.105 58.6234 302.689 59.1561 302.221 59.431C301.753 59.706 301.216 59.8435 300.592 59.8435C299.83 59.8435 299.206 59.6888 298.738 59.3623C298.27 59.0358 297.906 58.6062 297.664 58.0563C297.421 57.5065 297.248 56.8879 297.161 56.1833C297.057 55.4788 297.005 54.7571 297.005 54.0182Z" fill="white"/>
<path d="M352.472 53.022C352.039 53.6234 351.467 54.3108 350.739 55.1184C350.012 55.926 349.214 56.6821 348.313 57.4038C347.412 58.1256 346.442 58.7442 345.42 59.2425C344.38 59.7408 343.358 59.9986 342.318 59.9986C341.088 59.9986 340.048 59.6034 339.216 58.8129C338.402 58.0225 337.674 56.8712 337.085 55.3762C336.634 55.8917 336.08 56.4244 335.421 56.9571C334.763 57.4898 334.052 57.9881 333.273 58.4177C332.493 58.8473 331.679 59.2081 330.847 59.4831C329.998 59.758 329.166 59.8955 328.317 59.8955C327.416 59.8955 326.549 59.7065 325.683 59.3456C324.834 58.9848 324.072 58.4692 323.413 57.7819C322.755 57.0945 322.235 56.2697 321.836 55.3074C321.438 54.328 321.247 53.2282 321.247 52.0082C321.247 50.6163 321.438 49.19 321.836 47.7122C322.235 46.2516 322.772 44.8082 323.465 43.3991C324.158 41.99 324.99 40.6669 325.926 39.4297C326.879 38.1752 327.901 37.0927 329.027 36.1648C330.154 35.2368 331.332 34.4979 332.58 33.948C333.827 33.3982 335.092 33.1232 336.392 33.1232C336.825 33.1232 337.154 33.2091 337.397 33.381C337.639 33.5528 337.847 33.7418 338.003 33.948C338.159 34.1714 338.315 34.3776 338.471 34.5838C338.627 34.7901 338.818 34.9447 339.043 35.0306C339.268 35.1165 339.493 35.1853 339.736 35.2196C339.961 35.254 340.204 35.254 340.447 35.254C340.654 35.254 340.862 35.254 341.088 35.2368C341.296 35.2196 341.521 35.2196 341.729 35.2196C342.006 35.2196 342.266 35.254 342.509 35.3056C342.751 35.3571 342.976 35.4774 343.167 35.6664C343.358 35.8554 343.496 36.1132 343.6 36.4397C343.704 36.7662 343.756 37.2301 343.756 37.7972C343.756 38.6908 343.67 39.6874 343.479 40.77C343.288 41.8526 343.08 42.9695 342.855 44.1208C342.63 45.2549 342.422 46.4063 342.231 47.5576C342.041 48.7089 341.954 49.7915 341.954 50.8053C341.954 51.6817 342.041 52.369 342.197 52.8502C342.353 53.3485 342.699 53.5891 343.219 53.5891C343.618 53.5891 344.016 53.486 344.449 53.2969C344.882 53.1079 345.316 52.8502 345.749 52.5237C346.182 52.2144 346.633 51.8535 347.066 51.4583C347.499 51.063 347.932 50.6506 348.313 50.221C349.232 49.2244 350.15 48.0903 351.103 46.8187L352.472 53.022ZM328.473 50.8053C328.473 51.2693 328.507 51.716 328.577 52.1628C328.646 52.5924 328.767 52.9876 328.923 53.3313C329.097 53.675 329.322 53.9499 329.599 54.1733C329.876 54.3795 330.24 54.4998 330.674 54.4998C331.367 54.4998 331.99 54.2077 332.562 53.6062C333.134 53.0048 333.619 52.3003 334.018 51.4583C334.434 50.6163 334.763 49.7571 335.023 48.8635C335.283 47.97 335.439 47.2311 335.525 46.6296L337.241 38.433C336.478 38.433 335.716 38.622 334.988 39.0001C334.26 39.3781 333.567 39.8936 332.926 40.5466C332.285 41.1996 331.679 41.9385 331.141 42.7805C330.604 43.6225 330.119 44.4989 329.738 45.4096C329.339 46.3203 329.045 47.2483 328.819 48.1762C328.577 49.1213 328.473 49.9977 328.473 50.8053Z" fill="white"/>
<path d="M349.163 54.0182C349.163 52.7981 349.232 51.3719 349.388 49.7738C349.544 48.1585 349.734 46.5261 349.942 44.8592C350.168 43.1924 350.428 41.5943 350.705 40.0478C350.982 38.5013 351.259 37.1781 351.519 36.0955C351.727 35.2363 352.126 34.5318 352.715 33.9476C353.304 33.3805 354.101 33.0884 355.106 33.0884C356.128 33.0884 356.822 33.3977 357.22 34.0163C357.619 34.6349 357.809 35.4425 357.809 36.4736C357.809 36.7485 357.775 37.1266 357.723 37.6077C357.671 38.0888 357.601 38.6044 357.515 39.1714C357.428 39.7385 357.341 40.3227 357.255 40.9242C357.168 41.5256 357.064 42.0927 356.995 42.591C356.908 43.1065 356.839 43.5533 356.787 43.9313C356.735 44.3094 356.7 44.5671 356.7 44.7046H357.255C357.359 44.4984 357.549 44.1719 357.792 43.7079C358.035 43.244 358.312 42.7285 358.641 42.127C358.953 41.5256 359.299 40.907 359.663 40.254C360.027 39.601 360.374 38.9652 360.686 38.3638C360.998 37.7624 361.292 37.2297 361.552 36.7657C361.812 36.3017 362.02 35.9581 362.141 35.7347C362.748 34.738 363.424 34.0507 364.203 33.6726C364.966 33.2946 365.832 33.1056 366.768 33.1056C367.704 33.1056 368.449 33.5008 369.003 34.2741C369.558 35.0473 369.835 36.1299 369.835 37.5046C369.835 37.7108 369.8 38.0545 369.714 38.5356C369.627 39.0168 369.523 39.601 369.384 40.254C369.246 40.9242 369.107 41.6631 368.951 42.4535C368.795 43.2612 368.639 44.0688 368.518 44.9108C368.379 45.7528 368.275 46.5776 368.189 47.3852C368.102 48.2101 368.067 48.949 368.067 49.6363C368.067 50.7876 368.206 51.7327 368.501 52.4716C368.795 53.2105 369.246 53.5886 369.87 53.5886C370.147 53.5886 370.476 53.5027 370.84 53.3308C371.204 53.159 371.602 52.9528 372.018 52.6778C372.434 52.4029 372.867 52.0936 373.318 51.7499C373.751 51.3891 374.202 51.0282 374.635 50.6673C375.622 49.791 376.662 48.8115 377.754 47.7117L378.239 53.9494L376.835 55.0148C376.056 55.5991 375.276 56.1661 374.479 56.7504C373.682 57.3346 372.85 57.8501 371.984 58.2969C371.117 58.7609 370.216 59.1217 369.28 59.4139C368.345 59.706 367.357 59.8435 366.335 59.8435C365.312 59.8435 364.429 59.1046 363.735 57.6268C363.025 56.149 362.678 53.9838 362.678 51.1485C362.678 50.0315 362.748 48.8287 362.904 47.5399C363.06 46.2511 363.233 44.8592 363.458 43.3643H363.008L355.626 57.8673C355.262 58.6234 354.829 59.1561 354.361 59.431C353.893 59.706 353.356 59.8435 352.732 59.8435C351.97 59.8435 351.346 59.6888 350.878 59.3623C350.41 59.0358 350.046 58.6062 349.804 58.0563C349.544 57.5065 349.388 56.8879 349.301 56.1833C349.197 55.4788 349.163 54.7571 349.163 54.0182Z" fill="white"/>
<path d="M383.905 59.8435C382.172 59.8435 380.665 59.5342 379.365 58.8984C378.066 58.2626 376.974 57.4206 376.09 56.3552C375.206 55.2898 374.548 54.0697 374.097 52.6778C373.647 51.286 373.422 49.8425 373.422 48.3304C373.422 47.2478 373.543 46.1308 373.768 44.9623C373.993 43.7938 374.323 42.6425 374.773 41.5256C375.206 40.4087 375.761 39.3261 376.402 38.3122C377.043 37.2984 377.788 36.3877 378.655 35.6144C379.504 34.8411 380.457 34.2225 381.514 33.7757C382.571 33.3118 383.714 33.0884 384.962 33.0884C386.036 33.0884 387.024 33.243 387.925 33.5695C388.826 33.896 389.606 34.3428 390.264 34.927C390.906 35.4941 391.425 36.1815 391.789 36.9719C392.153 37.7624 392.344 38.6044 392.344 39.5151C392.344 40.1509 392.257 40.7695 392.084 41.3881C391.911 42.0067 391.668 42.5566 391.339 43.0549C391.01 43.5533 390.611 43.9485 390.143 44.2406C389.675 44.5327 389.155 44.6874 388.566 44.6874C387.683 44.6874 387.111 44.464 386.833 44.0001C386.556 43.5361 386.418 42.9003 386.418 42.0755C386.418 41.7318 386.435 41.3881 386.47 41.0101C386.504 40.632 386.522 40.3055 386.522 40.0134C386.522 39.5666 386.47 39.1886 386.383 38.8965C386.296 38.6044 386.088 38.4497 385.759 38.4497C384.997 38.4497 384.338 38.6387 383.784 38.9996C383.247 39.3604 382.779 39.8416 382.398 40.4258C382.016 41.0101 381.704 41.6802 381.479 42.402C381.254 43.1409 381.081 43.8626 380.942 44.5843C380.803 45.306 380.734 45.9934 380.682 46.6635C380.647 47.3165 380.63 47.8836 380.63 48.3304C380.63 49.0005 380.699 49.6879 380.821 50.4268C380.942 51.1657 381.167 51.8187 381.514 52.4201C381.86 53.0215 382.311 53.5198 382.883 53.9322C383.455 54.3275 384.217 54.5337 385.135 54.5337C386.036 54.5337 387.024 54.2587 388.116 53.7089C389.207 53.159 390.299 52.4716 391.391 51.6296C392.482 50.7876 393.522 49.8769 394.527 48.863C395.515 47.8664 396.381 46.9041 397.074 46.0105L399.015 49.2411C397.611 51.2344 396.087 53.0043 394.458 54.5681C393.765 55.2382 393.02 55.8912 392.188 56.527C391.373 57.1628 390.524 57.7299 389.623 58.211C388.74 58.7093 387.804 59.1046 386.833 59.4139C385.88 59.6888 384.91 59.8435 383.905 59.8435Z" fill="white"/>
<path d="M413.016 53.9151C412.34 54.5338 411.509 55.1867 410.504 55.8741C409.499 56.5786 408.424 57.2144 407.263 57.7987C406.102 58.3829 404.907 58.8641 403.711 59.2593C402.498 59.6545 401.355 59.8435 400.263 59.8435C399.292 59.8435 398.461 59.7061 397.802 59.4483C397.144 59.1734 396.589 58.7953 396.191 58.3142C395.775 57.833 395.48 57.2488 395.307 56.5442C395.134 55.8397 395.047 55.0836 395.047 54.2416C395.047 53.0731 395.186 51.7156 395.463 50.1519C395.74 48.6054 396.069 46.9901 396.468 45.3233C396.867 43.6565 397.282 42.0068 397.716 40.34C398.166 38.6904 398.547 37.161 398.877 35.7691C399.015 35.288 399.275 34.8756 399.674 34.5319C400.072 34.1882 400.505 33.9133 401.008 33.6899C401.51 33.4837 402.013 33.3118 402.55 33.2087C403.087 33.1056 403.572 33.0541 404.006 33.0541C404.803 33.0541 405.323 33.1916 405.617 33.4837C405.894 33.7758 406.033 34.1538 406.033 34.635C406.033 35.0474 405.946 35.6316 405.756 36.4049C405.565 37.1782 405.34 38.0546 405.045 39.034C404.768 40.0135 404.474 41.0617 404.144 42.1787C403.832 43.2956 403.521 44.4297 403.243 45.5467C402.966 46.6808 402.723 47.7634 402.533 48.8288C402.342 49.8941 402.256 50.8564 402.256 51.7156C402.256 52.5576 402.342 53.2106 402.533 53.7089C402.723 54.2073 403.105 54.4478 403.694 54.4478C404.37 54.4478 405.115 54.2244 405.946 53.7433C406.778 53.2793 407.61 52.7123 408.442 52.0593C409.291 51.4063 410.105 50.719 410.92 50.0144C411.717 49.3099 412.444 48.7085 413.051 48.193V53.9151H413.016ZM400.436 25.2527C400.436 24.8231 400.523 24.3419 400.713 23.8092C400.904 23.2765 401.216 22.761 401.632 22.2971C402.048 21.8159 402.619 21.4207 403.313 21.0942C404.023 20.7677 404.889 20.6131 405.946 20.6131C406.605 20.6131 407.229 20.6818 407.801 20.8365C408.39 20.9911 408.892 21.2145 409.325 21.5238C409.759 21.8331 410.105 22.2283 410.348 22.7267C410.608 23.225 410.729 23.8264 410.729 24.5138C410.729 25.1496 410.625 25.7682 410.417 26.3524C410.209 26.9539 409.88 27.4694 409.429 27.9333C408.979 28.3973 408.407 28.7753 407.731 29.0675C407.055 29.3596 406.224 29.4971 405.271 29.4971C403.624 29.4971 402.412 29.119 401.614 28.3457C400.835 27.5553 400.436 26.5243 400.436 25.2527Z" fill="white"/>
<path d="M440.412 53.022C439.979 53.6234 439.407 54.3108 438.679 55.1184C437.951 55.926 437.154 56.6821 436.253 57.4038C435.352 58.1256 434.382 58.7442 433.359 59.2425C432.337 59.7408 431.297 59.9986 430.258 59.9986C429.027 59.9986 427.988 59.6034 427.173 58.8129C426.342 58.0225 425.631 56.8712 425.042 55.3762C424.591 55.8917 424.037 56.4244 423.379 56.9571C422.72 57.4898 422.01 57.9881 421.23 58.4177C420.45 58.8473 419.636 59.2081 418.804 59.4831C417.955 59.758 417.123 59.8955 416.274 59.8955C415.373 59.8955 414.489 59.7065 413.64 59.3456C412.791 58.9848 412.029 58.4692 411.37 57.7819C410.712 57.0945 410.192 56.2697 409.793 55.3074C409.395 54.328 409.204 53.2282 409.204 52.0082C409.204 50.6163 409.395 49.19 409.793 47.7122C410.192 46.2516 410.729 44.8082 411.422 43.3991C412.115 41.99 412.93 40.6669 413.883 39.4297C414.836 38.1752 415.858 37.0927 416.985 36.1648C418.111 35.2368 419.289 34.4979 420.537 33.948C421.784 33.3982 423.049 33.1232 424.349 33.1232C424.782 33.1232 425.111 33.2091 425.354 33.381C425.597 33.5528 425.804 33.7418 425.96 33.948C426.116 34.1714 426.272 34.3776 426.428 34.5838C426.584 34.7901 426.758 34.9447 426.983 35.0306C427.208 35.1165 427.433 35.1853 427.676 35.2196C427.901 35.254 428.144 35.254 428.386 35.254C428.594 35.254 428.802 35.254 429.027 35.2368C429.235 35.2196 429.461 35.2196 429.669 35.2196C429.946 35.2196 430.206 35.254 430.448 35.3056C430.691 35.3571 430.916 35.4774 431.107 35.6664C431.297 35.8554 431.436 36.1132 431.54 36.4397C431.644 36.7662 431.696 37.2301 431.696 37.7972C431.696 38.6908 431.609 39.6874 431.419 40.77C431.228 41.8526 431.02 42.9695 430.795 44.1208C430.57 45.2549 430.362 46.4063 430.171 47.5576C429.981 48.7089 429.894 49.7915 429.894 50.8053C429.894 51.6817 429.981 52.369 430.136 52.8502C430.292 53.3485 430.639 53.5891 431.159 53.5891C431.557 53.5891 431.956 53.486 432.389 53.2969C432.822 53.1079 433.256 52.8502 433.689 52.5237C434.122 52.2144 434.572 51.8535 435.006 51.4583C435.439 51.063 435.855 50.6506 436.253 50.221C437.172 49.2244 438.09 48.0903 439.043 46.8187L440.412 53.022ZM416.413 50.8053C416.413 51.2693 416.447 51.716 416.517 52.1628C416.586 52.5924 416.707 52.9876 416.863 53.3313C417.037 53.675 417.262 53.9499 417.539 54.1733C417.816 54.3795 418.18 54.4998 418.613 54.4998C419.306 54.4998 419.93 54.2077 420.502 53.6062C421.057 53.0048 421.559 52.3003 421.975 51.4583C422.391 50.6163 422.72 49.7571 422.963 48.8635C423.223 47.97 423.379 47.2311 423.465 46.6296L425.181 38.433C424.401 38.433 423.656 38.622 422.928 39.0001C422.2 39.3781 421.507 39.8936 420.866 40.5466C420.225 41.1996 419.636 41.9385 419.081 42.7805C418.544 43.6225 418.076 44.4989 417.678 45.4096C417.279 46.3203 416.985 47.2483 416.759 48.1762C416.517 49.1213 416.413 49.9977 416.413 50.8053Z" fill="white"/>
<path d="M443.375 59.8437C442.37 59.8437 441.417 59.3969 440.551 58.5206C439.684 57.6442 438.922 56.4585 438.281 54.9635C437.622 53.4857 437.137 51.7502 436.756 49.7912C436.392 47.8323 436.201 45.7702 436.201 43.6223C436.201 41.9726 436.323 40.1683 436.565 38.2266C436.808 36.2848 437.172 34.2743 437.64 32.2123C438.107 30.1502 438.662 28.071 439.303 25.9917C439.944 23.9125 440.672 21.9192 441.504 19.9946C442.318 18.0872 443.202 16.2829 444.155 14.6333C445.108 12.9665 446.113 11.523 447.17 10.2858C448.227 9.04858 449.319 8.08629 450.462 7.38176C451.606 6.67723 452.767 6.31637 453.945 6.31637C454.742 6.31637 455.418 6.50539 455.938 6.86625C456.458 7.22711 456.874 7.70825 457.168 8.30968C457.463 8.91111 457.671 9.58128 457.809 10.3374C457.931 11.0934 458 11.8495 458 12.64C458 14.3927 457.792 16.1626 457.394 17.9841C456.995 19.7884 456.44 21.6271 455.765 23.4486C455.089 25.2872 454.292 27.1087 453.391 28.9645C452.49 30.8032 451.554 32.6247 450.584 34.4461C449.613 36.2504 448.626 38.0375 447.638 39.8075C446.65 41.5602 445.732 43.2786 444.865 44.9454C444.779 45.1344 444.675 45.375 444.571 45.6671C444.467 45.9592 444.363 46.2857 444.276 46.6294C444.19 46.9731 444.086 47.3339 443.999 47.7292C443.912 48.1244 443.826 48.5024 443.774 48.8805V49.2757C443.774 49.7569 443.826 50.2208 443.93 50.6848C444.034 51.1487 444.155 51.544 444.311 51.9048C444.467 52.2657 444.623 52.5578 444.796 52.764C444.969 52.9702 445.125 53.0905 445.281 53.0905C445.645 53.0905 446.044 53.0218 446.512 52.8671C446.979 52.7125 447.465 52.5234 447.967 52.2657C448.487 52.0079 449.007 51.733 449.561 51.4065C450.098 51.08 450.636 50.7535 451.138 50.4098C452.316 49.6366 453.547 48.7258 454.846 47.712L457.151 53.5716C455.487 54.7573 453.841 55.8227 452.212 56.7506C451.502 57.1459 450.757 57.5239 450.012 57.9019C449.249 58.28 448.487 58.6237 447.724 58.9158C446.945 59.2079 446.2 59.4485 445.472 59.6203C444.692 59.7578 444.016 59.8437 443.375 59.8437ZM443.392 37.5392C444.242 36.0442 445.125 34.3774 446.078 32.5216C447.031 30.6657 447.915 28.7411 448.764 26.7822C449.613 24.8061 450.341 22.8471 450.965 20.8882C451.589 18.9292 451.97 17.1078 452.143 15.4066C452.143 14.8739 452.126 14.4099 452.091 14.0319C452.056 13.6538 451.97 13.4648 451.831 13.4648C451.294 13.4648 450.705 13.8085 450.064 14.513C449.44 15.2175 448.816 16.1626 448.175 17.3483C447.551 18.534 446.945 19.9259 446.373 21.5068C445.801 23.0877 445.299 24.7717 444.848 26.5588C444.397 28.3459 444.051 30.1846 443.774 32.0576C443.531 33.9306 443.392 35.7521 443.392 37.5392Z" fill="white"/>
</svg>
