<svg width="72" height="72" viewBox="0 0 72 72" fill="none" xmlns="http://www.w3.org/2000/svg">
<path d="M18.2773 37.2695L18.2773 36.5195H18.2773V37.2695ZM27.6553 45.7725L26.9088 45.8449L27.0536 47.3383L28.1612 46.3261L27.6553 45.7725ZM31.6689 44.2148L31.669 43.4648H31.6689V44.2148ZM37.5449 49.2217L36.8043 49.3399L36.9232 50.085L37.6676 49.9616L37.5449 49.2217ZM38.1172 49.1748L38.1172 48.4248H38.1172V49.1748ZM41.5889 52.6465L42.3389 52.6465V52.6465H41.5889ZM38.1172 56.1182L38.1171 55.3682L37.8065 55.3682L37.5869 55.5878L38.1172 56.1182ZM38.1162 56.1191V56.8691H38.4269L38.6465 56.6495L38.1162 56.1191ZM6.86914 56.1191H6.11914V56.8691H6.86914V56.1191ZM6.86914 56.1123H7.61914V55.3336L6.84097 55.3628L6.86914 56.1123ZM6.67969 56.1182V56.8682H6.6797L6.67969 56.1182ZM1.71973 51.1582L0.969727 51.1582V51.1582H1.71973ZM6.67969 46.1982L6.6797 45.4482H6.67969V46.1982ZM8.8457 46.6953L8.51773 47.3698L8.67303 47.4453H8.8457V46.6953ZM8.85352 46.6953V47.4453H9.60352V46.6953H8.85352ZM18.2773 37.2695L18.2773 38.0195C22.7811 38.0196 26.4828 41.453 26.9088 45.8449L27.6553 45.7725L28.4018 45.7001C27.902 40.5472 23.5612 36.5196 18.2773 36.5195L18.2773 37.2695ZM27.6553 45.7725L28.1612 46.3261C29.0869 45.4802 30.317 44.9648 31.6689 44.9648V44.2148V43.4648C29.9276 43.4648 28.3403 44.1305 27.1493 45.2188L27.6553 45.7725ZM31.6689 44.2148L31.6689 44.9648C34.2596 44.9649 36.4085 46.8601 36.8043 49.3399L37.5449 49.2217L38.2855 49.1035C37.7755 45.9077 35.0088 43.465 31.669 43.4648L31.6689 44.2148ZM37.5449 49.2217L37.6676 49.9616C37.8132 49.9374 37.9635 49.9248 38.1172 49.9248V49.1748V48.4248C37.8812 48.4248 37.6488 48.4442 37.4223 48.4818L37.5449 49.2217ZM38.1172 49.1748L38.1171 49.9248C39.6204 49.9249 40.8389 51.1434 40.8389 52.6465H41.5889H42.3389C42.3389 50.3148 40.4487 48.425 38.1172 48.4248L38.1172 49.1748ZM41.5889 52.6465L40.8389 52.6465C40.8389 54.1496 39.6203 55.368 38.1171 55.3682L38.1172 56.1182L38.1172 56.8682C40.4487 56.868 42.3388 54.9781 42.3389 52.6465L41.5889 52.6465ZM38.1172 56.1182L37.5869 55.5878L37.5859 55.5888L38.1162 56.1191L38.6465 56.6495L38.6475 56.6485L38.1172 56.1182ZM38.1162 56.1191V55.3691H6.86914V56.1191V56.8691H38.1162V56.1191ZM6.86914 56.1191H7.61914V56.1123H6.86914H6.11914V56.1191H6.86914ZM6.86914 56.1123L6.84097 55.3628C6.76041 55.3659 6.72437 55.3682 6.67968 55.3682L6.67969 56.1182L6.6797 56.8682C6.76194 56.8682 6.8521 56.8635 6.89731 56.8618L6.86914 56.1123ZM6.67969 56.1182V55.3682C4.35466 55.3682 2.46973 53.4832 2.46973 51.1582H1.71973H0.969727C0.969727 54.3117 3.52623 56.8682 6.67969 56.8682V56.1182ZM1.71973 51.1582L2.46973 51.1582C2.46977 48.8332 4.3547 46.9482 6.67969 46.9482V46.1982V45.4482C3.52625 45.4482 0.969779 48.0048 0.969727 51.1582L1.71973 51.1582ZM6.67969 46.1982L6.67968 46.9482C7.34003 46.9483 7.96303 47.1001 8.51773 47.3698L8.8457 46.6953L9.17367 46.0208C8.41944 45.6541 7.57263 45.4483 6.6797 45.4482L6.67969 46.1982ZM8.8457 46.6953V47.4453H8.85352V46.6953V45.9453H8.8457V46.6953ZM8.85352 46.6953H9.60352V46.6934H8.85352H8.10352V46.6953H8.85352ZM8.85352 46.6934H9.60352C9.60352 41.903 13.487 38.0195 18.2773 38.0195V37.2695V36.5195C12.6586 36.5195 8.10352 41.0746 8.10352 46.6934H8.85352Z" fill="#982C13"/>
<path d="M10.6022 63.0944C10.6022 64.0681 9.81291 64.8575 8.83921 64.8575C7.86551 64.8575 7.07617 64.0681 7.07617 63.0944C7.07617 62.1207 8.83921 59.5684 8.83921 59.5684C8.83921 59.5684 10.6022 62.1207 10.6022 63.0944Z" fill="#982C13"/>
<path d="M23.4558 62.0231C23.4558 62.9968 22.6664 63.7862 21.6927 63.7862C20.719 63.7862 19.9297 62.9968 19.9297 62.0231C19.9297 61.0494 21.6927 58.4971 21.6927 58.4971C21.6927 58.4971 23.4558 61.0494 23.4558 62.0231Z" fill="#982C13"/>
<path d="M35.239 65.237C35.239 66.2107 34.4496 67 33.4759 67C32.5022 67 31.7129 66.2107 31.7129 65.237C31.7129 64.2633 33.4759 61.7109 33.4759 61.7109C33.4759 61.7109 35.239 64.2633 35.239 65.237Z" fill="#982C13"/>
<path d="M53.714 39.542C54.6389 38.0594 60.2654 34.3529 61.807 33.6116C63.3486 32.8704 64.5046 30.6465 64.5046 30.6465C64.89 30.77 65.2754 31.9808 63.7339 35.8355C62.1923 39.6902 62.5777 41.6423 62.9631 42.1365C62.6548 40.9504 63.6054 39.9126 64.1193 39.542C65.3525 41.6176 66.6885 45.1016 67.2023 46.5842L67.9731 44.3603L70.2854 51.0319C71.0561 56.5916 64.89 60.298 61.4216 60.6687C57.9531 61.0393 52.5578 59.9274 48.3186 55.8503C44.9272 52.5886 47.6763 46.3371 49.4748 43.619L51.4017 47.3255C51.7871 45.3487 52.7891 41.0245 53.714 39.542Z" fill="#982C13"/>
<path d="M60.052 58.5406C66.129 57.9792 66.4425 53.3946 65.8396 51.1725C65.4779 49.0673 64.3927 49.7691 64.3927 48.0147C64.3927 46.6113 63.6693 45.3248 63.3075 44.857C62.5465 46.3333 62.2268 47.7794 60.4137 48.3656V39.2432C59.0874 40.0618 56.1453 42.2606 54.9878 44.5061C53.8303 46.7516 53.0586 50.8216 52.8174 52.576L51.0088 51.8742C51.4911 54.3303 53.975 59.102 60.052 58.5406Z" fill="#E44F2D"/>
<rect x="31.5834" y="28.8863" width="22.1062" height="11.0531" rx="5.52656" transform="rotate(-90 31.5834 28.8863)" stroke="#982C13" stroke-width="3.68437"/>
<rect x="24.2148" y="15.9907" width="25.7906" height="20.2641" rx="3.68437" fill="#BA86FD"/>
<path d="M37.1094 23.3594C38.1267 23.3594 38.9512 24.1845 38.9512 25.2021C38.9511 25.8838 38.5803 26.4772 38.0303 26.7959V28.8877H36.1885V26.7959C35.6385 26.4772 35.2676 25.8837 35.2676 25.2021C35.2676 24.1845 36.0922 23.3595 37.1094 23.3594Z" fill="#982C13"/>
</svg>
