<svg width="72" height="72" viewBox="0 0 72 72" fill="none" xmlns="http://www.w3.org/2000/svg">
<g clip-path="url(#clip0_383_12457)">
<path d="M48.6423 57.4909H-19.7456L-20.4971 51.4788L-13.7334 46.9697H14.8241L36.6181 47.7212L48.6423 57.4909Z" fill="#982C13"/>
<circle cx="3.55118" cy="55.9877" r="6.01212" fill="#982C13"/>
<circle cx="47.1391" cy="55.9877" r="6.01212" fill="#982C13"/>
<mask id="mask0_383_12457" style="mask-type:alpha" maskUnits="userSpaceOnUse" x="-22" y="31" width="84" height="27">
<path d="M-1.70909 31.1879C20.8363 31.1879 23.8424 30.4364 29.8545 31.9394C35.8667 33.4424 41.1273 40.2061 52.4 41.7091C61.4181 42.9115 61.6687 52.7313 60.6667 57.4909H37.97C38.0686 57.0052 38.1212 56.5027 38.1212 55.9879C38.1212 51.8374 34.7566 48.4727 30.6061 48.4727C26.4556 48.4727 23.0909 51.8374 23.0909 55.9879C23.0909 56.5027 23.1435 57.0052 23.2421 57.4909H-4.11482C-4.01622 57.0052 -3.96364 56.5027 -3.96364 55.9879C-3.96364 51.8374 -7.32828 48.4727 -11.4788 48.4727C-15.6293 48.4727 -18.9939 51.8374 -18.9939 55.9879C-18.9939 56.5027 -18.9414 57.0052 -18.8428 57.4909H-22V46.4545C-22 44.86 -21.3661 43.3298 -20.2386 42.2023L-16.7394 38.703C-12.5309 33.2922 -6.21816 31.1879 -1.70909 31.1879Z" fill="#E44F2D"/>
</mask>
<g mask="url(#mask0_383_12457)">
<path fill-rule="evenodd" clip-rule="evenodd" d="M-1.70898 31.1877C20.8363 31.1876 23.8424 30.4366 29.8545 31.9396C35.8666 33.4426 41.1277 40.2061 52.4004 41.7091C61.4182 42.9118 61.669 52.7318 60.667 57.4914H37.9707C38.0693 57.0058 38.1211 56.5031 38.1211 55.9884C38.1211 51.838 34.7559 48.4728 30.6055 48.4728C26.4552 48.4731 23.0909 51.8381 23.0908 55.9884C23.0908 56.5032 23.1436 57.0057 23.2422 57.4914H-4.11426C-4.01566 57.0058 -3.9639 56.5031 -3.96387 55.9884C-3.96391 51.8381 -7.32825 48.4731 -11.4785 48.4728C-15.6289 48.4729 -18.9941 51.838 -18.9941 55.9884C-18.9941 56.5032 -18.9414 57.0057 -18.8428 57.4914H-22V46.4543C-22 44.8598 -21.3666 43.3307 -20.2393 42.2033L-16.7393 38.7033C-12.5308 33.2924 -6.21805 31.1877 -1.70898 31.1877Z" fill="#E44F2D"/>
<path d="M30.6056 32.6909H14.0723L26.848 40.9576H48.642L47.8904 40.766C40.7625 38.7063 36.365 34.6161 32.0007 32.6909H30.6056Z" fill="#982C13"/>
<path d="M9.56411 33.4424H-4.71468C-7.41166 33.4424 -10.1086 35.414 -12.0016 37.4275C-13.4392 38.9567 -12.2455 40.9575 -10.1466 40.9575H18.1272C19.6143 40.9575 20.1858 39.0332 18.9363 38.2269C11.5217 33.4424 10.5985 33.4424 9.56411 33.4424Z" fill="#982C13"/>
<path d="M41.127 44.7153H59.9148L60.6663 46.9699H41.8785L41.127 44.7153Z" fill="white"/>
<path d="M-23.5029 57.4907L62.1698 57.4907" stroke="#982C13" stroke-width="4.50909" stroke-linecap="round"/>
</g>
<circle cx="30.6059" cy="55.9877" r="6.01212" fill="#E44F2D"/>
<circle cx="30.6057" cy="55.988" r="3.00606" fill="white"/>
<path d="M19.333 45.4669V43.9639H12.5693V45.4669H19.333Z" fill="#982C13"/>
<path d="M61.7769 14.5596C61.4991 21.6245 57.6201 31.3015 52.2379 33.256C45.9082 31.908 41.9656 22.7778 41.4705 14.9611C46.2054 14.5507 50.0471 11.0334 51.5348 9.0176C53.8769 11.744 56.6109 14.0655 61.7769 14.5596Z" fill="#BA86FD"/>
</g>
<defs>
<clipPath id="clip0_383_12457">
<rect width="72" height="72" fill="white"/>
</clipPath>
</defs>
</svg>
