<svg width="72" height="72" viewBox="0 0 72 72" fill="none" xmlns="http://www.w3.org/2000/svg">
<path d="M8.12554 34.2889L9.85694 58.9615C9.93545 60.0802 10.9182 60.9157 12.0349 60.8131L56.9459 56.6886C58.0699 56.5854 58.8859 55.573 58.748 54.4527L55.2585 26.1004C55.1182 24.9601 54.0481 24.1721 52.9176 24.3766L9.7647 32.1809C8.76052 32.3625 8.0541 33.271 8.12554 34.2889Z" fill="#BA86FD"/>
<path d="M12.1255 29.2889L13.8569 53.9615C13.9354 55.0802 14.9182 55.9157 16.0349 55.8131L60.9459 51.6886C62.0699 51.5854 62.8859 50.573 62.748 49.4527L59.2585 21.1004C59.1182 19.9601 58.0481 19.1721 56.9176 19.3766L13.7647 27.1809C12.7605 27.3625 12.0541 28.271 12.1255 29.2889Z" fill="white" stroke="#982C13" stroke-width="1.5"/>
<circle cx="36.6603" cy="27.6601" r="15.9382" transform="rotate(-6.58325 36.6603 27.6601)" fill="#E44F2D"/>
<path d="M29.0918 21.6577L43.5985 33.1625" stroke="white" stroke-width="4"/>
<path d="M42.0977 20.1567L30.5929 34.6634" stroke="white" stroke-width="4"/>
</svg>
