<svg width="72" height="72" viewBox="0 0 72 72" fill="none" xmlns="http://www.w3.org/2000/svg">
<g clip-path="url(#clip0_383_12588)">
<path d="M46 32L51.5 22.5L46 22L51.5 19L47 12.5L52.5 14.5V8L56.5 13L68.5 5L62.5 16.5L69 18L62.5 20L68.5 25.5L59 23L57.5 27.5L55.5 24.5L46 32Z" fill="#BA86FD"/>
<path d="M52 25L54.6304 20.4259L52 20.1852L54.6304 18.7407L52.4783 15.6111L55.1087 16.5741V13.4444L57.0217 15.8519L62.7609 12L59.8913 17.537L63 18.2593L59.8913 19.2222L62.7609 21.8704L58.2174 20.6667L57.5 22.8333L56.5435 21.3889L52 25Z" fill="#BA86FD"/>
<path d="M18.9999 38.9998C21.9999 25.4998 39.9999 28.4998 40.9999 28.4998V31.5L43.9999 36.5L47.9999 34.5L51.4999 37.5H55.9999C57.1999 39.9 57.1665 50.5 56.9999 55.5V73L17.9999 72V58.5C17.3332 56.4999 16.5999 49.7998 18.9999 38.9998Z" fill="#E44F2D"/>
<mask id="mask0_383_12588" style="mask-type:alpha" maskUnits="userSpaceOnUse" x="17" y="28" width="41" height="45">
<path d="M18.5 58.4189L18.4746 58.3418C17.8486 56.4637 17.0977 49.8662 19.4883 39.1084C20.9262 32.6376 25.9377 30.0983 30.8418 29.1787C35.0773 28.3846 39.0581 28.8199 40.5 28.9609V31.6387L40.5713 31.7568L43.5713 36.7568L43.8096 37.1543L44.2236 36.9473L47.9258 35.0957L51.1748 37.8799L51.3145 38H55.667C55.8724 38.565 56.0512 39.4843 56.1895 40.6797C56.3502 42.0699 56.4525 43.7611 56.5127 45.542C56.633 49.1028 56.5831 52.9912 56.5 55.4834V72.4863L18.5 71.5117V58.4189Z" fill="#E44F2D" stroke="#982C13"/>
</mask>
<g mask="url(#mask0_383_12588)">
<path d="M44.5 32C36.5 29.6 28.5 31.3333 25.5 32.5L22 31.5L27.5 25H44.5C47.8333 28.3333 52.5 34.4 44.5 32Z" fill="#982C13"/>
<path d="M22 40C20.8333 44.1667 19.6 52.9 24 54.5" stroke="#982C13" stroke-linecap="round"/>
<path d="M51.5002 36C52.6669 40.1667 52.5001 57 48.0002 54.5" stroke="#982C13" stroke-linecap="round"/>
<path d="M16.5 38L22.5 40C25.5087 37.3674 26.5 32.4176 26.5 28.5L22 29L16.5 38Z" fill="white"/>
<path d="M18.25 58.459L18.2373 58.4209C17.591 56.4818 16.8488 49.8326 19.2441 39.0537C20.7132 32.4436 25.8439 29.8611 30.7959 28.9326C35.3177 28.0848 39.5928 28.6252 40.75 28.7305V31.5693L40.7852 31.6289L43.7852 36.6289L43.9043 36.8271L44.1113 36.7236L47.9629 34.7969L51.3369 37.6895L51.4072 37.75H55.8369C56.0852 38.335 56.2867 39.3466 56.4375 40.6504C56.5994 42.0502 56.7024 43.749 56.7627 45.5332C56.8682 48.655 56.8429 52.0268 56.7793 54.4932L56.75 55.4912V72.7432L18.25 71.7559V58.459Z" stroke="#982C13" stroke-width="0.5"/>
</g>
<path d="M50.5 72L53.5 65L55 72H50.5Z" fill="#982C13"/>
<path d="M20.5 72V62L23.5 72H20.5Z" fill="#982C13"/>
<path d="M38 49.5C28.8 49.5 22.8333 53.5 21 55.5L26 69C34.4 64.6 45.1667 67.1667 49.5 69L54 55.5C49.2 50.7 41.3333 49.5 38 49.5Z" fill="#982C13"/>
<path d="M20.5534 62L19.0534 58C15.8329 58 13.6238 62.8515 14.0534 63C15.4996 63.5 18.9996 62.5 20.5534 62Z" fill="#982C13"/>
<path d="M53.9994 62L55.4994 58C58.7198 58 60.9289 62.8515 60.4994 63C59.0531 63.5 55.5531 62.5 53.9994 62Z" fill="#982C13"/>
</g>
<defs>
<clipPath id="clip0_383_12588">
<rect width="72" height="72" fill="white"/>
</clipPath>
</defs>
</svg>
