<svg width="72" height="72" viewBox="0 0 72 72" fill="none" xmlns="http://www.w3.org/2000/svg">
<g clip-path="url(#clip0_395_12882)">
<path d="M16.5626 59.5388L51.8934 61.1515C52.9905 61.2015 53.9227 60.3576 53.9817 59.261L56.5308 11.8898C56.59 10.7899 55.7488 9.84927 54.6492 9.78566L20.863 7.83114C19.7819 7.7686 18.8474 8.57788 18.7548 9.65683L14.6611 57.3699C14.564 58.5017 15.4278 59.487 16.5626 59.5388Z" fill="#BA86FD"/>
<path d="M23.8031 62.7293L56.8499 57.1701C57.9329 56.9879 58.6664 55.9666 58.4931 54.8821L51.3868 10.4274C51.2129 9.33974 50.1924 8.59739 49.1041 8.76687L17.4219 13.7007C16.3518 13.8673 15.6088 14.8553 15.7456 15.9296L21.4873 61.0097C21.6308 62.1365 22.6829 62.9177 23.8031 62.7293Z" fill="white" stroke="#982C13" stroke-width="1.5"/>
<path d="M26.3809 26.7221L26.3537 26.7264C23.9157 27.1042 22.2418 25.9732 22.018 24.5285L20.8061 16.7004C20.6916 15.9599 20.7431 15.2842 21.0513 14.7553C21.3658 14.2156 21.9207 13.8742 22.7075 13.7524C23.644 13.6076 24.355 13.8483 24.8559 14.3485C25.3451 14.8371 25.6057 15.5445 25.7202 16.2835L26.3264 20.1985C26.3892 20.6073 26.1078 20.9903 25.6993 21.054C25.2901 21.1172 24.9077 20.8364 24.844 20.4279L24.2378 16.5129C24.182 16.1525 24.0857 15.7822 23.8995 15.5258C23.8096 15.402 23.7012 15.3099 23.57 15.2542C23.4388 15.1986 23.2668 15.1725 23.0369 15.208C22.5499 15.2833 22.3773 15.4531 22.3043 15.6206C22.2174 15.8203 22.2307 16.0974 22.2885 16.4711L23.5004 24.2992C23.5497 24.6161 24.1545 25.542 26.1092 25.244C27.2309 25.0196 27.9788 23.9533 27.8037 22.8216L26.2503 12.787C26.005 11.2023 24.5216 10.1158 22.9371 10.3606C21.5748 10.5715 20.5807 11.6985 20.4846 13.0176L20.4669 13.2498L20.2343 13.2494L19.2323 13.249L18.9686 13.2499L18.9827 12.9853C19.0944 10.9514 20.6142 9.20233 22.7077 8.87826C25.111 8.5068 27.3606 10.1544 27.7326 12.5576L29.286 22.5922C29.5852 24.5255 28.3016 26.3503 26.3809 26.7221Z" fill="#E44F2D"/>
<path d="M25.7571 11.6432L17.306 12.9592L17.4216 13.7003L25.8784 12.3834L25.7571 11.6432Z" fill="#982C13"/>
<path d="M39.6259 31.363L45.8834 30.3988C46.4292 30.3147 46.9399 30.689 47.024 31.2348L47.6843 35.5201C47.7684 36.066 47.3941 36.5767 46.8483 36.6608L40.5909 37.625L41.5552 43.8832C41.6394 44.429 41.265 44.9397 40.7192 45.0238L36.4331 45.6843C35.8873 45.7684 35.3766 45.3941 35.2925 44.8483L34.3281 38.5901L28.0699 39.5544C27.5241 39.6386 27.0134 39.2643 26.9293 38.7184L26.269 34.4331C26.1849 33.8873 26.5592 33.3766 27.105 33.2925L33.3632 32.3281L32.3988 26.0699C32.3147 25.5241 32.689 25.0134 33.2349 24.9293L37.5209 24.2688C38.0668 24.1847 38.5775 24.559 38.6616 25.1048L39.6259 31.363Z" fill="#E44F2D"/>
</g>
<defs>
<clipPath id="clip0_395_12882">
<rect width="72" height="72" fill="white"/>
</clipPath>
</defs>
</svg>
