<svg width="72" height="72" viewBox="0 0 72 72" fill="none" xmlns="http://www.w3.org/2000/svg">
<ellipse cx="35.5" cy="62.3998" rx="27.5" ry="6.6" fill="#BA86FD"/>
<path d="M13 58.3829L37.6176 66L56.4885 58.3829L57 35.8235L32.3315 28L13 35.8235V58.3829Z" fill="white"/>
<path d="M43.7496 40.95L20.0996 33.25L26.6996 30.5L50.3496 38.2V45.35L43.7496 48.1V40.95Z" fill="#BA86FD"/>
<path d="M13.5 58.5L38 66.5L57.225 58.5V35.5469L32.7107 28.2998L13.5 35.5469V58.5Z" stroke="#982C13" stroke-width="1.5" stroke-linecap="round"/>
<path d="M37.5 44L38 66.5M37.5 44L57 36M37.5 44L14 36.8492" stroke="#982C13" stroke-width="1.5" stroke-linecap="round"/>
<ellipse cx="35.5008" cy="4.65" rx="7.7" ry="1.65" fill="#982C13"/>
<mask id="mask0_403_13923" style="mask-type:alpha" maskUnits="userSpaceOnUse" x="28" y="25" width="14" height="13">
<path d="M39.9004 25C40.0704 26.1901 40.6675 28.4283 41.2796 30.0604C43.1678 35.0958 40.3711 37.5111 35.6633 37.65C30.7631 37.7946 27.5132 35.3214 29.4861 30.0604C30.0981 28.4283 30.9304 26.1901 31.1004 25H39.9004Z" fill="#E44F2D"/>
</mask>
<g mask="url(#mask0_403_13923)">
<path d="M39.9004 25C40.0704 26.1901 40.6675 28.4283 41.2796 30.0604C43.1678 35.0958 40.3711 37.5111 35.6633 37.65C30.7631 37.7946 27.5132 35.3214 29.4861 30.0604C30.0981 28.4283 30.9304 26.1901 31.1004 25H39.9004Z" fill="#E44F2D"/>
<path d="M27.8008 32.7002C32.2924 35.6279 38.3008 35.6392 43.2008 32.7002" stroke="#982C13" stroke-width="1.5" stroke-linecap="round"/>
</g>
<ellipse cx="35.5" cy="25" rx="4.5" ry="1" fill="#982C13"/>
<path d="M46.2789 19.994L42.3741 5.29357C42.2577 4.85535 41.861 4.55029 41.4076 4.55029H29.4907C29.0095 4.55029 28.5965 4.89303 28.5078 5.366L25.7507 20.0709C25.6633 20.537 25.9145 21.0028 26.3598 21.1659C33.573 23.8079 41.6904 22.4299 45.6561 21.1654C46.1467 21.009 46.411 20.4916 46.2789 19.994Z" fill="white" stroke="#982C13" stroke-width="1.5"/>
<path d="M41.3301 3.7251C42.203 3.7251 42.1004 4.1 43.2004 4.65L47.0525 19.6944C47.3035 20.6398 46.8058 21.6684 45.8172 21.9793C41.7489 23.2588 33.5367 24.6415 26.1557 21.9696C25.2655 21.6474 24.788 20.7276 24.9548 19.8384L27.8004 4.65C28.3504 4.65 28.6476 3.7251 29.5739 3.7251H41.3301ZM29.5739 5.3751C29.4416 5.3751 29.3276 5.46954 29.3032 5.59961L26.5768 20.1424C26.5513 20.2785 26.6268 20.3845 26.7176 20.4174C33.6208 22.9163 41.4278 21.6307 45.323 20.4056C45.4149 20.3764 45.498 20.2669 45.4584 20.1177L41.5966 5.5792C41.5645 5.4588 41.4548 5.3751 41.3301 5.3751H29.5739Z" fill="#982C13"/>
<rect x="33.2998" y="22.7998" width="4.4" height="2.2" fill="#982C13"/>
<path d="M20.1002 53.5998L19.0002 53.3936V55.7998L16.8002 55.2498V52.9811L15.7002 52.7748L18.1 50.2998L20.1002 53.5998Z" fill="#BA86FD"/>
</svg>
