<svg width="72" height="72" viewBox="0 0 72 72" fill="none" xmlns="http://www.w3.org/2000/svg">
<g clip-path="url(#clip0_408_1716)">
<path d="M42 74.5758L42 16.528C42 16.0084 42.3979 15.5754 42.9157 15.5315L59.9157 14.0918C60.4991 14.0424 61 14.5027 61 15.0883V75.9179C61 76.5013 60.5028 76.9607 59.9213 76.9148L42.9213 75.5727C42.4012 75.5317 42 75.0976 42 74.5758Z" stroke="#982C13" stroke-width="1.5" stroke-linecap="round"/>
<path d="M42 93V16.528C42 16.0084 42.3979 15.5754 42.9156 15.5315L60.6719 14.0278C60.885 14.0097 61.0983 14.0605 61.2804 14.1726L67.0278 17.7094C67.3215 17.8902 67.5014 18.2096 67.5036 18.5545L67.9934 92.9934C67.997 93.5483 67.5483 94 66.9934 94H43C42.4477 94 42 93.5523 42 93Z" stroke="#982C13" stroke-width="1.5" stroke-linecap="round"/>
<path d="M66.5417 18.5713L62.5417 15.9935C61.8762 15.5647 61 16.0424 61 16.8341V72C61 72.5523 61.4477 73 62 73H66C66.5523 73 67 72.5523 67 72V19.4119C67 19.072 66.8274 18.7554 66.5417 18.5713Z" fill="#982C13" stroke="#982C13" stroke-width="1.5" stroke-linecap="round"/>
<path d="M31 74V23.4242C31 22.9024 31.4012 22.4683 31.9213 22.4273L50 21L56 25V74H31Z" stroke="#E44F2D" stroke-width="1.5" stroke-linecap="round"/>
<path d="M31 73.0997V23.4241C31 22.9024 31.4012 22.4683 31.9213 22.4272L48.9213 21.0852C49.5028 21.0393 50 21.4987 50 22.0821V74.8892C50 75.4829 49.4858 75.9458 48.8953 75.8837L31.8953 74.0942C31.3864 74.0406 31 73.6115 31 73.0997Z" fill="white" stroke="#E44F2D" stroke-width="1.5" stroke-linecap="round"/>
<path d="M35 34V29L45.5 28V33L35 34Z" fill="#E44F2D"/>
<path d="M35 42V37L45.5 36V41L35 42Z" fill="#E44F2D"/>
<path d="M35 50V45L45.5 44V49L35 50Z" fill="#E44F2D"/>
<path d="M35 58V53L45.5 52V57L35 58Z" fill="#E44F2D"/>
<path d="M35 66V61L45.5 60V65L35 66Z" fill="#E44F2D"/>
<path d="M35 74V69L45.5 68V73L35 74Z" fill="#E44F2D"/>
<path d="M55.5039 24.7106L51.5039 22.3773C50.8372 21.9884 50 22.4692 50 23.241V73C50 73.5523 50.4477 74 51 74H55C55.5523 74 56 73.5523 56 73V25.5744C56 25.2187 55.8111 24.8898 55.5039 24.7106Z" fill="#E44F2D" stroke="#E44F2D" stroke-width="1.5" stroke-linecap="round"/>
<path d="M24.8982 14.0431C25.4317 14.1861 25.7482 14.7344 25.6053 15.2679L25.3465 16.2338C25.2035 16.7673 24.6552 17.0839 24.1217 16.9409L20.492 15.9683L19.9743 17.9002L21.2317 18.2371C21.765 18.3801 22.0816 18.9285 21.9388 19.4618L21.68 20.4278C21.5371 20.9612 20.9887 21.2777 20.4553 21.1349L19.1979 20.798L15.7448 33.6851C17.7825 35.0839 18.8201 37.6624 18.144 40.1858C17.2864 43.3866 13.9963 45.2861 10.7955 44.4285C7.59475 43.5708 5.69525 40.2808 6.5529 37.08C7.22904 34.5566 9.41695 32.8424 11.8811 32.6499L16.8871 13.9671C17.173 12.9002 18.2696 12.267 19.3366 12.5529L24.8982 14.0431ZM13.1249 35.7351C11.5245 35.3063 9.8795 36.2561 9.45068 37.8565C9.02185 39.4569 9.9716 41.1019 11.572 41.5307C13.1724 41.9595 14.8174 41.0098 15.2462 39.4094C15.6751 37.809 14.7253 36.164 13.1249 35.7351Z" fill="#BA86FD"/>
</g>
<defs>
<clipPath id="clip0_408_1716">
<rect width="72" height="72" fill="white"/>
</clipPath>
</defs>
</svg>
