<svg width="72" height="72" viewBox="0 0 72 72" fill="none" xmlns="http://www.w3.org/2000/svg">
<g clip-path="url(#clip0_325_18164)">
<path d="M1.28436 50.6707L10.3122 18.6484L16.5 20.0002L21.5 54.5002L16.5 53.5L5.94091 55.6739C3.00413 56.2786 0.470769 53.5566 1.28436 50.6707Z" fill="#BA86FD"/>
<path d="M56.7615 17.6523L12.1378 17.6523C11.5264 17.6523 11.0581 18.1961 11.1488 18.8007L16.825 56.642C16.8984 57.1315 17.3189 57.4936 17.8139 57.4936H66.4617C67.1147 57.4936 67.5925 56.8779 67.4304 56.2453L57.7302 18.404C57.6168 17.9617 57.2182 17.6523 56.7615 17.6523Z" fill="white" stroke="#982C13" stroke-width="1.5" stroke-linecap="round"/>
<path d="M54.8014 25.9526H18.2803L22.4741 51.1854L59.4496 50.5214L54.8014 25.9526Z" fill="#E44F2D"/>
<path d="M39 34H30L31.5 42.5H40.5L39 34Z" fill="#BA86FD"/>
<path d="M28.2412 25.9527L32.8894 51.8495M38.2015 25.9526L42.1857 51.1854M46.8338 25.9526L50.8179 51.1854" stroke="white" stroke-width="1.5" stroke-linecap="round"/>
<path d="M18.9443 33.9209L58.1216 33.2568M20.9364 43.2172L59.4496 42.5531" stroke="white" stroke-width="1.5" stroke-linecap="round"/>
<path d="M20.9363 23.267C23.5924 23.2963 25.9165 21.2457 25.9165 18.2869C25.9165 15.328 23.5924 14 21.6003 14C19.247 14 17.6162 15.9921 17.6162 17.3201" stroke="#982C13" stroke-width="2" stroke-linecap="round"/>
<path d="M34.8807 23.267C37.5367 23.2963 39.8608 21.2457 39.8608 18.2869C39.8608 15.328 37.5367 14 35.5447 14C33.1913 14 31.5605 15.9921 31.5605 17.3201" stroke="#982C13" stroke-width="2" stroke-linecap="round"/>
<path d="M48.1609 23.267C50.817 23.2963 53.1411 21.2457 53.1411 18.2869C53.1411 15.328 50.817 14 48.8249 14C46.4716 14 44.8408 15.9921 44.8408 17.3201" stroke="#982C13" stroke-width="2" stroke-linecap="round"/>
<path d="M33 37.3905L36.0527 40L42 34" stroke="#982C13" stroke-width="1.5"/>
</g>
<defs>
<clipPath id="clip0_325_18164">
<rect width="72" height="72" fill="white"/>
</clipPath>
</defs>
</svg>
