<svg width="72" height="72" viewBox="0 0 72 72" fill="none" xmlns="http://www.w3.org/2000/svg">
<rect x="4" y="39.9717" width="59.9986" height="23.656" rx="2" transform="rotate(-10.5367 4 39.9717)" fill="#BA86FD"/>
<rect x="6.2041" y="36.1948" width="59.9986" height="23.656" rx="2" transform="rotate(-10.5367 6.2041 36.1948)" fill="#E44F2D"/>
<path d="M57.5903 44.5959C55.5879 44.9684 54.0347 43.6382 53.5245 40.8953C53.0175 38.1693 53.9885 36.3696 55.89 36.0159C57.6064 35.6966 58.5017 36.7662 58.9845 38.0517L57.983 32.667L60.3893 32.2194L62.4863 43.4937L60.08 43.9413L59.6481 41.6191C59.6766 42.9892 59.3067 44.2767 57.5903 44.5959ZM55.9645 40.4415C56.2587 42.0232 57.1052 42.7363 58.1989 42.5328C59.2086 42.345 59.6481 41.6191 59.3977 40.2729L59.2318 39.3811C58.9814 38.0349 58.2903 37.5019 57.2639 37.6928C56.2037 37.89 55.6734 38.8765 55.9645 40.4415Z" fill="white"/>
<path d="M49.4772 46.0879C46.8521 46.5761 44.928 45.1234 44.4554 42.5825C43.9827 40.0416 45.2558 37.9942 47.679 37.5435C50.304 37.0552 51.9421 38.5611 52.3427 40.715C52.4085 41.0684 52.4624 41.5458 52.4464 41.7403L46.826 42.7857C47.1934 43.9186 48.0708 44.3299 49.1477 44.1296C50.3088 43.9137 50.8376 43.293 51.009 42.53L52.7453 43.7216C52.2885 44.7293 51.3282 45.7436 49.4772 46.0879ZM48.0401 39.3913C47.0136 39.5823 46.4806 40.2733 46.5694 41.4058L50.1031 40.7486C49.8156 39.6704 49.117 39.191 48.0401 39.3913Z" fill="white"/>
<path d="M41.2722 47.6136C39.438 47.9548 37.6805 47.5853 36.7891 46.7239L37.5961 44.8851C38.4238 45.4972 39.7531 45.9985 40.9983 45.7669C41.6546 45.6449 42.0041 45.3709 41.9227 44.9334C41.8413 44.4959 41.3388 44.4153 40.4231 44.3593L39.2624 44.2966C37.7096 44.185 36.5231 43.7964 36.254 42.3492C35.9535 40.7338 37.0876 39.5305 39.1069 39.1549C40.8906 38.8231 42.3303 39.3562 43.037 39.9734L42.2605 41.7891C41.2963 41.098 40.2022 40.8314 39.243 41.0098C38.6541 41.1194 38.3414 41.4039 38.4165 41.8077C38.4979 42.2452 38.8825 42.3478 40.0327 42.4472L41.0051 42.5275C42.9133 42.6774 43.8356 43.2371 44.0703 44.4991C44.3677 46.0978 43.1905 47.2568 41.2722 47.6136Z" fill="white"/>
<path d="M32.2356 49.2946C29.7283 49.761 27.7842 48.2946 27.3147 45.7705C26.8484 43.2632 28.132 41.179 30.6393 40.7127C33.2139 40.2338 35.1779 41.7139 35.6443 44.2212C36.1138 46.7453 34.8102 48.8158 32.2356 49.2946ZM31.9062 47.3364C32.9326 47.1455 33.5173 46.3578 33.2043 44.675C32.8882 42.9754 32.0625 42.4675 31.036 42.6584C30.0264 42.8462 29.4386 43.6171 29.7547 45.3166C30.0677 46.9994 30.8965 47.5242 31.9062 47.3364Z" fill="white"/>
<path d="M26.8002 50.1315L24.3939 50.579L22.2969 39.3047L24.7032 38.8571L26.8002 50.1315Z" fill="white"/>
<path d="M19.4682 51.6694C16.9273 52.1421 15 50.6725 14.5305 48.1484C14.0642 45.6411 15.331 43.5601 17.872 43.0875C19.8408 42.7213 21.4041 43.5447 22.1718 44.8643L20.3853 46.3978C19.9925 45.4089 19.3382 44.8865 18.3286 45.0743C17.2684 45.2715 16.7057 46.177 16.9873 47.6914C17.269 49.2059 18.1198 49.8485 19.1799 49.6513C20.2064 49.4604 20.6122 48.7408 20.6232 47.6767L22.8416 48.4654C22.5997 49.9728 21.437 51.3032 19.4682 51.6694Z" fill="white"/>
<path d="M56.401 29.91L34.4298 15.6879L16.0923 37.4074" stroke="#982C13" stroke-width="1.5" stroke-linecap="round"/>
<circle cx="34.4992" cy="17.1141" r="3.93406" transform="rotate(-10.5367 34.4992 17.1141)" fill="#BA86FD"/>
</svg>
