<svg width="72" height="72" viewBox="0 0 72 72" fill="none" xmlns="http://www.w3.org/2000/svg">
<path d="M55.3974 55.7538L53.2308 50.5538C53.121 50.2904 53.3146 50 53.6 50H54.7333C54.8948 50 55.0405 50.0971 55.1026 50.2462L57.2692 55.4462C57.379 55.7096 57.1854 56 56.9 56H55.7667C55.6052 56 55.4595 55.9029 55.3974 55.7538Z" fill="#982C13"/>
<path d="M15.6026 55.7538L17.7692 50.5538C17.879 50.2904 17.6854 50 17.4 50H16.2667C16.1052 50 15.9595 50.0971 15.8974 50.2462L13.7308 55.4462C13.621 55.7096 13.8146 56 14.1 56H15.2333C15.3948 56 15.5405 55.9029 15.6026 55.7538Z" fill="#982C13"/>
<path d="M60.6704 57.768L58.263 52.568C58.1403 52.303 58.3339 52 58.626 52H59.9666C60.1225 52 60.2641 52.0905 60.3296 52.232L62.737 57.432C62.8597 57.697 62.6661 58 62.374 58H61.0334C60.8775 58 60.7359 57.9095 60.6704 57.768Z" fill="#E44F2D"/>
<path d="M10.3296 57.768L12.737 52.568C12.8597 52.303 12.6661 52 12.374 52H11.0334C10.8775 52 10.7359 52.0905 10.6704 52.232L8.26299 57.432C8.14026 57.697 8.33385 58 8.62597 58H9.96662C10.1225 58 10.2641 57.9095 10.3296 57.768Z" fill="#E44F2D"/>
<mask id="mask0_406_14483" style="mask-type:alpha" maskUnits="userSpaceOnUse" x="4" y="26" width="64" height="26">
<path d="M57 26C59.2091 26 61 27.7909 61 30V35H66C67.1046 35 68 35.8954 68 37V50C68 51.1046 67.1046 52 66 52H6C4.89543 52 4 51.1046 4 50V37C4 35.8954 4.89543 35 6 35H11V30C11 27.7909 12.7909 26 15 26H57Z" fill="white"/>
</mask>
<g mask="url(#mask0_406_14483)">
<path d="M57 23C59.2091 23 61 24.7909 61 27V35H66C67.1046 35 68 35.8954 68 37V50C68 51.1046 67.1046 52 66 52H6C4.89543 52 4 51.1046 4 50V37C4 35.8954 4.89543 35 6 35H11V27C11 24.7909 12.7909 23 15 23H57Z" fill="white"/>
<path d="M62 40C62.4 38.4 64.1667 35.3333 65 34L61.5 33.5L61 42C61.1667 42 61.6 41.6 62 40Z" fill="#982C13"/>
<path d="M10 42.5C10 41.3 7.33333 36.3333 6 34L10.5 33L11.5 35C11 38 10 43.7 10 42.5Z" fill="#982C13"/>
<path d="M5.5 35C6.16667 35 7.8 36.3 9 41.5C10.0846 46.2001 9.5 46 14 46H57C61.5 46 60.9154 46.2001 62 41.5C63.2 36.3 64.5 34.5 65.5 34.5" stroke="#982C13" stroke-width="1.5" stroke-linecap="round"/>
</g>
<path d="M11 35H6C4.89543 35 4 35.8954 4 37V50C4 51.1046 4.89543 52 6 52H66C67.1046 52 68 51.1046 68 50V37C68 35.8954 67.1046 35 66 35H61" stroke="#982C13" stroke-width="1.5" stroke-linecap="round"/>
<path d="M11 27C11 24.7909 12.7909 23 15 23H57C59.2091 23 61 24.7909 61 27V41C61 43.2091 59.2091 45 57 45H15C12.7909 45 11 43.2091 11 41L11 27Z" stroke="#982C13" stroke-width="1.5"/>
<path d="M13.4667 39.4L10.8 41.4C10.2964 41.7777 10 42.3705 10 43V44C10 45.1046 10.8954 46 12 46H34C35.1046 46 36 45.1046 36 44V42V41C36 39.8954 35.1046 39 34 39H14.6667C14.2339 39 13.8129 39.1404 13.4667 39.4Z" fill="white" stroke="#982C13" stroke-width="1.5" stroke-linecap="round"/>
<path d="M36.5442 40.3675L36.1026 41.6921C36.0347 41.896 36 42.1096 36 42.3246V44C36 45.1046 36.8954 46 38 46H59C60.1046 46 61 45.1046 61 44V42.0704C61 41.4017 60.6658 40.7772 60.1094 40.4063L58.5038 39.3359C58.1753 39.1169 57.7893 39 57.3944 39H38.4415C37.5807 39 36.8164 39.5509 36.5442 40.3675Z" fill="white" stroke="#982C13" stroke-width="1.5" stroke-linecap="round"/>
<path d="M51.4524 29.5C53.4333 29.5 59.5 30.7632 59.5 32.6579C59.5 34.5526 56.4048 41.5 55.1667 41.5C53.9286 41.5 46.5 38.9737 46.5 37.7105C46.5 36.4474 50.2143 29.5 51.4524 29.5Z" fill="#BA86FD"/>
<path d="M44.8333 30.5C46.9667 30.5 53.5 31.7632 53.5 33.6579C53.5 35.5526 50.1667 42.5 48.8333 42.5C47.5 42.5 39.5 39.9737 39.5 38.7105C39.5 37.4474 43.5 30.5 44.8333 30.5Z" fill="#E44F2D"/>
<path d="M28.4777 30.512C26.6954 29.6475 20.6857 28.1364 19.8588 29.8412C19.0319 31.546 18.7848 39.1476 19.8988 39.688C21.0128 40.2283 28.7991 41.1972 29.3504 40.0607C29.9016 38.9242 29.5917 31.0524 28.4777 30.512Z" fill="#BA86FD"/>
<path d="M23.2068 32.2353C24.029 34.2038 25.3814 40.7193 23.6331 41.4495C21.8847 42.1797 14.1893 41.7814 13.6755 40.5511C13.1616 39.3208 12.4095 30.9651 13.5751 30.4783C14.7407 29.9915 22.693 31.005 23.2068 32.2353Z" fill="#E44F2D"/>
</svg>
