<svg width="72" height="72" viewBox="0 0 72 72" fill="none" xmlns="http://www.w3.org/2000/svg">
<path d="M61.502 13.8644C60.9095 22.8479 55.6447 35.0346 48.7276 37.3404C40.7161 35.4104 36.0064 23.6553 35.6406 13.6889C41.6815 13.3265 46.6905 8.97933 48.6522 6.46371C51.5414 10.0133 54.9429 13.0608 61.502 13.8644Z" fill="#BA86FD"/>
<path d="M17.5696 29.9468C17.9661 29.0014 19.0543 28.556 19.9998 28.9524L34.3868 34.9857C35.3323 35.3822 35.7776 36.4704 35.3812 37.4159C34.9847 38.3613 33.8965 38.8067 32.951 38.4103L18.564 32.377C17.6186 31.9805 17.1732 30.8923 17.5696 29.9468Z" fill="#E44F2D" stroke="#E44F2D" stroke-width="1.5" stroke-linecap="round"/>
<path d="M20.4753 19.2698C21.1301 17.8783 22.7894 17.2808 24.1809 17.9355C25.5723 18.5903 26.1698 20.2496 25.5152 21.641L18.7313 36.0525L22.8049 42.6324L32.4132 41.5646L37.0179 24.8217C37.4259 23.3392 38.9589 22.4679 40.4415 22.8756C41.9241 23.2835 42.7953 24.8166 42.3877 26.2992L37.4494 44.2558C37.0463 45.7216 35.7904 46.7937 34.2795 46.9616L24.0812 48.0937L20.0375 59.0145C19.5034 60.4567 17.901 61.1929 16.4589 60.6588C15.0168 60.1247 14.2805 58.5223 14.8146 57.0802L18.7014 46.5845L13.4667 38.1283C12.8057 37.0601 12.7297 35.7298 13.2646 34.5932L20.4753 19.2698Z" fill="white" stroke="#982C13" stroke-width="1.5" stroke-linecap="round"/>
<path d="M18.3419 12.3576C19.7621 11.4479 21.6533 11.8577 22.5663 13.2729C26.3375 19.1185 35.0764 22.3358 43.1241 20.1083C44.7508 19.6581 46.4359 20.6074 46.8878 22.2284C47.3395 23.8494 46.3869 25.5285 44.7601 25.9787C34.4653 28.8282 22.8234 24.9375 17.4233 16.5671C16.5104 15.1519 16.9216 13.2674 18.3419 12.3576Z" fill="#E44F2D"/>
<path d="M22.0666 59.4394L12.3205 56.6548L10 65.0086L19.7461 67.329L22.0666 59.4394Z" fill="#E44F2D"/>
</svg>
