<svg width="72" height="72" viewBox="0 0 72 72" fill="none" xmlns="http://www.w3.org/2000/svg">
<path d="M48.9131 56C48.9131 56 49.9131 64 53.9131 64H13.4131C9.91309 64 7.41309 58 7.41309 56H48.9131Z" fill="#E44F2D"/>
<path d="M14.8334 53.85C19.645 46.2888 17.9396 21.566 17.1318 8.10447C17.0629 6.95754 17.9758 6 19.1248 6H59.2334C60.338 6 61.2328 6.89027 61.2478 7.99473C61.5082 27.1881 65.1358 64 57.4128 64M57.4128 64C50.8878 64 51.0834 53.85 51.0834 53.85H6.8584C6.8584 57.2333 8.3084 64 14.8334 64H57.4128Z" stroke="#982C13" stroke-width="1.5" stroke-linecap="round"/>
<rect x="26.4336" y="37.8999" width="5.8" height="8.7" fill="#E44F2D"/>
<rect x="35.1338" y="32.1001" width="7.25" height="14.5" fill="#E44F2D"/>
<rect x="45.2832" y="27.75" width="5.8" height="18.85" fill="#E44F2D"/>
<path d="M29.334 27.7503L34.7743 22.7285C34.9741 22.544 35.2849 22.5531 35.4736 22.7491L39.9425 27.3899C40.1341 27.5889 40.4508 27.5948 40.6497 27.403L49.3118 19.0503M49.3118 19.0503H44.559M49.3118 19.0503L48.909 23.4003" stroke="#E44F2D" stroke-width="2" stroke-linecap="round"/>
<circle cx="17.7331" cy="30.6496" r="9.17937" fill="#BA86FD"/>
<path d="M18.8031 37.0752H17.7691V35.7163C16.1591 35.5686 14.741 34.8595 14.0615 33.3972L15.2432 32.2007C15.6716 33.3676 16.7351 33.9585 17.7691 34.1505V31.3587L17.2521 31.2405C15.8489 30.9451 14.357 30.3099 14.357 28.434C14.357 26.5728 15.967 25.5683 17.7691 25.5683V24.2241H18.8031V25.6422C20.1621 25.8637 21.2257 26.5728 21.8017 27.6806L20.5462 28.8771C20.1769 28.0351 19.5417 27.5181 18.8031 27.2818V29.985L18.9656 30.0293C20.5462 30.4133 21.9642 31.0337 21.9642 32.9245C21.9642 34.6084 20.6348 35.6129 18.8031 35.731V37.0752ZM16.1 28.3158C16.1 29.1873 16.7795 29.4975 17.7691 29.7339V27.1193H17.7248C16.7795 27.1193 16.1 27.5625 16.1 28.3158ZM20.2655 32.954C20.2655 32.1564 19.719 31.8462 18.8031 31.595V34.1948C19.6303 34.121 20.2655 33.7517 20.2655 32.954Z" fill="white"/>
</svg>
