<svg width="72" height="72" viewBox="0 0 72 72" fill="none" xmlns="http://www.w3.org/2000/svg">
<path d="M13.0196 55.1317L11.4626 15.6871C11.4393 15.098 11.8874 14.5965 12.4754 14.5535L32.9793 13.0532C33.4825 13.0164 33.8952 12.6401 33.9781 12.1424L34.7478 7.52425C34.8481 6.92236 35.4217 6.51903 36.022 6.62819L63.895 11.696C64.5006 11.8061 64.896 12.3941 64.7696 12.9964L55.8883 55.3132C55.782 55.8195 55.3355 56.182 54.8182 56.182H14.1122C13.5251 56.182 13.0428 55.7184 13.0196 55.1317Z" fill="#BA86FD"/>
<path d="M63.8949 11.696L36.0008 6.62435C35.4086 6.51669 34.8408 6.90777 34.7303 7.49937L25.8775 54.8878C25.7519 55.5605 26.268 56.182 26.9524 56.182H54.818C55.3354 56.182 55.7819 55.8195 55.8882 55.3132L64.7695 12.9964C64.8959 12.3941 64.5005 11.8061 63.8949 11.696Z" fill="white" stroke="#982C13" stroke-width="1.64019"/>
<path d="M38.21 15.1777L57.8922 18.4581" stroke="#E44F2D" stroke-width="1.64019" stroke-linecap="round"/>
<path d="M37.1172 20.645L56.7994 23.9254" stroke="#E44F2D" stroke-width="1.64019" stroke-linecap="round"/>
<path d="M36.0234 26.1123L55.7057 29.3927" stroke="#E44F2D" stroke-width="1.64019" stroke-linecap="round"/>
<path d="M28.6746 28.2988C29.1452 28.2989 29.5626 28.5999 29.7114 29.0463L30.8535 32.4718C31.0024 32.9183 31.4202 33.2194 31.8909 33.2194H63.3598C63.9637 33.2194 64.4533 33.7089 64.4533 34.3128V65.4764C64.4533 66.0803 63.9637 66.5699 63.3598 66.5699H7.59346C6.98956 66.5699 6.5 66.0803 6.5 65.4764V34.3128C6.5 33.7089 6.98956 33.2194 7.59346 33.2194H11.9288C12.2944 33.2194 12.6358 33.0367 12.8386 32.7325L15.4698 28.7858C15.6726 28.4816 16.014 28.2988 16.3796 28.2988H28.6746Z" fill="#E44F2D"/>
<path d="M52.3899 54.1133H50.0107V45.9608H52.3899V48.523C52.6561 47.1587 53.4547 45.7944 55.0187 45.7944C56.2166 45.7944 56.8821 46.5598 56.8821 47.8409C56.8821 48.7227 56.6159 49.4215 56.4163 49.7376H54.1203C54.4197 49.4381 54.7026 48.8558 54.7026 48.3899C54.7026 47.9241 54.4863 47.5747 53.9705 47.5747C53.1553 47.5747 52.3899 48.4565 52.3899 49.8041V54.1133Z" fill="white"/>
<path d="M44.9495 54.2797C42.354 54.2797 40.7734 52.5493 40.7734 50.0371C40.7734 47.5248 42.354 45.7944 44.7499 45.7944C47.3453 45.7944 48.6431 47.5248 48.6431 49.6544C48.6431 50.0038 48.6098 50.4696 48.5599 50.6526H43.0029C43.1526 51.8006 43.918 52.3497 44.9828 52.3497C46.1308 52.3497 46.7464 51.8506 47.0459 51.1518L48.4933 52.5993C47.8777 53.4811 46.7797 54.2797 44.9495 54.2797ZM44.7665 47.6246C43.7516 47.6246 43.1194 48.1903 43.0029 49.2884H46.4968C46.4136 48.2069 45.8313 47.6246 44.7665 47.6246Z" fill="white"/>
<path d="M37.8477 54.1129H34.8363L31.9746 45.9604H34.6034L35.7347 49.8703L36.367 52.732L36.9826 49.8703L38.1139 45.9604H40.7094L37.8477 54.1129Z" fill="white"/>
<path d="M27.7071 54.2797C25.2281 54.2797 23.6309 52.5327 23.6309 50.0371C23.6309 47.558 25.2281 45.7944 27.7071 45.7944C30.2527 45.7944 31.8665 47.558 31.8665 50.0371C31.8665 52.5327 30.2527 54.2797 27.7071 54.2797ZM27.7404 52.3497C28.7553 52.3497 29.4541 51.7008 29.4541 50.0371C29.4541 48.3566 28.7553 47.7244 27.7404 47.7244C26.7421 47.7244 26.0433 48.3566 26.0433 50.0371C26.0433 51.7008 26.7421 52.3497 27.7404 52.3497Z" fill="white"/>
<path d="M19.3409 54.2797C16.8286 54.2797 15.248 52.5327 15.248 50.0371C15.248 47.558 16.8286 45.7944 19.3409 45.7944C21.2875 45.7944 22.6352 46.8592 23.1343 48.2568L21.1544 49.4048C20.9548 48.3899 20.4224 47.7743 19.4241 47.7743C18.3759 47.7743 17.6772 48.5397 17.6772 50.0371C17.6772 51.5344 18.3759 52.2998 19.4241 52.2998C20.439 52.2998 20.9548 51.6842 21.1544 50.6693L23.1343 51.8173C22.6352 53.2149 21.2875 54.2797 19.3409 54.2797Z" fill="white"/>
</svg>
