<svg width="72" height="72" viewBox="0 0 72 72" fill="none" xmlns="http://www.w3.org/2000/svg">
<ellipse cx="38.1815" cy="62.0256" rx="24.8182" ry="4.72727" fill="#BA86FD"/>
<path d="M60.0704 51.7684C60.7462 54.2902 53.1165 58.5257 43.0292 61.2286C32.9418 63.9315 24.2166 64.0783 23.5409 61.5564L22.3174 56.9902L58.8469 47.2022L60.0704 51.7684Z" fill="white" stroke="#982C13" stroke-width="1.5"/>
<ellipse cx="40.4293" cy="51.5257" rx="18.9091" ry="5.31818" transform="rotate(-15 40.4293 51.5257)" fill="white" stroke="#982C13" stroke-width="1.5"/>
<path d="M56.8778 46.6244L56.8925 46.7328C56.9006 47.2882 55.9107 47.9887 54.5756 48.3465C53.2406 48.7041 52.0341 48.592 51.7633 48.1071L51.7218 48.0059L43.4336 17.0737L48.5895 15.6922L56.8778 46.6244Z" fill="white" stroke="#982C13" stroke-width="1.5"/>
<path d="M28.3387 54.2718L28.3534 54.3802C28.3615 54.9356 27.3717 55.6362 26.0365 55.9939C24.7016 56.3516 23.4951 56.2395 23.2242 55.7546L23.1828 55.6534L14.8945 24.7212L20.0505 23.3397L28.3387 54.2718Z" fill="white" stroke="#982C13" stroke-width="1.5"/>
<path d="M42.9965 33.7082C49.0402 26.5836 45.2276 21.4871 41.1912 20.1217C37.2042 18.7728 26.5027 21.4694 23.5283 24.854C20.7155 28.0547 19.9619 34.3747 28.7582 37.5229C30.5516 38.1647 33.1065 38.6824 32.6827 40.7536C32.1529 43.3426 25.0387 46.4723 26.9858 51.4559C27.8045 53.5515 31.3882 53.95 34.9193 53.792C37.9231 53.6577 42.4608 52.2973 43.3622 52.0348C47.9089 50.7106 51.9245 47.6889 51.4979 44.8883C50.6924 39.5988 42.9665 40.4455 41.2132 38.4683C39.8105 36.8865 41.7643 35.1607 42.9965 33.7082Z" fill="white" stroke="#982C13" stroke-width="1.5"/>
<path d="M34.1587 28.1236C38.5719 26.9411 42.4919 27.2602 42.9142 28.8363C42.9843 29.0976 42.9517 29.3763 42.8319 29.6661C41.9004 32.4649 38.5829 35.5027 38.1651 36.2264C37.6477 37.1225 37.8934 40.3138 39.3886 40.7926C42.7013 41.7402 46.228 42.5714 48.2016 43.557C48.939 43.8169 49.4272 44.1968 49.6009 44.6899C49.6132 44.7193 49.6248 44.7481 49.6326 44.777C50.1393 46.6684 45.9504 49.4342 40.2762 50.9545C34.6021 52.4749 29.5915 52.1742 29.0847 50.2828C28.4412 47.8813 33.6877 44.1087 35.1283 43.1576C35.521 42.8984 36.5347 41.5573 36.7996 40.2628C36.676 38.8171 36.1879 37.9797 34.1697 37.2969C34.1697 37.2969 28.5683 35.2582 27.2052 33.6011C27.0734 33.4559 26.9801 33.2959 26.9326 33.1186C26.5102 31.5424 29.7455 29.3061 34.1587 28.1236Z" fill="#E44F2D"/>
<path d="M50.1514 14.7494C50.7306 16.911 43.0227 20.8546 32.9354 23.5575C22.848 26.2604 14.201 26.6991 13.6218 24.5375L12.0488 18.667L48.5784 8.87893L50.1514 14.7494Z" fill="white" stroke="#982C13" stroke-width="1.5"/>
<ellipse cx="30.3135" cy="13.7728" rx="18.9091" ry="4.05195" transform="rotate(-15 30.3135 13.7728)" fill="white" stroke="#982C13" stroke-width="1.5"/>
</svg>
