<svg width="72" height="72" viewBox="0 0 72 72" fill="none" xmlns="http://www.w3.org/2000/svg">
<path d="M56.4998 16H24.4521L40.4506 35.277V43.154H67.9998L56.4998 16Z" fill="#E44F2D"/>
<path d="M25 15.5H55.6789C56.176 15.5 56.6244 15.7991 56.8153 16.2582L67.2917 41.4506C67.6288 42.2612 67.0331 43.154 66.1552 43.154H40.4508" stroke="#982C13" stroke-width="1.84615" stroke-linecap="round"/>
<circle cx="54.462" cy="17.3077" r="12.3077" fill="#BA86FD" stroke="white" stroke-width="1.84615" stroke-linecap="round"/>
<path d="M55.8966 25.9232H54.5102V24.101C52.3514 23.903 50.4501 22.9523 49.5391 20.9916L51.1235 19.3873C51.6979 20.952 53.1239 21.7442 54.5102 22.0017V18.2584L53.817 18.1C51.9355 17.7039 49.9352 16.8522 49.9352 14.3369C49.9352 11.8415 52.094 10.4947 54.5102 10.4947V8.69238H55.8966V10.5937C57.7187 10.8908 59.1447 11.8415 59.9171 13.3269L58.2337 14.9311C57.7385 13.8022 56.8869 13.109 55.8966 12.7921V16.4165L56.1145 16.4759C58.2337 16.9909 60.135 17.8227 60.135 20.3578C60.135 22.6156 58.3525 23.9624 55.8966 24.1209V25.9232ZM52.2722 14.1785C52.2722 15.347 53.1833 15.7629 54.5102 16.0798V12.5743H54.4508C53.1833 12.5743 52.2722 13.1684 52.2722 14.1785ZM57.8574 20.3974C57.8574 19.3279 57.1246 18.912 55.8966 18.5753V22.0611C57.0057 21.9621 57.8574 21.4669 57.8574 20.3974Z" fill="white"/>
<path d="M8.92285 35.6186L24.0613 18.5386L39.1998 35.6186V43.154H59.3844V67.7693H39.1998H8.92285V35.6186Z" fill="white"/>
<path d="M8.92285 35.6186L24.3075 18.5386L39.6921 35.6186V67.7693H8.92285V35.6186Z" stroke="#982C13" stroke-width="1.84615" stroke-linecap="round"/>
<rect x="45.8457" y="53" width="7.38462" height="14.7692" fill="#E44F2D"/>
<path d="M39.6924 43.1538H59.3847V67.7692H39.6924" stroke="#982C13" stroke-width="1.84615" stroke-linecap="round"/>
<rect x="15.0762" y="39.4619" width="17.2308" height="17.2308" fill="#E44F2D"/>
<path d="M23.6914 38.231V57.9233" stroke="white" stroke-width="1.84615" stroke-linecap="round"/>
<path d="M33.5381 48.0771H13.8458" stroke="white" stroke-width="1.84615" stroke-linecap="round"/>
<path d="M4 39.4617L24.3077 18.5386L43.3846 39.4617" stroke="#982C13" stroke-width="4.92308" stroke-linecap="round"/>
</svg>
