<svg width="72" height="72" viewBox="0 0 72 72" fill="none" xmlns="http://www.w3.org/2000/svg">
<ellipse cx="36.5" cy="62" rx="25.5" ry="5" fill="#BA86FD"/>
<path d="M36.5337 62.7749C42.5179 62.7749 47.3691 60.2594 47.3691 57.1565V37.4922H25.6982V57.1565C25.6982 60.2594 30.5494 62.7749 36.5337 62.7749Z" fill="white" stroke="#982C13" stroke-width="1.5" stroke-linecap="round"/>
<path d="M47.3691 53.1431V57.1562C47.3691 60.2591 42.5179 62.7746 36.5337 62.7746C30.5494 62.7746 25.6982 60.2591 25.6982 57.1562V53.1431" stroke="#982C13" stroke-width="1.5" stroke-linecap="round"/>
<path d="M47.3691 53.1431C47.3691 56.246 42.5179 58.7614 36.5337 58.7614C30.5494 58.7614 25.6982 56.246 25.6982 53.1431" stroke="#982C13" stroke-width="1.5" stroke-linecap="round"/>
<path d="M47.3691 49.1309V53.144C47.3691 56.2469 42.5179 58.7624 36.5337 58.7624C30.5494 58.7624 25.6982 56.2469 25.6982 53.144V49.1309" stroke="#982C13" stroke-width="1.5" stroke-linecap="round"/>
<path d="M47.3691 49.1309C47.3691 52.2338 42.5179 54.7492 36.5337 54.7492C30.5494 54.7492 25.6982 52.2338 25.6982 49.1309" stroke="#982C13" stroke-width="1.5" stroke-linecap="round"/>
<path d="M47.3691 45.1177V49.1308C47.3691 52.2337 42.5179 54.7492 36.5337 54.7492C30.5494 54.7492 25.6982 52.2337 25.6982 49.1308V45.1177" stroke="#982C13" stroke-width="1.5" stroke-linecap="round"/>
<path d="M47.3691 45.1177C47.3691 48.2206 42.5179 50.736 36.5337 50.736C30.5494 50.736 25.6982 48.2206 25.6982 45.1177" stroke="#982C13" stroke-width="1.5" stroke-linecap="round"/>
<path d="M47.3691 45.1177C47.3691 48.2206 42.5179 50.736 36.5337 50.736C30.5494 50.736 25.6982 48.2206 25.6982 45.1177" stroke="#982C13" stroke-width="1.5" stroke-linecap="round"/>
<ellipse cx="36.5337" cy="37.0905" rx="10.8354" ry="5.61837" fill="white" stroke="#982C13" stroke-width="1.5" stroke-linecap="round"/>
<ellipse cx="36.5019" cy="37.0409" rx="8.49603" ry="2.68296" fill="#E44F2D" stroke="#E44F2D" stroke-width="1.5" stroke-linecap="round"/>
<path d="M47.3691 41.104C47.3691 44.2069 42.5179 46.7224 36.5337 46.7224C30.5494 46.7224 25.6982 44.2069 25.6982 41.104" stroke="#982C13" stroke-width="1.5" stroke-linecap="round"/>
<path d="M25.6982 37.4922V53.1434M47.3691 37.4922V53.1434" stroke="#982C13" stroke-width="1.5" stroke-linecap="round"/>
<circle cx="36.5158" cy="24.9816" r="12.9816" fill="white" stroke="#982C13" stroke-width="1.5" stroke-linecap="round"/>
<circle cx="36.5015" cy="24.9678" r="10.2847" fill="white" stroke="#982C13" stroke-width="1.5" stroke-linecap="round"/>
<path d="M37.71 31.4722H36.6654V30.0993C35.0389 29.9501 33.6063 29.2338 32.9199 27.7565L34.1137 26.5478C34.5465 27.7267 35.6209 28.3236 36.6654 28.5175V25.6972L36.1431 25.5778C34.7255 25.2794 33.2184 24.6377 33.2184 22.7426C33.2184 20.8624 34.8449 19.8477 36.6654 19.8477V18.4897H37.71V19.9223C39.0828 20.1461 40.1572 20.8624 40.7392 21.9816L39.4708 23.1903C39.0978 22.3397 38.4561 21.8174 37.71 21.5787V24.3095L37.8741 24.3542C39.4708 24.7422 40.9034 25.3689 40.9034 27.279C40.9034 28.9801 39.5604 29.9949 37.71 30.1142V31.4722ZM34.9792 22.6232C34.9792 23.5036 35.6656 23.817 36.6654 24.0558V21.4145H36.6207C35.6656 21.4145 34.9792 21.8622 34.9792 22.6232ZM39.1873 27.3088C39.1873 26.503 38.6352 26.1897 37.71 25.936V28.5623C38.5456 28.4877 39.1873 28.1146 39.1873 27.3088Z" fill="#E44F2D"/>
<circle cx="54" cy="16" r="11" fill="#BA86FD" stroke="white" stroke-width="1.5" stroke-linecap="round"/>
<path d="M55.6602 18.0794H52.34C52.34 15.7626 51.5557 12.9351 51.5557 9.88867H56.4446C56.4446 12.9169 55.6602 15.7626 55.6602 18.0794ZM56.0001 22.1109H52.0263V19.2834H56.0001V22.1109Z" fill="white"/>
</svg>
