<svg width="72" height="72" viewBox="0 0 72 72" fill="none" xmlns="http://www.w3.org/2000/svg">
<g clip-path="url(#clip0_409_10452)">
<path d="M41.0874 13.991C40.6877 10.793 40.3679 3.51772 42.2866 0" stroke="#982C13" stroke-width="1.59897" stroke-linecap="round"/>
<path d="M44.8848 14.1907L50.681 0.799316" stroke="#982C13" stroke-width="1.59897" stroke-linecap="round"/>
<path d="M47.052 65.3732L53.3052 29.968C53.6411 28.0663 52.2277 26.3031 50.2985 26.217L37.3538 25.6396C36.1564 25.5862 35.0297 26.2068 34.4349 27.2474L16.2723 59.0241C15.1691 60.9542 16.3231 63.3932 18.5151 63.7641L43.3692 67.9701C45.1018 68.2633 46.7463 67.1036 47.052 65.3732Z" fill="#BA86FD"/>
<path d="M48.0434 13.7296L37.9925 11.5513C37.2911 11.3992 36.5589 11.4876 35.9138 11.8021L28.0395 15.6406C27.3367 15.9832 26.7838 16.5714 26.4852 17.2939L12.0787 52.1586C11.3532 53.9145 12.3094 55.9119 14.1321 56.4479L35.654 62.7769C37.2106 63.2347 38.8634 62.4542 39.4987 60.9612L54.5595 25.5727C54.9504 24.6541 54.8899 23.6056 54.3959 22.738L50.145 15.2726C49.6954 14.4831 48.9313 13.9221 48.0434 13.7296Z" fill="white" stroke="#982C13" stroke-width="1.5"/>
<ellipse cx="41.1777" cy="17.6784" rx="2.39845" ry="2.19858" transform="rotate(-18.735 41.1777 17.6784)" fill="#EEEEEE"/>
<path d="M42.7015 19.0613C41.3632 16.9826 40.737 13.2694 42.5975 11.2877C43.2987 10.5408 44.9825 10.4788 44.6929 13.1096" stroke="#982C13" stroke-width="1.59897" stroke-linecap="round"/>
<path d="M44.6928 13.1093C44.9824 10.4785 43.2986 10.5405 42.5975 11.2873C42.0067 11.9167 41.6666 12.7206 41.5205 13.5913C41.3693 14.4923 41.4258 15.4648 41.6269 16.3895" stroke="#982C13" stroke-width="1.59897" stroke-linecap="round"/>
<path d="M53.2794 23.3848L50.1287 15.7131C49.7006 14.6708 48.7556 13.9307 47.6411 13.7649L42.4999 12.9999C42.2155 13.2844 42.191 13.7375 42.4432 14.0509L44.248 16.2945C44.4055 16.4903 44.5856 16.6669 44.7844 16.8205L53.2794 23.3848Z" fill="white"/>
<path d="M40.2307 14.8861C41.8178 14.3478 43.6167 15.068 44.1592 16.6669C44.7016 18.2659 43.7121 19.9327 42.1249 20.4711C40.5376 21.0094 38.7383 20.2884 38.196 18.6894C37.6539 17.0904 38.6435 15.4244 40.2307 14.8861Z" stroke="#982C13" stroke-width="1.5"/>
<path d="M25.2474 33.2023L41.4599 25.8009C42.4735 25.3382 43.3702 26.6298 42.5823 27.4177L37.2636 32.7364C36.8517 33.1483 36.8776 33.8237 37.3199 34.2028L42.3899 38.5485C42.924 39.0063 42.8311 39.8578 42.2108 40.1896L26.5252 48.5795C25.5565 49.0977 24.5821 47.9015 25.2854 47.0576L31.2459 39.9049C31.641 39.4308 31.5166 38.7156 30.9847 38.4028L25.1556 34.9739C24.4583 34.5637 24.5114 33.5383 25.2474 33.2023Z" fill="#E44F2D"/>
</g>
<defs>
<clipPath id="clip0_409_10452">
<rect width="72" height="72" fill="white"/>
</clipPath>
</defs>
</svg>
