<svg width="72" height="72" viewBox="0 0 72 72" fill="none" xmlns="http://www.w3.org/2000/svg">
<g clip-path="url(#clip0_409_2146)">
<path d="M16.5626 59.5388L51.8934 61.1515C52.9905 61.2015 53.9227 60.3576 53.9817 59.261L56.5308 11.8898C56.59 10.7899 55.7488 9.84927 54.6492 9.78566L20.863 7.83114C19.7819 7.7686 18.8474 8.57788 18.7548 9.65683L14.6611 57.3699C14.564 58.5017 15.4278 59.487 16.5626 59.5388Z" fill="#BA86FD"/>
<path d="M23.8031 62.7293L56.8499 57.1701C57.9329 56.9879 58.6664 55.9666 58.4931 54.8821L51.3868 10.4274C51.2129 9.33974 50.1924 8.59739 49.1041 8.76687L17.4219 13.7007C16.3518 13.8673 15.6088 14.8553 15.7456 15.9296L21.4873 61.0097C21.6308 62.1365 22.6829 62.9177 23.8031 62.7293Z" fill="white" stroke="#982C13" stroke-width="1.5"/>
<path d="M23 40L49.5 35" stroke="#BA86FD" stroke-width="1.5" stroke-linecap="round"/>
<path d="M24 46L50.5 41" stroke="#BA86FD" stroke-width="1.5" stroke-linecap="round"/>
<path d="M25 52L51.5 47" stroke="#BA86FD" stroke-width="1.5" stroke-linecap="round"/>
<path d="M46.9999 18L33.5 20.5L35.4999 32.5L48.9999 30L46.9999 18Z" fill="#BA86FD"/>
<path fill-rule="evenodd" clip-rule="evenodd" d="M26.3801 26.7222L26.3529 26.7264C23.9148 27.1042 22.2409 25.9732 22.0172 24.5286L20.8053 16.7005C20.6907 15.9599 20.7423 15.2843 21.0504 14.7553C21.365 14.2156 21.9198 13.8743 22.7067 13.7525C23.6431 13.6076 24.3541 13.8484 24.8551 14.3486C25.3442 14.8371 25.6048 15.5445 25.7193 16.2836L26.3255 20.1986C26.3883 20.6074 26.1069 20.9904 25.6984 21.0541C25.2892 21.1172 24.9068 20.8365 24.8432 20.4279L24.237 16.5129C24.1811 16.1525 24.0849 15.7823 23.8987 15.5259C23.8087 15.402 23.7003 15.31 23.5691 15.2542C23.438 15.1987 23.266 15.1725 23.036 15.208C22.5491 15.2834 22.3764 15.4532 22.3034 15.6207C22.2166 15.8204 22.2298 16.0975 22.2876 16.4711L23.4995 24.2992C23.5489 24.6161 24.1536 25.5421 26.1084 25.2441C27.23 25.0197 27.9779 23.9534 27.8028 22.8216L26.2494 12.787C26.0041 11.2023 24.5208 10.1158 22.9362 10.3607C21.574 10.5715 20.5798 11.6985 20.4837 13.0176L20.4661 13.2498L20.2334 13.2495L19.2314 13.249L18.9678 13.2499L18.9818 12.9853C19.0935 10.9514 20.6133 9.20237 22.7069 8.87831C25.1101 8.50684 27.3598 10.1544 27.7317 12.5576L29.2851 22.5922C29.5843 24.5255 28.3007 26.3503 26.3801 26.7222Z" fill="#E44F2D"/>
<path d="M25.7571 11.6432L17.306 12.9592L17.4216 13.7003L25.8784 12.3834L25.7571 11.6432Z" fill="#982C13"/>
<path d="M60 47L53 40L50 42.5L57 49.5L60 47Z" fill="#E44F2D"/>
<path d="M66.7567 50.8275L57.7054 42.6382C57.3102 42.2807 56.7042 42.2958 56.3274 42.6726L52.7246 46.2754C52.3273 46.6727 52.3352 47.3192 52.742 47.7067L61.7589 56.2942C62.1654 56.6813 62.8108 56.6581 63.1885 56.2427L66.8257 52.2417C67.1979 51.8324 67.1669 51.1986 66.7567 50.8275Z" fill="#E44F2D"/>
<circle cx="44" cy="33" r="12" fill="#E44F2D"/>
<circle cx="44" cy="33" r="9" fill="white"/>
</g>
<defs>
<clipPath id="clip0_409_2146">
<rect width="72" height="72" fill="white"/>
</clipPath>
</defs>
</svg>
