<svg width="72" height="72" viewBox="0 0 72 72" fill="none" xmlns="http://www.w3.org/2000/svg">
<path d="M13 11H49.5C51.1569 11 52.5 12.3431 52.5 14V65.7778C52.5 67.4346 51.1569 68.7778 49.5 68.7778H13C11.3431 68.7778 10 67.4346 10 65.7778V14C10 12.3431 11.3431 11 13 11Z" fill="#BA86FD"/>
<path d="M47.4444 10V43.8333V61.7778C47.4444 63.4346 46.1013 64.7778 44.4444 64.7778H41.6667H10C8.34315 64.7778 7 63.4346 7 61.7778V10C7 8.34315 8.34314 7 10 7H44.4444C46.1013 7 47.4444 8.34314 47.4444 10Z" fill="white"/>
<path d="M13.0557 12.0557H41.389C41.9413 12.0557 42.389 12.5034 42.389 13.0557V43.1112V52.9446C42.389 53.4968 41.9413 53.9446 41.389 53.9446H37.3334H13.0557C12.5034 53.9446 12.0557 53.4968 12.0557 52.9446V13.0557C12.0557 12.5034 12.5034 12.0557 13.0557 12.0557Z" fill="#E44F2D"/>
<path d="M31.4297 19.8735C31.6173 20.0611 31.8716 20.1664 32.1368 20.1664H36.0642C36.6165 20.1664 37.0642 20.6141 37.0642 21.1664V25.0937C37.0642 25.359 37.1695 25.6133 37.3571 25.8009L40.1348 28.5786C40.5253 28.9691 40.5253 29.6023 40.1348 29.9928L37.3571 32.7705C37.1695 32.9581 37.0642 33.2124 37.0642 33.4776V37.405C37.0642 37.9573 36.6165 38.405 36.0642 38.405H32.1368C31.8716 38.405 31.6173 38.5103 31.4297 38.6979L28.652 41.4756C28.2615 41.8661 27.6283 41.8661 27.2378 41.4756L24.46 38.6979C24.2725 38.5103 24.0181 38.405 23.7529 38.405H19.8256C19.2733 38.405 18.8256 37.9573 18.8256 37.405V33.4776C18.8256 33.2124 18.7202 32.9581 18.5327 32.7705L15.755 29.9928C15.3644 29.6023 15.3644 28.9691 15.755 28.5786L18.5327 25.8009C18.7202 25.6133 18.8256 25.359 18.8256 25.0937V21.1664C18.8256 20.6141 19.2733 20.1664 19.8256 20.1664H23.7529C24.0181 20.1664 24.2725 20.0611 24.46 19.8735L27.2378 17.0958C27.6283 16.7053 28.2615 16.7053 28.652 17.0958L31.4297 19.8735Z" fill="white"/>
<path d="M23.3848 30.0678L26.7285 32.8036L32.5041 27.332" stroke="#E44F2D" stroke-width="1.5" stroke-linecap="round"/>
<circle cx="27.9446" cy="58.8889" r="2.88889" fill="#E44F2D"/>
<path d="M59.7227 40.9443C58.5671 37.4776 51.056 31.3147 47.4449 28.6665V43.8332C46.9634 44.7961 45.4227 46.1443 43.1116 43.8332C40.8004 41.5221 36.8523 38.0554 35.1671 36.6109C34.2041 35.648 31.7004 34.2998 29.3893 36.6109C28.6671 37.3332 27.8004 39.4998 30.1116 42.3887L37.3338 50.3332C37.8152 51.0554 38.6338 53.3665 38.056 56.8332C37.4782 60.2998 41.1856 64.0554 43.1115 65.4998L46.0005 68.9999H59.0005L59.7227 63.3332C60.2041 57.3146 60.8782 44.4109 59.7227 40.9443Z" fill="white"/>
<path d="M47.4449 28.6665C51.056 31.3147 58.5671 37.4776 59.7227 40.9443C60.8782 44.4109 60.2041 57.3147 59.7227 63.3332M47.4449 43.8332C46.9634 44.7961 45.4227 46.1443 43.1116 43.8332C40.8004 41.5221 36.8523 38.0554 35.1671 36.6109C34.2041 35.648 31.7004 34.2998 29.3893 36.6109C28.6671 37.3332 27.8004 39.4998 30.1116 42.3887L37.3338 50.3332C37.8152 51.0554 38.6338 53.3665 38.056 56.8332C37.4782 60.2998 43.5745 67.0554 45.5005 68.4999" stroke="#982C13" stroke-width="1.5" stroke-linecap="round"/>
<path d="M47.4444 43.8333V10C47.4444 8.34314 46.1013 7 44.4444 7H10C8.34314 7 7 8.34315 7 10V61.7778C7 63.4346 8.34315 64.7778 10 64.7778H41.6667" stroke="#982C13" stroke-width="1.5" stroke-linecap="round"/>
</svg>
