<svg width="72" height="72" viewBox="0 0 72 72" fill="none" xmlns="http://www.w3.org/2000/svg">
<ellipse cx="17.9929" cy="46.9358" rx="7.97065" ry="6.37652" transform="rotate(10.8586 17.9929 46.9358)" fill="#FFAE9B"/>
<path d="M58.457 34.0181C60.5825 38.8005 62.5263 49.0556 53.5992 56.7074C52.0051 58.0358 48.0197 60.4575 47.2227 60.6927C46.6474 60.8624 45.8207 61.0618 44.833 61.2638C44.8401 63.6915 44.7977 67.2769 42.4403 67.8663C40.0491 68.4641 36.2232 68.9822 33.6726 67.0692C33.065 66.0567 32.828 64.6429 32.4672 62.3336C32.3349 62.3196 32.2052 62.3041 32.0784 62.2868C28.8902 62.5525 22.5136 62.2869 15.34 53.5191C14.8087 52.1907 12.9489 51.1279 12.9489 41.5631C12.4727 36.3249 14.3875 31.7419 16.1371 29.6072C13.5466 20.68 14.8509 19.4052 16.2126 18.8738C19.4009 16.9609 23.9176 21.9586 25.7774 24.6965C27.9064 23.7695 31.1691 22.8592 35.3421 22.8592C36.1392 22.0621 38.371 20.468 40.9216 20.468C43.4722 20.468 44.6412 22.6515 44.9069 23.7432C50.0433 25.0987 55.4903 28.0846 58.457 34.0181Z" fill="#FFAE9B"/>
<path d="M55.1933 60.6928V55.9104L52.8021 52.7222L47.2227 57.5046V60.6928C47.2227 63.881 46.4256 64.6781 51.208 64.6781C55.0339 64.6781 55.1933 63.084 55.1933 60.6928Z" fill="#FFAE9B"/>
<path d="M20.123 63.0837V58.3013H26.4996L26.4996 62.2866V63.8808C26.4996 65.4749 20.123 65.4749 20.123 63.0837Z" fill="#FFAE9B"/>
<path d="M25.7021 25.622C27.2963 24.0279 28.6247 22.4338 29.6875 21.6367H32.8757L28.8904 25.622H25.7021Z" fill="#982C13"/>
<circle cx="18.5287" cy="35.9838" r="1.59413" fill="#982C13"/>
<ellipse cx="14.8291" cy="45.7919" rx="0.797065" ry="1.59413" transform="rotate(10.86 14.8291 45.7919)" fill="#982C13"/>
<ellipse cx="20.1836" cy="46.6933" rx="0.797065" ry="1.59413" transform="rotate(10.86 20.1836 46.6933)" fill="#982C13"/>
<circle cx="28.0932" cy="37.578" r="1.59413" fill="#982C13"/>
<path d="M24.1084 24.0276C25.4368 22.9649 29.6879 20.8394 36.0644 20.8394M45.6292 60.6926C49.6145 59.8956 52.8028 57.2387 54.3969 55.9103C63.324 48.2585 61.3048 36.7807 59.1793 31.9983C56.2125 26.0648 50.7656 23.0788 45.6292 21.7234M32.0791 62.2868C28.8908 62.5525 21.7172 61.4898 14.5436 52.722M17.7319 28.013C15.8721 29.3414 12.3118 33.7519 12.9495 40.766" stroke="#982C13" stroke-width="1.5" stroke-linecap="round"/>
<path d="M55.1934 55.9104V60.6927C55.1934 63.0839 55.034 64.678 51.2081 64.678C46.4257 64.678 47.2228 63.881 47.2228 60.6927M45.6287 58.3016C45.0973 60.1614 44.5454 65.2504 44.0345 66.2722C42.6021 69.1369 34.7355 68.6634 33.6727 67.0693C32.0786 64.6781 32.8756 61.4898 31.2815 59.8956M20.1226 58.3015V63.0839C20.1226 65.4751 26.4991 65.4751 26.4991 63.881C26.4991 62.2869 26.4991 62.2869 26.4991 62.2869M32.8756 26.4189C33.6727 23.762 36.5421 18.4482 41.6433 18.4482C44.0345 18.7139 48.1793 22.1147 45.6287 33.5925M25.702 22.4336C24.1079 20.0424 20.1226 15.5788 16.9343 16.8541C13.746 18.1294 15.0745 25.8875 16.1372 29.6072" stroke="#982C13" stroke-width="1.5" stroke-linecap="round"/>
<path d="M52.8022 24.8246C51.9397 24.0711 50.619 20.3037 54.069 18.7966C55.9904 17.9572 58.3816 19.2452 58.3816 22.4334" stroke="#982C13" stroke-width="1.5" stroke-linecap="round"/>
<ellipse cx="17.9929" cy="46.9358" rx="7.97065" ry="6.37652" transform="rotate(10.8586 17.9929 46.9358)" stroke="#982C13" stroke-width="1.5" stroke-linecap="round"/>
<circle cx="32" cy="11" r="6" fill="#BA86FD"/>
<path d="M32.6989 15.1998H32.0231V14.3115C30.9706 14.215 30.0437 13.7515 29.5996 12.7957L30.372 12.0136C30.652 12.7764 31.3472 13.1626 32.0231 13.2881V11.4633L31.6851 11.386C30.7679 11.1929 29.7927 10.7777 29.7927 9.55153C29.7927 8.33498 30.8451 7.67843 32.0231 7.67843V6.7998H32.6989V7.7267C33.5872 7.87153 34.2824 8.33498 34.6589 9.05912L33.8382 9.84118C33.5969 9.29084 33.1817 8.95291 32.6989 8.79843V10.5653L32.8051 10.5943C33.8382 10.8453 34.7651 11.2508 34.7651 12.4867C34.7651 13.5874 33.8962 14.2439 32.6989 14.3212V15.1998ZM30.932 9.47429C30.932 10.0439 31.3762 10.2467 32.0231 10.4012V8.69222H31.9941C31.3762 8.69222 30.932 8.98187 30.932 9.47429ZM33.6548 12.506C33.6548 11.9846 33.2975 11.7819 32.6989 11.6177V13.317C33.2396 13.2688 33.6548 13.0274 33.6548 12.506Z" fill="white"/>
</svg>
