<svg width="72" height="72" viewBox="0 0 72 72" fill="none" xmlns="http://www.w3.org/2000/svg">
<path d="M45.6627 10.1114L16.3198 11.8897C15.2887 11.9522 14.4748 12.7897 14.4418 13.8222L13.0726 56.7246C13.0341 57.9308 14.0646 58.8961 15.2658 58.7789L51.9153 55.2034C53.0507 55.0926 53.8636 54.056 53.7006 52.9269L47.7631 11.8218C47.6144 10.7921 46.7011 10.0484 45.6627 10.1114Z" fill="#BA86FD"/>
<path d="M50.553 13.2434L22.3116 16.7735C21.2855 16.9018 20.5264 17.7912 20.5608 18.8247L21.9282 59.8466C21.967 61.0091 22.9857 61.8934 24.1421 61.7684L56.9392 58.2228C58.0652 58.1011 58.8656 57.0694 58.7037 55.9485L52.7805 14.942C52.6247 13.8635 51.6343 13.1082 50.553 13.2434Z" fill="white" stroke="#982C13" stroke-width="1.5"/>
<path d="M50.0391 29.2852C50.5 37.5 47.0786 49.1396 41.0604 52C33.5786 51.1396 28 41 26.5605 32C32 31 36.0606 26.4999 37.5605 24C40.5758 26.8987 44 29.2852 50.0391 29.2852Z" fill="#E44F2D"/>
</svg>
