<svg width="72" height="72" viewBox="0 0 72 72" fill="none" xmlns="http://www.w3.org/2000/svg">
<path d="M58.8196 23.4479C58.3748 40.1041 49.5216 63.0223 36.8969 67.7877C21.9414 64.799 12.3799 43.4016 10.9812 24.997C22.1265 23.8893 31.0746 15.4871 34.5203 10.6928C40.1204 17.0477 46.6317 22.437 58.8196 23.4479Z" fill="#BA86FD"/>
<path d="M62.5534 18.3169C63.1481 18.4041 63.5864 18.9251 63.5345 19.5239C62.1168 35.8986 52.6601 57.3776 40.2792 61.8019C40.0794 61.8733 39.8638 61.8816 39.6584 61.8283C25.3163 58.1021 16.7723 37.3056 15.8034 19.2384C15.7704 18.6238 16.2448 18.108 16.857 18.0444C26.7176 17.021 34.9591 10.408 38.9306 5.85576C39.4091 5.30727 40.2721 5.30205 40.7426 5.85744C45.7431 11.76 51.7657 16.7348 62.5534 18.3169Z" fill="white" stroke="#982C13" stroke-width="1.69946"/>
<path d="M28.6001 24.9282C32.1449 21.7423 36.2315 24.8147 38.7373 27.8477C41.2496 24.8474 45.2879 21.8767 48.7943 25.0281C55.5013 31.0565 42.4952 42.7252 39.0245 45.9359C38.8314 46.1146 38.5513 46.143 38.3388 45.9879C35.2741 43.7509 22.2954 32.5843 28.6001 24.9282Z" fill="#E44F2D"/>
</svg>
