<svg width="72" height="72" viewBox="0 0 72 72" fill="none" xmlns="http://www.w3.org/2000/svg">
<rect width="72" height="72" fill="white"/>
<path d="M47.3832 18.735V6.19528M31.6914 17.817V5.9043" stroke="#E44F2D" stroke-width="2.16438" stroke-linecap="round"/>
<path d="M33.2432 6.49804L29.5273 6.19452V2.29646C29.5273 1.58754 30.1146 1.01957 30.8231 1.04319L47.7946 1.60891C48.4705 1.63144 49.0068 2.18589 49.0068 2.86218V7.49315L45.6483 6.84384V4.72259C45.6483 4.45576 45.4394 4.23564 45.1729 4.22169L33.771 3.62489C33.4841 3.60987 33.2432 3.83847 33.2432 4.12579V6.49804Z" fill="#BA86FD"/>
<ellipse cx="20.0263" cy="65.193" rx="2.40321" ry="2.50794" fill="#982C13"/>
<ellipse cx="42.8573" cy="68.9547" rx="2.40321" ry="2.50794" fill="#982C13"/>
<ellipse cx="52.4696" cy="65.193" rx="2.40321" ry="2.50794" fill="#982C13"/>
<path d="M25.8521 18.1495L18.3296 21.247C16.92 21.8275 16 23.2012 16 24.7256V61.0152C16 62.8595 17.3371 64.4319 19.1575 64.7282L42.0161 68.4494C42.6357 68.5503 43.2707 68.4945 43.8633 68.2871L52.9808 65.0959C54.4897 64.5678 55.5 63.1438 55.5 61.5452V23.2229C55.5 21.2403 53.9613 19.598 51.9829 19.469L27.5292 17.8742C26.9565 17.8368 26.3828 17.931 25.8521 18.1495Z" fill="white"/>
<path d="M16 22.833L40.166 25.0299C42.1037 25.2061 43.5873 26.8307 43.5873 28.7764V68.6028" stroke="#982C13" stroke-width="1.62329"/>
<path d="M22.4932 19.6816L43.9696 21.9188C46.5247 22.1849 48.4658 24.3386 48.4658 26.9076V66.4725" stroke="#E44F2D" stroke-width="1.62329" stroke-linecap="round"/>
<path d="M25.8521 18.1495L18.3296 21.247C16.92 21.8275 16 23.2012 16 24.7256V61.0152C16 62.8595 17.3371 64.4319 19.1575 64.7282L42.0161 68.4494C42.6357 68.5503 43.2707 68.4944 43.8633 68.2871L52.9808 65.0959C54.4897 64.5678 55.5 63.1438 55.5 61.5452V23.2229C55.5 21.2403 53.9613 19.598 51.9829 19.469L27.5292 17.8742C26.9565 17.8368 26.3828 17.931 25.8521 18.1495Z" stroke="#982C13" stroke-width="1.62329"/>
<circle cx="8.45773" cy="8.45773" r="8.45773" transform="matrix(0.997785 0.066519 0 1 21.1221 34)" fill="#E44F2D"/>
<path d="M29.7215 47.2595C27.0332 47.0803 25.3418 45.2262 25.3418 42.7386C25.3418 40.2676 27.0332 38.6225 29.7215 38.8017C31.8046 38.9406 33.2467 40.0981 33.7808 41.5268L31.6621 42.5298C31.4485 41.5039 30.8788 40.8524 29.8105 40.7812C28.6889 40.7064 27.9411 41.4194 27.9411 42.9119C27.9411 44.4045 28.6889 45.2172 29.8105 45.2919C30.8966 45.3643 31.4485 44.7875 31.6621 43.7902L33.7808 45.0757C33.2467 46.4331 31.8046 47.3983 29.7215 47.2595Z" fill="white"/>
<path d="M51.7119 37.7944L54.2198 40.4999V47.543L51.7119 49.6985" stroke="#BA86FD" stroke-width="2.16438" stroke-linecap="round"/>
<ellipse cx="51.7121" cy="37.7943" rx="1.08219" ry="2.16438" fill="#BA86FD"/>
<ellipse cx="51.7121" cy="49.6986" rx="1.08219" ry="2.16438" fill="#BA86FD"/>
</svg>
