<svg width="72" height="72" viewBox="0 0 72 72" fill="none" xmlns="http://www.w3.org/2000/svg">
<path d="M31.9519 62.9148C36.8307 61.8986 37.3727 57.3259 36.8307 54.2775C36.2886 49.7047 27.7151 47.3446 25.4466 54.7855C23.2782 61.8986 29.5852 63.4077 31.9519 62.9148Z" fill="white" stroke="#982C13" stroke-width="1.5" stroke-linecap="round"/>
<path d="M55.5 53.5C58 53.5 57.8106 48.3503 57.8106 45.4333C57.8106 41.2257 51.3107 40.3505 49.5072 45.8541C47.2661 52.6936 54 53.5 55.5 53.5Z" fill="#982C13"/>
<mask id="mask0_409_2001" style="mask-type:alpha" maskUnits="userSpaceOnUse" x="24" y="9" width="40" height="39">
<path d="M24 37.8126L24 17.8734C24 17.0459 24.5097 16.304 25.2821 16.0069L42.7997 9.26938C43.2513 9.0957 43.7505 9.0916 44.2049 9.25783L62.6873 16.0197C63.4758 16.3082 64.0001 17.0584 64.0001 17.8979V35.7279C64.0001 36.5041 63.551 37.2102 62.848 37.5393L41.417 47.5708C40.8406 47.8406 40.1701 47.82 39.6114 47.5152L25.0423 39.5685C24.3998 39.2181 24 38.5445 24 37.8126Z" fill="#BA86FD"/>
</mask>
<g mask="url(#mask0_409_2001)">
<path d="M24 39C23.9999 30 24 21 24 16.5L43.5001 9L64.0001 16.5V37L40.5001 48L24 39Z" fill="#E44F2D" stroke="white" stroke-width="1.5" stroke-linecap="round"/>
<path d="M23.5 16.5L41 25.5M41 25.5V49M41 25.5L65 16.5" stroke="white" stroke-width="1.5" stroke-linecap="round"/>
</g>
<path d="M64 43V36.5L40 48V54.5L64 43Z" fill="#E44F2D"/>
<path d="M24 39C23.9999 30 24 21 24 16.5L43.5001 9L64.0001 16.5V37L40.5001 48L24 39Z" stroke="white" stroke-width="1.5" stroke-linecap="round"/>
<path d="M11.1789 32.7143L14.3997 33.2999C14.9865 33.4066 15.35 33.9999 15.1787 34.5712L14.2962 37.5127C14.1341 38.0531 13.5573 38.3524 13.0221 38.174L11.0674 37.5225C11.0225 37.5075 10.9788 37.4894 10.9364 37.4682L10.5528 37.2764C10.214 37.107 10 36.7607 10 36.382V33.6982C10 33.0743 10.565 32.6027 11.1789 32.7143Z" fill="#982C13"/>
<mask id="mask1_409_2001" style="mask-type:alpha" maskUnits="userSpaceOnUse" x="7" y="22" width="33" height="39">
<path d="M39.3571 28.7542L23.4256 22.6627C23.1553 22.5594 22.8533 22.5782 22.5979 22.7144L15.8601 26.3079C15.6293 26.4311 15.4559 26.6397 15.3771 26.8892L12.5736 35.7669C12.5253 35.92 12.4407 36.0593 12.3271 36.1729L7.29289 41.2071C7.10536 41.3946 7 41.649 7 41.9142V52.8643C7 53.2522 7.22433 53.6052 7.57557 53.7698L22.6153 60.8197C22.8611 60.9349 23.1433 60.9452 23.3969 60.8483L39.3571 54.7458C39.7443 54.5978 40 54.2262 40 53.8117V29.6883C40 29.2738 39.7443 28.9022 39.3571 28.7542Z" fill="#E44F2D"/>
</mask>
<g mask="url(#mask1_409_2001)">
<path d="M39.3571 28.7542L23.4256 22.6627C23.1553 22.5594 22.8533 22.5782 22.5979 22.7144L15.8601 26.3079C15.6293 26.4311 15.4559 26.6397 15.3771 26.8892L12.5736 35.7669C12.5253 35.92 12.4407 36.0593 12.3271 36.1729L7.29289 41.2071C7.10536 41.3946 7 41.649 7 41.9142V52.8643C7 53.2522 7.22433 53.6052 7.57557 53.7698L22.6153 60.8197C22.8611 60.9349 23.1433 60.9452 23.3969 60.8483L39.3571 54.7458C39.7443 54.5978 40 54.2262 40 53.8117V29.6883C40 29.2738 39.7443 28.9022 39.3571 28.7542Z" fill="white"/>
<path d="M11.7038 48.1849L11.7113 48.1547C11.862 47.552 12.5199 47.2311 13.0876 47.4834L15.7322 48.6588C16.1761 48.8561 16.414 49.3438 16.2962 49.8151L16.2887 49.8453C16.138 50.448 15.4801 50.7689 14.9124 50.5166L12.2678 49.3412C11.8239 49.1439 11.586 48.6562 11.7038 48.1849Z" fill="#982C13"/>
<path d="M27.0847 35.5805L16.955 30.9377C16.4353 30.6995 15.8221 30.9446 15.6099 31.4754L13.3478 37.1305C13.1521 37.6197 13.3695 38.1767 13.8448 38.404L23.5893 43.0644C24.0909 43.3043 24.6918 43.089 24.9269 42.5852L27.5742 36.9124C27.8089 36.4095 27.5892 35.8117 27.0847 35.5805Z" fill="#BA86FD"/>
<path d="M36.9303 34.7849L33.8935 36.3033C33.6427 36.4286 33.4562 36.6535 33.3792 36.923L32.0508 41.5722C31.8242 42.3654 32.6013 43.0764 33.3713 42.7803L37.4068 41.2282C37.7688 41.0889 38.0176 40.7529 38.0453 40.3661L38.375 35.7505C38.4302 34.9776 37.6233 34.4383 36.9303 34.7849Z" fill="#BA86FD"/>
<path d="M22.5 56L6.5 49V54L22.5 60.5V56Z" fill="#E44F2D"/>
<path d="M39.5 29.5L31.5 34L28.5 44.5L23 48V61" stroke="#982C13" stroke-width="1.5" stroke-linecap="round"/>
<path d="M14 26L31 34" stroke="#982C13" stroke-width="1.5" stroke-linecap="round"/>
<path d="M7.5 41.5L23 48" stroke="#982C13" stroke-width="1.5" stroke-linecap="round"/>
</g>
<path d="M39.3571 28.7542L23.4256 22.6627C23.1553 22.5594 22.8533 22.5782 22.5979 22.7144L15.8601 26.3079C15.6293 26.4311 15.4559 26.6397 15.3771 26.8892L12.5736 35.7669C12.5253 35.92 12.4407 36.0593 12.3271 36.1729L7.29289 41.2071C7.10536 41.3946 7 41.649 7 41.9142V52.8643C7 53.2522 7.22433 53.6052 7.57557 53.7698L22.6153 60.8197C22.8611 60.9349 23.1433 60.9452 23.3969 60.8483L39.3571 54.7458C39.7443 54.5978 40 54.2262 40 53.8117V29.6883C40 29.2738 39.7443 28.9022 39.3571 28.7542Z" stroke="#982C13" stroke-linecap="round"/>
<path d="M32.9999 63.0001C37.4998 62.0001 37.9998 57.5 37.4998 54.5C36.9998 49.9999 29.0921 47.6773 26.9998 55C24.9998 62 30.817 63.4852 32.9999 63.0001Z" fill="#982C13" stroke="#982C13" stroke-width="1.5" stroke-linecap="round"/>
<path d="M32.3173 58.9672C33.9436 58.5764 34.1242 56.8177 33.9436 55.6452C33.7629 53.8864 30.905 52.9787 30.1489 55.8406C29.4261 58.5764 31.5284 59.1568 32.3173 58.9672Z" fill="white"/>
<path d="M9.11085 48.2034C7.92246 47.8072 7.86442 46.9093 8.11099 46.1806C8.61085 44.7033 10.5448 44.5045 11.1109 46.2033C11.6108 47.7037 10.0002 48.5 9.11085 48.2034Z" fill="#982C13"/>
<path d="M18.1177 52.2034C16.9293 51.8072 16.8713 50.9093 17.1178 50.1806C17.6177 48.7033 19.5516 48.5045 20.1177 50.2033C20.6177 51.7037 19.0071 52.5 18.1177 52.2034Z" fill="#982C13"/>
<path d="M57.0006 53C59.9511 52.2624 61.0006 49.5 60.5006 45.4998C59.9787 41.3246 53.5006 40.4999 51.6971 46.0035C49.5682 52.5 55.0006 53.5 57.0006 53Z" fill="#982C13" stroke="#982C13" stroke-width="1.5"/>
<path d="M56.5 49.5C57.5215 49.2857 58 48 57.842 46.798C57.6854 45.6059 55.1678 45.7179 55.0148 47.3992C54.842 49.2979 55.9082 49.6242 56.5 49.5Z" fill="white"/>
</svg>
