<svg width="201" height="50" viewBox="0 0 201 50" fill="none" xmlns="http://www.w3.org/2000/svg">
<path d="M60.2654 6.15185V24.2941H55.8515V16.7242H48.9738V24.2941H44.5855V6.15185H48.9738V13.183H55.8515V6.15185H60.2654ZM75.9942 16.7498C75.9942 17.1091 75.9515 17.5025 75.8659 17.9302H65.9344C65.9857 19.0079 66.2595 19.782 66.7556 20.2525C67.2517 20.723 67.8847 20.9582 68.6546 20.9582C69.3048 20.9582 69.8437 20.7957 70.2713 20.4707C70.699 20.1456 70.9814 19.7264 71.1182 19.2132H75.7632C75.575 20.2226 75.1644 21.125 74.5314 21.9205C73.8984 22.716 73.0943 23.3404 72.119 23.7938C71.1439 24.2472 70.0575 24.4738 68.8599 24.4738C67.457 24.4738 66.2123 24.1787 65.126 23.5885C64.0396 22.9983 63.1884 22.1472 62.5725 21.0352C61.9566 19.9232 61.6486 18.623 61.6486 17.1347C61.6486 15.6293 61.9523 14.3248 62.5596 13.2214C63.167 12.118 64.0182 11.2712 65.1131 10.681C66.2081 10.0908 67.457 9.79572 68.8599 9.79572C70.2799 9.79572 71.5288 10.0865 72.6066 10.6682C73.6844 11.2498 74.5185 12.0667 75.1087 13.1189C75.699 14.1709 75.9941 15.3813 75.9941 16.7499L75.9942 16.7498ZM71.5545 16.0826C71.5717 15.1417 71.3193 14.4361 70.7975 13.9656C70.2757 13.4952 69.6299 13.26 68.8599 13.26C68.0558 13.26 67.3886 13.4995 66.8583 13.9785C66.3279 14.4575 66.0285 15.1589 65.9601 16.0826H71.5545ZM82.818 9.79572C83.9129 9.79572 84.8539 10.0438 85.6409 10.5399C86.4279 11.036 87.0096 11.7117 87.3859 12.567V9.97532H91.7486V24.2941H87.3859V21.7023C87.0096 22.5577 86.4278 23.2334 85.6409 23.7296C84.8539 24.2257 83.9129 24.4738 82.818 24.4738C81.6375 24.4738 80.581 24.1787 79.6486 23.5885C78.7162 22.9983 77.9805 22.1472 77.4416 21.0352C76.9026 19.9232 76.6332 18.623 76.6332 17.1347C76.6332 15.6293 76.9026 14.3248 77.4416 13.2214C77.9805 12.118 78.7162 11.2712 79.6486 10.681C80.5811 10.0908 81.6375 9.79572 82.818 9.79572ZM84.2294 13.6448C83.2884 13.6448 82.5314 13.9528 81.9582 14.5687C81.3851 15.1845 81.0986 16.0399 81.0986 17.1347C81.0986 18.2296 81.3851 19.085 81.9582 19.7009C82.5313 20.3168 83.2884 20.6247 84.2294 20.6247C85.1533 20.6247 85.9103 20.3082 86.5005 19.6752C87.0908 19.0422 87.3859 18.1954 87.3859 17.1347C87.3859 16.057 87.0908 15.2059 86.5005 14.5814C85.9102 13.957 85.1533 13.6448 84.2294 13.6448ZM98.2643 5.30501V24.2941H93.876V5.30501H98.2643ZM108.501 20.522V24.2941H106.525C104.849 24.2941 103.544 23.8793 102.612 23.0496C101.679 22.2199 101.213 20.8471 101.213 18.931V13.6705H99.2883V9.97532H101.213V6.45971H105.601V9.97532H108.475V13.6705H105.601V19.0079C105.601 19.5725 105.717 19.966 105.948 20.1883C106.179 20.4107 106.568 20.5219 107.115 20.5219H108.501V20.522ZM119.149 9.82135C120.791 9.82135 122.096 10.3688 123.062 11.4637C124.029 12.5586 124.512 14.0641 124.512 15.98V24.2942H120.124V16.4933C120.124 15.5353 119.872 14.7868 119.367 14.2479C118.862 13.709 118.191 13.4396 117.352 13.4396C116.463 13.4396 115.757 13.7218 115.235 14.2863C114.713 14.8509 114.452 15.655 114.452 16.6985V24.2942H110.064V5.30509H114.452V12.5928C114.863 11.7376 115.475 11.0618 116.287 10.5657C117.1 10.0695 118.054 9.82143 119.149 9.82143L119.149 9.82135Z" fill="#00A859"/>
<path d="M139.471 27.4761L137.11 24.2685C136.426 24.4053 135.767 24.4738 135.134 24.4738C133.44 24.4738 131.896 24.076 130.502 23.2805C129.107 22.485 128.004 21.3774 127.191 19.9575C126.379 18.5375 125.972 16.938 125.972 15.1588C125.972 13.3796 126.379 11.7844 127.191 10.373C128.004 8.96165 129.108 7.85822 130.502 7.06281C131.896 6.26732 133.44 5.86954 135.134 5.86954C136.845 5.86954 138.397 6.26732 139.792 7.06281C141.186 7.8583 142.285 8.96173 143.089 10.373C143.894 11.7844 144.296 13.3796 144.296 15.1588C144.296 16.7328 143.975 18.1697 143.333 19.4699C142.692 20.7701 141.806 21.8393 140.677 22.6775L144.732 27.4762H139.471V27.4761ZM130.438 15.1588C130.438 16.7498 130.861 18.0157 131.708 18.9567C132.555 19.8976 133.697 20.368 135.134 20.368C136.554 20.368 137.692 19.8976 138.547 18.9567C139.403 18.0157 139.83 16.7498 139.83 15.1588C139.83 13.5678 139.407 12.3019 138.56 11.361C137.713 10.42 136.571 9.94969 135.134 9.94969C133.697 9.94969 132.555 10.4159 131.708 11.3481C130.861 12.2805 130.438 13.5507 130.438 15.1588ZM160.101 9.97532V24.2941H155.687V21.7023C155.277 22.5406 154.665 23.2078 153.852 23.704C153.04 24.2001 152.094 24.4481 151.017 24.4481C149.374 24.4481 148.07 23.9007 147.103 22.8058C146.136 21.7109 145.653 20.2055 145.653 18.2894V9.97532H150.016V17.7506C150.016 18.7257 150.268 19.4827 150.773 20.0216C151.278 20.5605 151.958 20.8299 152.813 20.8299C153.703 20.8299 154.404 20.5476 154.917 19.9831C155.431 19.4186 155.687 18.6146 155.687 17.571V9.97532H160.101H160.101ZM168.927 9.79572C170.347 9.79572 171.617 10.0908 172.738 10.681C173.858 11.2712 174.739 12.1223 175.381 13.2343C176.022 14.3462 176.343 15.6464 176.343 17.1347C176.343 18.6231 176.022 19.9232 175.381 21.0352C174.739 22.1471 173.858 22.9983 172.738 23.5885C171.617 24.1787 170.347 24.4738 168.927 24.4738C167.507 24.4738 166.232 24.1787 165.103 23.5885C163.974 22.9983 163.088 22.1472 162.447 21.0352C161.805 19.9232 161.484 18.623 161.484 17.1347C161.484 15.6464 161.805 14.3462 162.447 13.2343C163.088 12.1223 163.974 11.2712 165.103 10.681C166.232 10.0908 167.507 9.79572 168.927 9.79572ZM168.927 13.5936C168.088 13.5936 167.383 13.8972 166.809 14.5045C166.236 15.1118 165.95 15.9886 165.95 17.1347C165.95 18.2809 166.236 19.1534 166.809 19.7521C167.383 20.3509 168.088 20.6503 168.927 20.6503C169.765 20.6503 170.466 20.3509 171.031 19.7521C171.596 19.1534 171.878 18.2809 171.878 17.1347C171.878 15.9885 171.596 15.1118 171.031 14.5045C170.466 13.8972 169.765 13.5936 168.927 13.5936ZM185.836 20.522V24.2941H183.86C182.183 24.2941 180.879 23.8793 179.946 23.0496C179.014 22.2199 178.548 20.8471 178.548 18.931V13.6705H176.623V9.97532H178.548V6.4597H182.936V9.97532H185.81V13.6705H182.936V19.0079C182.936 19.5725 183.051 19.966 183.282 20.1883C183.513 20.4107 183.903 20.5219 184.45 20.5219H185.836L185.836 20.522ZM201 16.7498C201 17.1091 200.957 17.5025 200.872 17.9302H190.94C190.992 19.0079 191.265 19.782 191.761 20.2525C192.258 20.723 192.891 20.9582 193.66 20.9582C194.311 20.9582 194.85 20.7957 195.277 20.4706C195.705 20.1456 195.987 19.7264 196.124 19.2132H200.769C200.581 20.2226 200.17 21.125 199.537 21.9205C198.904 22.716 198.1 23.3404 197.125 23.7938C196.15 24.2472 195.063 24.4738 193.866 24.4738C192.463 24.4738 191.218 24.1787 190.132 23.5885C189.045 22.9983 188.194 22.1472 187.578 21.0352C186.962 19.9232 186.654 18.623 186.654 17.1347C186.654 15.6293 186.958 14.3248 187.565 13.2214C188.173 12.118 189.024 11.2712 190.119 10.681C191.214 10.0908 192.463 9.79572 193.866 9.79572C195.286 9.79572 196.535 10.0865 197.612 10.6682C198.69 11.2498 199.524 12.0667 200.115 13.1189C200.705 14.1709 201 15.3813 201 16.7499L201 16.7498ZM196.56 16.0826C196.577 15.1417 196.325 14.4361 195.803 13.9656C195.281 13.4952 194.636 13.26 193.866 13.26C193.062 13.26 192.394 13.4995 191.864 13.9785C191.334 14.4575 191.034 15.1589 190.966 16.0826H196.56H196.56Z" fill="#00AFEF"/>
<path d="M48.574 31.6129C49.5949 31.6129 50.4377 31.8642 51.1024 32.3667C51.7672 32.8692 52.2261 33.5556 52.4794 34.426H51.3398C51.1261 33.8721 50.7819 33.4309 50.3071 33.1025C49.8323 32.7741 49.2506 32.6099 48.5622 32.6099C48.0161 32.6099 47.5275 32.7424 47.0962 33.0075C46.6649 33.2726 46.3246 33.6525 46.0753 34.147C45.8261 34.6416 45.7014 35.2212 45.7014 35.8859C45.7014 36.5427 45.8261 37.1164 46.0753 37.6069C46.3246 38.0976 46.6649 38.4754 47.0962 38.7405C47.5275 39.0056 48.0161 39.1381 48.5622 39.1381C49.2507 39.1381 49.8323 38.9739 50.3071 38.6455C50.7819 38.3171 51.1262 37.8759 51.3398 37.3221H52.4794C52.2261 38.1925 51.7672 38.879 51.1024 39.3815C50.4377 39.8839 49.5949 40.1352 48.574 40.1352C47.7906 40.1352 47.0982 39.9552 46.4967 39.5951C45.8953 39.2351 45.4264 38.7326 45.0901 38.0877C44.7537 37.4428 44.5856 36.7089 44.5856 35.8859C44.5856 35.055 44.7538 34.3152 45.0901 33.6662C45.4264 33.0174 45.8953 32.5129 46.4967 32.1528C47.0981 31.7929 47.7906 31.6128 48.574 31.6128V31.6129ZM58.8546 31.5892C59.6301 31.5892 60.3285 31.7712 60.9497 32.1352C61.5709 32.4993 62.0595 33.0076 62.4157 33.6605C62.7718 34.3133 62.9499 35.0512 62.9499 35.8741C62.9499 36.6971 62.7717 37.4349 62.4157 38.0878C62.0595 38.7407 61.5709 39.249 60.9497 39.6131C60.3285 39.977 59.6301 40.1591 58.8546 40.1591C58.0791 40.1591 57.3767 39.977 56.7476 39.6131C56.1185 39.2491 55.6258 38.7407 55.2697 38.0878C54.9136 37.4349 54.7356 36.6971 54.7356 35.8741C54.7356 35.0511 54.9136 34.3133 55.2697 33.6605C55.6258 33.0076 56.1185 32.4993 56.7476 32.1352C57.3767 31.7712 58.079 31.5892 58.8546 31.5892ZM58.8546 32.5981C58.2769 32.5981 57.7605 32.7306 57.3055 32.9957C56.8504 33.2608 56.4943 33.6407 56.2371 34.1353C55.9799 34.6298 55.8513 35.2095 55.8513 35.8741C55.8513 36.5309 55.9799 37.1085 56.2371 37.607C56.4943 38.1055 56.8504 38.4874 57.3055 38.7525C57.7605 39.0176 58.2769 39.1501 58.8546 39.1501C59.4244 39.1501 59.9368 39.0156 60.3918 38.7465C60.8468 38.4775 61.203 38.0957 61.4601 37.6011C61.7173 37.1065 61.8459 36.5308 61.8459 35.8741C61.8459 35.2094 61.7173 34.6298 61.4601 34.1353C61.203 33.6407 60.8469 33.2609 60.3918 32.9957C59.9368 32.7306 59.4244 32.5981 58.8546 32.5981ZM73.8832 31.8385V40.0641H72.803V33.5002L70.1797 40.0641H69.2182L66.583 33.524V40.0641H65.5028V31.8385H66.7966L69.7167 38.7465L72.5893 31.8385H73.8831H73.8832ZM77.7894 36.6931V40.0641H76.7092V31.6961H79.3681C80.3257 31.6961 81.0418 31.9196 81.5167 32.3668C81.9915 32.8138 82.229 33.4251 82.229 34.2005C82.229 34.9839 81.9836 35.5952 81.493 36.0344C81.0024 36.4735 80.2941 36.6931 79.3682 36.6931H77.7895H77.7894ZM79.2732 35.791C79.93 35.791 80.4028 35.6526 80.6917 35.3756C80.9805 35.0987 81.125 34.707 81.125 34.2005C81.125 33.6782 80.9805 33.2806 80.6917 33.0076C80.4028 32.7346 79.93 32.5981 79.2732 32.5981H77.7894V35.791H79.2732ZM89.4825 38.1293H85.8027L85.1023 40.0641H83.939L87.0372 31.8503H88.2599L91.3461 40.0641H90.1828L89.4825 38.1293ZM89.1738 37.2866L87.6425 33.061L86.1113 37.2866H89.1738ZM97.9706 40.0641L95.7864 36.6456H94.6113V40.0641H93.5311V31.696H96.285C97.2347 31.696 97.9469 31.9235 98.4217 32.3785C98.8965 32.8335 99.1339 33.4369 99.1339 34.1886C99.1339 34.8691 98.944 35.4171 98.5641 35.8326C98.1843 36.248 97.6343 36.5072 96.9142 36.6101L99.1932 40.0641H97.9707L97.9706 40.0641ZM94.6113 35.8622H96.19C97.4166 35.8622 98.0299 35.3242 98.0299 34.248C98.0299 33.1718 97.4166 32.6337 96.19 32.6337H94.6113V35.8622ZM102.625 31.696V40.0641H101.544V31.696H102.625ZM110.745 37.8919C110.745 38.2876 110.65 38.6555 110.46 38.9958C110.27 39.336 109.981 39.613 109.593 39.8267C109.205 40.0403 108.727 40.1471 108.157 40.1471C107.603 40.1471 107.11 40.0463 106.679 39.8445C106.248 39.6426 105.903 39.3658 105.646 39.0136C105.389 38.6614 105.241 38.2599 105.201 37.8088H106.353C106.376 38.0462 106.457 38.2777 106.596 38.5031C106.734 38.7287 106.932 38.9146 107.189 39.061C107.447 39.2074 107.757 39.2806 108.121 39.2806C108.596 39.2806 108.96 39.1539 109.213 38.9008C109.467 38.6475 109.593 38.3231 109.593 37.9275C109.593 37.5872 109.504 37.3103 109.326 37.0966C109.148 36.8829 108.928 36.7148 108.667 36.5922C108.406 36.4695 108.05 36.337 107.599 36.1946C107.069 36.0205 106.643 35.8562 106.323 35.7019C106.003 35.5476 105.729 35.3162 105.504 35.0076C105.278 34.6989 105.166 34.2915 105.166 33.785C105.166 33.3497 105.271 32.9659 105.48 32.6336C105.69 32.3013 105.991 32.0441 106.382 31.8621C106.774 31.6801 107.235 31.5891 107.765 31.5891C108.588 31.5891 109.241 31.7889 109.724 32.1885C110.207 32.5881 110.488 33.0964 110.567 33.7138H109.403C109.34 33.3813 109.17 33.0886 108.893 32.8353C108.616 32.5821 108.24 32.4556 107.765 32.4556C107.33 32.4556 106.982 32.5683 106.721 32.7938C106.46 33.0194 106.329 33.3378 106.329 33.7493C106.329 34.0737 106.414 34.3368 106.584 34.5386C106.754 34.7404 106.966 34.8987 107.219 35.0135C107.473 35.1282 107.821 35.2568 108.264 35.3992C108.802 35.5733 109.235 35.7395 109.564 35.8977C109.892 36.056 110.171 36.2954 110.401 36.6158C110.63 36.9362 110.745 37.3615 110.745 37.8918L110.745 37.8919ZM117.12 31.5892C117.895 31.5892 118.594 31.7712 119.215 32.1352C119.836 32.4993 120.325 33.0076 120.681 33.6605C121.037 34.3133 121.215 35.0512 121.215 35.8741C121.215 36.6971 121.037 37.4349 120.681 38.0878C120.325 38.7407 119.836 39.249 119.215 39.6131C118.594 39.977 117.895 40.1591 117.12 40.1591C116.344 40.1591 115.642 39.977 115.013 39.6131C114.384 39.2491 113.891 38.7407 113.535 38.0878C113.179 37.4349 113.001 36.6971 113.001 35.8741C113.001 35.0511 113.179 34.3133 113.535 33.6605C113.891 33.0076 114.384 32.4993 115.013 32.1352C115.642 31.7712 116.344 31.5892 117.12 31.5892ZM117.12 32.5981C116.542 32.5981 116.026 32.7306 115.571 32.9957C115.116 33.2608 114.76 33.6407 114.502 34.1353C114.245 34.6298 114.117 35.2095 114.117 35.8741C114.117 36.5309 114.245 37.1085 114.502 37.607C114.76 38.1055 115.116 38.4874 115.571 38.7525C116.026 39.0176 116.542 39.1501 117.12 39.1501C117.69 39.1501 118.202 39.0156 118.657 38.7465C119.112 38.4775 119.468 38.0957 119.725 37.6011C119.983 37.1065 120.111 36.5308 120.111 35.8741C120.111 35.2094 119.983 34.6298 119.725 34.1353C119.468 33.6407 119.112 33.2609 118.657 32.9957C118.202 32.7306 117.69 32.5981 117.12 32.5981ZM130.273 40.0641H129.193L124.848 33.4527V40.0641H123.768V31.6961H124.848L129.193 38.3194V31.6961H130.273V40.0641ZM138.393 37.892C138.393 38.2877 138.298 38.6556 138.108 38.9959C137.918 39.3361 137.629 39.6131 137.242 39.8268C136.854 40.0404 136.375 40.1472 135.805 40.1472C135.251 40.1472 134.759 40.0464 134.327 39.8445C133.896 39.6427 133.552 39.3658 133.295 39.0136C133.037 38.6615 132.889 38.26 132.85 37.8089H134.001C134.025 38.0463 134.106 38.2778 134.244 38.5032C134.383 38.7288 134.581 38.9147 134.838 39.0611C135.095 39.2075 135.406 39.2807 135.77 39.2807C136.244 39.2807 136.608 39.154 136.862 38.9008C137.115 38.6476 137.242 38.3232 137.242 37.9276C137.242 37.5873 137.153 37.3104 136.975 37.0967C136.796 36.883 136.577 36.7149 136.316 36.5923C136.055 36.4696 135.699 36.3371 135.247 36.1947C134.717 36.0206 134.292 35.8563 133.971 35.702C133.651 35.5477 133.378 35.3163 133.152 35.0076C132.927 34.699 132.814 34.2916 132.814 33.7851C132.814 33.3498 132.919 32.966 133.129 32.6337C133.338 32.3014 133.639 32.0442 134.031 31.8622C134.422 31.6801 134.883 31.5891 135.414 31.5891C136.237 31.5891 136.889 31.7889 137.372 32.1886C137.855 32.5882 138.136 33.0965 138.215 33.7138H137.052C136.988 33.3814 136.818 33.0887 136.541 32.8354C136.264 32.5822 135.888 32.4557 135.414 32.4557C134.978 32.4557 134.63 32.5684 134.369 32.7939C134.108 33.0195 133.977 33.3379 133.977 33.7494C133.977 34.0738 134.062 34.3369 134.233 34.5387C134.403 34.7405 134.614 34.8988 134.868 35.0136C135.121 35.1283 135.469 35.2569 135.912 35.3993C136.45 35.5734 136.884 35.7396 137.212 35.8978C137.54 36.056 137.819 36.2954 138.049 36.6159C138.278 36.9363 138.393 37.3616 138.393 37.8918L138.393 37.892Z" fill="#373435"/>
<path fill-rule="evenodd" clip-rule="evenodd" d="M17.3158 3.05176e-05C24.2868 3.05176e-05 29.938 5.65087 29.938 12.6215C29.938 19.5921 24.2868 25.2428 17.3158 25.2428C10.3446 25.2428 4.69344 19.5921 4.69344 12.6215C4.69344 5.65087 10.3446 3.05176e-05 17.3158 3.05176e-05Z" fill="#00A859"/>
<path fill-rule="evenodd" clip-rule="evenodd" d="M15.0807 4.04004H19.5508V21.203H15.0807V4.04004Z" fill="#FEFEFE"/>
<path fill-rule="evenodd" clip-rule="evenodd" d="M8.73364 14.8563V10.3866H25.8978V14.8563H8.73364Z" fill="#FEFEFE"/>
<path d="M33.2023 12.6216C33.2023 12.2269 33.5222 11.9071 33.9168 11.9071C34.3114 11.9071 34.6313 12.2269 34.6313 12.6216C34.6313 17.4027 32.693 21.7314 29.5597 24.8646C26.4262 27.9979 22.0972 29.9359 17.3158 29.9359C12.5344 29.9359 8.20529 27.9979 5.07171 24.8646C1.93821 21.7312 0 17.4027 0 12.6216C0 12.2269 0.319904 11.9071 0.714545 11.9071C1.10919 11.9071 1.42909 12.2269 1.42909 12.6216C1.42909 17.0082 3.20731 20.9796 6.08211 23.8543C8.95699 26.7288 12.9289 28.507 17.3158 28.507C21.7027 28.507 25.6744 26.7289 28.5493 23.8543C31.4241 20.9796 33.2023 17.0083 33.2023 12.6216H33.2023Z" fill="#373435"/>
<path fill-rule="evenodd" clip-rule="evenodd" d="M0.920552 11.7574H2.8399C3.34593 11.7574 3.75994 12.1714 3.75994 12.6774C3.75994 13.1834 3.34593 13.5975 2.8399 13.5975H0.920552C0.414517 13.5975 0.00050354 13.1834 0.00050354 12.6774C0.00050354 12.1714 0.414517 11.7574 0.920552 11.7574Z" fill="#373435"/>
<path fill-rule="evenodd" clip-rule="evenodd" d="M31.7914 11.7574H33.7108C34.2168 11.7574 34.6308 12.1714 34.6308 12.6774C34.6308 13.1834 34.2168 13.5975 33.7108 13.5975H31.7914C31.2854 13.5975 30.8714 13.1834 30.8714 12.6774C30.8714 12.1714 31.2854 11.7574 31.7914 11.7574Z" fill="#373435"/>
<path d="M16.6041 29.2864C16.6195 28.8935 16.9508 28.5873 17.3438 28.6027C17.7368 28.6181 18.043 28.9493 18.0276 29.3424C17.7823 35.426 19.1093 37.2802 21.0646 37.359C22.6417 37.4226 24.7233 36.4769 26.762 35.5507C28.9439 34.5595 31.0807 33.5888 32.8294 33.7368C35.2423 33.9412 36.7217 36.0191 36.1891 42.3048C36.1568 42.6978 35.8118 42.9903 35.4188 42.9579C35.0258 42.9256 34.7333 42.5807 34.7656 42.1878C35.2063 36.9869 34.2765 35.2928 32.7122 35.1602C31.3284 35.043 29.3589 35.9377 27.3479 36.8513C25.1606 37.8451 22.927 38.8597 21.0086 38.7824C18.2227 38.6702 16.3145 36.4676 16.6041 29.2865L16.6041 29.2864Z" fill="#373435"/>
<path fill-rule="evenodd" clip-rule="evenodd" d="M35.4235 40.5058C38.0455 40.5058 40.171 42.6311 40.171 45.2529C40.171 47.8747 38.0455 50 35.4235 50C32.8016 50 30.676 47.8747 30.676 45.2529C30.676 42.6311 32.8016 40.5058 35.4235 40.5058Z" fill="#00A859"/>
</svg>
