<?xml version="1.0" encoding="UTF-8"?>
<svg id="Layer_1" xmlns="http://www.w3.org/2000/svg" version="1.1" viewBox="0 0 16 16">
  <!-- Generator: Adobe Illustrator 30.1.0, SVG Export Plug-In . SVG Version: 2.1.1 Build 136)  -->
  <defs>
    <style>
      .st0 {
        fill: #0879bf;
      }
    </style>
  </defs>
  <path class="st0" d="M8,0c4.4,0,8,3.6,8,8s-3.6,8-8,8S0,12.4,0,8,3.6,0,8,0M4.5,7.5c-.3,0-.5.2-.5.5s.2.5.5.5h5.8l-2.1,2.1c-.2.2-.2.5,0,.7s.5.2.7,0l3-3c.2-.2.2-.5,0-.7,0,0,0,0,0,0l-3-3c-.2-.2-.5-.2-.7,0s-.2.5,0,.7l2.1,2.1h-5.8Z"/>
</svg>