<?xml version="1.0" encoding="UTF-8"?>
<svg id="Layer_1" xmlns="http://www.w3.org/2000/svg" xmlns:vectornator="http://vectornator.io" version="1.1" viewBox="0 0 749 528">
  <!-- Generator: Adobe Illustrator 30.1.0, SVG Export Plug-In . SVG Version: 2.1.1 Build 136)  -->
  <defs>
    <style>
      .st0 {
        fill: #42a1d6;
      }

      .st1 {
        fill: #ffae10;
      }

      .st2 {
        fill: #a6e6ff;
      }

      .st3 {
        fill: #37474f;
      }

      .st4 {
        fill: #0d0d0d;
      }

      .st5 {
        fill: #ffcd90;
      }

      .st6 {
        fill: #e0faf5;
      }

      .st7 {
        fill: #6f6f6f;
      }

      .st8 {
        fill: #fff;
      }

      .st9 {
        fill: #048c80;
      }

      .st10 {
        fill: #054343;
      }

      .st11 {
        fill: #f3858e;
      }

      .st12 {
        fill: #3093cd;
      }

      .st13 {
        fill: #027373;
      }

      .st14 {
        fill: #fdc274;
      }

      .st15 {
        fill: #f5fbff;
      }

      .st16 {
        fill: #bcaaa4;
      }

      .st17 {
        fill: #1e353e;
      }
    </style>
  </defs>
  <g id="Layer-2" vectornator:layerName="Layer 2">
    <g>
      <g>
        <path class="st15" d="M193.4,273.5h370.9v185.5H193.4v-185.5Z" vectornator:layerName="path"/>
        <path class="st2" d="M193.4,459h370.9v39H193.4v-39Z" vectornator:layerName="path"/>
        <path class="st12" d="M408.1,322.3h117.1v175.7h-117.1v-175.7Z" vectornator:layerName="path"/>
        <path class="st2" d="M232.4,322.3h136.7v107.4h-136.7v-107.4Z" vectornator:layerName="path"/>
        <path class="st0" d="M242.2,332.1h117.1v87.9h-117.1v-87.9Z" vectornator:layerName="path"/>
        <path class="st15" d="M507.4,430c-2.9,0-4.9,2-4.9,4.9v19.5c0,2.9,2,4.9,4.9,4.9s4.9-2,4.9-4.9v-19.5c0-2.9-2-4.9-4.9-4.9Z" vectornator:layerName="path"/>
        <path class="st12" d="M222.6,146.6c-10.7,0-19.5,8.8-19.5,19.5v29.3h48.8l-16.1,64.3c-2.2,4.1-3.4,8.8-3.4,13.8,0,16.2,13.1,29.3,29.3,29.3s29.3-13.1,29.3-29.3l9.8-78.1h48.8v78.1c0,16.2,13.1,29.3,29.3,29.3s29.3-13.1,29.3-29.3v-78.1h48.8l9.8,78.1c0,16.2,13.1,29.3,29.3,29.3s29.3-13.1,29.3-29.3-1.2-9.7-3.4-13.8l-16.1-64.3h48.8v-29.3c0-10.7-8.8-19.5-19.5-19.5H222.6Z"/>
        <path class="st11" d="M203.1,195.4l-29.3,78.1c0,16.6,12.7,29.3,29.3,29.3s29.3-12.7,29.3-29.3l19.5-78.1h-48.8ZM300.7,195.4l-8.9,71.1c-.5,2.2-.9,4.6-.9,7,0,16.2,13.1,29.3,29.3,29.3s29.3-13.1,29.3-29.3v-78.1h-48.8ZM408.1,195.4v78.1c0,16.2,13.1,29.3,29.3,29.3s29.3-13.1,29.3-29.3-.3-4.7-.9-7l-8.9-71.1h-48.8ZM505.7,195.4l19.5,78.1c0,16.6,12.7,29.3,29.3,29.3s29.3-12.7,29.3-29.3l-29.3-78.1h-48.8Z"/>
      </g>
      <g>
        <path class="st16" d="M501.5,375.8l-30.5-29.1-35.7,22.3-2-3.3,37-23.1c.8-.5,1.8-.4,2.3.2l31.5,30.1-2.6,2.8Z" vectornator:layerName="path"/>
        <path class="st11" d="M428.8,364.9l79.9,8.2-4.3,41.8-79.9-8.2,4.3-41.8Z" vectornator:layerName="path"/>
        <path class="st6" d="M432.2,369.1l72.3,7.4-3.5,34.2-72.3-7.4,3.5-34.2Z" vectornator:layerName="path"/>
        <path class="st3" d="M474.9,346.5c-.2,2.1-2.1,3.6-4.2,3.4-2.1-.2-3.6-2.1-3.4-4.2.2-2.1,2.1-3.6,4.2-3.4,2.1.2,3.6,2.1,3.4,4.2Z" vectornator:layerName="path"/>
        <path class="st10" d="M451.2,390c-.3,2.5-1,4.3-2.3,5.5-1.3,1.2-3.1,1.8-5.2,1.6-2.1-.2-3.5-1.1-4.7-2.6-1-1.4-1.4-3.4-1.1-5.9l.3-3.2c.3-2.5,1-4.5,2.3-5.7,1.3-1.4,3.1-1.8,5.2-1.6,2.1.2,3.5,1.1,4.7,2.6,1,1.4,1.4,3.6,1.1,6.1l-.3,3.2ZM447.9,386.4c.2-1.7.1-2.9-.4-3.9-.3-.8-1-1.3-2.2-1.4-1,0-1.7.2-2.4.9-.6.7-1,1.8-1.1,3.5l-.3,3.2c-.2,1.7-.1,2.9.4,3.7.5.8,1,1.3,2.2,1.4,1,0,1.8-.2,2.2-.9s1-1.8,1.1-3.3l.3-3.2h.2ZM478.2,392.4l-5.9-.6-.5,4.9,7.6.8-.3,3.2-11.4-1.2,2-19,11.4,1.2-.3,3.2-7.6-.8-.5,4.4,5.9.6-.3,3.2ZM456.8,391.8l-.7,6.7-3.8-.4,2-19,6.5.7c1.9.2,3.4.9,4.4,2.2,1,1.3,1.4,2.8,1.2,4.7-.2,1.9-.9,3.2-2.2,4.2-1.3,1-2.8,1.2-4.7,1.1l-2.7-.3v.2ZM457.1,388.5l2.7.3c.8,0,1.3,0,1.8-.6.4-.5.7-1.1.8-2,0-1,0-1.7-.3-2.3-.3-.6-.9-.9-1.6-.9l-2.7-.3-.6,5.9ZM494.1,402.3l-3.8-.4-4.2-12.9-1.3,12.4-3.8-.4,2-19,3.8.4,4.2,12.9,1.3-12.4,3.8.4-2,19Z" vectornator:layerName="path"/>
      </g>
    </g>
    <g>
      <path class="st14" d="M174.9,208.1s-.1-2.9-1.2-6.7c-.8-2.9-2.5-6.7-2.6-8.5-.4-4.2,2.3-7.8,2.3-7.8l14,6.5s0,2.2-.9,5.2c-.8,3.1-2.5,12.6-2.5,12.6l-9.1-1.3Z"/>
      <g>
        <path class="st9" d="M172.8,29h0c-1,0-1.8.5-1.8,1.1v156c0,.6.8,1.1,1.8,1.1h0c1,0,1.8-.5,1.8-1.1V30c0-.6-.8-1.1-1.8-1.1Z"/>
        <path class="st13" d="M169.9,184.9c0,3.4.5,6,1.6,7.9,1.9,3.4,5.6,5.1,11.1,5.1s5.8-.8,8.1-2.4c2.2-1.6,3.3-4.5,3.3-8.7v-2.9h-5.3v2.9c0,2.2-.5,3.8-1.5,4.9s-2.6,1.6-4.8,1.6-5-1-5.9-3c-.6-1.2-.9-3.5-.9-6.9v-26.6h-5.6v28Z"/>
        <path class="st13" d="M66.4,112c-.6-42.9,46.1-78.3,104.4-79.1,58.3-.8,106.1,33.3,106.8,76.2,0,0-15.9-10.9-35.4-10.6-19.4.3-31.3,11.5-31.3,11.5,0,0-19.6-10.8-39.1-10.6-19.4.3-38.7,11.6-38.7,11.6,0,0-12.2-10.9-31.7-10.7-19.5.3-35,11.6-35,11.6Z"/>
        <path class="st13" d="M170.8,32.9l1,66.6c-19.4.3-38.7,11.6-38.7,11.6,0,0-12.2-10.9-31.7-10.7-19.5.3-35,11.6-35,11.6-.6-42.9,46.1-78.3,104.4-79.1Z"/>
        <path class="st13" d="M170.8,32.9s39.2,18,40.1,77.1c0,0-19.6-10.8-39.1-10.6-19.4.3-38.7,11.6-38.7,11.6-.8-55.5,37.7-78.2,37.7-78.2Z"/>
      </g>
      <path class="st14" d="M175.6,184s-1.9,8-.8,8.8c1.9,1.4,4.1-4.6,4.1-4.6,0,0-2.4,7.1-.4,7.8,1.9.7,3.7-7,3.7-7,0,0-2,7.6-.6,8.4,2,1.2,3.3-7.4,3.3-7.4,0,0-1.2,7.2-.2,7.4,2.2.6,3.5-9.4,3.5-9.4,0,0-.2-.7-.7-.8-.5-.2-1.2,0-1.2,0,0,0-.4-1-1.1-1.3s-1.8.2-1.8.2c0,0-.7-1.2-1.5-1.4-.9-.2-1.7.6-1.7.6,0,0-1.3-1.7-2.3-1.9-1.1-.2-2,.4-2,.4Z"/>
      <path class="st14" d="M149.4,467.9l1.4,14.6-7.3,7.3-5.6-4.6-3.3-16.1,14.8-1.2Z"/>
      <path class="st14" d="M92.6,467l-1.4,16.9-10.9,3.9-4.5-1.1,2.7-22.4,14.1,2.7Z"/>
      <path class="st10" d="M138.2,277s7.2,21.8,9.1,32.7c5.3,30.2,2.7,89.1,2.7,89.1l2.7,73.7-19.4,1.3s-8.2-22-10.9-42.3c-2.7-20.3-.6-36-.6-36,0,0-3.3-12.5-5.7-25.1-2.4-12.7-3.6-26.1-3.6-26.1l-8.5,56.8-8.4,69.3-20.4-.7s-8.1-104.3-5.2-152.8c1-16.9,16.8-42,16.8-42l51.3,2.1Z"/>
      <path class="st14" d="M77.6,316c0,2.2,4.7,15.2,4.7,15.2,0,0,5,7.2,5.4,7.1,2-1.1-3.3-8.4-3.3-8.4,0,0,6.4,8.8,7.6,7.8,1.2-1-5.1-9.5-5.1-9.5,0,0,9.1,11.1,9.8,9,.7-2.2-7.6-10.9-7.6-10.9,0,0,8.6,7.8,9.6,7,2-1.6-5.7-8.6-5.7-8.6l-.7-4.5s9.1,7.9,9.7,5.6c.5-2-7.8-9.6-7.8-9.6l-7.4-4.1-2.9-4.9-8.6,3.9s2.5,3.9,2.5,5Z"/>
      <path class="st9" d="M125.2,200.7s3-7-2.7-8.9c-10.6-3.6-26.2-9.7-36.7-6-16.4,5.8-1.7,18.8-1.7,18.8,0,0-7.2,0-10.8,3-3.6,2.9-11.2,57-11.9,64.3-1,10.6,13.5,42.8,13.5,42.8l11.3-4.4-7.9-37.2,6.4-32.6s-.3,11.8-.1,21.3c.2,9.5,1.1,16.6,1.1,16.6l52.4-1.2s1.8-7.3,2.5-14.4c.7-7.1.2-13.4.2-13.4,0,0,5.7,23.2,17.8,18.9,7-2.5,17-16.9,22.2-33.1,4.6-14.5,4.5-31.2,4.5-31.2l-10.5-1-8.9,18.2-7.7,15.9s-6.7-25.5-14.1-31.7c-5-4.2-18.9-4.7-18.9-4.7Z"/>
      <path class="st14" d="M123.5,155.2c8.8,4.1,7.3,15,7.3,15,0,0,4.6,3.6,4.5,4.9-.1,1.5-3.5,1.5-3.5,1.5,0,0,1.3,11.8-2.2,14-3.5,2.2-10.2-3.6-10.2-3.6l1.3,8s1.2,4.5-1.8,4.9c-3.6.4-9.1-1.5-12-2.5-4.8-1.6-6.7-3.5-6.7-3.5l5.3-8.9-5.2-15.2,23.3-14.5Z"/>
      <path class="st4" d="M124.3,155.8c-.4,4.1-8.8,9.8-8.8,9.8,0,0,1,9.1-1.4,10.4,0,0-2.4-7.5-8-4.1-3.9,2.4,3.1,9.2,3.1,9.2l-3.8,4s-5.7-2.7-8.3-6.8c-2.6-4.1-2.1-9.1-2.1-9.1h-3.3c0,.1-3.3,6.9-10.4,6.4-7.1-.5-11.5-9-9.7-15.2,2.5-8.5,10.6-9.9,15.7-8.3,5.2,1.7,6.3,8.7,6.3,8.7l2.2.2s2.3-6.5,12-9c7.4-1.9,16.6,2.5,16.5,4Z"/>
      <path class="st17" d="M152.2,481.1s3.5,4,8,7c4.9,3.3,10.9,5.8,12.4,6.6,2.9,1.5,1,5.8,1,5.8l-38.3-1.5,1.6-17s3.7,3,6.8,3c3.1,0,8.6-3.9,8.6-3.9Z"/>
      <path class="st17" d="M91.6,481.8l3.3,7.9,5.2,6.6v4.6c0,0-26-.4-26-.4l1.8-17.8,3.1,3s2.3-2.9,4.9-4.5c2.7-1.5,7.6.5,7.6.5Z"/>
    </g>
    <g>
      <g>
        <path class="st7" d="M678.5,170.6l-11.5,21-13.4-23.5,5.6-6.7,19.3,9.2Z"/>
        <path d="M643.4,170.3s-8.9-3-8.1-9.5c.9-6.5,7.1-13.2,9.8-14.5,2.8-1.3,5.1,1.2,5.1,1.2,0,0,19-.1,26.7,6.9,7.8,7,2.4,19.8,2.4,19.8,0,0-3.6-4.5-9-6.5-5.4-2-10.8,0-10.8,0l-16.3,2.6Z"/>
        <path class="st5" d="M647.5,155.3s-3.8,3.5-4.9,8.1c-1.1,4.7.8,7.1,0,11.7-.9,4.5-3.8,6.3-3.8,6.3l3.1,1.2s-1.8,8.8,1.1,12.3c2.8,3.6,10.3,1.1,10.3,1.1l.3,4.5-3.8,12.2,11.9,20.1,18.7-29.3-8.5-6.7-4.4-15.3s3.2-6,.5-9.5c-1.4-1.9-2.1-1.2-3.5-.2-1.2.9-1.2,5.5-1.2,5.5,0,0-.6,0-1.4-2.9-.5-1.7-.7-6.1-2-7.2-3.3-3.1-4.2.3-7.3-2.7-3.1-3-5.2-9.2-5.2-9.2Z"/>
      </g>
      <path class="st10" d="M632.7,313.7l-14.5,71.4-8.9,94.6s3.8,3,8.5,4.3c4.7,1.3,9.3.8,9.3.8,0,0,13.9-35.8,19.5-58.2,5.5-22.4,3.6-34.3,3.6-34.3l13.4-41.6,7.7,37.2s.4,21.8,3.1,45.9c2.7,24.1,7.8,50.6,7.8,50.6l16.2-.3s1.4-28.5,2.3-51.6c.9-23.1.7-42.3.7-42.3l-1.5-74.7-67-2Z"/>
      <path class="st5" d="M572.1,256.5s-3.3-4.1-6.2-8.9c-2.4-4-3.6-9.4-5.5-9.6-3.1-.3,1.7,11,1.7,11,0,0-5-4.2-8.2-8.5-2.8-3.7-3.1-6.6-4.7-6.2-2.2.5,1,6.9,1,6.9l4.1,5.3-5.9-5.2s-2-7.8-4.8-6.4c-1.4.7,2.4,8.3,2.4,8.3l6.1,6.4s-5-3.2-6.9-4.6c-1.9-1.5-2.8-6.5-5.5-4.7-.5.3,3.8,7.5,3.8,7.5l6,4.7-4.9-1.6s-3.4-4.7-5.5-3.3c-.8.5,3.9,5.4,3.9,5.4l10.8,7.3,14.5,6.4,32.7,16.4,7.1-7.5-4.3-9.9-31.5-9.1Z"/>
      <path class="st13" d="M653.3,200.7s-15.9,6.3-21.9,13.2c-8.1,9.3-21.9,49.8-21.9,49.8l-8.7.7s3,3.8,3,9.5c0,5.6-3.8,9.3-3.8,9.3,0,0,15.9,7,19.2,6.3,6.5-1.4,18-36.9,18-36.9,0,0-3.1,30.4-3.1,40.3s-1.3,23.4-1.3,23.4c0,0,17.1,1,33.9.8,16.8-.2,34-.4,34-.4l-.2-22.7s14.9,1,20.3-7.2c7-10.6-8.9-66.9-12.6-72-3.7-5.1-32.6-14.7-32.6-14.7l-17.2,25.1-5-24.5Z"/>
      <path class="st4" d="M627.5,482l1,16-43.4.5s-1-5,.4-6.4c3.2-3.2,7.5-1.4,13.9-5,6.4-3.5,11.7-9.2,11.7-9.2l16.5,4Z"/>
      <path class="st4" d="M682.3,482.9l-3.3,9,.3,6.9,25.6-.3.2-5.4s-2.5-3.3-4.9-6.6c-2.3-3.3-2.7-3.9-2.7-3.9l-15.4.3Z"/>
      <g>
        <path class="st10" d="M653,200.4l-4.6,6,.2,11.8,6.5-1.9-2.3,4.1,5.5,4.6-5.3-24.6Z"/>
        <path class="st10" d="M658.6,225.1l14.7-27.3-2.3-2.5h2.5s6.2,4.7,6.2,4.7l-4.9,15.7-7.9-1.6,2.7,5.8-11,5.2Z"/>
      </g>
      <g>
        <path class="st1" d="M635.2,206.7c-12.9-2.9-23.5-7.3-31.7-11.6-5.3-2.8-11.7-2.1-16.3,1.8-7,5.9-16.4,12.6-28.4,18.2-13,6.1-25,9.1-34.3,10.6-3.7.6-6.2,4-5.8,7.7,4.2,37,11.5,82.1,55.1,117,6.4,5.1,22.6,15.3,32.8,21.6,5.2,3.2,11.8,2.5,16.2-1.8,8.6-8.4,22.2-21.9,27.3-28.3,34.9-43.5,32.1-89.1,28.2-126.2-.4-3.7-3.6-6.4-7.3-6.2-9.5.6-21.8.2-35.8-2.9Z" vectornator:layerName="path"/>
        <path class="st8" d="M650.2,247.1c.2,1.8-.3,3.6-1.5,5.1l-41.9,52.4-4.4,5.6c-2.4,3-6.7,3.4-9.6,1.1l-5.6-4.4-21.5-17.2c-3-2.4-3.5-6.8-1.1-9.8,1.2-1.5,2.9-2.4,4.7-2.6,1.8-.2,3.6.3,5.1,1.5l21.5,17.2,41.9-52.4c2.4-3,6.8-3.5,9.8-1.1,1.5,1.2,2.4,2.9,2.6,4.7Z" vectornator:layerName="path"/>
      </g>
      <path class="st14" d="M701.3,276.3s3.2,3.2,4.8,7.6c1.6,4.3,1.5,9.8,1.5,9.8,0,0-29.8,4.3-33.2,7.4-1.9,1.7-16.4,8.6-16.4,8.6,0,0-10.1,1.8-10.2,1.3-.8-2.6,9.6-4.1,9.6-4.1,0,0-12.5,1.9-12.7,0-.2-1.8,12.1-3.5,12.1-3.5,0,0-16.6,1.6-15.4-.8,1.2-2.4,15.3-2.6,15.3-2.6,0,0-13.6-.8-13.7-2.2-.3-3,11.8-2.3,11.8-2.3l4.4-3.1s-14-1.1-12.5-3.4c1.3-2.1,14.4-1.4,14.4-1.4l11,2.2,29.3-13.4Z"/>
    </g>
  </g>
</svg>