<?xml version="1.0" encoding="UTF-8"?>
<svg id="line" xmlns="http://www.w3.org/2000/svg" version="1.1" viewBox="0 0 64 64">
  <!-- Generator: Adobe Illustrator 30.1.0, SVG Export Plug-In . SVG Version: 2.1.1 Build 136)  -->
  <path d="M54.8,49.9l-12.1-18.9c-.1-.2-.4-.4-.7-.4-.3,0-.5.1-.7.4l-4.7,7.4-9.2-14.4v-4.2h6.1c.4,0,.8-.4.8-.8v-5.3c0-.4-.4-.8-.8-.8h-6.9c-.4,0-.8.4-.8.8v10.3l-16.6,25.9c-.2.2-.2.6,0,.8.1.3.4.4.7.4,0,0,44.2,0,44.2,0,.6,0,1-.7.7-1.2h0ZM26.6,25.7l3.5,5.5c-.4.1-.5.2-1.1.2-1.1,0-1.2-.4-2.5-.4-1.4,0-2.1.7-3.4.2,0,0,0,0-.1,0,0,0,3.5-5.5,3.5-5.5ZM32.6,18.1h-5.3v-3.7h5.3v3.7ZM22.1,32.6c.7.1.9.4,1.9.4,1.3,0,1.3-.4,2.5-.4.5,0,.7,0,1,.2.5.3,2.4.3,2.9,0,.2,0,.3-.1.6-.1l10.8,16.9c-7.1,0-23.2,0-30.4,0l10.8-16.9ZM43.7,49.5l-6.1-9.6,4.5-7,10.6,16.6h-9,0Z"/>
</svg>