<?xml version="1.0" encoding="UTF-8"?><svg id="Layer_1" xmlns="http://www.w3.org/2000/svg" viewBox="0 0 200 200"><path d="M152.8,113.26h-12.94l-1.51-2.33c8.26-9.44,9.64-23.59,2.48-34.62-8.64-13.3-26.5-17.09-39.8-8.44-13.3,8.64-17.09,26.5-8.44,39.8,1.36,2.09,2.95,3.95,4.74,5.59h-50.12v-58.42c0-1.71,1.39-3.11,3.11-3.11h99.38c1.71,0,3.11,1.39,3.11,3.11v58.42h0ZM152.8,125.96c0,1.57-1.17,2.87-2.69,3.07l-7.6-11.69h10.29v8.62h0ZM151.09,144.91c-1.73,1.13-4.06.63-5.19-1.1l-6.93-10.66-2.65-4.08-7.22-11.11h0c.41-.2.8-.4,1.2-.61.15-.08.3-.16.45-.24.07-.04.15-.09.22-.13.2-.11.39-.22.59-.34.28-.17.55-.34.83-.52.36-.23.71-.48,1.06-.72.1-.07.2-.15.31-.22.31-.23.62-.46.92-.71.13-.11.26-.22.4-.33.11-.09.22-.18.33-.27l2.26,3.48,7.62,11.72,2.65,4.08,4.28,6.58c1.13,1.73.63,4.06-1.1,5.19M96,105.45c-3.59-5.53-4.82-12.13-3.45-18.58,1.37-6.45,5.17-11.98,10.7-15.58,4.15-2.69,8.81-3.98,13.42-3.98,8.08,0,16.01,3.96,20.74,11.23,6.43,9.89,4.84,22.72-3.13,30.79-.29.29-.59.58-.89.85-.02.02-.04.04-.06.05-.32.29-.64.57-.97.84-.01.01-.03.02-.04.04-.32.26-.65.52-.98.76-.03.02-.05.04-.08.06-.36.26-.72.51-1.09.75-.3.2-.61.38-.93.57-.07.04-.13.08-.2.12-.03.02-.07.04-.1.06-1.14.65-2.34,1.21-3.57,1.68-.01,0-.03.01-.04.02-4.35,1.63-9.08,2-13.73,1.01-2.66-.56-5.15-1.55-7.43-2.88-3.25-1.91-6.04-4.56-8.15-7.81M131.46,129.06H50.31c-1.71,0-3.11-1.39-3.11-3.11v-8.62h55.88c2.38,1.27,4.94,2.22,7.65,2.8,2.01.43,4.02.64,6.03.64,2.88,0,5.73-.44,8.47-1.29l6.23,9.59h0ZM91.48,133.14h17.05v5.36h-17.05v-5.36h0ZM119.17,148.26h-38.34l9.18-5.68h19.97l9.18,5.68h0ZM156.88,125.96V54.85c0-3.96-3.22-7.18-7.18-7.18H50.31c-3.96,0-7.18,3.22-7.18,7.18v71.11c0,3.96,3.22,7.18,7.18,7.18h37.09v6.26l-14.82,9.16c-.78.48-1.14,1.41-.89,2.29.25.88,1.05,1.48,1.96,1.48h52.69c.91,0,1.71-.61,1.96-1.48.25-.88-.11-1.81-.89-2.29l-14.82-9.16v-6.26h21.51l8.38,12.89c1.5,2.3,4.01,3.56,6.57,3.56,1.46,0,2.94-.41,4.25-1.26,3.62-2.35,4.65-7.21,2.3-10.83l-3.18-4.9c2.61-1.08,4.45-3.65,4.45-6.64"/><path d="M105.95,121.16h-11.9c-1.13,0-2.04.91-2.04,2.04s.91,2.04,2.04,2.04h11.9c1.13,0,2.04-.91,2.04-2.04s-.91-2.04-2.04-2.04"/><path d="M86.43,79.26h-23.79v-14c0-1.13-.91-2.04-2.04-2.04s-2.04.91-2.04,2.04v16.03c0,1.13.91,2.04,2.04,2.04h25.83c1.13,0,2.04-.91,2.04-2.04s-.91-2.04-2.04-2.04"/><path d="M93.98,59.09l-3.6,4-4.39,4.88-1.98-1.59-5.39-4.33c-.44-.35-1.01-.51-1.57-.43-.56.08-1.06.39-1.38.85l-5.93,8.47-.83,1.18c-.65.92-.42,2.19.5,2.84.36.25.76.37,1.17.37.64,0,1.28-.3,1.67-.87l.96-1.37,1.26-1.8,3.29-4.7,2.28,1.83,4.9,3.94c.84.68,2.07.58,2.79-.22l9.29-10.31c.75-.84.69-2.13-.15-2.88-.84-.75-2.13-.69-2.88.15"/><path d="M83.03,90.13h-22.43c-1.13,0-2.04.91-2.04,2.04s.91,2.04,2.04,2.04h22.43c1.13,0,2.04-.91,2.04-2.04s-.91-2.04-2.04-2.04"/><path d="M83.03,100.84h-22.43c-1.13,0-2.04.91-2.04,2.04s.91,2.04,2.04,2.04h22.43c1.13,0,2.04-.91,2.04-2.04s-.91-2.04-2.04-2.04"/></svg>