<?xml version="1.0" encoding="utf-8"?>
<!-- Generator: Adobe Illustrator 21.1.0, SVG Export Plug-In . SVG Version: 6.00 Build 0)  -->
<svg version="1.1" id="Layer_1" xmlns="http://www.w3.org/2000/svg" xmlns:xlink="http://www.w3.org/1999/xlink" x="0px" y="0px"
	 viewBox="0 0 168 168" style="enable-background:new 0 0 168 168;" xml:space="preserve">
<title>103 Web Icon Set 52 expanded</title>
<path d="M68.8,125.7c0,1.8,1.5,3.3,3.3,3.3h23.8c1.8,0,3.3-1.5,3.3-3.3v-0.8c0.1-10.5,4.3-20.6,11.8-28c15-15.4,14.7-40-0.7-55
	c0,0-0.1-0.1-0.1-0.1c-7.2-7.1-17.1-11-27.3-10.7C62.2,31.6,46,48.6,46,69.6c0,10,3.8,19.7,10.8,27
	C64.4,104.4,68.7,114.8,68.8,125.7z M83,35c9.1-0.2,17.9,3.2,24.4,9.6c13.9,13.4,14.2,35.5,0.8,49.4c0,0-0.1,0.1-0.1,0.1
	c-8.2,8.2-12.8,19.3-12.9,30.8v0.1H72.8c-0.2-11.7-4.9-22.8-13.1-31.2C53.4,87.3,50,78.6,50,69.6C50,50.8,64.5,35.6,83,35z"/>
<path d="M98,134c0-1.1-0.9-2-2-2H72c-1.1,0-2,0.9-2,2s0.9,2,2,2h24C97.1,136,98,135.1,98,134z"/>
<path d="M96,140c0-1.1-0.9-2-2-2H74c-1.1,0-2,0.9-2,2s0.9,2,2,2h20C95.1,142,96,141.1,96,140z"/>
<path d="M79,144c-1.1,0-2,0.9-2,2s0.9,2,2,2h10c1.1,0,2-0.9,2-2s-0.9-2-2-2H79z"/>
<path d="M91,80.6c1.1,0,2-0.9,2-2c0-0.8,0.3-1.6,0.9-2.2c0.5-0.4,1.1-0.7,1.7-0.6c1.1,0.1,2-0.8,2.1-1.9c0,0,0,0,0,0
	c0-1.1-0.8-2-1.9-2.1c0,0,0,0,0,0c-1.7-0.1-3.4,0.5-4.6,1.7c-1.4,1.4-2.1,3.2-2.1,5.1C89,79.7,89.9,80.6,91,80.6z"/>
<path d="M98,66.3c1.1,0,2-0.9,2-2c0-1.1-0.9-2-2-2c-0.7,0-1.4-0.3-2-0.8c-0.5-0.5-0.8-1.3-0.7-2c0-1.1-0.8-2-1.9-2.1s-2,0.8-2.1,1.9
	c-0.1,1.8,0.6,3.6,1.8,4.9C94.4,65.5,96.2,66.3,98,66.3z"/>
<path d="M66,89.1c-0.2,0.7-0.3,1.5-0.3,2.2c0,4.3,3.7,8.2,8.3,8.7c0.4,0,0.9,0.1,1.4,0.1c3.5,0,6.7-1.7,8.7-4.5
	c2,2.9,5.2,4.5,8.7,4.5c0.5,0,0.9,0,1.4-0.1c4.6-0.5,8.3-4.4,8.3-8.7c0-0.7-0.1-1.5-0.3-2.2c4.2-0.5,7.4-4.2,7.3-8.5
	c0-1-0.2-1.9-0.5-2.8c3.1-1.4,5.2-4.5,5.2-7.9c0-3.4-2-6.5-5.1-7.9c0.3-0.9,0.4-1.8,0.4-2.7c0-4.2-3.1-7.9-7.3-8.4
	c0.2-0.9,0.3-1.9,0.2-2.8c-0.2-4.4-3.8-7.9-8.2-8c-4-0.3-7.8,1.6-10.1,4.9c-2.3-3.3-6.1-5.1-10.1-4.9c-4.4,0.1-8,3.6-8.2,8
	c-0.1,0.9,0,1.9,0.2,2.8c-4.2,0.6-7.3,4.2-7.3,8.4c0,0.9,0.1,1.8,0.4,2.7C56,63.4,54,66.5,54,69.9c0,3.4,2,6.5,5.2,7.9
	c-0.3,0.9-0.5,1.9-0.5,2.8C58.6,84.9,61.8,88.5,66,89.1z M93.8,44c2.5,0,4.5,1.9,4.5,4.4c0,0,0,0,0,0c0.2,1.2-0.3,2.5-1.3,3.2l0,0
	c-0.1,0-0.2,0.1-0.2,0.2c0,0-0.1,0-0.1,0.1c-0.1,0.1-0.1,0.1-0.2,0.2c0,0-0.1,0.1-0.1,0.1c0,0,0,0,0,0.1c-0.2,0.3-0.3,0.5-0.3,0.9
	c0,0,0,0.1,0,0.1c0,0,0,0.1,0,0.2c0,0.1,0,0.2,0,0.2c0,0,0,0.1,0,0.1c0,0.1,0,0.2,0.1,0.3l0,0c0,0.1,0.1,0.1,0.1,0.2
	c0,0.1,0,0.1,0.1,0.2l0,0c0,0.1,0.1,0.2,0.2,0.2c0,0,0,0.1,0.1,0.1c0,0,0.1,0.1,0.1,0.1c0.3,0.3,0.8,0.5,1.2,0.6c0,0,0.1,0,0.1,0
	c0.1,0,0.2,0,0.3,0c0,0,0.1,0,0.1,0c0.1,0,0.2,0,0.3-0.1l0,0c0.2-0.1,0.4-0.1,0.5-0.2c0.6-0.2,1.2-0.3,1.8-0.3
	c2.4,0.1,4.3,2.1,4.2,4.5c0,1-0.3,2-1,2.9c-0.7,0.9-0.5,2.1,0.4,2.8c0.3,0.3,0.7,0.4,1.2,0.4c2.5,0.2,4.3,2.4,4.1,4.9
	c-0.2,2.2-2,4-4.2,4.1c-1.1,0-2,0.9-2,2c0,0.5,0.2,0.9,0.4,1.2c0.7,0.8,1,1.9,1,2.9c0.1,2.4-1.8,4.4-4.2,4.5c-0.5,0-1,0-1.5-0.1
	c-0.1,0-0.2,0-0.4,0c-1.3-0.9-2.8-1.4-4.3-1.4c-1.1,0-2,0.9-2,2c0,1.1,0.9,2,2,2c2,0.1,3.5,1.7,3.5,3.7c0,2.5-2.4,4.4-4.7,4.7
	c-3.5,0.4-6.1-1.3-7.6-5.1V49.2C87.9,45.5,90.5,43.8,93.8,44z M58,69.9c-0.1-2.4,1.8-4.3,4.1-4.5c1.1,0,2-1,1.9-2.1
	c0-0.4-0.2-0.8-0.4-1.2c-0.6-0.8-1-1.8-1-2.9c-0.1-2.4,1.8-4.4,4.2-4.5c0.6-0.1,1.3,0,1.8,0.3c0.2,0.1,0.4,0.2,0.5,0.2l0,0
	c0.1,0,0.2,0.1,0.3,0.1c0,0,0,0,0,0c0.6,0.1,1.2-0.1,1.7-0.6c0,0,0.1-0.1,0.1-0.1c0,0,0.1-0.1,0.1-0.1c0.1-0.1,0.1-0.1,0.1-0.2l0,0
	c0-0.1,0.1-0.1,0.1-0.2c0-0.1,0.1-0.1,0.1-0.2l0,0c0-0.1,0-0.2,0.1-0.3c0,0,0-0.1,0-0.1c0-0.1,0-0.2,0-0.2c0-0.1,0-0.1,0-0.2
	c0,0,0-0.1,0-0.1c0-0.3-0.2-0.7-0.4-0.9c0,0,0,0,0,0c0,0-0.1-0.1-0.1-0.1c0-0.1-0.1-0.1-0.2-0.2c0,0-0.1,0-0.1-0.1
	c-0.1-0.1-0.1-0.1-0.2-0.2l0,0c-1-0.8-1.4-2-1.3-3.2c0-2.5,2-4.4,4.5-4.4c0,0,0,0,0,0c3.3-0.2,5.9,1.5,7.8,5.2v41.6
	c-1.5,3.7-4.1,5.4-7.6,5.1c-2.3-0.2-4.7-2.2-4.7-4.7c-0.1-2,1.5-3.6,3.5-3.7c1.1,0,2-0.9,2-2s-0.9-2-2-2c-1.6,0-3.1,0.5-4.3,1.4
	c-0.1,0-0.3,0-0.4,0c-0.5,0.1-1,0.1-1.5,0.1c-2.4-0.1-4.3-2.1-4.2-4.5c0-1.1,0.4-2.1,1-2.9c0.7-0.9,0.6-2.1-0.3-2.8
	c-0.4-0.3-0.8-0.4-1.2-0.4C59.8,74.3,57.9,72.3,58,69.9z"/>
<path d="M70.3,73.8c0,1.1,1,2,2.1,1.9c0,0,0,0,0,0c0.6,0,1.2,0.2,1.7,0.6c0.6,0.6,0.9,1.4,0.9,2.2c0,1.1,0.9,2,2,2s2-0.9,2-2
	c0-1.9-0.8-3.8-2.1-5.1c-1.2-1.2-2.9-1.8-4.6-1.7C71.1,71.7,70.3,72.7,70.3,73.8C70.3,73.8,70.3,73.8,70.3,73.8z"/>
<path d="M70,66.3c1.8,0,3.6-0.7,4.8-2c1.3-1.3,1.9-3.1,1.8-4.9c0-1.1-1-2-2.1-1.9c-1.1,0-2,1-1.9,2.1c0,0,0,0,0,0
	c0,0.7-0.2,1.5-0.7,2c-0.5,0.5-1.2,0.8-2,0.8c-1.1,0-2,0.9-2,2C68,65.4,68.9,66.3,70,66.3L70,66.3z"/>
<path d="M84,28c1.1,0,2-0.9,2-2v-4c0-1.1-0.9-2-2-2s-2,0.9-2,2v4C82,27.1,82.9,28,84,28z"/>
<path d="M113.5,39.8c0.5,0,1-0.2,1.4-0.6l2.8-2.8c0.8-0.8,0.8-2,0-2.8c-0.8-0.8-2-0.8-2.8,0c0,0,0,0,0,0l-2.8,2.8
	c-0.8,0.8-0.8,2,0,2.8C112.5,39.6,113,39.8,113.5,39.8z"/>
<path d="M126,69h4c1.1,0,2-0.9,2-2s-0.9-2-2-2h-4c-1.1,0-2,0.9-2,2S124.9,69,126,69z"/>
<path d="M114.8,97.1c-0.8,0.8-0.8,2,0,2.8c0,0,0,0,0,0l2.8,2.8c0.8,0.8,2,0.8,2.8,0c0.8-0.8,0.8-2,0-2.8l-2.8-2.8
	C116.8,96.3,115.6,96.3,114.8,97.1C114.8,97.1,114.8,97.1,114.8,97.1z"/>
<path d="M52.1,97.8l-2.8,2.8c-0.8,0.8-0.8,2,0,2.8s2,0.8,2.8,0c0,0,0,0,0,0l2.8-2.8c0.8-0.8,0.8-2,0-2.8C54.1,97,52.9,97,52.1,97.8
	L52.1,97.8z"/>
<path d="M38,70h4c1.1,0,2-0.9,2-2s-0.9-2-2-2h-4c-1.1,0-2,0.9-2,2S36.9,70,38,70z"/>
<path d="M52.4,39.9c0.8,0.8,2,0.8,2.8,0c0.8-0.8,0.8-2,0-2.8l-2.8-2.8c-0.8-0.8-2-0.8-2.8,0c-0.8,0.8-0.8,2,0,2.8L52.4,39.9z"/>
</svg>
