<?xml version="1.0" encoding="UTF-8"?><svg id="Layer_1" xmlns="http://www.w3.org/2000/svg" viewBox="0 0 131.22 131.22"><defs><style>.cls-1{stroke:#070200;}.cls-1,.cls-2,.cls-3,.cls-4,.cls-5,.cls-6,.cls-7,.cls-8,.cls-9{stroke-linecap:round;stroke-linejoin:round;}.cls-1,.cls-2,.cls-3,.cls-4,.cls-5,.cls-7,.cls-8,.cls-9{fill:none;}.cls-1,.cls-4,.cls-5,.cls-7,.cls-8{stroke-width:.29px;}.cls-10{fill:#161717;}.cls-2{stroke-width:1.61px;}.cls-2,.cls-3{stroke:#383a3a;}.cls-11{fill:#a6e8fb;}.cls-12{fill:#010102;}.cls-13{fill:#e5e5e5;}.cls-3,.cls-6{stroke-width:2.05px;}.cls-14{fill:#060606;}.cls-15{fill:#393b3b;}.cls-4{stroke:#0e0e0d;}.cls-5{stroke:#010101;}.cls-6{fill:#fff8f8;stroke:#393a3a;}.cls-16{fill:#fefefe;}.cls-7{stroke:#0a0a0a;}.cls-17{fill:#373a3b;}.cls-8{stroke:#0d0e0e;}.cls-18{fill:#131414;}.cls-19{fill:#383a3a;}.cls-20{fill:#8cbde5;}.cls-9{stroke:#373839;stroke-width:1.91px;}</style></defs><g id="Generative_Object"><path class="cls-11" d="M106.4,73.53c-.05.38-.14.72.03,1.23l-2.83.08h-13.82s-.02,10.04-.02,10.04l-.04,9.37h16.2s.03,1.35.03,1.35l-17.23.05c-.13-.25-.08-.52-.08-.78l-.15-20.55c0-.32,0-.62,0-.93l2.89.19,15.03-.04Z"/><path class="cls-17" d="M72.32,90.35c-1.58-.18-3.04-1.13-3.15-2.9.5-.25,1.38-.28,1.83-.05.41.86,1.18,1.17,2.15,1.05.81-.1,1.39-.74,1.48-1.6s-.24-1.85-1.26-2.08c-.87-.19-1.78.18-2.38.78-.48.03-.88.04-1.5-.06.01-2.5.08-4.24.24-6.62l6.47-.02c.11.63.13,1.27-.02,1.85l-4.63.09c-.09,1.14-.22,1.99-.17,3.05,1.17-.83,2.44-.94,3.56-.34s1.64,1.82,1.61,3.13c-.05,2.34-1.85,3.97-4.21,3.71Z"/><path class="cls-15" d="M54.51,88.48c1.02-.02,1.55-.7,1.61-1.47.07-.95-.57-1.53-1.54-1.73-.46-.1-.9-.01-1.38-.07-.12-.58-.07-1.09.03-1.67.88-.2,1.82.07,2.27-.89.24-.51.36-1.06-.09-1.54-.42-.45-1.05-.53-1.75-.37-.44.1-.92.53-1.2,1.14-.55.1-1.14.06-1.69-.08-.22-.71.14-1.36.63-1.88,1.04-1.11,2.58-1.36,4.08-.99,1.22.3,2.09,1.26,2.23,2.38.16,1.23-.38,2.38-1.56,2.99.87.29,1.47.77,1.81,1.63.4,1.04.2,2.21-.47,3.12-.58.79-1.64,1.24-2.74,1.31-3.58.23-4.85-2.98-4.04-3.23.52-.16,1.09,0,1.71-.04.3.92,1.07,1.42,2.09,1.4Z"/><path class="cls-19" d="M45.96,90.25l-3.77-.11c-.23-.33-.44-1.13-.11-1.56,1.46-1.87,4.57-4.63,5.03-5.99.33-.99-.36-1.79-1.25-1.92-.98-.15-1.65.51-1.87,1.53-.65.08-1.31.08-1.99-.02-.02-1.67,1.13-2.86,2.6-3.25,2.04-.55,4.42.49,4.64,2.74.14,1.44-.8,2.65-1.72,3.62l-2.99,3.15,5.01.05c.1.56.05,1.1.02,1.65l-2.74.11c-.28.01-.49.03-.85.02Z"/><path class="cls-17" d="M37.18,89.2l-.02-8.11-2.13,1.59c-.46-.38-.92-.84-1.04-1.44,2.23-1.5,2.76-2.78,5.23-2.3v11.2c-.76.07-1.31.06-2.1-.01.21-.39.06-.58.06-.92Z"/><path class="cls-20" d="M105.96,95.61l-.03-1.34h-16.2s.04-9.38.04-9.38l.02-10.04h13.82s2.83-.08,2.83-.08c-.17-.51-.08-.85-.03-1.23,1.57.55,3.4,1.93,3.4,3.81l.06,11.57c0,.85-.08,1.68.02,2.5.17,1.37-1.8,4.03-3.92,4.2Z"/><path class="cls-16" d="M97.68,87.57l1.55-1.95-5.14-.07c-.59,0-.93-.51-.96-.89-.06-.66.32-1.06.98-1.08l5.15-.1c-.68-.63-1.57-1.28-1.63-2.11-.03-.5.39-.84.64-.94.33-.14.78.05,1.09.34l3.8,3.76c-.06.28-.14.64-.31.8l-3.61,3.4c-.31.29-.83.11-1.1-.1-.22-.17-.81-.61-.46-1.05Z"/><path class="cls-19" d="M66.41,90.1c-.64.08-1.28.1-1.94.03l-.04-2.03-5.43-.04c-.28-.5-.1-1.03.06-1.61l4.95-7.38c.6-.45,1.7-.18,2.36-.16l.03,7.33c.43.16.84.02,1.25.25.07.5.08,1.02,0,1.52l-1.21.11c-.12.66-.04,1.24-.05,1.98Z"/><path class="cls-13" d="M64.35,81.68c.16.88.36,4.02,0,4.6l-3.09-.07,3.09-4.53Z"/><path class="cls-3" d="M61.66,21.18c8.45-1.66,16.29,4.01,17.22,12.6.64,5.88-2.21,10.68-5.53,15.39l-8.71,12.38-8.72-12.23c-1.4-1.96-2.61-3.91-3.71-6.03-1.37-2.76-2.09-5.6-1.93-8.68.33-6.54,4.85-12.14,11.39-13.43Z"/><line class="cls-5" x1="118.58" y1="56.12" x2="118.58" y2="98.1"/><line class="cls-8" x1="116.82" y1="56.86" x2="116.82" y2="64.64"/><line class="cls-1" x1="108.89" y1="77.26" x2="108.89" y2="91.94"/><path class="cls-18" d="M87.61,74.91c0,.97-.02,3.43-.02,4.36,0,.38,0,.94.01,1.3-.04.16-.27.26-.31.17,0,0,0-.25,0-.26,0,0,.02-5.58.02-5.58.07-.18.17-.39.3-.57,0,.12,0,.43,0,.57h0Z"/><line class="cls-4" x1="73.67" y1="50.99" x2="113.59" y2="50.99"/><path class="cls-6" d="M70.49,36.03c-.26,1.97-1.38,3.53-3.21,4.48-1.43.74-3.37.82-5.16.13-2.58-.99-3.86-3.63-3.47-6.32.53-3.63,3.71-5.62,7.01-5.03s5.27,3.4,4.83,6.73Z"/><path class="cls-12" d="M22.95,94.3c.79.43,2.18.22,3.06.27,0,0,3.17,0,3.17,0h6.33c.19,0,.19.31,0,.3-2.93,0-8.2-.01-11.08-.02-.51.03-1.12-.04-1.6-.29-.55-.24-.52-.41.13-.26h0Z"/><path class="cls-9" d="M19.88,92.3c.19-.54.19-1.12.19-1.76l-.1-12.36c-.02-2.02.69-4.68,3.36-4.68l65.15-.11,2.89.19,15.03-.04c1.57.55,3.4,1.93,3.4,3.81l.06,11.57c0,.85-.08,1.68.02,2.5.17,1.37-1.8,4.03-3.92,4.2l-17.23.05-2.43.1-62.71-.02c-1.15,0-2.28-1.1-2.86-1.8-.47-.57-.45-1.19-.85-1.63Z"/><polyline class="cls-9" points="88.49 74.18 88.49 74.32 88.64 94.87"/><path class="cls-14" d="M19.22,75.91c.03.45-.23.61-.17,1.04,0,.65.03,2.44.03,3.11.03,2.65.11,9.73.14,12.46,0,.18-.29.2-.29,0-.05-4.34-.13-11.3-.17-15.57-.03-.53.28-1.28.51-1.73.12.24.04.47-.05.69h0Z"/><line class="cls-4" x1="15.55" y1="50.99" x2="55.47" y2="50.99"/><path class="cls-10" d="M116.67,97.51c.04.13-.22-31.2.13-30.38.01-.11-104.92.25-104.17-.15,0,5.33-.01,18.86-.02,24.01,0,1.83,0,5.2,0,7-.01.53.28.79.1,1.41-.07-.14-.17-.33-.24-.47.05-.17-.21-.59-.15-.94v-1c0-1.25,0-4.7,0-6,0-5.09.01-18.75.02-24.01-.05-.47,104.32.03,104.46-.15.08,0,.15.07.15.15l.02,30.52c0,.19-.3.19-.29,0h0Z"/><line class="cls-7" x1="12.47" y1="57.15" x2="12.47" y2="64.64"/><path class="cls-2" d="M56.49,51.79c-.17.09-.46-.09-.68.22l-7.31.1h-5.45s-14.22-.02-14.22-.02l-5.14.02h-7.05c-.86,0-1.53-.23-2.43.42-1.03.75-2.76,2.25-2.76,3.91l.06,41.84c0,2.94,3.27,4.76,5.85,4.76l20.4-.02h6.64s19.04,0,19.04,0l7.96-.03,33.12.06,6.05-.03c3.15-.02,5.87-1.4,7.1-4.52v-42.38c-.72-2.29-2.43-4.07-4.73-4.07h-4.74s-11,0-11,0h-8.94s-6.76.03-6.76.03l-8.2-.11c-.23-.08-.5-.23-.68-.18"/><line class="cls-2" x1="12.17" y1="65.96" x2="116.97" y2="65.96"/></g></svg>